<svg width="593" height="566" viewBox="0 0 593 566" fill="none" xmlns="http://www.w3.org/2000/svg">
<path d="M494.058 393.069C500.888 393.069 508.091 391.422 513.691 388.172L542.943 371.394C548.521 368.166 551.727 363.84 551.727 359.491C551.727 355.824 549.465 352.508 545.381 350.158L423.521 279.818C414.605 274.657 398.991 275.294 388.735 281.224L359.483 298.002C353.905 301.23 350.699 305.556 350.699 309.904C350.699 313.572 352.961 316.888 357.046 319.238L478.906 389.578C482.946 391.927 488.371 393.069 494.058 393.069ZM408.324 278.281C413.638 278.281 418.711 279.357 422.511 281.531L544.348 351.871C547.796 353.87 549.707 356.571 549.707 359.491C549.707 363.115 546.874 366.804 541.933 369.659L512.703 386.437C502.996 392.037 488.261 392.674 479.894 387.843L358.034 317.503C354.586 315.504 352.676 312.803 352.676 309.882C352.676 306.259 355.509 302.569 360.45 299.715L389.701 282.937C395.038 279.862 401.868 278.281 408.324 278.281Z" fill="url(#paint0_linear_67_50)"/>
<path d="M550.695 136.548H490.259L422.994 97.6993C414.319 92.6923 399.188 93.3291 389.196 99.1048L412.101 85.7747H351.709V260.626H351.731C351.49 264.007 353.378 267.28 357.529 269.673L479.389 340.013C488.063 345.02 503.194 344.383 513.186 338.608L542.438 321.83C547.642 318.821 550.41 315.022 550.673 311.377H550.717V136.548H550.695Z" fill="url(#paint1_linear_67_50)"/>
<path d="M548.938 136.546V313.329H548.894C548.762 315.086 548.06 316.887 546.808 318.6C549.18 316.316 550.475 313.834 550.651 311.397H550.695V136.546H548.938Z" fill="#6EE8FC"/>
<path d="M479.389 165.183L357.529 94.8432C348.854 89.8362 349.953 81.0958 359.967 75.3202L389.218 58.5422C399.232 52.7666 414.363 52.1297 423.016 57.1367L544.875 127.477C553.55 132.484 552.452 141.224 542.46 147L513.208 163.778C503.172 169.575 488.041 170.19 479.389 165.183Z" fill="url(#paint2_linear_67_50)"/>
<path d="M481.782 165.184L359.923 94.8435C351.248 89.8365 352.346 81.0961 362.36 75.3205L391.612 58.5425C396.751 55.5778 403.229 53.9747 409.488 53.799C402.504 53.6013 394.994 55.2045 389.196 58.5425L359.945 75.3205C349.931 81.0961 348.854 89.8365 357.529 94.8435L479.389 165.184C483.605 167.621 489.359 168.719 495.31 168.522C490.237 168.39 485.428 167.292 481.782 165.184Z" fill="#F88B93"/>
<path d="M544.854 127.478L422.994 57.1377C418.756 54.7001 412.958 53.602 406.985 53.7997C412.058 53.9534 416.845 55.0515 420.469 57.1377L542.328 127.478C551.003 132.485 549.905 141.225 539.891 147.001L510.639 163.779C505.522 166.721 499.088 168.325 492.851 168.522C499.835 168.72 507.367 167.117 513.165 163.779L542.416 147.001C552.43 141.225 553.528 132.485 544.854 127.478Z" fill="#6EE8FC"/>
<path d="M483.385 144.913L392.666 92.5365C386.21 88.8032 387.022 82.3029 394.467 77.9986L393.808 78.4597C401.253 74.1554 412.518 73.6943 418.975 77.4276L509.694 129.804C516.151 133.537 515.338 140.037 507.894 144.342L508.552 143.881C501.108 148.163 489.842 148.624 483.385 144.913Z" fill="url(#paint3_linear_67_50)"/>
<path d="M486.614 128.621L420.886 90.6727C416.208 87.9715 416.801 83.272 422.203 80.1536L397.563 94.4719C402.966 91.3535 411.113 91.0241 415.791 93.7252L481.519 131.673C486.197 134.374 485.604 139.074 480.201 142.192L504.841 127.874C499.439 130.971 491.291 131.322 486.614 128.621Z" fill="#6DE0F6"/>
<path d="M422.159 85.2701L397.541 99.5885C402.944 96.4701 411.113 96.1407 415.791 98.8418L481.541 136.79C482.573 137.383 483.32 138.108 483.847 138.854C485.428 136.285 484.747 133.496 481.541 131.651L415.791 93.6811C411.113 90.9799 402.944 91.3313 397.541 94.4277L422.159 80.1094C417.965 82.525 416.713 85.907 418.558 88.5642C419.282 87.4223 420.446 86.2584 422.159 85.2701Z" fill="#267FE5"/>
<path d="M422.159 91.4622L397.541 105.781C402.943 102.662 411.113 102.333 415.79 105.034L481.541 142.982C482.353 143.465 482.968 144.014 483.473 144.585C485.56 141.862 484.989 138.765 481.541 136.789L415.79 98.819C411.113 96.1179 402.943 96.4692 397.541 99.5657L422.159 85.2473C417.701 87.8167 416.581 91.4622 418.931 94.1633C419.677 93.219 420.754 92.2967 422.159 91.4622Z" fill="#25BFEC"/>
<path d="M419.568 101.059C420.248 100.334 421.083 99.6535 422.159 99.0166L397.541 113.335C402.943 110.217 411.113 109.887 415.79 112.588L481.541 150.536C482.046 150.822 482.441 151.151 482.836 151.481C485.603 148.582 485.296 145.156 481.541 142.982L415.79 105.012C411.113 102.311 402.943 102.662 397.541 105.759L422.159 91.4402C417.35 94.2512 416.383 98.3139 419.568 101.059Z" fill="#18D0F7"/>
<path d="M550.695 107.515H490.259L422.994 68.6666C414.319 63.6596 399.188 64.2964 389.196 70.0721L412.101 56.7419H351.709V69.2156H351.731C351.49 72.5976 353.378 75.8697 357.529 78.2634L479.389 148.603C488.063 153.61 503.194 152.974 513.186 147.198L542.438 130.42C547.642 127.411 550.41 123.612 550.673 119.967H550.717V107.515H550.695Z" fill="url(#paint4_linear_67_50)"/>
<path d="M548.938 107.513V121.92H548.894C548.762 123.677 548.06 125.477 546.808 127.19C549.18 124.906 550.475 122.425 550.651 119.987H550.695V107.513H548.938Z" fill="#6EE8FC"/>
<path d="M479.389 136.174L357.529 65.8337C348.854 60.8267 349.953 52.0863 359.967 46.3107L389.218 29.5327C399.232 23.757 414.363 23.1202 423.016 28.1272L544.875 98.4673C553.55 103.474 552.452 112.215 542.46 117.99L513.208 134.768C503.172 140.544 488.041 141.159 479.389 136.174Z" fill="url(#paint5_linear_67_50)"/>
<path d="M481.782 136.174L359.923 65.8345C351.248 60.8274 352.346 52.0871 362.36 46.3114L391.612 29.5335C396.751 26.5688 403.229 24.9656 409.488 24.79C402.504 24.5923 394.994 26.1955 389.196 29.5335L359.945 46.3114C349.931 52.0871 348.854 60.8274 357.529 65.8345L479.389 136.174C483.605 138.612 489.359 139.71 495.31 139.513C490.237 139.359 485.428 138.261 481.782 136.174Z" fill="#F88B93"/>
<path d="M544.854 98.4658L422.994 28.1258C418.756 25.6881 412.958 24.5901 406.985 24.7877C412.058 24.9415 416.845 26.0395 420.469 28.1258L542.328 98.4658C551.003 103.473 549.905 112.213 539.891 117.989L510.639 134.767C505.522 137.71 499.088 139.313 492.851 139.51C499.835 139.708 507.367 138.105 513.165 134.767L542.416 117.989C552.43 112.191 553.528 103.451 544.854 98.4658Z" fill="#6EE8FC"/>
<path d="M483.385 115.881L392.666 63.5047C386.21 59.7714 387.022 53.271 394.467 48.9667L393.808 49.4279C401.253 45.1236 412.518 44.6624 418.975 48.3738L509.694 100.75C516.151 104.483 515.338 110.984 507.894 115.288L508.552 114.827C501.108 119.131 489.842 119.592 483.385 115.881Z" fill="url(#paint6_linear_67_50)"/>
<path d="M486.614 99.5878L420.885 61.6398C416.208 58.9386 416.801 54.239 422.203 51.1206L397.563 65.439C402.966 62.3206 411.113 61.9911 415.791 64.6923L481.519 102.64C486.196 105.341 485.604 110.041 480.201 113.16L504.841 98.8411C499.439 101.96 491.291 102.289 486.614 99.5878Z" fill="#6DE0F6"/>
<path d="M422.159 56.2591L397.541 70.5775C402.944 67.4591 411.113 67.1297 415.791 69.8309L481.541 107.757C482.573 108.35 483.32 109.075 483.847 109.821C485.428 107.252 484.747 104.463 481.541 102.618L415.791 64.6481C411.113 61.947 402.944 62.2983 397.541 65.3948L422.159 51.0764C417.965 53.4921 416.713 56.874 418.558 59.5313C419.282 58.3893 420.446 57.2254 422.159 56.2591Z" fill="#267FE5"/>
<path d="M422.159 62.451L397.541 76.7693C402.944 73.6509 411.113 73.3215 415.791 76.0227L481.541 113.949C482.353 114.432 482.968 114.981 483.473 115.552C485.56 112.829 484.989 109.732 481.541 107.756L415.791 69.7858C411.113 67.0847 402.944 67.436 397.541 70.5325L422.159 56.2141C417.701 58.7835 416.581 62.429 418.931 65.1302C419.678 64.1859 420.754 63.2635 422.159 62.451Z" fill="#25BFEC"/>
<path d="M419.568 72.026C420.248 71.3013 421.083 70.6205 422.159 69.9837L397.541 84.302C402.943 81.1836 411.113 80.8542 415.79 83.5554L481.541 121.503C482.046 121.789 482.441 122.118 482.836 122.448C485.603 119.549 485.296 116.123 481.541 113.949L415.79 75.9789C411.113 73.2777 402.943 73.6291 397.541 76.7256L422.159 62.4072C417.35 65.2182 416.383 69.2809 419.568 72.026Z" fill="#18D0F7"/>
<path d="M550.695 82.7848H490.259L422.994 43.9364C414.319 38.9293 399.188 39.5662 389.196 45.3418L412.101 32.0117H351.709V44.4854H351.731C351.49 47.8673 353.378 51.1395 357.529 53.5332L479.389 123.873C488.063 128.88 503.194 128.243 513.186 122.468L542.438 105.69C547.642 102.681 550.41 98.882 550.673 95.2365H550.717V82.7848H550.695Z" fill="url(#paint7_linear_67_50)"/>
<path d="M548.938 82.7866V97.1928H548.894C548.762 98.9497 548.06 100.75 546.808 102.463C549.18 100.179 550.475 97.6979 550.651 95.2603H550.695V82.7866H548.938Z" fill="#6EE8FC"/>
<path d="M479.389 111.423L357.529 41.0834C348.855 36.0764 349.953 27.3361 359.967 21.5604L389.218 4.78247C399.232 -0.993185 414.363 -1.63006 423.016 3.37697L544.875 73.717C553.55 78.724 552.452 87.4644 542.46 93.24L513.208 110.018C503.172 115.816 488.041 116.431 479.389 111.423Z" fill="url(#paint8_linear_67_50)"/>
<path d="M484.637 99.367L377.645 37.5697C372.462 34.583 373.099 29.3344 379.094 25.8866L396.597 15.8286C402.592 12.3808 411.64 11.9855 416.845 14.9941L523.837 76.7915C529.02 79.7781 528.383 85.0267 522.388 88.4745L504.885 98.5325C498.89 101.98 489.82 102.354 484.637 99.367Z" fill="#6EE8FC"/>
<path d="M379.094 27.7531L396.597 17.6951C402.592 14.2473 411.64 13.852 416.845 16.8606L523.837 78.6579C525.791 79.7779 526.911 81.2274 527.241 82.7646C527.658 80.5466 526.56 78.3505 523.837 76.7913L416.845 14.9939C411.662 12.0073 402.592 12.3806 396.597 15.8285L379.094 25.8864C375.361 28.0386 373.692 30.8935 374.241 33.4629C374.636 31.4425 376.261 29.4002 379.094 27.7531Z" fill="#267FE5"/>
<path d="M481.782 111.424L359.923 41.0845C351.248 36.0774 352.346 27.3371 362.36 21.5614L391.612 4.78348C396.751 1.81878 403.229 0.215648 409.488 0.0399621C402.504 -0.157684 394.994 1.44545 389.196 4.78348L359.945 21.5614C349.931 27.3371 348.854 36.0774 357.529 41.0845L479.389 111.424C483.605 113.862 489.359 114.96 495.31 114.763C490.237 114.631 485.428 113.533 481.782 111.424Z" fill="#F88B93"/>
<path d="M544.854 73.7385L422.994 3.39845C418.756 0.960815 412.958 -0.137212 406.985 0.0604345C412.058 0.214159 416.845 1.31219 420.469 3.39845L542.328 73.7385C551.003 78.7455 549.905 87.4859 539.891 93.2615L510.639 110.039C505.522 112.982 499.088 114.585 492.851 114.783C499.835 114.981 507.367 113.378 513.165 110.039L542.416 93.2615C552.43 87.4639 553.528 78.7236 544.854 73.7385Z" fill="#6EE8FC"/>
<path d="M470.451 313.681L371.474 256.539C368.817 255.002 366.643 250.873 366.643 247.315V125.785C366.643 122.227 368.795 120.602 371.474 122.14L470.451 179.281C473.108 180.818 475.282 184.947 475.282 188.505V310.035C475.282 313.593 473.13 315.218 470.451 313.681Z" fill="#6DE0F6"/>
<path d="M472.23 312.934L373.253 255.792C370.596 254.255 368.422 250.127 368.422 246.569V125.039C368.422 123.457 368.861 122.272 369.586 121.569C367.851 121.547 366.643 123.128 366.643 125.785V247.316C366.643 250.873 368.795 255.002 371.474 256.539L470.451 313.681C471.922 314.537 473.218 314.384 474.118 313.505C473.547 313.505 472.911 313.329 472.23 312.934Z" fill="#267FE5"/>
<path d="M203.782 565.287C205.869 565.287 208.043 564.781 209.778 563.771L472.647 412.001C474.47 410.947 475.524 409.476 475.524 407.96C475.524 406.643 474.755 405.479 473.35 404.666L316.485 314.1C313.674 312.475 308.974 312.651 305.768 314.496L42.8985 466.266C41.0758 467.32 40.0217 468.791 40.0217 470.307C40.0217 471.624 40.7903 472.788 42.1958 473.601L199.061 564.167C200.357 564.913 202.026 565.287 203.782 565.287ZM471.637 410.288L208.767 562.058C206.22 563.53 202.223 563.705 200.049 562.454L43.184 471.888C42.635 471.58 41.9981 471.053 41.9981 470.307C41.9981 469.538 42.7009 468.682 43.8868 468.001L306.756 316.231C309.303 314.759 313.3 314.583 315.474 315.835L472.339 406.401C472.888 406.708 473.525 407.236 473.525 407.982C473.525 408.729 472.823 409.607 471.637 410.288Z" fill="url(#paint9_linear_67_50)"/>
<path d="M306.734 259.207L273.507 62.0658L276.186 60.9458L272.168 58.6399V58.6618C271.399 58.1348 270.279 58.1787 269.071 58.8815L3.50084 212.211C1.32674 213.463 -0.320329 216.691 0.0530028 218.953L33.543 417.653C33.7187 418.685 34.2239 419.366 34.9486 419.673L38.8795 421.935L39.5602 418.268L39.3407 418.334L303.308 265.927C305.46 264.697 307.107 261.469 306.734 259.207Z" fill="url(#paint10_linear_67_50)"/>
<path d="M4.99398 217.592L0.623828 215.659C0.140693 216.779 -0.100895 217.943 0.0528293 218.953L33.5429 417.653C33.7185 418.686 34.2237 419.366 34.9484 419.674L38.8793 421.936L39.5601 418.268L39.3405 418.334L52.6926 410.626L4.99398 217.592Z" fill="#3A9BD5"/>
<path d="M307.459 268.342L41.888 421.671C39.8457 422.857 38.0889 422.176 37.7156 420.046L4.22556 221.346C3.85223 219.084 5.49916 215.856 7.67327 214.604L273.244 61.2745C275.286 60.0886 277.043 60.7694 277.416 62.8996L310.906 261.6C311.28 263.84 309.633 267.068 307.459 268.342Z" fill="url(#paint11_linear_67_50)"/>
<path d="M307.459 268.342L41.888 421.671C39.8457 422.857 38.0889 422.176 37.7156 420.046L4.22556 221.346C3.85223 219.084 5.49916 215.856 7.67327 214.604L273.244 61.2745C275.286 60.0886 277.043 60.7694 277.416 62.8996L310.906 261.6C311.28 263.84 309.633 267.068 307.459 268.342Z" fill="url(#paint12_linear_67_50)"/>
<path d="M272.782 72.1902L10.4621 223.653L42.2173 410.802L304.362 259.449L272.782 72.1902Z" fill="url(#paint13_linear_67_50)"/>
<path d="M474.382 362.421L459.888 369.997L314.574 286.086C312.136 284.68 307.898 284.856 305.087 286.481L54.4497 431.18C52.056 429.84 41.1197 424.57 41.1197 424.57L46.4341 438.383L46.4561 438.361C46.6757 438.976 47.1369 439.547 47.9494 440.008L201.015 528.378C203.453 529.783 207.691 529.607 210.502 527.982L466.937 379.924C468.079 379.265 468.804 378.452 469.089 377.64L469.111 377.662L474.382 362.421Z" fill="url(#paint14_linear_67_50)"/>
<path d="M472.142 364.791L209.273 516.562C206.396 518.231 202.048 518.406 199.545 516.957L42.6795 426.391C40.1979 424.942 40.5054 422.438 43.3822 420.769L306.252 268.999C309.128 267.33 313.477 267.154 315.98 268.604L472.845 359.169C475.327 360.619 475.019 363.122 472.142 364.791Z" fill="url(#paint15_radial_67_50)"/>
<path d="M472.142 362.224L209.272 513.994C206.396 515.663 202.047 515.838 199.544 514.389L42.6787 423.823C42.0857 423.472 41.6466 423.077 41.3831 422.637C40.6145 423.977 41.0097 425.426 42.6787 426.393L199.566 516.958C202.047 518.408 206.418 518.21 209.294 516.563L472.164 364.793C474.36 363.519 475.062 361.762 474.162 360.357C473.767 361.038 473.086 361.675 472.142 362.224Z" fill="url(#paint16_linear_67_50)"/>
<path d="M251.108 128.116L233.759 138.13L233.254 135.121L250.603 125.107L251.108 128.116Z" fill="#9FF3FC"/>
<path d="M230.97 139.734L221.527 145.181L221.021 142.172L230.465 136.726L230.97 139.734Z" fill="#9FF3FC"/>
<path d="M206.835 153.678L199.983 157.609L199.478 154.6L206.307 150.669L206.835 153.678Z" fill="#9FF3FC"/>
<path d="M211.82 150.78L209.47 152.142L208.965 149.133L211.293 147.772L211.82 150.78Z" fill="#9FF3FC"/>
<path d="M218.693 146.805L214.455 149.264L213.95 146.256L218.188 143.796L218.693 146.805Z" fill="#9FF3FC"/>
<path d="M237.382 151.132L230.552 155.085L230.025 152.076L236.877 148.123L237.382 151.132Z" fill="#9FF3FC"/>
<path d="M253.414 141.864L240.04 149.616L239.513 146.585L252.909 138.855L253.414 141.864Z" fill="#9FF3FC"/>
<path d="M234.22 190.661L220.824 198.391L220.319 195.383L233.715 187.653L234.22 190.661Z" fill="#9FF3FC"/>
<path d="M241.115 186.686L236.855 189.124L236.35 186.115L240.588 183.677L241.115 186.686Z" fill="#9FF3FC"/>
<path d="M231.98 176.893L218.584 184.623L218.079 181.615L231.475 173.885L231.98 176.893Z" fill="#9FF3FC"/>
<path d="M238.876 172.895L234.637 175.354L234.132 172.346L238.37 169.886L238.876 172.895Z" fill="#9FF3FC"/>
<path d="M244.102 250.109L269.313 235.527L269.84 238.536L244.607 253.118L244.102 250.109Z" fill="#9FF3FC"/>
<path d="M235.208 255.247L241.445 251.624L241.95 254.654L235.713 258.256L235.208 255.247Z" fill="#9FF3FC"/>
<path d="M190.87 258.168L216.102 243.586L216.607 246.594L191.375 261.176L190.87 258.168Z" fill="#9FF3FC"/>
<path d="M181.975 263.306L188.212 259.682L188.717 262.691L182.481 266.315L181.975 263.306Z" fill="#9FF3FC"/>
<path d="M261.319 232.604L268.171 228.651L268.676 231.66L261.825 235.613L261.319 232.604Z" fill="#9FF3FC"/>
<path d="M219.748 241.522L226.578 237.569L227.083 240.577L220.253 244.53L219.748 241.522Z" fill="#9FF3FC"/>
<path d="M245.288 241.873L258.684 234.121L259.189 237.129L245.793 244.882L245.288 241.873Z" fill="#9FF3FC"/>
<path d="M238.392 245.849L242.631 243.389L243.136 246.398L238.898 248.858L238.392 245.849Z" fill="#9FF3FC"/>
<path d="M222.229 255.181L235.625 247.429L236.13 250.438L222.734 258.19L222.229 255.181Z" fill="#9FF3FC"/>
<path d="M215.334 259.157L219.572 256.698L220.077 259.706L215.839 262.166L215.334 259.157Z" fill="#9FF3FC"/>
<path d="M220.89 248.397L227.742 244.444L228.247 247.453L221.417 251.406L220.89 248.397Z" fill="#9FF3FC"/>
<path d="M204.858 257.664L218.254 249.934L218.76 252.942L205.363 260.672L204.858 257.664Z" fill="#9FF3FC"/>
<path d="M197.963 261.637L202.201 259.199L202.706 262.208L198.468 264.645L197.963 261.637Z" fill="#9FF3FC"/>
<path d="M253.018 229.861L267.007 221.779L267.512 224.788L253.523 232.869L253.018 229.861Z" fill="#9FF3FC"/>
<path d="M240.259 237.218L250.361 231.376L250.866 234.385L240.764 240.227L240.259 237.218Z" fill="#9FF3FC"/>
<path d="M230.772 242.708L237.602 238.755L238.107 241.764L231.277 245.717L230.772 242.708Z" fill="#9FF3FC"/>
<path d="M164.473 273.388L178.462 265.307L178.967 268.315L164.978 276.397L164.473 273.388Z" fill="#9FF3FC"/>
<path d="M151.714 280.745L161.816 274.904L162.321 277.912L152.219 283.776L151.714 280.745Z" fill="#9FF3FC"/>
<path d="M142.227 286.235L149.056 282.282L149.561 285.291L142.732 289.244L142.227 286.235Z" fill="#9FF3FC"/>
<path d="M169.941 182.513L155.952 190.594L155.447 187.564L169.436 179.482L169.941 182.513Z" fill="#9FF3FC"/>
<path d="M182.7 175.135L172.598 180.977L172.093 177.968L182.195 172.127L182.7 175.135Z" fill="#9FF3FC"/>
<path d="M192.187 169.646L185.357 173.599L184.852 170.59L191.682 166.637L192.187 169.646Z" fill="#9FF3FC"/>
<path d="M174.597 172.235L160.608 180.317L160.103 177.308L174.092 169.227L174.597 172.235Z" fill="#9FF3FC"/>
<path d="M187.356 164.88L177.232 170.721L176.727 167.713L186.851 161.871L187.356 164.88Z" fill="#9FF3FC"/>
<path d="M196.842 159.39L190.013 163.343L189.486 160.334L196.337 156.381L196.842 159.39Z" fill="#9FF3FC"/>
<path d="M231.058 184.972L226.336 187.695L225.831 184.687L230.552 181.964L231.058 184.972Z" fill="#9FF3FC"/>
<path d="M239.952 179.834L233.715 183.436L233.21 180.427L239.447 176.825L239.952 179.834Z" fill="#9FF3FC"/>
<path d="M251.766 223.009L265.755 214.928L266.26 217.936L252.271 226.018L251.766 223.009Z" fill="#9FF3FC"/>
<path d="M239.007 230.389L249.109 224.548L249.614 227.556L239.512 233.398L239.007 230.389Z" fill="#9FF3FC"/>
<path d="M229.52 235.877L236.35 231.924L236.855 234.932L230.025 238.885L229.52 235.877Z" fill="#9FF3FC"/>
<path d="M259.87 210.779L264.592 208.056L265.097 211.064L260.375 213.787L259.87 210.779Z" fill="#9FF3FC"/>
<path d="M250.976 215.916L257.213 212.315L257.718 215.324L251.481 218.925L250.976 215.916Z" fill="#9FF3FC"/>
<path d="M238.261 223.272L248.319 217.453L248.824 220.461L238.766 226.281L238.261 223.272Z" fill="#9FF3FC"/>
<path d="M224.645 165.999L219.901 168.744L219.396 165.735L224.118 162.99L224.645 165.999Z" fill="#9FF3FC"/>
<path d="M233.517 160.86L227.28 164.484L226.775 161.475L233.012 157.852L233.517 160.86Z" fill="#9FF3FC"/>
<path d="M246.232 153.525L236.174 159.345L235.669 156.336L245.727 150.517L246.232 153.525Z" fill="#9FF3FC"/>
<path d="M217.442 177.177L207.384 182.975L206.879 179.966L216.937 174.168L217.442 177.177Z" fill="#9FF3FC"/>
<path d="M233.891 168.218L220.341 176.036L219.814 173.027L233.385 165.187L233.891 168.218Z" fill="#9FF3FC"/>
<path d="M240.786 164.221L236.548 166.68L236.043 163.671L240.281 161.212L240.786 164.221Z" fill="#9FF3FC"/>
<path d="M247.396 160.397L243.158 162.857L242.652 159.848L246.891 157.389L247.396 160.397Z" fill="#9FF3FC"/>
<path d="M246.474 199.27L233.078 207L232.573 203.992L245.969 196.261L246.474 199.27Z" fill="#9FF3FC"/>
<path d="M253.37 195.293L249.131 197.731L248.626 194.723L252.864 192.263L253.37 195.293Z" fill="#9FF3FC"/>
<path d="M245.552 207.352L240.83 210.075L240.325 207.067L245.047 204.344L245.552 207.352Z" fill="#9FF3FC"/>
<path d="M228.884 201.839L224.162 204.562L223.657 201.554L228.378 198.831L228.884 201.839Z" fill="#9FF3FC"/>
<path d="M222.142 205.727L210.81 212.271L210.305 209.262L221.636 202.718L222.142 205.727Z" fill="#9FF3FC"/>
<path d="M208.811 213.434L202.048 217.321L201.542 214.313L208.284 210.426L208.811 213.434Z" fill="#9FF3FC"/>
<path d="M254.446 202.211L248.209 205.813L247.704 202.804L253.941 199.203L254.446 202.211Z" fill="#9FF3FC"/>
<path d="M255.039 209.283L250.317 212.006L249.812 208.998L254.534 206.274L255.039 209.283Z" fill="#9FF3FC"/>
<path d="M263.933 204.145L257.696 207.746L257.191 204.738L263.428 201.136L263.933 204.145Z" fill="#9FF3FC"/>
<path d="M235.735 197.885L231.497 200.344L230.992 197.314L235.23 194.876L235.735 197.885Z" fill="#9FF3FC"/>
<path d="M242.345 194.065L238.107 196.524L237.602 193.494L241.84 191.056L242.345 194.065Z" fill="#9FF3FC"/>
<path d="M209.777 159.498L195.305 167.865L194.8 164.834L209.272 156.489L209.777 159.498Z" fill="#9FF3FC"/>
<path d="M225.984 150.121L212.413 157.961L211.908 154.952L225.479 147.112L225.984 150.121Z" fill="#9FF3FC"/>
<path d="M232.88 146.146L228.62 148.605L228.114 145.597L232.375 143.137L232.88 146.146Z" fill="#9FF3FC"/>
<path d="M239.49 142.327L235.252 144.786L234.747 141.778L238.985 139.318L239.49 142.327Z" fill="#9FF3FC"/>
<path d="M243.092 140.24L252.25 134.948L251.744 131.939L242.587 137.231L243.092 140.24Z" fill="#9FF3FC"/>
<path d="M310.885 304.195L125.053 411.473C123.692 412.263 122.023 412.263 120.661 411.473L116.137 408.86C115.369 408.42 115.369 407.322 116.137 406.883L301.969 299.605C303.33 298.815 304.999 298.815 306.361 299.605L310.885 302.218C311.653 302.636 311.653 303.734 310.885 304.195Z" fill="#6DE0F6"/>
<path d="M331.571 316.121L157.511 416.613C156.149 417.403 154.48 417.403 153.119 416.613L148.595 413.999C147.826 413.56 147.826 412.462 148.595 412.023L322.655 311.531C324.017 310.74 325.686 310.74 327.047 311.531L331.571 314.144C332.34 314.583 332.34 315.681 331.571 316.121Z" fill="#6DE0F6"/>
<path d="M345.055 323.892L139.416 442.612C138.054 443.402 136.385 443.402 135.023 442.612L130.5 439.998C129.731 439.559 129.731 438.461 130.5 438.022L336.139 319.302C337.501 318.512 339.17 318.512 340.531 319.302L345.055 321.916C345.802 322.355 345.802 323.453 345.055 323.892Z" fill="#6DE0F6"/>
<path d="M358.517 331.691L152.877 450.41C151.516 451.201 149.847 451.201 148.485 450.41L143.961 447.797C143.193 447.357 143.193 446.259 143.961 445.82L349.601 327.101C350.963 326.31 352.632 326.31 353.993 327.101L358.517 329.714C359.286 330.131 359.286 331.251 358.517 331.691Z" fill="#6DE0F6"/>
<path d="M371.979 339.465L166.339 458.185C164.978 458.975 163.309 458.975 161.947 458.185L157.423 455.571C156.655 455.132 156.655 454.034 157.423 453.595L363.063 334.875C364.425 334.085 366.094 334.085 367.455 334.875L371.979 337.489C372.748 337.928 372.748 339.026 371.979 339.465Z" fill="#6DE0F6"/>
<path d="M109.681 420.344L105.157 422.958C103.795 423.748 102.126 423.748 100.765 422.958L96.2408 420.344C95.4722 419.905 95.4722 418.807 96.2408 418.368L100.765 415.755C102.126 414.964 103.795 414.964 105.157 415.755L109.681 418.368C110.449 418.807 110.449 419.905 109.681 420.344Z" fill="#6DE0F6"/>
<path d="M139.438 427.064L125.844 434.904C124.482 435.695 122.813 435.695 121.452 434.904L116.928 432.291C116.159 431.852 116.159 430.754 116.928 430.315L130.522 422.475C131.883 421.684 133.552 421.684 134.914 422.475L139.438 425.088C140.206 425.505 140.206 426.625 139.438 427.064Z" fill="#6DE0F6"/>
<path d="M404.569 184.026L388.757 174.891V172.211L404.569 181.325V184.026Z" fill="#31C7DB"/>
<path d="M417.109 191.251L409.203 186.705V184.026L417.109 188.571V191.251Z" fill="#31C7DB"/>
<path d="M429.143 198.212L421.237 193.644V190.965L429.143 195.511V198.212Z" fill="#31C7DB"/>
<path d="M441.155 205.152L433.272 200.584V197.905L441.155 202.472V205.152Z" fill="#0EB9C6"/>
<path d="M404.569 190.459L388.757 181.323V178.644L404.569 187.78V190.459Z" fill="#31C7DB"/>
<path d="M417.109 197.708L409.203 193.14V190.461L417.109 195.007V197.708Z" fill="#31C7DB"/>
<path d="M429.143 204.647L421.237 200.079V197.4L429.143 201.968V204.647Z" fill="#31C7DB"/>
<path d="M441.155 211.588L433.272 207.02V204.341L441.155 208.908V211.588Z" fill="#31C7DB"/>
<path d="M404.569 196.895L388.757 187.781V185.08L404.569 194.215V196.895Z" fill="#31C7DB"/>
<path d="M423.148 204.953L421.237 203.833L409.203 196.894V199.573L421.237 206.513L423.148 207.633L429.143 211.08V208.401L423.148 204.953Z" fill="#0EB9C6"/>
<path d="M441.155 218.02L433.272 213.475V210.773L441.155 215.341V218.02Z" fill="#31C7DB"/>
<path d="M445.284 204.844V211.279V213.958V217.735V218.504V220.414L453.19 224.96V223.05V222.281V218.526V215.847V209.412L445.284 204.844Z" fill="#31C7DB"/>
<path d="M404.569 203.329L388.757 194.215V191.536L404.569 200.649V203.329Z" fill="#0EB9C6"/>
<path d="M417.109 210.577L409.203 206.009V203.33L417.109 207.898V210.577Z" fill="#31C7DB"/>
<path d="M429.143 214.837L427.035 213.629L421.237 210.269V212.97L427.035 216.308L429.143 217.516L441.155 224.478V221.776L429.143 214.837Z" fill="#31C7DB"/>
<path d="M453.19 231.416L445.284 226.848V224.169L453.19 228.737V231.416Z" fill="#31C7DB"/>
<path d="M404.569 222.655L388.757 213.542V210.841L404.569 219.976V222.655Z" fill="#31C7DB"/>
<path d="M417.109 229.902L409.203 225.334V222.655L417.109 227.223V229.902Z" fill="#31C7DB"/>
<path d="M429.143 234.162L427.035 232.932L421.237 229.594V232.274L427.035 235.634L429.143 236.841L441.155 243.781V241.102L429.143 234.162Z" fill="#31C7DB"/>
<path d="M453.19 250.741L445.284 246.173V243.494L453.19 248.04V250.741Z" fill="#31C7DB"/>
<path d="M404.569 229.09L388.757 219.976V217.297L404.569 226.411V229.09Z" fill="#31C7DB"/>
<path d="M417.109 236.335L409.203 231.789V229.088L417.109 233.655V236.335Z" fill="#31C7DB"/>
<path d="M453.19 257.177L445.284 252.609V249.93L453.19 254.498V257.177Z" fill="#31C7DB"/>
<path d="M404.569 235.544L388.757 226.409V223.729L404.569 232.843V235.544Z" fill="#31C7DB"/>
<path d="M417.109 242.791L409.203 238.223V235.544L417.109 240.09V242.791Z" fill="#31C7DB"/>
<path d="M429.143 240.595L427.035 239.387L421.237 236.027V237.916V238.728V245.163L427.035 248.501L429.143 249.731L441.155 256.67V250.236V249.423V247.535L429.143 240.595Z" fill="#0EB9C6"/>
<path d="M453.19 263.61L445.284 259.042V256.363L453.19 260.931V263.61Z" fill="#31C7DB"/>
<path d="M404.569 209.784L388.757 200.648V197.969L404.569 207.083V209.784Z" fill="#31C7DB"/>
<path d="M417.109 217.011L409.203 212.465V209.786L417.109 214.332V217.011Z" fill="#0EB9C6"/>
<path d="M441.155 230.912L433.272 226.344V223.665L441.155 228.233V230.912Z" fill="#31C7DB"/>
<path d="M453.19 237.852L445.284 233.284V230.605L453.19 235.173V237.852Z" fill="#31C7DB"/>
<path d="M404.569 216.219L388.757 207.084V204.405L404.569 213.54V216.219Z" fill="#31C7DB"/>
<path d="M417.109 223.466L409.203 218.898V216.219L417.109 220.787V223.466Z" fill="#31C7DB"/>
<path d="M421.237 216.726V218.066V219.405V225.84L429.143 230.408V223.973V222.633V221.272L421.237 216.726Z" fill="#31C7DB"/>
<path d="M441.155 237.345L433.272 232.777V230.098L441.155 234.666V237.345Z" fill="#31C7DB"/>
<path d="M453.19 244.285L445.284 239.739V237.038L453.19 241.606V244.285Z" fill="#31C7DB"/>
<path d="M381.027 505.465C383.355 505.465 385.705 504.872 387.769 503.664L556.888 406.049C559.15 404.753 560.49 402.425 560.49 399.834C560.49 397.242 559.15 394.893 556.91 393.597L528.932 377.39L527.922 379.125L555.9 395.332C557.525 396.276 558.491 397.967 558.491 399.834C558.491 401.722 557.525 403.391 555.878 404.336L386.759 501.951C383.201 503.993 378.787 503.993 375.229 501.951L344.243 483.987L343.233 485.722L374.219 503.686C376.349 504.872 378.699 505.465 381.027 505.465Z" fill="url(#paint17_linear_67_50)"/>
<path opacity="0.1" d="M423.125 40.929C420.534 42.4224 416.34 42.4224 413.748 40.929C411.157 39.4357 411.157 37.02 413.748 35.5048C416.34 34.0114 420.534 34.0114 423.125 35.5048C425.717 37.02 425.717 39.4357 423.125 40.929Z" fill="#50DEFF"/>
<path opacity="0.4" d="M439.047 50.1087C436.456 51.6021 432.261 51.6021 429.67 50.1087C427.079 48.6154 427.079 46.1778 429.67 44.6844C432.261 43.1911 436.456 43.1911 439.047 44.6844C441.638 46.1997 441.638 48.6154 439.047 50.1087Z" fill="#50DEFF"/>
<path opacity="0.6" d="M454.946 59.3104C452.355 60.8037 448.161 60.8037 445.569 59.3104C442.978 57.8171 442.978 55.3794 445.569 53.8861C448.161 52.3928 452.355 52.3928 454.946 53.8861C457.538 55.3794 457.538 57.8171 454.946 59.3104Z" fill="#50DEFF"/>
<path opacity="0.8" d="M470.846 68.4913C468.255 69.9846 464.06 69.9846 461.469 68.4913C458.877 66.998 458.877 64.5823 461.469 63.067C464.06 61.5737 468.255 61.5737 470.846 63.067C473.437 64.5603 473.437 66.998 470.846 68.4913Z" fill="#31DBF7"/>
<path d="M486.746 77.669C484.154 79.1624 479.96 79.1624 477.368 77.669C474.777 76.1757 474.777 73.7381 477.368 72.2448C479.96 70.7514 484.154 70.7514 486.746 72.2448C489.337 73.7381 489.337 76.1757 486.746 77.669Z" fill="#31D8F4"/>
<path d="M529.503 313.55L524.65 316.361C522.146 317.81 520.104 316.273 520.104 312.913V181.742C520.104 178.404 522.146 174.495 524.65 173.046L529.503 170.235C532.006 168.785 534.049 170.323 534.049 173.682V304.854C534.049 308.214 532.006 312.101 529.503 313.55Z" fill="#22215B"/>
<path opacity="0.5" d="M588.731 337.771L506.334 290.205V161.098L588.731 208.665V337.771Z" fill="#6EE8FC"/>
<path opacity="0.5" d="M581.55 341.836L499.175 294.291V165.185L581.55 212.751V341.836Z" fill="#25BFEC"/>
<path opacity="0.5" d="M506.334 161.098L499.175 165.183L581.55 212.749L588.731 208.665L506.334 161.098Z" fill="#6EE8FC"/>
<path opacity="0.5" d="M506.334 290.207L499.175 294.292L581.55 341.837L588.731 337.774L506.334 290.207Z" fill="#6EE8FC"/>
<path d="M590.554 201.53L586.008 198.872V198.916C585.217 198.477 584.185 198.499 583.065 199.136L578.212 201.947C575.708 203.396 573.666 207.283 573.666 210.643V341.814C573.666 343.637 574.281 344.889 575.225 345.46L575.203 345.482L579.573 348.051L578.695 344.977L583.043 342.451C585.547 341.002 587.589 337.115 587.589 333.755V202.584C587.589 202.562 587.589 202.562 587.589 202.54L590.554 201.53Z" fill="url(#paint18_linear_67_50)"/>
<path d="M578.212 201.945L583.065 199.134C583.987 198.607 584.822 198.519 585.547 198.738C585.129 198.804 584.668 198.936 584.207 199.222L579.244 202.077C576.674 203.548 574.61 207.523 574.61 210.927V344.711C574.61 344.799 574.632 344.865 574.632 344.931C574.039 344.25 573.666 343.196 573.666 341.79V210.619C573.666 207.281 575.708 203.394 578.212 201.945Z" fill="#6DE0F6"/>
<path d="M587.567 345.065L582.714 347.876C580.21 349.325 578.168 347.788 578.168 344.428V213.257C578.168 209.919 580.21 206.01 582.714 204.561L587.567 201.75C590.07 200.3 592.113 201.837 592.113 205.197V336.369C592.113 339.728 590.092 343.616 587.567 345.065Z" fill="url(#paint19_linear_67_50)"/>
<path d="M514.767 253.531L523.508 248.48V235.677L514.767 240.727V253.531Z" fill="#50DEFF"/>
<path d="M514.767 259.988V273.581L523.508 268.53V254.937L514.767 259.988Z" fill="#50DEFF"/>
<path d="M551.596 214.749V225.29L554.626 227.047V216.505L551.596 214.749Z" fill="#50DEFF"/>
<path d="M544.634 221.271L547.664 223.028V212.487L544.634 210.73V221.271Z" fill="#50DEFF"/>
<path d="M560.599 271.67V301.427L524.057 280.345L514.921 285.615L569.34 317.041V266.619L560.599 271.67Z" fill="#50DEFF"/>
<path d="M523.508 224.806V209.083L540.681 218.987V208.446L514.767 193.49V229.857L523.508 224.806Z" fill="#50DEFF"/>
<path d="M569.34 254.19L560.599 259.241V265.236L569.34 260.185V254.19Z" fill="#50DEFF"/>
<path d="M558.579 229.33L560.599 230.494V247.118L569.34 242.067V225.003L558.579 218.789V229.33Z" fill="#50DEFF"/>
<path d="M534.005 227.859L527.9 224.323V217.274L534.005 220.809V227.859Z" fill="#50DEFF"/>
<path d="M544.634 233.986L538.529 230.472V223.423L544.634 226.936V233.986Z" fill="#50DEFF"/>
<path d="M544.634 244.944L538.529 241.431V234.381L544.634 237.895V244.944Z" fill="#50DEFF"/>
<path d="M555.263 292.162L549.158 288.626V281.577L555.263 285.112V292.162Z" fill="#50DEFF"/>
<path d="M534.005 238.816L527.9 235.28V228.253L534.005 231.767V238.816Z" fill="#50DEFF"/>
<path d="M555.263 240.136L549.158 236.6V229.551L555.263 233.086V240.136Z" fill="#50DEFF"/>
<path opacity="0.4" d="M531.875 175.857L524.628 179.876V309.004L520.104 306.369L514.899 262.58V174.21C514.899 174.21 524.474 171.992 524.364 172.189C524.276 172.387 525.858 172.365 525.858 172.365L531.875 175.857Z" fill="#0C0F38"/>
<defs>
<linearGradient id="paint0_linear_67_50" x1="551.699" y1="334.691" x2="350.688" y2="334.691" gradientUnits="userSpaceOnUse">
<stop stop-color="#6EE8FC"/>
<stop offset="1" stop-color="#6EE8FC"/>
</linearGradient>
<linearGradient id="paint1_linear_67_50" x1="332.877" y1="214.604" x2="575.331" y2="214.604" gradientUnits="userSpaceOnUse">
<stop stop-color="#A31FA9"/>
<stop offset="0.0668" stop-color="#8B17A0"/>
<stop offset="0.1494" stop-color="#740F98"/>
<stop offset="0.2393" stop-color="#640A92"/>
<stop offset="0.3408" stop-color="#5B078F"/>
<stop offset="0.4785" stop-color="#58068E"/>
<stop offset="0.6264" stop-color="#4D22A3"/>
<stop offset="0.9436" stop-color="#3168DA"/>
<stop offset="1" stop-color="#2C75E4"/>
</linearGradient>
<linearGradient id="paint2_linear_67_50" x1="343.653" y1="111.168" x2="542.144" y2="160.283" gradientUnits="userSpaceOnUse">
<stop stop-color="#8D139B"/>
<stop offset="0.1651" stop-color="#851BA1"/>
<stop offset="0.4284" stop-color="#6E33B2"/>
<stop offset="0.7551" stop-color="#4958CD"/>
<stop offset="1" stop-color="#2979E4"/>
</linearGradient>
<linearGradient id="paint3_linear_67_50" x1="380.885" y1="111.166" x2="510.655" y2="143.277" gradientUnits="userSpaceOnUse">
<stop stop-color="#630692"/>
<stop offset="0.2262" stop-color="#5B0E94"/>
<stop offset="0.587" stop-color="#432399"/>
<stop offset="1" stop-color="#2142A1"/>
</linearGradient>
<linearGradient id="paint4_linear_67_50" x1="332.877" y1="104.391" x2="575.331" y2="104.391" gradientUnits="userSpaceOnUse">
<stop stop-color="#A31FA9"/>
<stop offset="0.0668" stop-color="#8B17A0"/>
<stop offset="0.1494" stop-color="#740F98"/>
<stop offset="0.2393" stop-color="#640A92"/>
<stop offset="0.3408" stop-color="#5B078F"/>
<stop offset="0.4785" stop-color="#58068E"/>
<stop offset="0.6264" stop-color="#4D22A3"/>
<stop offset="0.9436" stop-color="#3168DA"/>
<stop offset="1" stop-color="#2C75E4"/>
</linearGradient>
<linearGradient id="paint5_linear_67_50" x1="343.652" y1="82.1396" x2="542.144" y2="131.255" gradientUnits="userSpaceOnUse">
<stop stop-color="#8D139B"/>
<stop offset="0.1651" stop-color="#851BA1"/>
<stop offset="0.4284" stop-color="#6E33B2"/>
<stop offset="0.7551" stop-color="#4958CD"/>
<stop offset="1" stop-color="#2979E4"/>
</linearGradient>
<linearGradient id="paint6_linear_67_50" x1="380.885" y1="82.1373" x2="510.656" y2="114.249" gradientUnits="userSpaceOnUse">
<stop stop-color="#630692"/>
<stop offset="0.2262" stop-color="#5B0E94"/>
<stop offset="0.587" stop-color="#432399"/>
<stop offset="1" stop-color="#2142A1"/>
</linearGradient>
<linearGradient id="paint7_linear_67_50" x1="332.877" y1="79.6589" x2="575.331" y2="79.6589" gradientUnits="userSpaceOnUse">
<stop stop-color="#A31FA9"/>
<stop offset="0.0668" stop-color="#8B17A0"/>
<stop offset="0.1494" stop-color="#740F98"/>
<stop offset="0.2393" stop-color="#640A92"/>
<stop offset="0.3408" stop-color="#5B078F"/>
<stop offset="0.4785" stop-color="#58068E"/>
<stop offset="0.6264" stop-color="#4D22A3"/>
<stop offset="0.9436" stop-color="#3168DA"/>
<stop offset="1" stop-color="#2C75E4"/>
</linearGradient>
<linearGradient id="paint8_linear_67_50" x1="343.653" y1="57.4095" x2="542.144" y2="106.525" gradientUnits="userSpaceOnUse">
<stop stop-color="#8D139B"/>
<stop offset="0.1651" stop-color="#851BA1"/>
<stop offset="0.4284" stop-color="#6E33B2"/>
<stop offset="0.7551" stop-color="#4958CD"/>
<stop offset="1" stop-color="#2979E4"/>
</linearGradient>
<linearGradient id="paint9_linear_67_50" x1="475.521" y1="439.145" x2="40.0157" y2="439.145" gradientUnits="userSpaceOnUse">
<stop stop-color="#6EE8FC"/>
<stop offset="1" stop-color="#6EE8FC"/>
</linearGradient>
<linearGradient id="paint10_linear_67_50" x1="0.00142024" y1="240.121" x2="306.787" y2="240.121" gradientUnits="userSpaceOnUse">
<stop stop-color="#7BDAFF"/>
<stop offset="1" stop-color="#59BDEF"/>
</linearGradient>
<linearGradient id="paint11_linear_67_50" x1="4.16844" y1="241.459" x2="310.953" y2="241.459" gradientUnits="userSpaceOnUse">
<stop stop-color="#2573BA"/>
<stop offset="1" stop-color="#0063AD"/>
</linearGradient>
<linearGradient id="paint12_linear_67_50" x1="4.16844" y1="241.459" x2="310.953" y2="241.459" gradientUnits="userSpaceOnUse">
<stop stop-color="#2C75E4"/>
<stop offset="0.0448" stop-color="#3461D5"/>
<stop offset="0.1323" stop-color="#4140BB"/>
<stop offset="0.2225" stop-color="#4B27A7"/>
<stop offset="0.3154" stop-color="#521499"/>
<stop offset="0.4127" stop-color="#570A91"/>
<stop offset="0.5215" stop-color="#58068E"/>
<stop offset="0.6592" stop-color="#5B078F"/>
<stop offset="0.7607" stop-color="#640A92"/>
<stop offset="0.8506" stop-color="#740F98"/>
<stop offset="0.9332" stop-color="#8B17A0"/>
<stop offset="1" stop-color="#A31FA9"/>
</linearGradient>
<linearGradient id="paint13_linear_67_50" x1="10.47" y1="241.498" x2="304.351" y2="241.498" gradientUnits="userSpaceOnUse">
<stop stop-color="#59BDEF"/>
<stop offset="1" stop-color="#7BDAFF"/>
</linearGradient>
<linearGradient id="paint14_linear_67_50" x1="41.1039" y1="407.238" x2="474.384" y2="407.238" gradientUnits="userSpaceOnUse">
<stop stop-color="#2C75E4"/>
<stop offset="0.0448" stop-color="#3461D5"/>
<stop offset="0.1323" stop-color="#4140BB"/>
<stop offset="0.2225" stop-color="#4B27A7"/>
<stop offset="0.3154" stop-color="#521499"/>
<stop offset="0.4127" stop-color="#570A91"/>
<stop offset="0.5215" stop-color="#58068E"/>
<stop offset="0.6592" stop-color="#5B078F"/>
<stop offset="0.7607" stop-color="#640A92"/>
<stop offset="0.8506" stop-color="#740F98"/>
<stop offset="0.9332" stop-color="#8B17A0"/>
<stop offset="1" stop-color="#A31FA9"/>
</linearGradient>
<radialGradient id="paint15_radial_67_50" cx="0" cy="0" r="1" gradientUnits="userSpaceOnUse" gradientTransform="translate(27.8306 427.878) scale(460.014)">
<stop stop-color="#2979E4"/>
<stop offset="0.2449" stop-color="#4958CD"/>
<stop offset="0.5716" stop-color="#6E33B2"/>
<stop offset="0.8349" stop-color="#851BA1"/>
<stop offset="1" stop-color="#8D139B"/>
</radialGradient>
<linearGradient id="paint16_linear_67_50" x1="474.52" y1="439.151" x2="41.0176" y2="439.151" gradientUnits="userSpaceOnUse">
<stop stop-color="#D4088C"/>
<stop offset="0.1002" stop-color="#D30E8F"/>
<stop offset="0.2311" stop-color="#CF1E97"/>
<stop offset="0.379" stop-color="#C939A3"/>
<stop offset="0.5395" stop-color="#C05FB5"/>
<stop offset="0.7101" stop-color="#B58FCC"/>
<stop offset="0.8864" stop-color="#A8C9E8"/>
<stop offset="1" stop-color="#9FF3FC"/>
</linearGradient>
<linearGradient id="paint17_linear_67_50" x1="560.509" y1="441.431" x2="343.277" y2="441.431" gradientUnits="userSpaceOnUse">
<stop stop-color="#6EE8FC"/>
<stop offset="1" stop-color="#6EE8FC"/>
</linearGradient>
<linearGradient id="paint18_linear_67_50" x1="530.378" y1="250.113" x2="660.197" y2="307.897" gradientUnits="userSpaceOnUse">
<stop stop-color="#2C75E4"/>
<stop offset="0.0564" stop-color="#3168DA"/>
<stop offset="0.3736" stop-color="#4D22A3"/>
<stop offset="0.5215" stop-color="#58068E"/>
<stop offset="0.6592" stop-color="#5B078F"/>
<stop offset="0.7607" stop-color="#640A92"/>
<stop offset="0.8506" stop-color="#740F98"/>
<stop offset="0.9332" stop-color="#8B17A0"/>
<stop offset="1" stop-color="#A31FA9"/>
</linearGradient>
<linearGradient id="paint19_linear_67_50" x1="583.581" y1="274.819" x2="411.478" y2="274.819" gradientUnits="userSpaceOnUse">
<stop stop-color="#2C75E4"/>
<stop offset="0.0564" stop-color="#3168DA"/>
<stop offset="0.3736" stop-color="#4D22A3"/>
<stop offset="0.5215" stop-color="#58068E"/>
<stop offset="0.6592" stop-color="#5B078F"/>
<stop offset="0.7607" stop-color="#640A92"/>
<stop offset="0.8506" stop-color="#740F98"/>
<stop offset="0.9332" stop-color="#8B17A0"/>
<stop offset="1" stop-color="#A31FA9"/>
</linearGradient>
</defs>
</svg>
