<svg width="657" height="596" viewBox="0 0 657 596" fill="none" xmlns="http://www.w3.org/2000/svg">
<rect width="657" height="596" rx="10" fill="#342A85"/>
<path d="M57.4277 54.4062V80H54.0879V54.4062H57.4277ZM65.6543 54.4062V57.1836H45.8789V54.4062H65.6543ZM75.0938 80.3516C73.7695 80.3516 72.5684 80.1289 71.4902 79.6836C70.4238 79.2266 69.5039 78.5879 68.7305 77.7676C67.9688 76.9473 67.3828 75.9746 66.9727 74.8496C66.5625 73.7246 66.3574 72.4941 66.3574 71.1582V70.4199C66.3574 68.873 66.5859 67.4961 67.043 66.2891C67.5 65.0703 68.1211 64.0391 68.9062 63.1953C69.6914 62.3516 70.582 61.7129 71.5781 61.2793C72.5742 60.8457 73.6055 60.6289 74.6719 60.6289C76.0312 60.6289 77.2031 60.8633 78.1875 61.332C79.1836 61.8008 79.998 62.457 80.6309 63.3008C81.2637 64.1328 81.7324 65.1172 82.0371 66.2539C82.3418 67.3789 82.4941 68.6094 82.4941 69.9453V71.4043H68.291V68.75H79.2422V68.5039C79.1953 67.6602 79.0195 66.8398 78.7148 66.043C78.4219 65.2461 77.9531 64.5898 77.3086 64.0742C76.6641 63.5586 75.7852 63.3008 74.6719 63.3008C73.9336 63.3008 73.2539 63.459 72.6328 63.7754C72.0117 64.0801 71.4785 64.5371 71.0332 65.1465C70.5879 65.7559 70.2422 66.5 69.9961 67.3789C69.75 68.2578 69.627 69.2715 69.627 70.4199V71.1582C69.627 72.0605 69.75 72.9102 69.9961 73.707C70.2539 74.4922 70.623 75.1836 71.1035 75.7812C71.5957 76.3789 72.1875 76.8477 72.8789 77.1875C73.582 77.5273 74.3789 77.6973 75.2695 77.6973C76.418 77.6973 77.3906 77.4629 78.1875 76.9941C78.9844 76.5254 79.6816 75.8984 80.2793 75.1133L82.248 76.6777C81.8379 77.2988 81.3164 77.8906 80.6836 78.4531C80.0508 79.0156 79.2715 79.4727 78.3457 79.8242C77.4316 80.1758 76.3477 80.3516 75.0938 80.3516ZM97.2246 75.6758L103.693 60.9805H106.822L98.3496 80H96.0996L87.6621 60.9805H90.791L97.2246 75.6758ZM89.8418 60.9805V80H86.5898V60.9805H89.8418ZM104.502 80V60.9805H107.771V80H104.502ZM124.225 76.748V66.957C124.225 66.207 124.072 65.5566 123.768 65.0059C123.475 64.4434 123.029 64.0098 122.432 63.7051C121.834 63.4004 121.096 63.248 120.217 63.248C119.396 63.248 118.676 63.3887 118.055 63.6699C117.445 63.9512 116.965 64.3203 116.613 64.7773C116.273 65.2344 116.104 65.7266 116.104 66.2539H112.852C112.852 65.5742 113.027 64.9004 113.379 64.2324C113.73 63.5645 114.234 62.9609 114.891 62.4219C115.559 61.8711 116.355 61.4375 117.281 61.1211C118.219 60.793 119.262 60.6289 120.41 60.6289C121.793 60.6289 123.012 60.8633 124.066 61.332C125.133 61.8008 125.965 62.5098 126.562 63.459C127.172 64.3965 127.477 65.5742 127.477 66.9922V75.8516C127.477 76.4844 127.529 77.1582 127.635 77.873C127.752 78.5879 127.922 79.2031 128.145 79.7188V80H124.752C124.588 79.625 124.459 79.127 124.365 78.5059C124.271 77.873 124.225 77.2871 124.225 76.748ZM124.787 68.4688L124.822 70.7539H121.535C120.609 70.7539 119.783 70.8301 119.057 70.9824C118.33 71.123 117.721 71.3398 117.229 71.6328C116.736 71.9258 116.361 72.2949 116.104 72.7402C115.846 73.1738 115.717 73.6836 115.717 74.2695C115.717 74.8672 115.852 75.4121 116.121 75.9043C116.391 76.3965 116.795 76.7891 117.334 77.082C117.885 77.3633 118.559 77.5039 119.355 77.5039C120.352 77.5039 121.23 77.293 121.992 76.8711C122.754 76.4492 123.357 75.9336 123.803 75.3242C124.26 74.7148 124.506 74.123 124.541 73.5488L125.93 75.1133C125.848 75.6055 125.625 76.1504 125.262 76.748C124.898 77.3457 124.412 77.9199 123.803 78.4707C123.205 79.0098 122.49 79.4609 121.658 79.8242C120.838 80.1758 119.912 80.3516 118.881 80.3516C117.592 80.3516 116.461 80.0996 115.488 79.5957C114.527 79.0918 113.777 78.418 113.238 77.5742C112.711 76.7188 112.447 75.7637 112.447 74.709C112.447 73.6895 112.646 72.793 113.045 72.0195C113.443 71.2344 114.018 70.584 114.768 70.0684C115.518 69.541 116.42 69.1426 117.475 68.873C118.529 68.6035 119.707 68.4688 121.008 68.4688H124.787Z" fill="white"/>
<path d="M57.4277 146.406V172H54.0879V146.406H57.4277ZM65.6543 146.406V149.184H45.8789V146.406H65.6543ZM75.0938 172.352C73.7695 172.352 72.5684 172.129 71.4902 171.684C70.4238 171.227 69.5039 170.588 68.7305 169.768C67.9688 168.947 67.3828 167.975 66.9727 166.85C66.5625 165.725 66.3574 164.494 66.3574 163.158V162.42C66.3574 160.873 66.5859 159.496 67.043 158.289C67.5 157.07 68.1211 156.039 68.9062 155.195C69.6914 154.352 70.582 153.713 71.5781 153.279C72.5742 152.846 73.6055 152.629 74.6719 152.629C76.0312 152.629 77.2031 152.863 78.1875 153.332C79.1836 153.801 79.998 154.457 80.6309 155.301C81.2637 156.133 81.7324 157.117 82.0371 158.254C82.3418 159.379 82.4941 160.609 82.4941 161.945V163.404H68.291V160.75H79.2422V160.504C79.1953 159.66 79.0195 158.84 78.7148 158.043C78.4219 157.246 77.9531 156.59 77.3086 156.074C76.6641 155.559 75.7852 155.301 74.6719 155.301C73.9336 155.301 73.2539 155.459 72.6328 155.775C72.0117 156.08 71.4785 156.537 71.0332 157.146C70.5879 157.756 70.2422 158.5 69.9961 159.379C69.75 160.258 69.627 161.271 69.627 162.42V163.158C69.627 164.061 69.75 164.91 69.9961 165.707C70.2539 166.492 70.623 167.184 71.1035 167.781C71.5957 168.379 72.1875 168.848 72.8789 169.188C73.582 169.527 74.3789 169.697 75.2695 169.697C76.418 169.697 77.3906 169.463 78.1875 168.994C78.9844 168.525 79.6816 167.898 80.2793 167.113L82.248 168.678C81.8379 169.299 81.3164 169.891 80.6836 170.453C80.0508 171.016 79.2715 171.473 78.3457 171.824C77.4316 172.176 76.3477 172.352 75.0938 172.352ZM97.2246 167.676L103.693 152.98H106.822L98.3496 172H96.0996L87.6621 152.98H90.791L97.2246 167.676ZM89.8418 152.98V172H86.5898V152.98H89.8418ZM104.502 172V152.98H107.771V172H104.502ZM124.225 168.748V158.957C124.225 158.207 124.072 157.557 123.768 157.006C123.475 156.443 123.029 156.01 122.432 155.705C121.834 155.4 121.096 155.248 120.217 155.248C119.396 155.248 118.676 155.389 118.055 155.67C117.445 155.951 116.965 156.32 116.613 156.777C116.273 157.234 116.104 157.727 116.104 158.254H112.852C112.852 157.574 113.027 156.9 113.379 156.232C113.73 155.564 114.234 154.961 114.891 154.422C115.559 153.871 116.355 153.438 117.281 153.121C118.219 152.793 119.262 152.629 120.41 152.629C121.793 152.629 123.012 152.863 124.066 153.332C125.133 153.801 125.965 154.51 126.562 155.459C127.172 156.396 127.477 157.574 127.477 158.992V167.852C127.477 168.484 127.529 169.158 127.635 169.873C127.752 170.588 127.922 171.203 128.145 171.719V172H124.752C124.588 171.625 124.459 171.127 124.365 170.506C124.271 169.873 124.225 169.287 124.225 168.748ZM124.787 160.469L124.822 162.754H121.535C120.609 162.754 119.783 162.83 119.057 162.982C118.33 163.123 117.721 163.34 117.229 163.633C116.736 163.926 116.361 164.295 116.104 164.74C115.846 165.174 115.717 165.684 115.717 166.27C115.717 166.867 115.852 167.412 116.121 167.904C116.391 168.396 116.795 168.789 117.334 169.082C117.885 169.363 118.559 169.504 119.355 169.504C120.352 169.504 121.23 169.293 121.992 168.871C122.754 168.449 123.357 167.934 123.803 167.324C124.26 166.715 124.506 166.123 124.541 165.549L125.93 167.113C125.848 167.605 125.625 168.15 125.262 168.748C124.898 169.346 124.412 169.92 123.803 170.471C123.205 171.01 122.49 171.461 121.658 171.824C120.838 172.176 119.912 172.352 118.881 172.352C117.592 172.352 116.461 172.1 115.488 171.596C114.527 171.092 113.777 170.418 113.238 169.574C112.711 168.719 112.447 167.764 112.447 166.709C112.447 165.689 112.646 164.793 113.045 164.02C113.443 163.234 114.018 162.584 114.768 162.068C115.518 161.541 116.42 161.143 117.475 160.873C118.529 160.604 119.707 160.469 121.008 160.469H124.787Z" fill="white" fill-opacity="0.7"/>
<path d="M57.4277 238.406V264H54.0879V238.406H57.4277ZM65.6543 238.406V241.184H45.8789V238.406H65.6543ZM75.0938 264.352C73.7695 264.352 72.5684 264.129 71.4902 263.684C70.4238 263.227 69.5039 262.588 68.7305 261.768C67.9688 260.947 67.3828 259.975 66.9727 258.85C66.5625 257.725 66.3574 256.494 66.3574 255.158V254.42C66.3574 252.873 66.5859 251.496 67.043 250.289C67.5 249.07 68.1211 248.039 68.9062 247.195C69.6914 246.352 70.582 245.713 71.5781 245.279C72.5742 244.846 73.6055 244.629 74.6719 244.629C76.0312 244.629 77.2031 244.863 78.1875 245.332C79.1836 245.801 79.998 246.457 80.6309 247.301C81.2637 248.133 81.7324 249.117 82.0371 250.254C82.3418 251.379 82.4941 252.609 82.4941 253.945V255.404H68.291V252.75H79.2422V252.504C79.1953 251.66 79.0195 250.84 78.7148 250.043C78.4219 249.246 77.9531 248.59 77.3086 248.074C76.6641 247.559 75.7852 247.301 74.6719 247.301C73.9336 247.301 73.2539 247.459 72.6328 247.775C72.0117 248.08 71.4785 248.537 71.0332 249.146C70.5879 249.756 70.2422 250.5 69.9961 251.379C69.75 252.258 69.627 253.271 69.627 254.42V255.158C69.627 256.061 69.75 256.91 69.9961 257.707C70.2539 258.492 70.623 259.184 71.1035 259.781C71.5957 260.379 72.1875 260.848 72.8789 261.188C73.582 261.527 74.3789 261.697 75.2695 261.697C76.418 261.697 77.3906 261.463 78.1875 260.994C78.9844 260.525 79.6816 259.898 80.2793 259.113L82.248 260.678C81.8379 261.299 81.3164 261.891 80.6836 262.453C80.0508 263.016 79.2715 263.473 78.3457 263.824C77.4316 264.176 76.3477 264.352 75.0938 264.352ZM97.2246 259.676L103.693 244.98H106.822L98.3496 264H96.0996L87.6621 244.98H90.791L97.2246 259.676ZM89.8418 244.98V264H86.5898V244.98H89.8418ZM104.502 264V244.98H107.771V264H104.502ZM124.225 260.748V250.957C124.225 250.207 124.072 249.557 123.768 249.006C123.475 248.443 123.029 248.01 122.432 247.705C121.834 247.4 121.096 247.248 120.217 247.248C119.396 247.248 118.676 247.389 118.055 247.67C117.445 247.951 116.965 248.32 116.613 248.777C116.273 249.234 116.104 249.727 116.104 250.254H112.852C112.852 249.574 113.027 248.9 113.379 248.232C113.73 247.564 114.234 246.961 114.891 246.422C115.559 245.871 116.355 245.438 117.281 245.121C118.219 244.793 119.262 244.629 120.41 244.629C121.793 244.629 123.012 244.863 124.066 245.332C125.133 245.801 125.965 246.51 126.562 247.459C127.172 248.396 127.477 249.574 127.477 250.992V259.852C127.477 260.484 127.529 261.158 127.635 261.873C127.752 262.588 127.922 263.203 128.145 263.719V264H124.752C124.588 263.625 124.459 263.127 124.365 262.506C124.271 261.873 124.225 261.287 124.225 260.748ZM124.787 252.469L124.822 254.754H121.535C120.609 254.754 119.783 254.83 119.057 254.982C118.33 255.123 117.721 255.34 117.229 255.633C116.736 255.926 116.361 256.295 116.104 256.74C115.846 257.174 115.717 257.684 115.717 258.27C115.717 258.867 115.852 259.412 116.121 259.904C116.391 260.396 116.795 260.789 117.334 261.082C117.885 261.363 118.559 261.504 119.355 261.504C120.352 261.504 121.23 261.293 121.992 260.871C122.754 260.449 123.357 259.934 123.803 259.324C124.26 258.715 124.506 258.123 124.541 257.549L125.93 259.113C125.848 259.605 125.625 260.15 125.262 260.748C124.898 261.346 124.412 261.92 123.803 262.471C123.205 263.01 122.49 263.461 121.658 263.824C120.838 264.176 119.912 264.352 118.881 264.352C117.592 264.352 116.461 264.1 115.488 263.596C114.527 263.092 113.777 262.418 113.238 261.574C112.711 260.719 112.447 259.764 112.447 258.709C112.447 257.689 112.646 256.793 113.045 256.02C113.443 255.234 114.018 254.584 114.768 254.068C115.518 253.541 116.42 253.143 117.475 252.873C118.529 252.604 119.707 252.469 121.008 252.469H124.787Z" fill="white" fill-opacity="0.7"/>
<path d="M57.4277 330.406V356H54.0879V330.406H57.4277ZM65.6543 330.406V333.184H45.8789V330.406H65.6543ZM75.0938 356.352C73.7695 356.352 72.5684 356.129 71.4902 355.684C70.4238 355.227 69.5039 354.588 68.7305 353.768C67.9688 352.947 67.3828 351.975 66.9727 350.85C66.5625 349.725 66.3574 348.494 66.3574 347.158V346.42C66.3574 344.873 66.5859 343.496 67.043 342.289C67.5 341.07 68.1211 340.039 68.9062 339.195C69.6914 338.352 70.582 337.713 71.5781 337.279C72.5742 336.846 73.6055 336.629 74.6719 336.629C76.0312 336.629 77.2031 336.863 78.1875 337.332C79.1836 337.801 79.998 338.457 80.6309 339.301C81.2637 340.133 81.7324 341.117 82.0371 342.254C82.3418 343.379 82.4941 344.609 82.4941 345.945V347.404H68.291V344.75H79.2422V344.504C79.1953 343.66 79.0195 342.84 78.7148 342.043C78.4219 341.246 77.9531 340.59 77.3086 340.074C76.6641 339.559 75.7852 339.301 74.6719 339.301C73.9336 339.301 73.2539 339.459 72.6328 339.775C72.0117 340.08 71.4785 340.537 71.0332 341.146C70.5879 341.756 70.2422 342.5 69.9961 343.379C69.75 344.258 69.627 345.271 69.627 346.42V347.158C69.627 348.061 69.75 348.91 69.9961 349.707C70.2539 350.492 70.623 351.184 71.1035 351.781C71.5957 352.379 72.1875 352.848 72.8789 353.188C73.582 353.527 74.3789 353.697 75.2695 353.697C76.418 353.697 77.3906 353.463 78.1875 352.994C78.9844 352.525 79.6816 351.898 80.2793 351.113L82.248 352.678C81.8379 353.299 81.3164 353.891 80.6836 354.453C80.0508 355.016 79.2715 355.473 78.3457 355.824C77.4316 356.176 76.3477 356.352 75.0938 356.352ZM97.2246 351.676L103.693 336.98H106.822L98.3496 356H96.0996L87.6621 336.98H90.791L97.2246 351.676ZM89.8418 336.98V356H86.5898V336.98H89.8418ZM104.502 356V336.98H107.771V356H104.502ZM124.225 352.748V342.957C124.225 342.207 124.072 341.557 123.768 341.006C123.475 340.443 123.029 340.01 122.432 339.705C121.834 339.4 121.096 339.248 120.217 339.248C119.396 339.248 118.676 339.389 118.055 339.67C117.445 339.951 116.965 340.32 116.613 340.777C116.273 341.234 116.104 341.727 116.104 342.254H112.852C112.852 341.574 113.027 340.9 113.379 340.232C113.73 339.564 114.234 338.961 114.891 338.422C115.559 337.871 116.355 337.438 117.281 337.121C118.219 336.793 119.262 336.629 120.41 336.629C121.793 336.629 123.012 336.863 124.066 337.332C125.133 337.801 125.965 338.51 126.562 339.459C127.172 340.396 127.477 341.574 127.477 342.992V351.852C127.477 352.484 127.529 353.158 127.635 353.873C127.752 354.588 127.922 355.203 128.145 355.719V356H124.752C124.588 355.625 124.459 355.127 124.365 354.506C124.271 353.873 124.225 353.287 124.225 352.748ZM124.787 344.469L124.822 346.754H121.535C120.609 346.754 119.783 346.83 119.057 346.982C118.33 347.123 117.721 347.34 117.229 347.633C116.736 347.926 116.361 348.295 116.104 348.74C115.846 349.174 115.717 349.684 115.717 350.27C115.717 350.867 115.852 351.412 116.121 351.904C116.391 352.396 116.795 352.789 117.334 353.082C117.885 353.363 118.559 353.504 119.355 353.504C120.352 353.504 121.23 353.293 121.992 352.871C122.754 352.449 123.357 351.934 123.803 351.324C124.26 350.715 124.506 350.123 124.541 349.549L125.93 351.113C125.848 351.605 125.625 352.15 125.262 352.748C124.898 353.346 124.412 353.92 123.803 354.471C123.205 355.01 122.49 355.461 121.658 355.824C120.838 356.176 119.912 356.352 118.881 356.352C117.592 356.352 116.461 356.1 115.488 355.596C114.527 355.092 113.777 354.418 113.238 353.574C112.711 352.719 112.447 351.764 112.447 350.709C112.447 349.689 112.646 348.793 113.045 348.02C113.443 347.234 114.018 346.584 114.768 346.068C115.518 345.541 116.42 345.143 117.475 344.873C118.529 344.604 119.707 344.469 121.008 344.469H124.787Z" fill="white" fill-opacity="0.7"/>
<path d="M57.4277 422.406V448H54.0879V422.406H57.4277ZM65.6543 422.406V425.184H45.8789V422.406H65.6543ZM75.0938 448.352C73.7695 448.352 72.5684 448.129 71.4902 447.684C70.4238 447.227 69.5039 446.588 68.7305 445.768C67.9688 444.947 67.3828 443.975 66.9727 442.85C66.5625 441.725 66.3574 440.494 66.3574 439.158V438.42C66.3574 436.873 66.5859 435.496 67.043 434.289C67.5 433.07 68.1211 432.039 68.9062 431.195C69.6914 430.352 70.582 429.713 71.5781 429.279C72.5742 428.846 73.6055 428.629 74.6719 428.629C76.0312 428.629 77.2031 428.863 78.1875 429.332C79.1836 429.801 79.998 430.457 80.6309 431.301C81.2637 432.133 81.7324 433.117 82.0371 434.254C82.3418 435.379 82.4941 436.609 82.4941 437.945V439.404H68.291V436.75H79.2422V436.504C79.1953 435.66 79.0195 434.84 78.7148 434.043C78.4219 433.246 77.9531 432.59 77.3086 432.074C76.6641 431.559 75.7852 431.301 74.6719 431.301C73.9336 431.301 73.2539 431.459 72.6328 431.775C72.0117 432.08 71.4785 432.537 71.0332 433.146C70.5879 433.756 70.2422 434.5 69.9961 435.379C69.75 436.258 69.627 437.271 69.627 438.42V439.158C69.627 440.061 69.75 440.91 69.9961 441.707C70.2539 442.492 70.623 443.184 71.1035 443.781C71.5957 444.379 72.1875 444.848 72.8789 445.188C73.582 445.527 74.3789 445.697 75.2695 445.697C76.418 445.697 77.3906 445.463 78.1875 444.994C78.9844 444.525 79.6816 443.898 80.2793 443.113L82.248 444.678C81.8379 445.299 81.3164 445.891 80.6836 446.453C80.0508 447.016 79.2715 447.473 78.3457 447.824C77.4316 448.176 76.3477 448.352 75.0938 448.352ZM97.2246 443.676L103.693 428.98H106.822L98.3496 448H96.0996L87.6621 428.98H90.791L97.2246 443.676ZM89.8418 428.98V448H86.5898V428.98H89.8418ZM104.502 448V428.98H107.771V448H104.502ZM124.225 444.748V434.957C124.225 434.207 124.072 433.557 123.768 433.006C123.475 432.443 123.029 432.01 122.432 431.705C121.834 431.4 121.096 431.248 120.217 431.248C119.396 431.248 118.676 431.389 118.055 431.67C117.445 431.951 116.965 432.32 116.613 432.777C116.273 433.234 116.104 433.727 116.104 434.254H112.852C112.852 433.574 113.027 432.9 113.379 432.232C113.73 431.564 114.234 430.961 114.891 430.422C115.559 429.871 116.355 429.438 117.281 429.121C118.219 428.793 119.262 428.629 120.41 428.629C121.793 428.629 123.012 428.863 124.066 429.332C125.133 429.801 125.965 430.51 126.562 431.459C127.172 432.396 127.477 433.574 127.477 434.992V443.852C127.477 444.484 127.529 445.158 127.635 445.873C127.752 446.588 127.922 447.203 128.145 447.719V448H124.752C124.588 447.625 124.459 447.127 124.365 446.506C124.271 445.873 124.225 445.287 124.225 444.748ZM124.787 436.469L124.822 438.754H121.535C120.609 438.754 119.783 438.83 119.057 438.982C118.33 439.123 117.721 439.34 117.229 439.633C116.736 439.926 116.361 440.295 116.104 440.74C115.846 441.174 115.717 441.684 115.717 442.27C115.717 442.867 115.852 443.412 116.121 443.904C116.391 444.396 116.795 444.789 117.334 445.082C117.885 445.363 118.559 445.504 119.355 445.504C120.352 445.504 121.23 445.293 121.992 444.871C122.754 444.449 123.357 443.934 123.803 443.324C124.26 442.715 124.506 442.123 124.541 441.549L125.93 443.113C125.848 443.605 125.625 444.15 125.262 444.748C124.898 445.346 124.412 445.92 123.803 446.471C123.205 447.01 122.49 447.461 121.658 447.824C120.838 448.176 119.912 448.352 118.881 448.352C117.592 448.352 116.461 448.1 115.488 447.596C114.527 447.092 113.777 446.418 113.238 445.574C112.711 444.719 112.447 443.764 112.447 442.709C112.447 441.689 112.646 440.793 113.045 440.02C113.443 439.234 114.018 438.584 114.768 438.068C115.518 437.541 116.42 437.143 117.475 436.873C118.529 436.604 119.707 436.469 121.008 436.469H124.787Z" fill="white" fill-opacity="0.7"/>
<path d="M57.4277 514.406V540H54.0879V514.406H57.4277ZM65.6543 514.406V517.184H45.8789V514.406H65.6543ZM75.0938 540.352C73.7695 540.352 72.5684 540.129 71.4902 539.684C70.4238 539.227 69.5039 538.588 68.7305 537.768C67.9688 536.947 67.3828 535.975 66.9727 534.85C66.5625 533.725 66.3574 532.494 66.3574 531.158V530.42C66.3574 528.873 66.5859 527.496 67.043 526.289C67.5 525.07 68.1211 524.039 68.9062 523.195C69.6914 522.352 70.582 521.713 71.5781 521.279C72.5742 520.846 73.6055 520.629 74.6719 520.629C76.0312 520.629 77.2031 520.863 78.1875 521.332C79.1836 521.801 79.998 522.457 80.6309 523.301C81.2637 524.133 81.7324 525.117 82.0371 526.254C82.3418 527.379 82.4941 528.609 82.4941 529.945V531.404H68.291V528.75H79.2422V528.504C79.1953 527.66 79.0195 526.84 78.7148 526.043C78.4219 525.246 77.9531 524.59 77.3086 524.074C76.6641 523.559 75.7852 523.301 74.6719 523.301C73.9336 523.301 73.2539 523.459 72.6328 523.775C72.0117 524.08 71.4785 524.537 71.0332 525.146C70.5879 525.756 70.2422 526.5 69.9961 527.379C69.75 528.258 69.627 529.271 69.627 530.42V531.158C69.627 532.061 69.75 532.91 69.9961 533.707C70.2539 534.492 70.623 535.184 71.1035 535.781C71.5957 536.379 72.1875 536.848 72.8789 537.188C73.582 537.527 74.3789 537.697 75.2695 537.697C76.418 537.697 77.3906 537.463 78.1875 536.994C78.9844 536.525 79.6816 535.898 80.2793 535.113L82.248 536.678C81.8379 537.299 81.3164 537.891 80.6836 538.453C80.0508 539.016 79.2715 539.473 78.3457 539.824C77.4316 540.176 76.3477 540.352 75.0938 540.352ZM97.2246 535.676L103.693 520.98H106.822L98.3496 540H96.0996L87.6621 520.98H90.791L97.2246 535.676ZM89.8418 520.98V540H86.5898V520.98H89.8418ZM104.502 540V520.98H107.771V540H104.502ZM124.225 536.748V526.957C124.225 526.207 124.072 525.557 123.768 525.006C123.475 524.443 123.029 524.01 122.432 523.705C121.834 523.4 121.096 523.248 120.217 523.248C119.396 523.248 118.676 523.389 118.055 523.67C117.445 523.951 116.965 524.32 116.613 524.777C116.273 525.234 116.104 525.727 116.104 526.254H112.852C112.852 525.574 113.027 524.9 113.379 524.232C113.73 523.564 114.234 522.961 114.891 522.422C115.559 521.871 116.355 521.438 117.281 521.121C118.219 520.793 119.262 520.629 120.41 520.629C121.793 520.629 123.012 520.863 124.066 521.332C125.133 521.801 125.965 522.51 126.562 523.459C127.172 524.396 127.477 525.574 127.477 526.992V535.852C127.477 536.484 127.529 537.158 127.635 537.873C127.752 538.588 127.922 539.203 128.145 539.719V540H124.752C124.588 539.625 124.459 539.127 124.365 538.506C124.271 537.873 124.225 537.287 124.225 536.748ZM124.787 528.469L124.822 530.754H121.535C120.609 530.754 119.783 530.83 119.057 530.982C118.33 531.123 117.721 531.34 117.229 531.633C116.736 531.926 116.361 532.295 116.104 532.74C115.846 533.174 115.717 533.684 115.717 534.27C115.717 534.867 115.852 535.412 116.121 535.904C116.391 536.396 116.795 536.789 117.334 537.082C117.885 537.363 118.559 537.504 119.355 537.504C120.352 537.504 121.23 537.293 121.992 536.871C122.754 536.449 123.357 535.934 123.803 535.324C124.26 534.715 124.506 534.123 124.541 533.549L125.93 535.113C125.848 535.605 125.625 536.15 125.262 536.748C124.898 537.346 124.412 537.92 123.803 538.471C123.205 539.01 122.49 539.461 121.658 539.824C120.838 540.176 119.912 540.352 118.881 540.352C117.592 540.352 116.461 540.1 115.488 539.596C114.527 539.092 113.777 538.418 113.238 537.574C112.711 536.719 112.447 535.764 112.447 534.709C112.447 533.689 112.646 532.793 113.045 532.02C113.443 531.234 114.018 530.584 114.768 530.068C115.518 529.541 116.42 529.143 117.475 528.873C118.529 528.604 119.707 528.469 121.008 528.469H124.787Z" fill="white" fill-opacity="0.7"/>
</svg>
