<svg width="42" height="42" viewBox="0 0 42 42" fill="none" xmlns="http://www.w3.org/2000/svg">
<path d="M7 21C7 16.3365 7 14.0047 7.84323 12.1964C8.73746 10.2788 10.2788 8.73746 12.1964 7.84323C14.0047 7 16.3365 7 21 7V7C25.6635 7 27.9952 7 29.8036 7.84323C31.7212 8.73746 33.2625 10.2788 34.1568 12.1964C35 14.0047 35 16.3365 35 21V31C35 32.8856 35 33.8284 34.4142 34.4142C33.8284 35 32.8856 35 31 35H21C16.3365 35 14.0047 35 12.1964 34.1568C10.2788 33.2625 8.73746 31.7212 7.84323 29.8036C7 27.9952 7 25.6635 7 21V21Z" stroke="white" stroke-width="2"/>
<path d="M15.75 19.25L26.25 19.25" stroke="white" stroke-width="2" stroke-linecap="round" stroke-linejoin="round"/>
<path d="M21 26.25H26.25" stroke="white" stroke-width="2" stroke-linecap="round" stroke-linejoin="round"/>
</svg>
