<svg width="28" height="25" viewBox="0 0 28 25" fill="none" xmlns="http://www.w3.org/2000/svg">
<path d="M26.9125 0.962447C26.6351 0.727357 26.2991 0.571833 25.9403 0.512406C25.5816 0.45298 25.2134 0.491871 24.875 0.624947L1.8 9.68745C1.39527 9.84165 1.05245 10.1246 0.82432 10.4928C0.596195 10.8609 0.495415 11.2939 0.537501 11.7249C0.575048 12.1558 0.75127 12.5629 1.03974 12.8852C1.32821 13.2075 1.71338 13.4276 2.1375 13.5124L8 14.6749V21.9999C7.99979 22.3962 8.1173 22.7836 8.33763 23.113C8.55795 23.4424 8.87116 23.6989 9.2375 23.8499C9.47995 23.9475 9.73866 23.9984 10 23.9999C10.2627 24.0009 10.5229 23.9494 10.7654 23.8485C11.008 23.7476 11.228 23.5994 11.4125 23.4124L14.6625 20.1749L19.575 24.4999C19.9377 24.8198 20.4039 24.9974 20.8875 24.9999C21.1001 25.0043 21.3118 24.9705 21.5125 24.8999C21.8424 24.7956 22.1393 24.6069 22.3738 24.3526C22.6084 24.0983 22.7726 23.7871 22.85 23.4499L27.55 2.92495C27.6321 2.57078 27.6162 2.20092 27.5039 1.85513C27.3916 1.50935 27.1871 1.20073 26.9125 0.962447ZM8.7625 12.7874L2.5375 11.5499L19.9875 4.68745L8.7625 12.7874ZM10 21.9999V16.0749L13.15 18.8499L10 21.9999ZM20.9 22.9999L10.6 13.9374L25.4375 3.22495L20.9 22.9999Z" fill="#E5E5E5"/>
</svg>
