<svg width="825" height="517" viewBox="0 0 825 517" fill="none" xmlns="http://www.w3.org/2000/svg">
<path d="M270.081 321.499L368.151 378.129L466.221 321.499L368.151 264.88L270.081 321.499Z" fill="url(#paint0_linear_18_6422)"/>
<path d="M271.004 282.241L369.075 338.871L467.145 282.241L369.075 225.622L271.004 282.241Z" fill="url(#paint1_linear_18_6422)"/>
<path d="M407.444 332.176L482.797 375.682L558.151 332.176L482.797 288.67L407.444 332.176Z" fill="url(#paint2_linear_18_6422)"/>
<path d="M389.425 359.73L438.749 388.207L488.072 359.73L438.749 331.253L389.425 359.73Z" fill="url(#paint3_linear_18_6422)"/>
<path d="M466.914 396.298L496.995 413.659L527.065 396.298L496.995 378.926L466.914 396.298Z" fill="url(#paint4_linear_18_6422)"/>
<path d="M511.274 290.933L530.851 302.234L550.428 290.933L530.851 279.621L511.274 290.933Z" fill="url(#paint5_linear_18_6422)"/>
<path opacity="0.5" d="M245.056 316.431L266.907 329.059L288.758 316.431L266.907 303.814L245.056 316.431Z" fill="url(#paint6_linear_18_6422)"/>
<path d="M143.615 217.484L241.697 274.115L339.767 217.484L241.697 160.865L143.615 217.484Z" fill="url(#paint7_linear_18_6422)"/>
<path d="M37.1064 270.339L100.524 306.954L163.942 270.339L100.524 233.725L37.1064 270.339Z" fill="url(#paint8_linear_18_6422)"/>
<path d="M81.4666 412.296L144.884 448.9L208.291 412.296L144.884 375.682L81.4666 412.296Z" fill="url(#paint9_linear_18_6422)"/>
<path d="M311.717 487.061L362.103 516.15L412.488 487.061L362.103 457.973L311.717 487.061Z" fill="url(#paint10_linear_18_6422)"/>
<path d="M549.921 447.25L600.306 476.338L650.692 447.25L600.306 418.161L549.921 447.25Z" fill="url(#paint11_linear_18_6422)"/>
<path d="M681.835 325.435L732.221 354.535L782.606 325.435L732.221 296.357L681.835 325.435Z" fill="url(#paint12_linear_18_6422)"/>
<path d="M525.068 238.804L600.306 282.241L675.533 238.804L600.306 195.379L525.068 238.804Z" fill="url(#paint13_linear_18_6422)"/>
<path d="M511.124 100.644L566.173 132.422L621.234 100.644L566.173 68.8545L511.124 100.644Z" fill="url(#paint14_linear_18_6422)"/>
<path d="M455.717 97.2396L501.716 123.8L547.716 97.2396L501.716 70.6904L455.717 97.2396Z" fill="url(#paint15_linear_18_6422)"/>
<path opacity="0.3" d="M330.174 160.866L369.052 183.317L407.929 160.866L369.052 138.426L330.174 160.866Z" fill="url(#paint16_linear_18_6422)"/>
<path opacity="0.3" d="M345.388 101.406L393.327 129.086L441.265 101.406L393.327 73.7256L345.388 101.406Z" fill="url(#paint17_linear_18_6422)"/>
<path opacity="0.3" d="M161.541 290.933L196.159 310.914L230.777 290.933L196.159 270.94L161.541 290.933Z" fill="url(#paint18_linear_18_6422)"/>
<path opacity="0.3" d="M659.695 424.89L694.313 444.883L728.931 424.89L694.313 404.909L659.695 424.89Z" fill="url(#paint19_linear_18_6422)"/>
<path opacity="0.3" d="M277.099 409.111L311.717 429.092L346.335 409.111L311.717 389.118L277.099 409.111Z" fill="url(#paint20_linear_18_6422)"/>
<path opacity="0.3" d="M705.96 165.414L740.578 185.395L775.196 165.414L740.578 145.421L705.96 165.414Z" fill="url(#paint21_linear_18_6422)"/>
<path opacity="0.3" d="M545.742 267.477C538.297 336.066 476.668 385.632 408.079 378.186C339.49 370.741 289.924 309.112 297.369 240.523C304.814 171.934 366.443 122.368 435.032 129.813C503.61 137.259 553.176 198.899 545.742 267.477Z" fill="url(#paint22_radial_18_6422)"/>
<path opacity="0.3" d="M200.441 208.804C194.451 263.991 144.873 303.873 89.6738 297.882C34.4862 291.891 -5.39527 242.302 0.595602 187.126C6.58647 131.938 56.1757 92.0569 111.363 98.0478C166.551 104.039 206.432 153.628 200.441 208.804Z" fill="url(#paint23_radial_18_6422)"/>
<path opacity="0.3" d="M318.054 419.949C312.063 475.137 262.486 515.018 207.287 509.027C152.099 503.037 112.218 453.447 118.208 398.271C124.199 343.084 173.788 303.202 228.976 309.193C284.164 315.173 324.034 364.762 318.054 419.949Z" fill="url(#paint24_radial_18_6422)"/>
<path opacity="0.3" d="M746.604 215.649C740.613 270.836 691.035 310.718 635.836 304.727C580.648 298.736 540.767 249.147 546.758 193.971C552.749 138.783 602.338 98.9016 657.525 104.892C712.701 110.872 752.583 160.461 746.604 215.649Z" fill="url(#paint25_radial_18_6422)"/>
<path d="M400.356 435.198L369.052 453.263V489.416L400.356 507.493L431.661 489.416V453.263L400.356 435.198Z" fill="url(#paint26_linear_18_6422)"/>
<g opacity="0.7">
<path opacity="0.7" d="M369.075 453.252L400.356 471.305L431.627 453.252L400.356 435.198L369.075 453.252Z" fill="url(#paint27_linear_18_6422)"/>
<path opacity="0.7" d="M431.627 453.252L400.356 471.305V507.424L431.627 489.37V453.252Z" fill="url(#paint28_linear_18_6422)"/>
</g>
<path d="M442.165 464.159C442.165 470.878 436.717 473.325 429.999 469.608L381.206 442.701C374.488 438.996 369.04 430.546 369.04 423.828V391.507C369.04 384.789 374.488 382.342 381.206 386.047L429.999 412.954C436.717 416.66 442.165 425.109 442.165 431.827V464.159Z" fill="url(#paint29_linear_18_6422)"/>
<path d="M393.327 404.759L421.55 436.629L393.327 437.357V404.759Z" fill="white"/>
<path d="M68.2844 222.101L182.33 155.289L254.798 196.844" stroke="white" stroke-width="3" stroke-miterlimit="10" stroke-linecap="round" stroke-linejoin="round"/>
<path d="M544.241 24.0791L506.599 45.8148V89.2861L544.241 111.022L581.883 89.2861V45.8148L544.241 24.0791Z" fill="url(#paint30_linear_18_6422)"/>
<g opacity="0.7">
<path opacity="0.7" d="M506.634 45.7917L544.241 67.5043L581.849 45.7917L544.241 24.0791L506.634 45.7917Z" fill="url(#paint31_linear_18_6422)"/>
<path opacity="0.7" d="M581.849 45.791L544.241 67.5036V110.94L581.849 89.2277V45.791Z" fill="url(#paint32_linear_18_6422)"/>
</g>
<path d="M565.169 60.6475L523.302 36.2684L528.808 0L559.663 17.9726L565.169 60.6475Z" fill="white"/>
<path d="M555.161 20.8929C555.161 22.0588 554.214 22.4513 553.049 21.7818C551.883 21.1007 550.936 19.6117 550.936 18.4343C550.936 17.2684 551.883 16.8759 553.049 17.557C554.214 18.238 555.161 19.7271 555.161 20.8929Z" fill="#2F2E3D"/>
<path d="M537.535 10.6306C537.535 11.7964 536.588 12.1889 535.422 11.5079C534.256 10.8268 533.31 9.32622 533.31 8.16036C533.31 6.99451 534.256 6.60204 535.422 7.27154C536.588 7.97567 537.535 9.46473 537.535 10.6306Z" fill="#2F2E3D"/>
<path d="M553.049 20.6737C552.495 20.3505 552.044 19.6348 552.044 19.0807V16.3797C552.044 12.0741 548.547 6.53338 544.241 4.02853C539.936 1.52368 536.438 2.98965 536.438 7.28369V9.98477C536.438 10.5388 535.988 10.7351 535.422 10.4119C534.868 10.0887 534.418 9.37299 534.418 8.81892V6.11783C534.418 0.704114 538.828 -1.14278 544.241 2.02003C549.655 5.1713 554.064 12.1433 554.064 17.557V20.2581C554.064 20.8122 553.614 20.9969 553.049 20.6737Z" fill="url(#paint33_linear_18_6422)"/>
<path d="M550.821 38.5996C550.821 36.568 549.574 34.3056 547.612 32.7819C549.263 33.2783 550.29 32.551 550.29 30.9004C550.29 29.2497 549.216 27.3797 547.381 25.7175V23.9976C547.704 24.0553 547.935 23.8591 547.935 23.4897C547.935 22.9934 547.531 22.3585 547.035 22.0699C546.538 21.7813 546.134 21.9429 546.134 22.4508C546.134 22.8202 546.365 23.2704 546.688 23.6051V25.1288C546.042 24.6094 545.338 24.1246 544.564 23.6744L544.414 23.5821V22.2777C544.738 22.3354 544.968 22.1392 544.968 21.7698C544.968 21.2734 544.564 20.6386 544.068 20.35C543.572 20.0614 543.168 20.223 543.168 20.7309C543.168 21.1003 543.399 21.5505 543.722 21.8852V23.1896L541.448 21.8621V20.5578C541.771 20.6155 542.002 20.4192 542.002 20.0499C542.002 19.5535 541.598 18.9186 541.102 18.6301C540.605 18.3415 540.201 18.5146 540.201 19.011C540.201 19.3804 540.432 19.8305 540.755 20.1653V21.4697L538.724 20.2807V35.8639L540.755 37.0529V38.4149C540.432 38.3572 540.201 38.5535 540.201 38.9228C540.201 39.4192 540.605 40.0541 541.102 40.3426C541.598 40.6312 542.002 40.4696 542.002 39.9617C542.002 39.5923 541.771 39.1422 541.448 38.8074V37.4453L543.722 38.7728V40.1349C543.399 40.0772 543.168 40.2734 543.168 40.6428C543.168 41.1391 543.572 41.774 544.068 42.0626C544.564 42.3511 544.968 42.1895 544.968 41.6816C544.968 41.3123 544.738 40.8621 544.414 40.5273V39.1652L544.83 39.4076C545.499 39.8001 546.123 40.1002 546.688 40.3311V41.8548C546.365 41.7971 546.134 41.9933 546.134 42.3627C546.134 42.859 546.538 43.4939 547.035 43.7825C547.531 44.0711 547.935 43.8979 547.935 43.4016C547.935 43.0322 547.704 42.582 547.381 42.2473V40.5966C549.551 41.243 550.821 40.562 550.821 38.5996ZM542.671 26.7333L545.13 28.1647C546.019 28.6841 546.573 29.446 546.573 30.2193C546.573 30.9812 546.007 31.1312 545.13 30.6233L542.671 29.192V26.7333ZM542.671 34.0055V31.3621L545.13 32.7935C546.25 33.4514 546.954 34.3518 546.954 35.1482C546.954 36.0024 546.261 36.0832 545.13 35.4368L542.671 34.0055Z" fill="url(#paint34_linear_18_6422)"/>
<path d="M241.454 143.111L198.675 167.814V217.218L241.454 241.92L284.244 217.218V167.814L241.454 143.111Z" fill="url(#paint35_linear_18_6422)"/>
<g opacity="0.7">
<path opacity="0.7" d="M198.71 167.779L241.466 192.47L284.21 167.779L241.466 143.111L198.71 167.779Z" fill="url(#paint36_linear_18_6422)"/>
<path opacity="0.7" d="M284.21 167.779L241.466 192.47V241.828L284.21 217.149V167.779Z" fill="url(#paint37_linear_18_6422)"/>
</g>
<path d="M267.969 144.162C267.969 159.837 255.26 165.343 239.573 156.444C223.897 147.544 211.177 127.621 211.177 111.945C211.177 96.2694 223.885 90.7634 239.573 99.6631C255.26 108.563 267.969 128.486 267.969 144.162Z" fill="url(#paint38_linear_18_6422)"/>
<path d="M257.903 171.935C252.155 171.935 245.633 169.961 239.03 166.221C218.218 154.412 201.284 127.84 201.284 106.982C201.284 92.9336 208.937 84.207 221.265 84.207C227.014 84.207 233.535 86.1809 240.138 89.9209C260.95 101.729 277.884 128.302 277.884 149.16C277.873 163.208 270.219 171.935 257.903 171.935ZM222.304 88.7896C211.823 88.7896 205.567 96.0272 205.567 108.171C205.567 127.17 221.057 151.411 240.104 162.215C246.002 165.563 251.797 167.34 256.864 167.34C267.345 167.34 273.602 160.091 273.602 147.96C273.602 128.96 258.111 104.719 239.065 93.9148C233.155 90.5673 227.36 88.7896 222.304 88.7896Z" fill="white"/>
<path d="M244.617 130.356C247.537 131.661 249.35 130.668 249.35 127.748C249.35 124.816 247.445 121.249 244.213 117.809V114.773C244.79 114.958 245.182 114.681 245.182 114.023C245.182 113.146 244.467 111.911 243.589 111.276C242.712 110.629 241.997 110.826 241.997 111.703C241.997 112.361 242.401 113.226 242.966 113.884V116.586C241.835 115.5 240.577 114.45 239.215 113.446L238.949 113.25V110.941C239.526 111.114 239.919 110.849 239.919 110.191C239.919 109.313 239.203 108.078 238.326 107.443C237.449 106.797 236.733 106.993 236.733 107.87C236.733 108.528 237.137 109.394 237.703 110.052V112.361L233.686 109.417V107.109C234.263 107.293 234.655 107.016 234.655 106.358C234.655 105.481 233.939 104.246 233.062 103.611C232.185 102.965 231.469 103.161 231.469 104.038C231.469 104.696 231.873 105.562 232.439 106.22V108.528L228.837 105.897V133.462L232.439 136.093V138.506C231.862 138.333 231.469 138.598 231.469 139.256C231.469 140.133 232.185 141.369 233.062 142.003C233.939 142.65 234.655 142.454 234.655 141.576C234.655 140.918 234.251 140.064 233.686 139.395V136.982L237.703 139.926V142.338C237.125 142.153 236.733 142.431 236.733 143.088C236.733 143.966 237.449 145.201 238.326 145.836C239.203 146.482 239.919 146.286 239.919 145.409C239.919 144.751 239.515 143.885 238.949 143.227V140.814L239.688 141.357C240.865 142.223 241.962 142.927 242.978 143.481V146.17C242.412 145.997 242.008 146.263 242.008 146.921C242.008 147.798 242.724 149.033 243.601 149.668C244.478 150.314 245.194 150.118 245.194 149.241C245.194 148.583 244.79 147.717 244.224 147.059V144.081C248.045 145.813 250.308 144.947 250.308 141.461C250.285 137.894 248.08 133.565 244.617 130.356ZM234.747 115.512L240.415 119.668C242.47 121.168 243.763 123.142 243.763 124.92C243.763 126.697 242.47 126.847 240.415 125.347L234.747 121.191V115.512ZM240.415 136.486L234.747 132.33V126.224L240.415 130.38C243.012 132.284 244.628 134.604 244.628 136.463C244.628 138.437 243.012 138.39 240.415 136.486Z" fill="white"/>
<path d="M442.062 240.847L556.108 174.024L628.564 215.58" stroke="white" stroke-width="3" stroke-miterlimit="10" stroke-linecap="round" stroke-linejoin="round"/>
<path d="M566.173 81.3213L690.377 158.037L617.909 199.592" stroke="white" stroke-width="3" stroke-miterlimit="10" stroke-linecap="round" stroke-linejoin="round"/>
<path d="M268.072 203.725L401.118 280.025" stroke="white" stroke-width="3" stroke-miterlimit="10" stroke-linecap="round" stroke-linejoin="round"/>
<path d="M416.84 184.055L336.615 230.366V322.999L416.84 369.322L497.065 322.999V230.366L416.84 184.055Z" fill="url(#paint39_linear_18_6422)"/>
<g opacity="0.7">
<path opacity="0.7" d="M336.685 230.319L416.84 276.596L496.995 230.319L416.84 184.055L336.685 230.319Z" fill="url(#paint40_linear_18_6422)"/>
<path opacity="0.7" d="M496.995 230.319L416.84 276.596V369.148L496.995 322.872V230.319Z" fill="url(#paint41_linear_18_6422)"/>
</g>
<path d="M455.717 304.83L587.562 381.938" stroke="white" stroke-width="3" stroke-miterlimit="10" stroke-linecap="round" stroke-linejoin="round"/>
<path d="M376.855 304.564L198.421 409.11" stroke="white" stroke-width="3" stroke-miterlimit="10" stroke-linecap="round" stroke-linejoin="round"/>
<path d="M415.72 98.6478C441.923 106.116 463.116 141.346 463.047 177.314C462.978 213.282 441.681 236.392 415.478 228.912C389.275 221.443 368.082 186.214 368.151 150.245C368.221 114.277 389.518 91.1794 415.72 98.6478Z" fill="white"/>
<path d="M415.697 112.614C436.29 118.49 452.935 146.159 452.878 174.416C452.831 202.685 436.094 220.831 415.501 214.956C394.908 209.08 378.263 181.411 378.321 153.154C378.378 124.885 395.104 106.739 415.697 112.614Z" fill="url(#paint42_linear_18_6422)"/>
<path d="M406.865 147.118V172.296L403.912 170.704L392.755 145.27V164.689L389.817 163.106V137.928L392.755 139.512L403.958 165.022V145.551L406.865 147.118ZM415.008 151.508V176.686L412.071 175.102V149.925L415.008 151.508ZM424.293 167.841V170.573L414.369 165.223V162.49L424.293 167.841ZM425.8 157.326V160.059L414.369 153.896V151.164L425.8 157.326ZM437.795 163.793V188.97L434.903 187.411V162.234L437.795 163.793ZM444.918 167.633V170.365L427.794 161.134V158.401L444.918 167.633Z" fill="white"/>
<path d="M632.234 154.031L577.277 185.763V249.227L632.234 280.948L687.191 249.227V185.763L632.234 154.031Z" fill="url(#paint43_linear_18_6422)"/>
<g opacity="0.7">
<path opacity="0.7" d="M577.324 185.729L632.234 217.426L687.145 185.729L632.234 154.031L577.324 185.729Z" fill="url(#paint44_linear_18_6422)"/>
<path opacity="0.7" d="M687.145 185.729L632.234 217.426V280.832L687.145 249.135V185.729Z" fill="url(#paint45_linear_18_6422)"/>
</g>
<path d="M666.367 202.328C666.367 206.702 662.824 208.168 658.437 205.606L608.213 176.356C603.838 173.781 600.283 168.148 600.283 163.774V129.167C600.283 124.793 603.827 123.327 608.213 125.889L658.437 155.139C662.812 157.702 666.367 163.335 666.367 167.721V202.328Z" fill="white"/>
<path d="M600.306 154.02V163.773C600.306 164.004 600.318 164.235 600.341 164.466L666.344 202.974C666.367 202.766 666.379 202.547 666.379 202.316V192.562L600.306 154.02Z" fill="url(#paint46_linear_18_6422)"/>
<path d="M656.937 175.756C656.937 179.819 653.635 181.181 649.572 178.803C645.509 176.414 642.208 171.185 642.208 167.11C642.208 163.047 645.509 161.673 649.572 164.063C653.635 166.452 656.937 171.681 656.937 175.756Z" fill="#2F2E3D"/>
<path d="M646.675 169.73C646.675 173.793 643.373 175.156 639.31 172.778C635.235 170.388 631.946 165.159 631.946 161.085C631.946 157.021 635.247 155.648 639.31 158.037C643.385 160.427 646.675 165.667 646.675 169.73Z" fill="url(#paint47_linear_18_6422)"/>
<path d="M600.295 339.425L554.896 365.639V418.08L600.295 444.294L645.705 418.08V365.639L600.295 339.425Z" fill="url(#paint48_linear_18_6422)"/>
<g opacity="0.7">
<path opacity="0.7" d="M554.93 365.616L600.306 391.819L645.67 365.616L600.306 339.425L554.93 365.616Z" fill="url(#paint49_linear_18_6422)"/>
<path opacity="0.7" d="M645.67 365.616L600.306 391.819V444.202L645.67 418.01V365.616Z" fill="url(#paint50_linear_18_6422)"/>
</g>
<path d="M628.517 349.651C628.517 365.235 615.878 370.706 600.294 361.864C584.711 353.022 572.072 333.226 572.072 317.642C572.072 302.059 584.7 296.588 600.294 305.43C615.889 314.26 628.517 334.068 628.517 349.651Z" fill="white"/>
<path d="M617.471 374.77C612.08 374.77 605.962 372.912 599.787 369.414C580.279 358.344 564.407 333.434 564.407 313.88C564.407 300.709 571.587 292.525 583.13 292.525C588.521 292.525 594.638 294.384 600.814 297.881C620.322 308.951 636.194 333.861 636.194 353.415C636.205 366.586 629.025 374.77 617.471 374.77ZM583.13 294.615C572.718 294.615 566.496 301.818 566.496 313.869C566.496 332.753 581.895 356.844 600.814 367.59C606.678 370.915 612.438 372.681 617.471 372.681C627.883 372.681 634.104 365.478 634.104 353.415C634.104 334.531 618.706 310.44 599.787 299.705C593.911 296.369 588.151 294.615 583.13 294.615Z" fill="white"/>
<path d="M613.8 334.865L603.203 318.266C601.599 315.75 599.002 314.272 597.397 314.976L586.801 319.559C585.277 320.217 585.219 322.583 586.581 324.973V334.9C586.581 338.801 589.744 343.765 593.646 345.981L606.943 353.53C610.845 355.747 614.008 354.373 614.008 350.471V340.544C615.381 339.69 615.312 337.255 613.8 334.865Z" fill="url(#paint51_linear_18_6422)"/>
<path d="M604.865 337.335C604.865 334.807 602.822 331.61 600.294 330.178C597.778 328.747 595.735 329.636 595.735 332.152C595.735 333.837 596.647 335.834 598.02 337.393V339.124C598.02 340.382 599.048 341.987 600.306 342.703C601.564 343.418 602.591 342.98 602.591 341.71V339.978C603.942 339.967 604.865 339.02 604.865 337.335Z" fill="white"/>
<path d="M201.388 354.165L161.079 377.436V423.989L201.388 447.249L241.697 423.989V377.436L201.388 354.165Z" fill="url(#paint52_linear_18_6422)"/>
<g opacity="0.7">
<path opacity="0.7" d="M161.114 377.413L201.388 400.672L241.662 377.413L201.388 354.165L161.114 377.413Z" fill="url(#paint53_linear_18_6422)"/>
<path opacity="0.7" d="M241.662 377.413L201.388 400.672V447.168L241.662 423.92V377.413Z" fill="url(#paint54_linear_18_6422)"/>
</g>
<path d="M224.82 368.456C224.82 382.216 213.658 386.983 199.899 379.088C186.139 371.204 174.977 353.647 174.977 339.887C174.977 326.128 186.139 321.361 199.899 329.256C213.658 337.14 224.82 354.686 224.82 368.456Z" fill="url(#paint55_linear_18_6422)"/>
<path d="M200.153 372.75L182.33 346.177L190.93 341.745L199.783 354.927L232.473 340.706L241.466 354.846L200.153 372.75Z" fill="white"/>
<path d="M92.9866 165.228L50.9467 189.491V238.03L92.9866 262.305L135.027 238.03V189.491L92.9866 165.228Z" fill="url(#paint56_linear_18_6422)"/>
<g opacity="0.7">
<path opacity="0.7" d="M50.9813 189.468L92.9867 213.72L134.981 189.468L92.9867 165.228L50.9813 189.468Z" fill="url(#paint57_linear_18_6422)"/>
<path opacity="0.7" d="M134.981 189.469L92.9867 213.721V262.213L134.981 237.973V189.469Z" fill="url(#paint58_linear_18_6422)"/>
</g>
<path d="M55.5408 115.974V169.049L133.711 214.471V161.396L55.5408 115.974ZM129.197 207.245L60.031 167.052V123.2L129.197 163.393V207.245Z" fill="white"/>
<path d="M126.842 164.489L62.3973 127.031V157.424L77.1956 151.226L93.0789 176.332L103.583 171.934L121.544 200.33L126.842 203.412V164.489Z" fill="url(#paint59_linear_18_6422)"/>
<path d="M93.079 176.332L100.524 188.118L121.544 200.331L103.583 171.935L93.079 176.332Z" fill="white"/>
<path d="M93.0789 176.333L77.1956 151.227L62.3973 157.425V165.956L85.6221 179.449L100.524 188.118L93.0789 176.333Z" fill="white"/>
<path d="M224.301 412.297L364.238 492.314L382.176 481.809" stroke="white" stroke-width="3" stroke-miterlimit="10" stroke-linecap="round" stroke-linejoin="round"/>
<path d="M659.695 234.198L783.888 310.914" stroke="white" stroke-width="3" stroke-miterlimit="10" stroke-linecap="round" stroke-linejoin="round"/>
<path d="M416.84 79.393L316.392 21.4004V330.213L416.84 388.217V388.206V79.393Z" fill="url(#paint60_linear_18_6422)"/>
<path d="M517.3 21.4014L416.84 79.3939V388.207L517.3 330.214V21.4014Z" fill="url(#paint61_linear_18_6422)"/>
<path d="M416.84 79.393L316.392 21.4004V330.213L416.84 388.217V388.206V79.393Z" fill="url(#paint62_linear_18_6422)"/>
<path d="M517.3 21.4014L416.84 79.3939V388.207L517.3 330.214V21.4014Z" fill="url(#paint63_linear_18_6422)"/>
<path d="M777.066 263.183L735.037 287.458V335.997L777.066 360.272L819.106 335.997V287.458L777.066 263.183Z" fill="url(#paint64_linear_18_6422)"/>
<g opacity="0.7">
<path opacity="0.7" d="M735.072 287.435L777.066 311.687L819.071 287.435L777.066 263.183L735.072 287.435Z" fill="url(#paint65_linear_18_6422)"/>
<path opacity="0.7" d="M819.071 287.435L777.066 311.687V360.179L819.071 335.939V287.435Z" fill="url(#paint66_linear_18_6422)"/>
</g>
<path d="M824.635 318.129L740.578 270.225V202.975L824.635 250.89V318.129Z" fill="url(#paint67_linear_18_6422)"/>
<path d="M754.707 266.183C754.43 266.022 754.153 265.791 753.899 265.479C753.206 264.637 753.022 263.621 753.46 263.182L771.652 245.637C771.906 245.383 772.345 245.383 772.818 245.637C773.291 245.891 773.753 246.352 774.041 246.883L788.263 272.578L805.346 256.106C805.797 255.668 806.709 256.002 807.401 256.845C808.082 257.676 808.278 258.715 807.84 259.142L789.648 276.688C789.394 276.942 788.955 276.942 788.482 276.699C788.009 276.445 787.547 275.984 787.258 275.453L773.037 249.758L755.953 266.23C755.665 266.495 755.192 266.461 754.707 266.183Z" fill="white"/>
<path d="M793.076 277.819C793.076 280.393 790.987 281.294 788.413 279.828C785.839 278.362 783.749 275.072 783.749 272.498C783.749 269.924 785.839 269.023 788.413 270.489C790.987 271.967 793.076 275.245 793.076 277.819Z" fill="white"/>
<path d="M777.354 249.977C777.354 252.552 775.265 253.452 772.691 251.986C770.117 250.52 768.027 247.23 768.027 244.656C768.027 242.082 770.117 241.182 772.691 242.648C775.265 244.125 777.354 247.403 777.354 249.977Z" fill="white"/>
<path d="M772.691 256.315C767.727 253.487 763.687 247.15 763.687 242.186C763.687 237.222 767.727 235.491 772.691 238.319C777.654 241.147 781.683 247.484 781.683 252.448C781.683 257.411 777.654 259.143 772.691 256.315ZM772.691 238.908C768.062 236.264 764.288 237.892 764.288 242.521C764.288 247.15 768.062 253.071 772.691 255.715C777.32 258.358 781.094 256.73 781.094 252.102C781.094 247.473 777.32 241.551 772.691 238.908Z" fill="white"/>
<path d="M811.268 260.608C811.268 263.182 809.179 264.083 806.605 262.617C804.031 261.151 801.941 257.861 801.941 255.287C801.941 252.713 804.031 251.812 806.605 253.278C809.179 254.744 811.268 258.023 811.268 260.608Z" fill="white"/>
<path d="M806.605 266.506C801.883 263.817 798.04 257.78 798.04 253.059C798.04 248.338 801.883 246.687 806.605 249.377C811.326 252.066 815.169 258.103 815.169 262.824C815.169 267.545 811.326 269.208 806.605 266.506ZM806.605 249.977C802.207 247.472 798.628 249.007 798.628 253.405C798.628 257.803 802.207 263.413 806.605 265.918C811.002 268.423 814.581 266.887 814.581 262.489C814.581 258.092 811.002 252.482 806.605 249.977Z" fill="white"/>
<path d="M759.382 267.361C759.382 269.935 757.292 270.836 754.718 269.37C752.144 267.904 750.055 264.626 750.055 262.04C750.055 259.466 752.144 258.565 754.718 260.031C757.292 261.509 759.382 264.787 759.382 267.361Z" fill="white"/>
<path d="M511.124 142.153L500.446 154.608L511.124 171.577L521.801 159.122L511.124 142.153ZM504.533 155.474L517.726 158.268L511.135 165.967L504.533 155.474Z" fill="white"/>
<path d="M511.124 152.483C502.663 150.694 494.086 150.694 494.086 154.169C494.086 157.124 500.308 160.194 507.384 162.145C507.072 161.614 507.014 160.956 507.176 160.356C499.8 158.278 495.818 155.566 495.818 154.527C495.818 153.315 501.22 152.114 511.124 154.203C521.028 156.293 526.43 159.79 526.43 161.002C526.43 161.972 522.955 162.93 516.503 162.203C516.584 162.78 516.48 163.392 516.191 163.9C522.702 164.696 528.161 164.142 528.161 161.372C528.161 157.909 519.585 154.273 511.124 152.483Z" fill="white"/>
<path d="M117.619 338.871L108.419 349.606L117.619 364.231L126.819 353.496L117.619 338.871ZM111.929 350.345L123.299 352.746L117.608 359.383L111.929 350.345Z" fill="white"/>
<path d="M117.619 347.771C110.324 346.224 102.937 346.224 102.937 349.225C102.937 351.776 108.304 354.42 114.399 356.105C114.133 355.655 114.087 355.089 114.226 354.558C107.865 352.769 104.437 350.426 104.437 349.537C104.437 348.498 109.089 347.459 117.631 349.26C126.161 351.06 130.825 354.073 130.825 355.112C130.825 355.943 127.835 356.774 122.26 356.151C122.329 356.647 122.248 357.178 121.994 357.617C127.604 358.31 132.314 357.825 132.314 355.435C132.302 352.446 124.915 349.317 117.619 347.771Z" fill="white"/>
<path d="M430.045 44.3713C434.154 45.3987 437.594 49.9582 438.46 55.1295C438.714 55.1526 438.979 55.1988 439.245 55.268C442.973 56.203 445.986 60.8433 445.975 65.6453C445.963 70.4472 442.939 73.5869 439.21 72.6519C438.148 72.3864 437.144 71.8093 436.244 71.0244C435.343 71.3591 434.339 71.4399 433.277 71.1744C431.5 70.7242 429.884 69.4314 428.683 67.6768C427.471 68.8312 425.855 69.3275 424.077 68.8773C420.349 67.9423 417.336 63.2905 417.348 58.5001C417.359 54.8871 419.068 52.2206 421.515 51.5165C422.207 46.4144 425.774 43.2978 430.045 44.3713Z" fill="white"/>
<path d="M171.145 192.262C174.388 193.07 177.101 196.671 177.794 200.758C178.001 200.781 178.198 200.815 178.405 200.861C181.349 201.6 183.727 205.259 183.715 209.046C183.704 212.832 181.314 215.313 178.371 214.575C177.528 214.367 176.732 213.905 176.027 213.282C175.312 213.547 174.527 213.605 173.684 213.397C172.276 213.051 171.006 212.024 170.048 210.638C169.09 211.55 167.82 211.943 166.412 211.585C163.469 210.846 161.091 207.176 161.102 203.389C161.102 200.538 162.464 198.426 164.392 197.872C164.958 193.878 167.774 191.419 171.145 192.262Z" fill="white"/>
<path d="M673.685 335.893C678.418 337.071 682.377 342.323 683.382 348.279C683.682 348.302 683.982 348.36 684.282 348.441C688.576 349.514 692.039 354.858 692.039 360.388C692.027 365.917 688.541 369.53 684.247 368.468C683.024 368.156 681.858 367.498 680.831 366.586C679.792 366.979 678.637 367.06 677.414 366.759C675.359 366.252 673.501 364.751 672.116 362.731C670.719 364.058 668.86 364.624 666.806 364.116C662.512 363.043 659.037 357.687 659.049 352.157C659.06 347.99 661.034 344.92 663.851 344.112C664.647 338.248 668.756 334.658 673.685 335.893Z" fill="white"/>
<defs>
<linearGradient id="paint0_linear_18_6422" x1="270.078" y1="321.505" x2="466.224" y2="321.505" gradientUnits="userSpaceOnUse">
<stop stop-color="#98ECF7"/>
<stop offset="1" stop-color="#65A7DD"/>
</linearGradient>
<linearGradient id="paint1_linear_18_6422" x1="271.003" y1="282.246" x2="467.149" y2="282.246" gradientUnits="userSpaceOnUse">
<stop stop-color="#98ECF7"/>
<stop offset="1" stop-color="#65A7DD"/>
</linearGradient>
<linearGradient id="paint2_linear_18_6422" x1="407.441" y1="332.177" x2="558.145" y2="332.177" gradientUnits="userSpaceOnUse">
<stop stop-color="#98ECF7"/>
<stop offset="1" stop-color="#65A7DD"/>
</linearGradient>
<linearGradient id="paint3_linear_18_6422" x1="389.422" y1="359.733" x2="488.078" y2="359.733" gradientUnits="userSpaceOnUse">
<stop stop-color="#98ECF7"/>
<stop offset="1" stop-color="#65A7DD"/>
</linearGradient>
<linearGradient id="paint4_linear_18_6422" x1="466.912" y1="396.297" x2="527.07" y2="396.297" gradientUnits="userSpaceOnUse">
<stop stop-color="#98ECF7"/>
<stop offset="1" stop-color="#65A7DD"/>
</linearGradient>
<linearGradient id="paint5_linear_18_6422" x1="511.271" y1="290.929" x2="550.429" y2="290.929" gradientUnits="userSpaceOnUse">
<stop stop-color="#98ECF7"/>
<stop offset="1" stop-color="#65A7DD"/>
</linearGradient>
<linearGradient id="paint6_linear_18_6422" x1="245.053" y1="316.436" x2="288.762" y2="316.436" gradientUnits="userSpaceOnUse">
<stop stop-color="#98ECF7"/>
<stop offset="1" stop-color="#65A7DD"/>
</linearGradient>
<linearGradient id="paint7_linear_18_6422" x1="143.62" y1="217.491" x2="339.766" y2="217.491" gradientUnits="userSpaceOnUse">
<stop stop-color="#98ECF7"/>
<stop offset="1" stop-color="#65A7DD"/>
</linearGradient>
<linearGradient id="paint8_linear_18_6422" x1="37.1112" y1="270.337" x2="163.942" y2="270.337" gradientUnits="userSpaceOnUse">
<stop stop-color="#98ECF7"/>
<stop offset="1" stop-color="#65A7DD"/>
</linearGradient>
<linearGradient id="paint9_linear_18_6422" x1="81.4637" y1="412.293" x2="208.295" y2="412.293" gradientUnits="userSpaceOnUse">
<stop stop-color="#98ECF7"/>
<stop offset="1" stop-color="#65A7DD"/>
</linearGradient>
<linearGradient id="paint10_linear_18_6422" x1="311.714" y1="487.061" x2="412.486" y2="487.061" gradientUnits="userSpaceOnUse">
<stop stop-color="#98ECF7"/>
<stop offset="1" stop-color="#65A7DD"/>
</linearGradient>
<linearGradient id="paint11_linear_18_6422" x1="549.915" y1="447.255" x2="650.687" y2="447.255" gradientUnits="userSpaceOnUse">
<stop stop-color="#98ECF7"/>
<stop offset="1" stop-color="#65A7DD"/>
</linearGradient>
<linearGradient id="paint12_linear_18_6422" x1="681.834" y1="325.441" x2="782.607" y2="325.441" gradientUnits="userSpaceOnUse">
<stop stop-color="#98ECF7"/>
<stop offset="1" stop-color="#65A7DD"/>
</linearGradient>
<linearGradient id="paint13_linear_18_6422" x1="525.068" y1="238.812" x2="675.534" y2="238.812" gradientUnits="userSpaceOnUse">
<stop stop-color="#98ECF7"/>
<stop offset="1" stop-color="#65A7DD"/>
</linearGradient>
<linearGradient id="paint14_linear_18_6422" x1="511.123" y1="100.643" x2="621.231" y2="100.643" gradientUnits="userSpaceOnUse">
<stop stop-color="#98ECF7"/>
<stop offset="1" stop-color="#65A7DD"/>
</linearGradient>
<linearGradient id="paint15_linear_18_6422" x1="455.719" y1="97.2453" x2="547.712" y2="97.2453" gradientUnits="userSpaceOnUse">
<stop stop-color="#98ECF7"/>
<stop offset="1" stop-color="#65A7DD"/>
</linearGradient>
<linearGradient id="paint16_linear_18_6422" x1="330.174" y1="160.87" x2="407.925" y2="160.87" gradientUnits="userSpaceOnUse">
<stop stop-color="#98ECF7"/>
<stop offset="1" stop-color="#65A7DD"/>
</linearGradient>
<linearGradient id="paint17_linear_18_6422" x1="345.389" y1="101.403" x2="441.268" y2="101.403" gradientUnits="userSpaceOnUse">
<stop stop-color="#98ECF7"/>
<stop offset="1" stop-color="#65A7DD"/>
</linearGradient>
<linearGradient id="paint18_linear_18_6422" x1="161.541" y1="290.93" x2="230.776" y2="290.93" gradientUnits="userSpaceOnUse">
<stop stop-color="#98ECF7"/>
<stop offset="1" stop-color="#65A7DD"/>
</linearGradient>
<linearGradient id="paint19_linear_18_6422" x1="659.692" y1="424.896" x2="728.928" y2="424.896" gradientUnits="userSpaceOnUse">
<stop stop-color="#98ECF7"/>
<stop offset="1" stop-color="#65A7DD"/>
</linearGradient>
<linearGradient id="paint20_linear_18_6422" x1="277.096" y1="409.107" x2="346.332" y2="409.107" gradientUnits="userSpaceOnUse">
<stop stop-color="#98ECF7"/>
<stop offset="1" stop-color="#65A7DD"/>
</linearGradient>
<linearGradient id="paint21_linear_18_6422" x1="705.96" y1="165.409" x2="775.196" y2="165.409" gradientUnits="userSpaceOnUse">
<stop stop-color="#98ECF7"/>
<stop offset="1" stop-color="#65A7DD"/>
</linearGradient>
<radialGradient id="paint22_radial_18_6422" cx="0" cy="0" r="1" gradientUnits="userSpaceOnUse" gradientTransform="translate(426.844 254.942) rotate(6.19404) scale(125.419)">
<stop stop-color="#98ECF7"/>
<stop offset="1" stop-color="#65A7DD" stop-opacity="0"/>
</radialGradient>
<radialGradient id="paint23_radial_18_6422" cx="0" cy="0" r="1" gradientUnits="userSpaceOnUse" gradientTransform="translate(98.6282 198.719) rotate(6.19404) scale(100.942)">
<stop stop-color="#98ECF7"/>
<stop offset="0.8386" stop-color="#65A7DD" stop-opacity="0"/>
</radialGradient>
<radialGradient id="paint24_radial_18_6422" cx="0" cy="0" r="1" gradientUnits="userSpaceOnUse" gradientTransform="translate(216.233 409.859) rotate(6.19404) scale(100.942)">
<stop stop-color="#98ECF7"/>
<stop offset="0.8386" stop-color="#65A7DD" stop-opacity="0"/>
</radialGradient>
<radialGradient id="paint25_radial_18_6422" cx="0" cy="0" r="1" gradientUnits="userSpaceOnUse" gradientTransform="translate(644.781 205.56) rotate(6.19404) scale(100.942)">
<stop stop-color="#98ECF7"/>
<stop offset="0.8386" stop-color="#65A7DD" stop-opacity="0"/>
</radialGradient>
<linearGradient id="paint26_linear_18_6422" x1="369.049" y1="471.343" x2="431.659" y2="471.343" gradientUnits="userSpaceOnUse">
<stop stop-color="#65A7DD"/>
<stop offset="1" stop-color="#98ECF7"/>
</linearGradient>
<linearGradient id="paint27_linear_18_6422" x1="369.076" y1="453.252" x2="431.632" y2="453.252" gradientUnits="userSpaceOnUse">
<stop stop-color="#98ECF7"/>
<stop offset="1" stop-color="#65A7DD"/>
</linearGradient>
<linearGradient id="paint28_linear_18_6422" x1="400.354" y1="480.338" x2="431.632" y2="480.338" gradientUnits="userSpaceOnUse">
<stop stop-color="#98ECF7"/>
<stop offset="1" stop-color="#65A7DD"/>
</linearGradient>
<linearGradient id="paint29_linear_18_6422" x1="369.049" y1="407.665" x2="442.166" y2="407.665" gradientUnits="userSpaceOnUse">
<stop stop-color="#D25A30"/>
<stop offset="1" stop-color="#E7AD4B"/>
</linearGradient>
<linearGradient id="paint30_linear_18_6422" x1="506.596" y1="67.5501" x2="581.883" y2="67.5501" gradientUnits="userSpaceOnUse">
<stop stop-color="#65A7DD"/>
<stop offset="1" stop-color="#98ECF7"/>
</linearGradient>
<linearGradient id="paint31_linear_18_6422" x1="506.628" y1="45.7957" x2="581.849" y2="45.7957" gradientUnits="userSpaceOnUse">
<stop stop-color="#98ECF7"/>
<stop offset="1" stop-color="#65A7DD"/>
</linearGradient>
<linearGradient id="paint32_linear_18_6422" x1="544.239" y1="78.3657" x2="581.849" y2="78.3657" gradientUnits="userSpaceOnUse">
<stop stop-color="#98ECF7"/>
<stop offset="1" stop-color="#65A7DD"/>
</linearGradient>
<linearGradient id="paint33_linear_18_6422" x1="534.417" y1="3.05877" x2="554.061" y2="3.05877" gradientUnits="userSpaceOnUse">
<stop stop-color="#440A65"/>
<stop offset="1" stop-color="#161C53"/>
</linearGradient>
<linearGradient id="paint34_linear_18_6422" x1="538.707" y1="28.091" x2="550.825" y2="28.091" gradientUnits="userSpaceOnUse">
<stop stop-color="#440A65"/>
<stop offset="1" stop-color="#161C53"/>
</linearGradient>
<linearGradient id="paint35_linear_18_6422" x1="198.674" y1="192.513" x2="284.247" y2="192.513" gradientUnits="userSpaceOnUse">
<stop stop-color="#65A7DD"/>
<stop offset="1" stop-color="#98ECF7"/>
</linearGradient>
<linearGradient id="paint36_linear_18_6422" x1="198.71" y1="167.787" x2="284.209" y2="167.787" gradientUnits="userSpaceOnUse">
<stop stop-color="#98ECF7"/>
<stop offset="1" stop-color="#65A7DD"/>
</linearGradient>
<linearGradient id="paint37_linear_18_6422" x1="241.46" y1="204.807" x2="284.209" y2="204.807" gradientUnits="userSpaceOnUse">
<stop stop-color="#98ECF7"/>
<stop offset="1" stop-color="#65A7DD"/>
</linearGradient>
<linearGradient id="paint38_linear_18_6422" x1="211.19" y1="128.062" x2="267.973" y2="128.062" gradientUnits="userSpaceOnUse">
<stop stop-color="#D25A30"/>
<stop offset="1" stop-color="#E7AD4B"/>
</linearGradient>
<linearGradient id="paint39_linear_18_6422" x1="336.62" y1="276.683" x2="497.063" y2="276.683" gradientUnits="userSpaceOnUse">
<stop stop-color="#65A7DD"/>
<stop offset="1" stop-color="#98ECF7"/>
</linearGradient>
<linearGradient id="paint40_linear_18_6422" x1="336.689" y1="230.322" x2="496.991" y2="230.322" gradientUnits="userSpaceOnUse">
<stop stop-color="#98ECF7"/>
<stop offset="1" stop-color="#65A7DD"/>
</linearGradient>
<linearGradient id="paint41_linear_18_6422" x1="416.841" y1="299.733" x2="496.991" y2="299.733" gradientUnits="userSpaceOnUse">
<stop stop-color="#98ECF7"/>
<stop offset="1" stop-color="#65A7DD"/>
</linearGradient>
<linearGradient id="paint42_linear_18_6422" x1="378.322" y1="163.784" x2="452.884" y2="163.784" gradientUnits="userSpaceOnUse">
<stop stop-color="#98ECF7"/>
<stop offset="1" stop-color="#65A7DD"/>
</linearGradient>
<linearGradient id="paint43_linear_18_6422" x1="577.279" y1="217.49" x2="687.195" y2="217.49" gradientUnits="userSpaceOnUse">
<stop stop-color="#65A7DD"/>
<stop offset="1" stop-color="#98ECF7"/>
</linearGradient>
<linearGradient id="paint44_linear_18_6422" x1="577.326" y1="185.73" x2="687.146" y2="185.73" gradientUnits="userSpaceOnUse">
<stop stop-color="#98ECF7"/>
<stop offset="1" stop-color="#65A7DD"/>
</linearGradient>
<linearGradient id="paint45_linear_18_6422" x1="632.237" y1="233.281" x2="687.146" y2="233.281" gradientUnits="userSpaceOnUse">
<stop stop-color="#98ECF7"/>
<stop offset="1" stop-color="#65A7DD"/>
</linearGradient>
<linearGradient id="paint46_linear_18_6422" x1="600.301" y1="159.12" x2="666.373" y2="159.12" gradientUnits="userSpaceOnUse">
<stop stop-color="#440A65"/>
<stop offset="1" stop-color="#161C53"/>
</linearGradient>
<linearGradient id="paint47_linear_18_6422" x1="631.947" y1="161.085" x2="646.679" y2="161.085" gradientUnits="userSpaceOnUse">
<stop stop-color="#65A7DD"/>
<stop offset="1" stop-color="#98ECF7"/>
</linearGradient>
<linearGradient id="paint48_linear_18_6422" x1="554.893" y1="391.862" x2="645.709" y2="391.862" gradientUnits="userSpaceOnUse">
<stop stop-color="#65A7DD"/>
<stop offset="1" stop-color="#98ECF7"/>
</linearGradient>
<linearGradient id="paint49_linear_18_6422" x1="554.931" y1="365.622" x2="645.668" y2="365.622" gradientUnits="userSpaceOnUse">
<stop stop-color="#98ECF7"/>
<stop offset="1" stop-color="#65A7DD"/>
</linearGradient>
<linearGradient id="paint50_linear_18_6422" x1="600.301" y1="404.909" x2="645.668" y2="404.909" gradientUnits="userSpaceOnUse">
<stop stop-color="#98ECF7"/>
<stop offset="1" stop-color="#65A7DD"/>
</linearGradient>
<linearGradient id="paint51_linear_18_6422" x1="585.61" y1="334.686" x2="614.99" y2="334.686" gradientUnits="userSpaceOnUse">
<stop stop-color="#440A65"/>
<stop offset="1" stop-color="#161C53"/>
</linearGradient>
<linearGradient id="paint52_linear_18_6422" x1="161.081" y1="400.711" x2="241.693" y2="400.711" gradientUnits="userSpaceOnUse">
<stop stop-color="#65A7DD"/>
<stop offset="1" stop-color="#98ECF7"/>
</linearGradient>
<linearGradient id="paint53_linear_18_6422" x1="161.115" y1="377.418" x2="241.657" y2="377.418" gradientUnits="userSpaceOnUse">
<stop stop-color="#98ECF7"/>
<stop offset="1" stop-color="#65A7DD"/>
</linearGradient>
<linearGradient id="paint54_linear_18_6422" x1="201.387" y1="412.292" x2="241.657" y2="412.292" gradientUnits="userSpaceOnUse">
<stop stop-color="#98ECF7"/>
<stop offset="1" stop-color="#65A7DD"/>
</linearGradient>
<linearGradient id="paint55_linear_18_6422" x1="174.978" y1="339.886" x2="224.819" y2="339.886" gradientUnits="userSpaceOnUse">
<stop stop-color="#440A65"/>
<stop offset="1" stop-color="#161C53"/>
</linearGradient>
<linearGradient id="paint56_linear_18_6422" x1="50.9494" y1="213.763" x2="135.022" y2="213.763" gradientUnits="userSpaceOnUse">
<stop stop-color="#65A7DD"/>
<stop offset="1" stop-color="#98ECF7"/>
</linearGradient>
<linearGradient id="paint57_linear_18_6422" x1="50.9856" y1="189.469" x2="134.985" y2="189.469" gradientUnits="userSpaceOnUse">
<stop stop-color="#98ECF7"/>
<stop offset="1" stop-color="#65A7DD"/>
</linearGradient>
<linearGradient id="paint58_linear_18_6422" x1="92.986" y1="225.841" x2="134.985" y2="225.841" gradientUnits="userSpaceOnUse">
<stop stop-color="#98ECF7"/>
<stop offset="1" stop-color="#65A7DD"/>
</linearGradient>
<linearGradient id="paint59_linear_18_6422" x1="62.4" y1="146.494" x2="126.843" y2="146.494" gradientUnits="userSpaceOnUse">
<stop stop-color="#440A65"/>
<stop offset="1" stop-color="#161C53"/>
</linearGradient>
<linearGradient id="paint60_linear_18_6422" x1="281.335" y1="498.623" x2="403.38" y2="78.1311" gradientUnits="userSpaceOnUse">
<stop stop-color="#98ECF7"/>
<stop offset="0.8505" stop-color="#65A7DD" stop-opacity="0"/>
</linearGradient>
<linearGradient id="paint61_linear_18_6422" x1="506.973" y1="470.837" x2="451.441" y2="100.602" gradientUnits="userSpaceOnUse">
<stop stop-color="#98ECF7"/>
<stop offset="0.926" stop-color="#65A7DD" stop-opacity="0"/>
</linearGradient>
<linearGradient id="paint62_linear_18_6422" x1="281.335" y1="498.623" x2="403.38" y2="78.1311" gradientUnits="userSpaceOnUse">
<stop stop-color="#98ECF7"/>
<stop offset="0.8505" stop-color="#65A7DD" stop-opacity="0"/>
</linearGradient>
<linearGradient id="paint63_linear_18_6422" x1="506.973" y1="470.837" x2="451.441" y2="100.602" gradientUnits="userSpaceOnUse">
<stop stop-color="#98ECF7"/>
<stop offset="0.926" stop-color="#65A7DD" stop-opacity="0"/>
</linearGradient>
<linearGradient id="paint64_linear_18_6422" x1="735.032" y1="311.729" x2="819.105" y2="311.729" gradientUnits="userSpaceOnUse">
<stop stop-color="#65A7DD"/>
<stop offset="1" stop-color="#98ECF7"/>
</linearGradient>
<linearGradient id="paint65_linear_18_6422" x1="735.068" y1="287.435" x2="819.068" y2="287.435" gradientUnits="userSpaceOnUse">
<stop stop-color="#98ECF7"/>
<stop offset="1" stop-color="#65A7DD"/>
</linearGradient>
<linearGradient id="paint66_linear_18_6422" x1="777.068" y1="323.807" x2="819.068" y2="323.807" gradientUnits="userSpaceOnUse">
<stop stop-color="#98ECF7"/>
<stop offset="1" stop-color="#65A7DD"/>
</linearGradient>
<linearGradient id="paint67_linear_18_6422" x1="740.578" y1="260.555" x2="824.635" y2="260.555" gradientUnits="userSpaceOnUse">
<stop stop-color="#D25A30"/>
<stop offset="1" stop-color="#E7AD4B"/>
</linearGradient>
</defs>
</svg>
