<svg width="591" height="284" viewBox="0 0 591 284" fill="none" xmlns="http://www.w3.org/2000/svg">
<g filter="url(#filter0_f_60_2058)">
<path d="M201.141 234H166.406C166.406 230.156 153.516 209.859 127.734 173.109C100.734 134.391 85.3594 107.906 81.6094 93.6562H79.3594C81.7031 114.188 82.875 132.75 82.875 149.344C82.875 172.5 83.5312 200.719 84.8438 234H50.25C51.6562 204.938 52.3594 173.016 52.3594 138.234C52.3594 104.016 51.6562 74.9063 50.25 50.9062H92.0156C92.0156 55.875 103.594 75.7031 126.75 110.391C151.406 147.234 165.562 172.219 169.219 185.344H171.328C169.078 164.438 167.953 145.688 167.953 129.094C167.953 103.688 167.297 77.625 165.984 50.9062H201.141C199.828 74.1562 199.172 103.266 199.172 138.234C199.172 173.484 199.828 205.406 201.141 234ZM372.619 50.9062L371.353 81.7031C342.103 80.2031 315.619 79.4531 291.9 79.4531C293.119 95.4844 293.728 113.25 293.728 132.75C311.822 132.75 332.353 132.281 355.322 131.344V160.453C332.072 159.609 311.541 159.188 293.728 159.188C293.728 185.719 294.15 210.656 294.994 234H256.181C257.4 205.688 258.009 173.766 258.009 138.234C258.009 104.109 257.4 75 256.181 50.9062H372.619ZM540.159 50.9062L539.175 81.1406C520.425 79.7344 502.753 79.0312 486.159 79.0312C485.972 96.75 485.878 116.484 485.878 138.234C485.878 171.984 486.394 203.906 487.425 234H448.05C449.269 204.188 449.878 172.266 449.878 138.234C449.878 116.859 449.691 97.125 449.316 79.0312C436.097 79.0312 417.956 79.7812 394.894 81.2812L396.019 50.9062H540.159Z" fill="white"/>
</g>
<path d="M201.141 234H166.406C166.406 230.156 153.516 209.859 127.734 173.109C100.734 134.391 85.3594 107.906 81.6094 93.6562H79.3594C81.7031 114.188 82.875 132.75 82.875 149.344C82.875 172.5 83.5312 200.719 84.8438 234H50.25C51.6562 204.938 52.3594 173.016 52.3594 138.234C52.3594 104.016 51.6562 74.9063 50.25 50.9062H92.0156C92.0156 55.875 103.594 75.7031 126.75 110.391C151.406 147.234 165.562 172.219 169.219 185.344H171.328C169.078 164.438 167.953 145.688 167.953 129.094C167.953 103.688 167.297 77.625 165.984 50.9062H201.141C199.828 74.1562 199.172 103.266 199.172 138.234C199.172 173.484 199.828 205.406 201.141 234ZM372.619 50.9062L371.353 81.7031C342.103 80.2031 315.619 79.4531 291.9 79.4531C293.119 95.4844 293.728 113.25 293.728 132.75C311.822 132.75 332.353 132.281 355.322 131.344V160.453C332.072 159.609 311.541 159.188 293.728 159.188C293.728 185.719 294.15 210.656 294.994 234H256.181C257.4 205.688 258.009 173.766 258.009 138.234C258.009 104.109 257.4 75 256.181 50.9062H372.619ZM540.159 50.9062L539.175 81.1406C520.425 79.7344 502.753 79.0312 486.159 79.0312C485.972 96.75 485.878 116.484 485.878 138.234C485.878 171.984 486.394 203.906 487.425 234H448.05C449.269 204.188 449.878 172.266 449.878 138.234C449.878 116.859 449.691 97.125 449.316 79.0312C436.097 79.0312 417.956 79.7812 394.894 81.2812L396.019 50.9062H540.159Z" fill="white"/>
<defs>
<filter id="filter0_f_60_2058" x="0.25" y="0.90625" width="589.909" height="283.094" filterUnits="userSpaceOnUse" color-interpolation-filters="sRGB">
<feFlood flood-opacity="0" result="BackgroundImageFix"/>
<feBlend mode="normal" in="SourceGraphic" in2="BackgroundImageFix" result="shape"/>
<feGaussianBlur stdDeviation="25" result="effect1_foregroundBlur_60_2058"/>
</filter>
</defs>
</svg>
