<svg width="155" height="287" viewBox="0 0 155 287" fill="none" xmlns="http://www.w3.org/2000/svg">
<path d="M15.3224 160.244H44.6371L77.2702 141.4C81.4751 138.968 88.8188 139.28 93.6706 142.083L125.13 160.244H154.432V245.074H154.42C154.54 246.715 153.63 248.296 151.605 249.47L92.4966 283.601C88.2917 286.033 80.948 285.721 76.0962 282.918L19.3357 250.153C16.8199 248.692 15.4662 246.859 15.3464 245.074H15.3224V160.244Z" fill="url(#paint0_linear_112_52)"/>
<path d="M16.173 160.245V246.009H16.1969C16.2568 246.859 16.6042 247.734 17.2152 248.572C16.0651 247.47 15.4302 246.26 15.3464 245.074H15.3224V160.245H16.173Z" fill="#6EE8FC"/>
<path d="M92.4846 198.772L151.593 164.641C155.798 162.209 155.271 157.98 150.419 155.177L93.6587 122.412C88.8068 119.609 81.4632 119.309 77.2583 121.729L18.1497 155.86C13.9448 158.292 14.4719 162.521 19.3237 165.324L76.0842 198.089C80.9481 200.892 88.2917 201.192 92.4846 198.772Z" fill="url(#paint1_linear_112_52)"/>
<path d="M91.3226 198.771L150.431 164.64C154.636 162.209 154.109 157.98 149.257 155.176L92.4966 122.412C90.0048 120.974 86.8661 120.195 83.8232 120.111C87.2135 120.016 90.8554 120.794 93.6587 122.412L150.419 155.176C155.271 157.98 155.798 162.221 151.593 164.64L92.4846 198.771C90.4361 199.957 87.6448 200.484 84.7577 200.4C87.2255 200.316 89.5496 199.789 91.3226 198.771Z" fill="#F88B93"/>
<path d="M18.1617 155.848L77.2702 121.717C79.3307 120.531 82.134 120.004 85.0331 120.088C82.5772 120.16 80.2531 120.687 78.4921 121.717L19.3836 155.848C15.1787 158.279 15.7058 162.508 20.5576 165.312L77.3181 198.076C79.7979 199.502 82.9247 200.281 85.9556 200.377C82.5653 200.472 78.9114 199.694 76.1081 198.076L19.3476 165.312C14.4838 162.52 13.9567 158.279 18.1617 155.848Z" fill="#6EE8FC"/>
<path d="M90.5438 188.924L134.558 163.515C137.684 161.706 137.289 158.555 133.683 156.471L91.4303 132.08C87.8123 129.995 82.3495 129.768 79.2228 131.577L35.2089 156.986C32.0821 158.795 32.4775 161.946 36.0834 164.03L78.3363 188.421C81.9542 190.506 87.417 190.733 90.5438 188.924Z" fill="url(#paint2_linear_112_52)"/>
<path d="M88.9867 181.031L120.877 162.618C123.141 161.312 122.866 159.024 120.242 157.514L89.6335 139.844C87.01 138.334 83.0566 138.167 80.7925 139.472L48.9021 157.885C46.6379 159.191 46.9134 161.479 49.537 162.989L80.1455 180.659C82.7571 182.169 86.7225 182.336 88.9867 181.031Z" fill="#6DE0F6"/>
<path d="M120.254 159.994L89.6335 142.311C87.0099 140.802 83.0566 140.634 80.7804 141.94L48.8781 160.353C48.3749 160.641 48.0156 160.988 47.764 161.359C46.9973 160.113 47.3327 158.76 48.8781 157.861L80.7804 139.448C83.0446 138.142 87.0099 138.298 89.6335 139.82L120.254 157.502C122.291 158.676 122.89 160.317 122.003 161.611C121.644 161.036 121.081 160.473 120.254 159.994Z" fill="#267FE5"/>
<path d="M120.254 163.001L89.6335 145.319C87.01 143.809 83.0566 143.642 80.7804 144.947L48.8781 163.36C48.4828 163.588 48.1833 163.863 47.9437 164.139C46.9254 162.809 47.201 161.324 48.8781 160.353L80.7804 141.94C83.0446 140.635 87.01 140.79 89.6335 142.312L120.254 159.994C122.41 161.24 122.961 163.001 121.823 164.319C121.452 163.852 120.937 163.396 120.254 163.001Z" fill="#25BFEC"/>
<path d="M121.512 167.662C121.176 167.314 120.769 166.979 120.254 166.679L89.6335 148.997C87.0099 147.488 83.0565 147.32 80.7804 148.626L48.8781 167.039C48.6385 167.183 48.4348 167.338 48.2551 167.494C46.9134 166.092 47.0571 164.415 48.8781 163.373L80.7804 144.96C83.0446 143.654 87.0099 143.81 89.6335 145.331L120.254 163.014C122.59 164.355 123.045 166.32 121.512 167.662Z" fill="#18D0F7"/>
<path d="M15.3224 146.168H44.6371L77.2702 127.324C81.4751 124.892 88.8188 125.204 93.6706 128.007L125.13 146.168H154.432V152.218H154.42C154.54 153.859 153.63 155.441 151.605 156.615L92.4966 190.745C88.2917 193.177 80.948 192.866 76.0962 190.062L19.3357 157.298C16.8199 155.836 15.4662 154.003 15.3464 152.218H15.3224V146.168Z" fill="url(#paint3_linear_112_52)"/>
<path d="M16.173 146.169V153.153H16.1969C16.2568 154.004 16.6042 154.878 17.2152 155.717C16.0651 154.615 15.4302 153.405 15.3464 152.219H15.3224V146.169H16.173Z" fill="#6EE8FC"/>
<path d="M92.4846 184.685L151.593 150.554C155.798 148.122 155.271 143.893 150.419 141.09L93.6587 108.325C88.8068 105.522 81.4632 105.222 77.2583 107.642L18.1497 141.773C13.9448 144.205 14.4719 148.434 19.3237 151.237L76.0842 184.002C80.9481 186.805 88.2917 187.117 92.4846 184.685Z" fill="url(#paint4_linear_112_52)"/>
<path d="M91.3226 184.684L150.431 150.554C154.636 148.122 154.109 143.893 149.257 141.089L92.4966 108.325C90.0048 106.887 86.8661 106.108 83.8232 106.024C87.2135 105.929 90.8554 106.707 93.6587 108.325L150.419 141.089C155.271 143.893 155.798 148.134 151.593 150.554L92.4846 184.684C90.4361 185.87 87.6448 186.397 84.7577 186.313C87.2255 186.242 89.5496 185.702 91.3226 184.684Z" fill="#F88B93"/>
<path d="M18.1617 141.771L77.2702 107.641C79.3307 106.455 82.134 105.928 85.0331 106.012C82.5772 106.083 80.2531 106.611 78.4921 107.641L19.3836 141.771C15.1787 144.203 15.7058 148.432 20.5576 151.235L77.3181 184C79.7979 185.426 82.9247 186.205 85.9556 186.3C82.5653 186.396 78.9114 185.618 76.1081 184L19.3476 151.235C14.4838 148.432 13.9567 144.191 18.1617 141.771Z" fill="#6EE8FC"/>
<path d="M90.5438 174.848L134.558 149.439C137.684 147.63 137.289 144.479 133.683 142.395L91.4303 118.004C87.8123 115.919 82.3495 115.692 79.2228 117.501L35.2089 142.91C32.0821 144.719 32.4775 147.869 36.0834 149.954L78.3363 174.345C81.9542 176.417 87.417 176.645 90.5438 174.848Z" fill="url(#paint5_linear_112_52)"/>
<path d="M88.9867 166.942L120.877 148.529C123.141 147.223 122.866 144.935 120.242 143.425L89.6335 125.755C87.01 124.246 83.0566 124.078 80.7925 125.384L48.9021 143.797C46.6379 145.102 46.9134 147.391 49.537 148.9L80.1455 166.57C82.7571 168.092 86.7225 168.247 88.9867 166.942Z" fill="#6DE0F6"/>
<path d="M120.254 145.917L89.6335 128.235C87.0099 126.726 83.0566 126.558 80.7804 127.864L48.8781 146.277C48.3749 146.564 48.0156 146.912 47.764 147.283C46.9973 146.037 47.3327 144.684 48.8781 143.785L80.7804 125.372C83.0446 124.066 87.0099 124.222 89.6335 125.743L120.254 143.426C122.291 144.6 122.89 146.241 122.003 147.535C121.644 146.96 121.081 146.397 120.254 145.917Z" fill="#267FE5"/>
<path d="M120.254 148.924L89.6335 131.242C87.01 129.732 83.0566 129.564 80.7804 130.87L48.8781 149.283C48.4828 149.511 48.1833 149.786 47.9437 150.062C46.9254 148.732 47.201 147.247 48.8781 146.276L80.7804 127.863C83.0446 126.557 87.01 126.713 89.6335 128.235L120.254 145.917C122.41 147.163 122.961 148.924 121.823 150.242C121.452 149.774 120.937 149.319 120.254 148.924Z" fill="#25BFEC"/>
<path d="M121.512 153.572C121.176 153.224 120.769 152.889 120.254 152.59L89.6335 134.907C87.0099 133.398 83.0565 133.23 80.7804 134.536L48.8781 152.949C48.6385 153.093 48.4348 153.248 48.2551 153.404C46.9134 152.003 47.0571 150.325 48.8781 149.283L80.7804 130.87C83.0446 129.564 87.0099 129.72 89.6335 131.241L120.254 148.924C122.59 150.265 123.045 152.23 121.512 153.572Z" fill="#18D0F7"/>
<path d="M15.3224 134.164H44.6371L77.2702 115.32C81.4751 112.888 88.8188 113.2 93.6706 116.003L125.13 134.164H154.432V140.214H154.42C154.54 141.855 153.63 143.437 151.605 144.611L92.4966 178.741C88.2917 181.173 80.948 180.862 76.0962 178.059L19.3357 145.294C16.8199 143.832 15.4662 141.999 15.3464 140.214H15.3224V134.164Z" fill="url(#paint6_linear_112_52)"/>
<path d="M16.173 134.165V141.149H16.1969C16.2568 142 16.6042 142.874 17.2152 143.713C16.0651 142.611 15.4302 141.401 15.3464 140.215H15.3224V134.165H16.173Z" fill="#6EE8FC"/>
<path d="M92.4846 172.693L151.593 138.562C155.798 136.13 155.271 131.901 150.419 129.098L93.6587 96.3331C88.8068 93.5298 81.4632 93.2303 77.2583 95.6502L18.1497 129.781C13.9448 132.213 14.4719 136.442 19.3237 139.245L76.0842 172.01C80.9481 174.813 88.2917 175.112 92.4846 172.693Z" fill="url(#paint7_linear_112_52)"/>
<path d="M91.3226 172.692L150.431 138.561C154.636 136.129 154.109 131.901 149.257 129.097L92.4966 96.3324C90.0048 94.8949 86.8661 94.1162 83.8232 94.0323C87.2135 93.9365 90.8554 94.7152 93.6587 96.3324L150.419 129.097C155.271 131.901 155.798 136.141 151.593 138.561L92.4846 172.692C90.4361 173.878 87.6448 174.405 84.7577 174.321C87.2255 174.237 89.5496 173.71 91.3226 172.692Z" fill="#F88B93"/>
<path d="M18.1617 129.768L77.2702 95.6379C79.3307 94.4519 82.134 93.9248 85.0331 94.0086C82.5772 94.0805 80.2531 94.6076 78.4921 95.6379L19.3836 129.768C15.1787 132.2 15.7058 136.429 20.5576 139.233L77.3181 171.997C79.7979 173.423 82.9247 174.202 85.9556 174.298C82.5653 174.393 78.9114 173.615 76.1081 171.997L19.3476 139.233C14.4838 136.441 13.9567 132.2 18.1617 129.768Z" fill="#6EE8FC"/>
<path d="M90.5438 162.844L134.558 137.435C137.684 135.626 137.289 132.475 133.683 130.391L91.4303 106C87.8123 103.915 82.3495 103.688 79.2228 105.497L35.2089 130.906C32.0821 132.715 32.4775 135.866 36.0834 137.95L78.3363 162.341C81.9542 164.426 87.417 164.653 90.5438 162.844Z" fill="url(#paint8_linear_112_52)"/>
<path d="M88.9867 154.949L120.877 136.536C123.141 135.231 122.866 132.943 120.242 131.433L89.6335 113.763C87.01 112.253 83.0566 112.086 80.7925 113.391L48.9021 131.804C46.6379 133.11 46.9134 135.398 49.537 136.908L80.1455 154.578C82.7571 156.088 86.7225 156.255 88.9867 154.949Z" fill="#6DE0F6"/>
<path d="M120.254 133.914L89.6335 116.231C87.0099 114.722 83.0566 114.554 80.7804 115.86L48.8781 134.273C48.3749 134.56 48.0156 134.908 47.764 135.279C46.9973 134.033 47.3327 132.68 48.8781 131.781L80.7804 113.368C83.0446 112.062 87.0099 112.218 89.6335 113.739L120.254 131.422C122.291 132.596 122.89 134.237 122.003 135.531C121.644 134.956 121.081 134.393 120.254 133.914Z" fill="#267FE5"/>
<path d="M120.254 136.921L89.6335 119.239C87.01 117.729 83.0566 117.561 80.7804 118.867L48.8781 137.28C48.4828 137.508 48.1833 137.783 47.9437 138.059C46.9254 136.729 47.201 135.244 48.8781 134.273L80.7804 115.86C83.0446 114.554 87.01 114.71 89.6335 116.232L120.254 133.914C122.41 135.16 122.961 136.921 121.823 138.239C121.452 137.771 120.937 137.316 120.254 136.921Z" fill="#25BFEC"/>
<path d="M121.512 141.581C121.176 141.233 120.769 140.898 120.254 140.598L89.6335 122.916C87.0099 121.407 83.0565 121.239 80.7804 122.545L48.8781 140.958C48.6385 141.101 48.4348 141.257 48.2551 141.413C46.9134 140.011 47.0571 138.346 48.8781 137.292L80.7804 118.879C83.0446 117.573 87.0099 117.729 89.6335 119.25L120.254 136.932C122.59 138.274 123.045 140.239 121.512 141.581Z" fill="#18D0F7"/>
<path d="M96.8212 270.807L144.836 243.086C146.13 242.343 147.172 240.33 147.172 238.617V179.664C147.172 177.939 146.118 177.149 144.836 177.891L96.8212 205.613C95.5274 206.355 94.4852 208.368 94.4852 210.081V269.034C94.4732 270.759 95.5274 271.55 96.8212 270.807Z" fill="url(#paint9_linear_112_52)"/>
<path d="M95.9587 270.447L143.974 242.726C145.268 241.983 146.31 239.97 146.31 238.257V179.305C146.31 178.538 146.094 177.963 145.747 177.615C146.586 177.603 147.172 178.37 147.172 179.664V238.617C147.172 240.342 146.118 242.342 144.836 243.085L96.8212 270.807C96.1024 271.214 95.4795 271.154 95.0482 270.723C95.3238 270.723 95.6352 270.627 95.9587 270.447Z" fill="#6DE0F6"/>
<path d="M103.877 257.149L137.78 237.574C138.691 237.047 139.433 235.633 139.433 234.411V192.782C139.433 191.56 138.691 191.009 137.78 191.536L103.877 211.111C102.967 211.638 102.224 213.051 102.224 214.273V255.903C102.224 257.113 102.955 257.676 103.877 257.149Z" fill="#6DE0F6"/>
<path d="M135.444 236.017C136.355 235.49 137.097 234.076 137.097 232.855V191.919L137.78 191.524C138.691 190.997 139.433 191.56 139.433 192.77V234.4C139.433 235.622 138.691 237.036 137.78 237.563L103.877 257.138C102.967 257.665 102.224 257.102 102.224 255.892V255.197L135.444 236.017Z" fill="#267FE5"/>
<path d="M126.412 209.434L133.336 205.445V204.271L126.412 208.26V209.434Z" fill="#267FE5"/>
<path d="M120.925 212.597L124.387 210.609V209.435L120.925 211.423V212.597Z" fill="#18D0F7"/>
<path d="M115.666 215.639L119.116 213.639V212.465L115.666 214.465V215.639Z" fill="#267FE5"/>
<path d="M110.407 218.682L113.857 216.682V215.508L110.407 217.508V218.682Z" fill="#267FE5"/>
<path d="M126.412 212.249L133.336 208.26V207.086L126.412 211.075V212.249Z" fill="#267FE5"/>
<path d="M120.925 215.424L124.387 213.423V212.249L120.925 214.25V215.424Z" fill="#18D0F7"/>
<path d="M115.666 218.455L119.116 216.466V215.292L115.666 217.281V218.455Z" fill="#267FE5"/>
<path d="M110.407 221.498L113.857 219.497V218.323L110.407 220.324V221.498Z" fill="#267FE5"/>
<path d="M126.412 215.066L133.336 211.076V209.902L126.412 213.892V215.066Z" fill="#267FE5"/>
<path d="M118.277 218.587L119.116 218.107L124.387 215.064V216.238L119.116 219.281L118.277 219.761L115.666 221.27V220.096L118.277 218.587Z" fill="#267FE5"/>
<path d="M110.407 224.313L113.857 222.313V221.139L110.407 223.139V224.313Z" fill="#267FE5"/>
<path d="M108.597 218.551V221.366V222.54V224.181V224.517V225.355L105.147 227.356V226.517V226.182V224.529V223.355V220.539L108.597 218.551Z" fill="#267FE5"/>
<path d="M126.412 217.879L133.336 213.89V212.716L126.412 216.705V217.879Z" fill="#18D0F7"/>
<path d="M120.925 221.055L124.387 219.054V217.88L120.925 219.881V221.055Z" fill="#267FE5"/>
<path d="M115.666 222.923L116.588 222.383L119.116 220.922V222.096L116.588 223.557L115.666 224.097L110.407 227.127V225.953L115.666 222.923Z" fill="#267FE5"/>
<path d="M105.147 230.172L108.597 228.171V226.997L105.147 228.998V230.172Z" fill="#267FE5"/>
<path d="M126.412 226.337L133.336 222.348V221.174L126.412 225.163V226.337Z" fill="#267FE5"/>
<path d="M120.925 229.513L124.387 227.512V226.338L120.925 228.339V229.513Z" fill="#267FE5"/>
<path d="M115.666 231.37L116.588 230.842L119.116 229.381V230.555L116.588 232.016L115.666 232.544L110.407 235.586V234.412L115.666 231.37Z" fill="#267FE5"/>
<path d="M105.147 238.617L108.597 236.628V235.454L105.147 237.443V238.617Z" fill="#267FE5"/>
<path d="M126.412 229.153L133.336 225.163V223.989L126.412 227.979V229.153Z" fill="#267FE5"/>
<path d="M120.925 232.327L124.387 230.326V229.152L120.925 231.153V232.327Z" fill="#267FE5"/>
<path d="M105.147 241.444L108.597 239.444V238.27L105.147 240.27V241.444Z" fill="#267FE5"/>
<path d="M126.412 231.968L133.336 227.979V226.805L126.412 230.794V231.968Z" fill="#267FE5"/>
<path d="M120.925 235.142L124.387 233.142V231.968L120.925 233.968V235.142Z" fill="#267FE5"/>
<path d="M115.666 234.184L116.588 233.657L119.116 232.195V233.01V233.369V236.185L116.588 237.646L115.666 238.185L110.407 241.216V238.401V238.053V237.227L115.666 234.184Z" fill="#18D0F7"/>
<path d="M105.147 244.26L108.597 242.259V241.085L105.147 243.086V244.26Z" fill="#267FE5"/>
<path d="M126.412 220.707L133.336 216.705V215.531L126.412 219.533V220.707Z" fill="#267FE5"/>
<path d="M120.925 223.87L124.387 221.881V220.707L120.925 222.696V223.87Z" fill="#18D0F7"/>
<path d="M110.407 229.944L113.857 227.955V226.781L110.407 228.77V229.944Z" fill="#267FE5"/>
<path d="M105.147 232.986L108.597 230.986V229.812L105.147 231.812V232.986Z" fill="#267FE5"/>
<path d="M126.412 223.523L133.336 219.533V218.359L126.412 222.349V223.523Z" fill="#267FE5"/>
<path d="M120.925 226.685L124.387 224.696V223.522L120.925 225.511V226.685Z" fill="#267FE5"/>
<path d="M119.116 223.738V224.325V224.912V227.728L115.666 229.728V226.913V226.326V225.739L119.116 223.738Z" fill="#18D0F7"/>
<path d="M110.407 232.771L113.857 230.771V229.597L110.407 231.597V232.771Z" fill="#267FE5"/>
<path d="M105.147 235.801L108.597 233.813V232.639L105.147 234.627V235.801Z" fill="#267FE5"/>
<path d="M29.5064 248.717L31.7946 250.035C32.9806 250.718 33.939 249.987 33.939 248.418V186.602C33.939 185.02 32.9806 183.187 31.7946 182.505L29.5064 181.187C28.3204 180.504 27.362 181.235 27.362 182.804V244.62C27.362 246.201 28.3204 248.034 29.5064 248.717Z" fill="#22215B"/>
<path opacity="0.5" d="M1.59325 260.136L40.4199 237.722V176.876L1.59325 199.29V260.136Z" fill="#6EE8FC"/>
<path opacity="0.5" d="M4.98355 262.053L43.8102 239.639V178.793L4.98355 201.207V262.053Z" fill="#25BFEC"/>
<path opacity="0.5" d="M40.4199 176.876L43.8102 178.793L4.98355 201.207L1.59323 199.29L40.4199 176.876Z" fill="#6EE8FC"/>
<path opacity="0.5" d="M40.4199 237.721L43.8102 239.637L4.98355 262.052L1.59323 260.135L40.4199 237.721Z" fill="#6EE8FC"/>
<path d="M0.730714 195.923L2.87508 194.666V194.678C3.24646 194.462 3.72562 194.474 4.26471 194.785L6.5529 196.103C7.7389 196.786 8.69727 198.619 8.69727 200.2V262.016C8.69727 262.867 8.40977 263.466 7.96651 263.729V263.741L5.90594 264.951L6.31329 263.502L4.26471 262.316C3.0787 261.633 2.12034 259.8 2.12034 258.219V196.403C2.12034 196.391 2.12034 196.391 2.12034 196.391L0.730714 195.923Z" fill="url(#paint10_linear_112_52)"/>
<path d="M6.55303 196.114L4.26483 194.797C3.83356 194.545 3.42627 194.497 3.09083 194.605C3.29449 194.641 3.49818 194.701 3.7258 194.833L6.06181 196.186C7.27178 196.881 8.24215 198.75 8.24215 200.367V263.417C8.24215 263.453 8.2302 263.489 8.2302 263.525C8.51771 263.201 8.68544 262.71 8.68544 262.051V200.235C8.69742 198.63 7.73903 196.797 6.55303 196.114Z" fill="#6DE0F6"/>
<path d="M2.1443 263.574L4.43242 264.891C5.61842 265.574 6.57678 264.843 6.57678 263.274V201.458C6.57678 199.877 5.61842 198.044 4.43242 197.361L2.1443 196.043C0.958295 195.36 -0.000139236 196.091 -0.000139236 197.661V259.477C-0.000139236 261.046 0.958295 262.879 2.1443 263.574Z" fill="url(#paint11_linear_112_52)"/>
<path d="M36.4548 220.435L32.3338 218.051V212.013L36.4548 214.397V220.435Z" fill="#50DEFF"/>
<path d="M36.4548 223.466V229.875L32.3338 227.503V221.094L36.4548 223.466Z" fill="#50DEFF"/>
<path d="M19.0959 202.153V207.125L17.6703 207.952V202.98L19.0959 202.153Z" fill="#50DEFF"/>
<path d="M22.3784 205.231L20.9528 206.046V201.086L22.3784 200.26V205.231Z" fill="#50DEFF"/>
<path d="M14.8552 228.976V243.004L32.0822 233.061L36.3829 235.552L10.7341 250.36V226.604L14.8552 228.976Z" fill="#50DEFF"/>
<path d="M32.3338 206.897V199.482L24.2354 204.154V199.182L36.4548 192.126V209.281L32.3338 206.897Z" fill="#50DEFF"/>
<path d="M10.734 220.733L14.8551 223.117V225.945L10.734 223.561V220.733Z" fill="#50DEFF"/>
<path d="M15.8135 209.017L14.8551 209.568V217.415L10.734 215.031V206.981L15.8135 204.058V209.017Z" fill="#50DEFF"/>
<path d="M27.3858 208.335L30.2729 206.67V203.352L27.3858 205.005V208.335Z" fill="#50DEFF"/>
<path d="M22.3785 211.222L25.2537 209.557V206.238L22.3785 207.903V211.222Z" fill="#50DEFF"/>
<path d="M22.3785 216.385L25.2537 214.732V211.401L22.3785 213.067V216.385Z" fill="#50DEFF"/>
<path d="M17.3708 238.631L20.246 236.978V233.647L17.3708 235.313V238.631Z" fill="#50DEFF"/>
<path d="M27.3858 213.497L30.2729 211.832V208.514L27.3858 210.179V213.497Z" fill="#50DEFF"/>
<path d="M17.3708 214.12L20.246 212.455V209.137L17.3708 210.79V214.12Z" fill="#50DEFF"/>
<path opacity="0.4" d="M28.3924 183.823L31.8066 185.716V246.574L33.939 245.328L36.3949 224.686V183.044C36.3949 183.044 31.8905 182.002 31.9264 182.098C31.9744 182.194 31.2196 182.182 31.2196 182.182L28.3924 183.823Z" fill="#0C0F38"/>
<path d="M47.6203 259.198L49.9085 260.515C51.0945 261.198 52.0529 260.468 52.0529 258.898V197.082C52.0529 195.501 51.0945 193.668 49.9085 192.985L47.6203 191.667C46.4343 190.984 45.4759 191.715 45.4759 193.285V255.101C45.4759 256.682 46.4343 258.515 47.6203 259.198Z" fill="#22215B"/>
<path opacity="0.5" d="M19.7074 270.603L58.5341 248.188V187.343L19.7074 209.757V270.603Z" fill="#6EE8FC"/>
<path opacity="0.5" d="M23.0978 272.531L61.9125 250.105V189.271L23.0978 211.686V272.531Z" fill="#25BFEC"/>
<path opacity="0.5" d="M58.5342 187.343L61.9125 189.272L23.0978 211.686L19.7075 209.757L58.5342 187.343Z" fill="#6EE8FC"/>
<path opacity="0.5" d="M58.5342 248.188L61.9125 250.104L23.0978 272.531L19.7075 270.602L58.5342 248.188Z" fill="#6EE8FC"/>
<path d="M18.8448 206.402L20.9892 205.144V205.156C21.3606 204.94 21.8398 204.952 22.3789 205.264L24.667 206.582C25.853 207.265 26.8114 209.097 26.8114 210.679V272.495C26.8114 273.345 26.5239 273.944 26.0806 274.208V274.22L24.0201 275.43L24.4274 273.98L22.3789 272.794C21.1929 272.111 20.2345 270.279 20.2345 268.697V206.881C20.2345 206.869 20.2345 206.869 20.2345 206.869L18.8448 206.402Z" fill="url(#paint12_linear_112_52)"/>
<path d="M24.667 206.595L22.3789 205.277C21.9476 205.025 21.5403 204.978 21.2048 205.085C21.4085 205.121 21.6122 205.181 21.8398 205.313L24.1759 206.667C25.3858 207.362 26.3562 209.23 26.3562 210.848V273.898C26.3562 273.934 26.3442 273.969 26.3442 274.005C26.6317 273.682 26.7995 273.191 26.7995 272.532V210.716C26.8114 209.111 25.8411 207.278 24.667 206.595Z" fill="#6DE0F6"/>
<path d="M20.2584 274.04L22.5465 275.358C23.7325 276.041 24.6909 275.31 24.6909 273.741V211.925C24.6909 210.344 23.7325 208.511 22.5465 207.828L20.2584 206.51C19.0724 205.827 18.114 206.558 18.114 208.127V269.943C18.114 271.525 19.0724 273.358 20.2584 274.04Z" fill="url(#paint13_linear_112_52)"/>
<path d="M54.5687 230.914L50.4477 228.53V222.492L54.5687 224.876V230.914Z" fill="#50DEFF"/>
<path d="M54.5687 233.945V240.354L50.4477 237.97V231.561L54.5687 233.945Z" fill="#50DEFF"/>
<path d="M37.21 212.632V217.603L35.7844 218.43V213.458L37.21 212.632Z" fill="#50DEFF"/>
<path d="M40.4924 215.699L39.0668 216.526V211.554L40.4924 210.728V215.699Z" fill="#50DEFF"/>
<path d="M32.9692 239.455V253.484L50.1962 243.54L54.4969 246.02L28.8481 260.839V237.071L32.9692 239.455Z" fill="#50DEFF"/>
<path d="M50.4477 217.377V209.961L42.3493 214.633V209.662L54.5687 202.605V219.749L50.4477 217.377Z" fill="#50DEFF"/>
<path d="M28.848 231.212L32.9691 233.596V236.423L28.848 234.039V231.212Z" fill="#50DEFF"/>
<path d="M33.9154 219.497L32.969 220.048V227.883L28.8479 225.499V217.46L33.9154 214.525V219.497Z" fill="#50DEFF"/>
<path d="M45.4998 218.802L48.387 217.149V213.818L45.4998 215.484V218.802Z" fill="#50DEFF"/>
<path d="M40.4924 221.701L43.3676 220.036V216.718L40.4924 218.383V221.701Z" fill="#50DEFF"/>
<path d="M40.4924 226.864L43.3676 225.199V221.881L40.4924 223.546V226.864Z" fill="#50DEFF"/>
<path d="M35.4848 249.111L38.36 247.445V244.127L35.4848 245.792V249.111Z" fill="#50DEFF"/>
<path d="M45.4998 223.978L48.387 222.313V218.994L45.4998 220.647V223.978Z" fill="#50DEFF"/>
<path d="M35.4848 224.588L38.36 222.935V219.604L35.4848 221.27V224.588Z" fill="#50DEFF"/>
<path opacity="0.4" d="M46.5063 194.292L49.9206 196.185V257.042L52.053 255.796L54.5089 235.155V193.513C54.5089 193.513 50.0045 192.471 50.0404 192.567C50.0883 192.663 49.3336 192.651 49.3336 192.651L46.5063 194.292Z" fill="#0C0F38"/>
<path d="M65.7335 269.669L68.0217 270.987C69.2077 271.67 70.166 270.939 70.166 269.37V207.554C70.166 205.973 69.2077 204.14 68.0217 203.457L65.7335 202.139C64.5475 201.456 63.5891 202.187 63.5891 203.756V265.572C63.5891 267.154 64.5475 268.986 65.7335 269.669Z" fill="#22215B"/>
<path opacity="0.5" d="M37.8204 281.086L76.6471 258.672V197.826L37.8204 220.24V281.086Z" fill="#6EE8FC"/>
<path opacity="0.5" d="M41.1986 283.003L80.0253 260.589V199.743L41.1986 222.157V283.003Z" fill="#25BFEC"/>
<path opacity="0.5" d="M76.6471 197.826L80.0254 199.743L41.1987 222.157L37.8204 220.24L76.6471 197.826Z" fill="#6EE8FC"/>
<path opacity="0.5" d="M76.6469 258.672L80.0253 260.589L41.1986 283.003L37.8203 281.086L76.6469 258.672Z" fill="#6EE8FC"/>
<path d="M36.9578 216.885L39.1022 215.628V215.639C39.4736 215.424 39.9528 215.436 40.4919 215.747L42.78 217.065C43.966 217.748 44.9244 219.581 44.9244 221.162V282.978C44.9244 283.829 44.6369 284.428 44.1936 284.691V284.703L42.1331 285.913L42.5404 284.464L40.4919 283.278C39.3059 282.595 38.3475 280.762 38.3475 279.181V217.365C38.3475 217.353 38.3475 217.353 38.3475 217.353L36.9578 216.885Z" fill="url(#paint14_linear_112_52)"/>
<path d="M42.7801 217.077L40.4919 215.759C40.0606 215.508 39.6533 215.46 39.3179 215.568C39.5215 215.604 39.7252 215.664 39.9528 215.795L42.2889 217.149C43.4989 217.844 44.4692 219.713 44.4692 221.33V284.38C44.4692 284.416 44.4572 284.452 44.4572 284.488C44.7448 284.164 44.9125 283.673 44.9125 283.014V221.198C44.9125 219.593 43.9541 217.76 42.7801 217.077Z" fill="#6DE0F6"/>
<path d="M38.3714 284.524L40.6596 285.842C41.8456 286.524 42.804 285.794 42.804 284.224V222.408C42.804 220.827 41.8456 218.994 40.6596 218.311L38.3714 216.993C37.1854 216.311 36.227 217.041 36.227 218.611V280.427C36.227 282.008 37.1854 283.841 38.3714 284.524Z" fill="url(#paint15_linear_112_52)"/>
<path d="M72.6819 241.396L68.5608 239.012V232.975L72.6819 235.359V241.396Z" fill="#50DEFF"/>
<path d="M72.6819 244.428V250.837L68.5608 248.453V242.044L72.6819 244.428Z" fill="#50DEFF"/>
<path d="M55.3231 223.115V228.075L53.8855 228.901V223.93L55.3231 223.115Z" fill="#50DEFF"/>
<path d="M58.6056 226.183L57.18 227.009V222.038L58.6056 221.211V226.183Z" fill="#50DEFF"/>
<path d="M51.0822 249.939V263.967L68.3092 254.024L72.61 256.504L46.9611 271.311V247.555L51.0822 249.939Z" fill="#50DEFF"/>
<path d="M68.5607 227.847V220.432L60.4623 225.116V220.144L72.6818 213.088V230.231L68.5607 227.847Z" fill="#50DEFF"/>
<path d="M46.9611 241.696L51.0822 244.08V246.896L46.9611 244.524V241.696Z" fill="#50DEFF"/>
<path d="M52.0287 229.98L51.0823 230.531V238.366L46.9612 235.982V227.944L52.0287 225.009V229.98Z" fill="#50DEFF"/>
<path d="M63.6132 229.284L66.4884 227.631V224.301L63.6132 225.966V229.284Z" fill="#50DEFF"/>
<path d="M58.6056 232.184L61.4807 230.519V227.2L58.6056 228.853V232.184Z" fill="#50DEFF"/>
<path d="M58.6056 237.347L61.4807 235.682V232.363L58.6056 234.016V237.347Z" fill="#50DEFF"/>
<path d="M53.598 259.595L56.4731 257.93V254.611L53.598 256.265V259.595Z" fill="#50DEFF"/>
<path d="M63.6132 234.447L66.4884 232.794V229.464L63.6132 231.129V234.447Z" fill="#50DEFF"/>
<path d="M53.598 235.072L56.4731 233.406V230.088L53.598 231.753V235.072Z" fill="#50DEFF"/>
<path opacity="0.4" d="M64.6192 204.774L68.0334 206.679V267.536L70.1658 266.291L72.6217 245.649V204.007C72.6217 204.007 68.1173 202.965 68.1532 203.061C68.2011 203.157 67.4464 203.145 67.4464 203.145L64.6192 204.774Z" fill="#0C0F38"/>
<path d="M65.025 133.778C66.6956 133.778 68.0498 132.424 68.0498 130.753C68.0498 129.083 66.6956 127.729 65.025 127.729C63.3544 127.729 62.0001 129.083 62.0001 130.753C62.0001 132.424 63.3544 133.778 65.025 133.778Z" fill="#6DE0F6"/>
<path d="M87.7997 115.648C90.6451 115.648 92.9517 113.341 92.9517 110.496C92.9517 107.65 90.6451 105.344 87.7997 105.344C84.9543 105.344 82.6476 107.65 82.6476 110.496C82.6476 113.341 84.9543 115.648 87.7997 115.648Z" fill="#6DE0F6"/>
<path d="M81.4375 108.545C82.1704 108.545 82.7645 107.951 82.7645 107.218C82.7645 106.485 82.1704 105.891 81.4375 105.891C80.7046 105.891 80.1105 106.485 80.1105 107.218C80.1105 107.951 80.7046 108.545 81.4375 108.545Z" fill="#6DE0F6"/>
<path d="M103.958 83.8962C105.381 83.8962 106.534 82.7429 106.534 81.3202C106.534 79.8975 105.381 78.7441 103.958 78.7441C102.535 78.7441 101.382 79.8975 101.382 81.3202C101.382 82.7429 102.535 83.8962 103.958 83.8962Z" fill="#6DE0F6"/>
<path d="M90.3752 61.2588C91.3776 61.2588 92.1902 60.4462 92.1902 59.4438C92.1902 58.4415 91.3776 57.6289 90.3752 57.6289C89.3729 57.6289 88.5603 58.4415 88.5603 59.4438C88.5603 60.4462 89.3729 61.2588 90.3752 61.2588Z" fill="#6DE0F6"/>
<path d="M68.0497 48.7691C69.8712 48.7691 71.3478 47.2925 71.3478 45.471C71.3478 43.6495 69.8712 42.1729 68.0497 42.1729C66.2282 42.1729 64.7516 43.6495 64.7516 45.471C64.7516 47.2925 66.2282 48.7691 68.0497 48.7691Z" fill="#6DE0F6"/>
<path d="M86.2578 28.746C89.9439 28.746 92.932 25.7578 92.932 22.0717C92.932 18.3856 89.9439 15.3975 86.2578 15.3975C82.5717 15.3975 79.5835 18.3856 79.5835 22.0717C79.5835 25.7578 82.5717 28.746 86.2578 28.746Z" fill="#6DE0F6"/>
<path d="M77.6689 9.83479C77.6689 10.8496 76.8493 11.6692 75.8345 11.6692C74.8197 11.6692 74 10.8496 74 9.83479C74 8.81999 74.8197 8.00033 75.8345 8.00033C76.8493 7.98082 77.6689 8.81999 77.6689 9.83479Z" fill="#6DE0F6"/>
<path d="M96.3324 37.1662C96.3324 38.3567 95.3567 39.3324 94.1662 39.3324C92.9758 39.3324 92 38.3567 92 37.1662C92 35.9758 92.9758 35 94.1662 35C95.3762 35 96.3324 35.9758 96.3324 37.1662Z" fill="#6DE0F6"/>
<path d="M101.054 28.1077C101.636 28.1077 102.108 27.6359 102.108 27.0538C102.108 26.4718 101.636 26 101.054 26C100.472 26 100 26.4718 100 27.0538C100 27.6359 100.472 28.1077 101.054 28.1077Z" fill="#6DE0F6"/>
<path d="M109.052 3.02488C109.052 4.7032 107.686 6.04979 106.027 6.04979C104.349 6.04979 103.002 4.68369 103.002 3.02488C103.002 1.34655 104.368 0 106.027 0C107.686 0 109.052 1.34655 109.052 3.02488Z" fill="#6DE0F6"/>
<defs>
<linearGradient id="paint0_linear_112_52" x1="167.594" y1="212.499" x2="-1.89703" y2="212.499" gradientUnits="userSpaceOnUse">
<stop stop-color="#A31FA9"/>
<stop offset="0.0668" stop-color="#8B17A0"/>
<stop offset="0.1494" stop-color="#740F98"/>
<stop offset="0.2393" stop-color="#640A92"/>
<stop offset="0.3408" stop-color="#5B078F"/>
<stop offset="0.4785" stop-color="#58068E"/>
<stop offset="0.6264" stop-color="#4D22A3"/>
<stop offset="0.9436" stop-color="#3168DA"/>
<stop offset="1" stop-color="#2C75E4"/>
</linearGradient>
<linearGradient id="paint1_linear_112_52" x1="155.575" y1="160.247" x2="25.0918" y2="192.535" gradientUnits="userSpaceOnUse">
<stop stop-color="#8D139B"/>
<stop offset="0.1651" stop-color="#851BA1"/>
<stop offset="0.4284" stop-color="#6E33B2"/>
<stop offset="0.7551" stop-color="#4958CD"/>
<stop offset="1" stop-color="#2979E4"/>
</linearGradient>
<linearGradient id="paint2_linear_112_52" x1="137.512" y1="160.247" x2="40.3677" y2="184.285" gradientUnits="userSpaceOnUse">
<stop stop-color="#630692"/>
<stop offset="0.2262" stop-color="#5B0E94"/>
<stop offset="0.587" stop-color="#432399"/>
<stop offset="1" stop-color="#2142A1"/>
</linearGradient>
<linearGradient id="paint3_linear_112_52" x1="167.594" y1="159.031" x2="-1.89703" y2="159.031" gradientUnits="userSpaceOnUse">
<stop stop-color="#A31FA9"/>
<stop offset="0.0668" stop-color="#8B17A0"/>
<stop offset="0.1494" stop-color="#740F98"/>
<stop offset="0.2393" stop-color="#640A92"/>
<stop offset="0.3408" stop-color="#5B078F"/>
<stop offset="0.4785" stop-color="#58068E"/>
<stop offset="0.6264" stop-color="#4D22A3"/>
<stop offset="0.9436" stop-color="#3168DA"/>
<stop offset="1" stop-color="#2C75E4"/>
</linearGradient>
<linearGradient id="paint4_linear_112_52" x1="155.575" y1="146.166" x2="25.0918" y2="178.453" gradientUnits="userSpaceOnUse">
<stop stop-color="#8D139B"/>
<stop offset="0.1651" stop-color="#851BA1"/>
<stop offset="0.4284" stop-color="#6E33B2"/>
<stop offset="0.7551" stop-color="#4958CD"/>
<stop offset="1" stop-color="#2979E4"/>
</linearGradient>
<linearGradient id="paint5_linear_112_52" x1="137.513" y1="146.164" x2="40.3678" y2="170.202" gradientUnits="userSpaceOnUse">
<stop stop-color="#630692"/>
<stop offset="0.2262" stop-color="#5B0E94"/>
<stop offset="0.587" stop-color="#432399"/>
<stop offset="1" stop-color="#2142A1"/>
</linearGradient>
<linearGradient id="paint6_linear_112_52" x1="167.594" y1="147.034" x2="-1.89703" y2="147.034" gradientUnits="userSpaceOnUse">
<stop stop-color="#A31FA9"/>
<stop offset="0.0668" stop-color="#8B17A0"/>
<stop offset="0.1494" stop-color="#740F98"/>
<stop offset="0.2393" stop-color="#640A92"/>
<stop offset="0.3408" stop-color="#5B078F"/>
<stop offset="0.4785" stop-color="#58068E"/>
<stop offset="0.6264" stop-color="#4D22A3"/>
<stop offset="0.9436" stop-color="#3168DA"/>
<stop offset="1" stop-color="#2C75E4"/>
</linearGradient>
<linearGradient id="paint7_linear_112_52" x1="155.575" y1="134.168" x2="25.0918" y2="166.456" gradientUnits="userSpaceOnUse">
<stop stop-color="#8D139B"/>
<stop offset="0.1651" stop-color="#851BA1"/>
<stop offset="0.4284" stop-color="#6E33B2"/>
<stop offset="0.7551" stop-color="#4958CD"/>
<stop offset="1" stop-color="#2979E4"/>
</linearGradient>
<linearGradient id="paint8_linear_112_52" x1="137.513" y1="134.167" x2="40.3679" y2="158.205" gradientUnits="userSpaceOnUse">
<stop stop-color="#630692"/>
<stop offset="0.2262" stop-color="#5B0E94"/>
<stop offset="0.587" stop-color="#432399"/>
<stop offset="1" stop-color="#2142A1"/>
</linearGradient>
<linearGradient id="paint9_linear_112_52" x1="188.953" y1="199.606" x2="28.8987" y2="257.722" gradientUnits="userSpaceOnUse">
<stop stop-color="#630692"/>
<stop offset="0.2262" stop-color="#5B0E94"/>
<stop offset="0.587" stop-color="#432399"/>
<stop offset="1" stop-color="#2142A1"/>
</linearGradient>
<linearGradient id="paint10_linear_112_52" x1="29.0976" y1="218.819" x2="-32.0839" y2="246.051" gradientUnits="userSpaceOnUse">
<stop stop-color="#2C75E4"/>
<stop offset="0.0564" stop-color="#3168DA"/>
<stop offset="0.3736" stop-color="#4D22A3"/>
<stop offset="0.5215" stop-color="#58068E"/>
<stop offset="0.6592" stop-color="#5B078F"/>
<stop offset="0.7607" stop-color="#640A92"/>
<stop offset="0.8506" stop-color="#740F98"/>
<stop offset="0.9332" stop-color="#8B17A0"/>
<stop offset="1" stop-color="#A31FA9"/>
</linearGradient>
<linearGradient id="paint11_linear_112_52" x1="4.02388" y1="230.462" x2="85.1348" y2="230.462" gradientUnits="userSpaceOnUse">
<stop stop-color="#2C75E4"/>
<stop offset="0.0564" stop-color="#3168DA"/>
<stop offset="0.3736" stop-color="#4D22A3"/>
<stop offset="0.5215" stop-color="#58068E"/>
<stop offset="0.6592" stop-color="#5B078F"/>
<stop offset="0.7607" stop-color="#640A92"/>
<stop offset="0.8506" stop-color="#740F98"/>
<stop offset="0.9332" stop-color="#8B17A0"/>
<stop offset="1" stop-color="#A31FA9"/>
</linearGradient>
<linearGradient id="paint12_linear_112_52" x1="47.2104" y1="229.294" x2="-13.9714" y2="256.527" gradientUnits="userSpaceOnUse">
<stop stop-color="#2C75E4"/>
<stop offset="0.0564" stop-color="#3168DA"/>
<stop offset="0.3736" stop-color="#4D22A3"/>
<stop offset="0.5215" stop-color="#58068E"/>
<stop offset="0.6592" stop-color="#5B078F"/>
<stop offset="0.7607" stop-color="#640A92"/>
<stop offset="0.8506" stop-color="#740F98"/>
<stop offset="0.9332" stop-color="#8B17A0"/>
<stop offset="1" stop-color="#A31FA9"/>
</linearGradient>
<linearGradient id="paint13_linear_112_52" x1="22.1367" y1="240.938" x2="103.248" y2="240.938" gradientUnits="userSpaceOnUse">
<stop stop-color="#2C75E4"/>
<stop offset="0.0564" stop-color="#3168DA"/>
<stop offset="0.3736" stop-color="#4D22A3"/>
<stop offset="0.5215" stop-color="#58068E"/>
<stop offset="0.6592" stop-color="#5B078F"/>
<stop offset="0.7607" stop-color="#640A92"/>
<stop offset="0.8506" stop-color="#740F98"/>
<stop offset="0.9332" stop-color="#8B17A0"/>
<stop offset="1" stop-color="#A31FA9"/>
</linearGradient>
<linearGradient id="paint14_linear_112_52" x1="65.3221" y1="239.774" x2="4.14007" y2="267.007" gradientUnits="userSpaceOnUse">
<stop stop-color="#2C75E4"/>
<stop offset="0.0564" stop-color="#3168DA"/>
<stop offset="0.3736" stop-color="#4D22A3"/>
<stop offset="0.5215" stop-color="#58068E"/>
<stop offset="0.6592" stop-color="#5B078F"/>
<stop offset="0.7607" stop-color="#640A92"/>
<stop offset="0.8506" stop-color="#740F98"/>
<stop offset="0.9332" stop-color="#8B17A0"/>
<stop offset="1" stop-color="#A31FA9"/>
</linearGradient>
<linearGradient id="paint15_linear_112_52" x1="40.2483" y1="251.418" x2="121.359" y2="251.418" gradientUnits="userSpaceOnUse">
<stop stop-color="#2C75E4"/>
<stop offset="0.0564" stop-color="#3168DA"/>
<stop offset="0.3736" stop-color="#4D22A3"/>
<stop offset="0.5215" stop-color="#58068E"/>
<stop offset="0.6592" stop-color="#5B078F"/>
<stop offset="0.7607" stop-color="#640A92"/>
<stop offset="0.8506" stop-color="#740F98"/>
<stop offset="0.9332" stop-color="#8B17A0"/>
<stop offset="1" stop-color="#A31FA9"/>
</linearGradient>
</defs>
</svg>
