<svg width="138" height="238" viewBox="0 0 138 238" fill="none" xmlns="http://www.w3.org/2000/svg">
<path d="M137.358 183.754H100.967L60.4474 160.362C55.2264 157.349 46.1167 157.721 40.0915 161.202L53.8821 153.185H17.5033V188.147H17.5153C17.3712 190.188 18.4995 192.156 21.0079 193.596L94.4018 235.964C99.6228 238.977 108.732 238.605 114.758 235.124L132.377 225.018C135.51 223.206 137.178 220.925 137.334 218.717H137.358V183.754Z" fill="url(#paint0_linear_112_50)"/>
<path d="M136.302 183.754V219.869H136.266C136.194 220.925 135.762 222.005 135.005 223.049C136.434 221.681 137.214 220.181 137.322 218.716H137.346V183.754H136.302Z" fill="#6EE8FC"/>
<path d="M94.4018 201.001L21.0079 158.633C15.7869 155.62 16.4471 150.363 22.4722 146.883L40.0795 136.765C46.1047 133.284 55.2144 132.912 60.4354 135.925L133.829 178.293C139.05 181.305 138.39 186.562 132.365 190.043L114.758 200.161C108.733 203.642 99.6228 204.014 94.4018 201.001Z" fill="url(#paint1_linear_112_50)"/>
<path d="M95.8541 201.002L22.4602 158.634C17.2392 155.621 17.8993 150.364 23.9245 146.884L41.5318 136.778C44.6284 134.989 48.5291 134.029 52.2978 133.921C48.097 133.801 43.5722 134.761 40.0795 136.778L22.4602 146.884C16.4351 150.364 15.7749 155.621 20.9959 158.634L94.3898 201.002C96.9343 202.466 100.403 203.126 103.98 203.018C100.931 202.934 98.0505 202.274 95.8541 201.002Z" fill="#F88B93"/>
<path d="M133.829 178.294L60.4354 135.926C57.8789 134.449 54.3982 133.789 50.7975 133.909C53.8461 134.005 56.7267 134.653 58.9231 135.926L132.317 178.294C137.538 181.306 136.878 186.563 130.853 190.044L113.245 200.15C110.173 201.926 106.284 202.886 102.527 203.006C106.74 203.126 111.265 202.166 114.758 200.15L132.377 190.044C138.402 186.575 139.05 181.306 133.829 178.294Z" fill="#6EE8FC"/>
<path d="M137.358 168.859H100.967L60.4474 145.466C55.2264 142.454 46.1167 142.826 40.0915 146.307L53.8821 138.289H17.5033V145.802H17.5153C17.3712 147.843 18.4995 149.811 21.0079 151.252L94.4018 193.619C99.6228 196.632 108.732 196.26 114.758 192.779L132.377 182.661C135.51 180.849 137.178 178.569 137.334 176.36H137.358V168.859Z" fill="url(#paint2_linear_112_50)"/>
<path d="M136.302 168.859V177.537H136.266C136.194 178.593 135.762 179.673 135.005 180.718C136.434 179.349 137.214 177.849 137.322 176.385H137.346V168.871H136.302V168.859Z" fill="#6EE8FC"/>
<path d="M94.4018 186.106L21.008 143.738C15.787 140.726 16.4471 135.469 22.4722 131.988L40.0796 121.882C46.1047 118.401 55.2144 118.029 60.4354 121.042L133.829 163.41C139.05 166.422 138.39 171.68 132.365 175.16L114.758 185.266C108.733 188.747 99.6228 189.119 94.4018 186.106Z" fill="url(#paint3_linear_112_50)"/>
<path d="M97.5704 178.845L33.1302 141.626C30.0096 139.825 30.3937 136.669 34.0064 134.592L44.5564 128.543C48.1691 126.455 53.6181 126.239 56.7507 128.039L121.191 165.258C124.311 167.058 123.927 170.215 120.315 172.291L109.765 178.341C106.14 180.417 100.691 180.645 97.5704 178.845Z" fill="#6EE8FC"/>
<path d="M34.0064 135.709L44.5564 129.659C48.1691 127.571 53.6181 127.355 56.7507 129.155L121.191 166.374C122.367 167.047 123.039 167.923 123.243 168.847C123.495 167.503 122.835 166.194 121.191 165.246L56.7507 128.027C53.6301 126.227 48.1691 126.455 44.5564 128.531L34.0064 134.58C31.75 135.877 30.7538 137.593 31.0778 139.141C31.3059 137.929 32.2901 136.693 34.0064 135.709Z" fill="#267FE5"/>
<path d="M95.8541 186.106L22.4602 143.738C17.2392 140.726 17.8993 135.469 23.9245 131.988L41.5318 121.882C44.6284 120.094 48.5291 119.134 52.2978 119.026C48.097 118.906 43.5722 119.866 40.0795 121.882L22.4602 131.988C16.4351 135.469 15.7749 140.726 20.9959 143.738L94.3898 186.106C96.9343 187.571 100.403 188.231 103.98 188.123C100.931 188.039 98.0505 187.379 95.8541 186.106Z" fill="#F88B93"/>
<path d="M133.829 163.398L60.4354 121.03C57.8789 119.554 54.3982 118.894 50.7975 119.014C53.8461 119.11 56.7267 119.758 58.9231 121.03L132.317 163.398C137.538 166.411 136.878 171.668 130.853 175.148L113.245 185.254C110.173 187.031 106.284 187.991 102.527 188.111C106.74 188.231 111.265 187.271 114.758 185.254L132.377 175.148C138.402 171.68 139.05 166.411 133.829 163.398Z" fill="#6EE8FC"/>
<path opacity="0.5" d="M115.034 227.227C114.782 227.227 114.53 227.167 114.314 227.035C113.761 226.711 113.437 226.039 113.437 225.175V211.024C113.437 209.596 114.302 207.975 115.394 207.339L128.164 199.97C128.752 199.622 129.352 199.598 129.844 199.886C130.397 200.21 130.721 200.882 130.721 201.746V215.897C130.721 217.325 129.856 218.945 128.764 219.581L115.994 226.951C115.67 227.131 115.346 227.227 115.034 227.227ZM129.112 200.894C128.98 200.894 128.824 200.966 128.752 201.014L115.982 208.383C115.25 208.803 114.626 210.016 114.626 211.024V225.175C114.626 225.667 114.77 225.919 114.902 225.991C115.046 226.075 115.286 225.955 115.382 225.907L128.152 218.537C128.884 218.117 129.508 216.905 129.508 215.897V201.746C129.508 201.254 129.364 201.002 129.232 200.93C129.208 200.906 129.16 200.894 129.112 200.894Z" fill="#0F133B"/>
<path d="M27.1291 182.433V179.793C27.1291 178.425 28.2333 177.957 29.6016 178.749L83.1557 209.643C84.5239 210.435 85.6281 212.175 85.6281 213.543V216.184C85.6281 217.552 84.5239 218.02 83.1557 217.228L29.6016 186.334C28.2333 185.542 27.1291 183.802 27.1291 182.433Z" fill="#38025B"/>
<path opacity="0.5" d="M3.29257 200.905L42.1079 178.473L94.8219 208.874L55.9945 231.307L3.29257 200.905Z" fill="#6EE8FC"/>
<path opacity="0.5" d="M3.31659 197.016L42.1439 174.584L94.8459 204.998L56.0185 227.418L3.31659 197.016Z" fill="#25BFEC"/>
<path opacity="0.5" d="M94.8219 208.874L94.8459 204.997L56.0186 227.417L55.9946 231.306L94.8219 208.874Z" fill="#6EE8FC"/>
<path opacity="0.5" d="M42.1079 178.473L42.1439 174.584L3.31658 197.016L3.29257 200.905L42.1079 178.473Z" fill="#6EE8FC"/>
<path d="M58.479 233.73L60.6394 232.506H60.6274C60.9995 232.29 61.2275 231.87 61.2275 231.258V228.617C61.2275 227.249 60.1233 225.509 58.7551 224.717L5.20094 193.823C4.4568 193.391 3.80868 193.343 3.35259 193.607L3.34059 193.595L1.26419 194.783L2.72847 195.155V197.532C2.72847 198.9 3.83268 200.64 5.20094 201.432L58.7551 232.326C58.7551 232.326 58.767 232.326 58.767 232.338L58.479 233.73Z" fill="url(#paint4_linear_112_50)"/>
<path d="M61.2155 228.605V231.246C61.2155 231.75 61.0595 232.11 60.7954 232.35C60.8675 232.158 60.9155 231.942 60.9155 231.69V228.989C60.9155 227.597 59.7872 225.809 58.395 225.005L3.78468 193.499C3.74867 193.475 3.72467 193.475 3.68866 193.451C4.10874 193.367 4.62484 193.463 5.20095 193.787L58.7551 224.681C60.1113 225.485 61.2155 227.237 61.2155 228.605Z" fill="#6DE0F6"/>
<path d="M0.592072 198.708V196.067C0.592072 194.699 1.69628 194.231 3.06454 195.023L56.6187 225.917C57.9869 226.709 59.0911 228.449 59.0911 229.818V232.458C59.0911 233.826 57.9869 234.295 56.6187 233.502L3.06454 202.609C1.69628 201.828 0.592072 200.076 0.592072 198.708Z" fill="url(#paint5_linear_112_50)"/>
<path d="M55.0944 190.546L55.1064 195.311L60.3273 198.323V193.558L55.0944 190.546Z" fill="#50DEFF"/>
<path d="M52.4659 189.023L46.9208 185.818V190.583L52.4779 193.788L52.4659 189.023Z" fill="#50DEFF"/>
<path d="M62.2597 214.719L57.9509 212.234L56.5226 213.063L60.8315 215.547L62.2597 214.719Z" fill="#50DEFF"/>
<path d="M61.2396 210.339L59.8113 211.167L64.1081 213.651L65.5484 212.823L61.2396 210.339Z" fill="#50DEFF"/>
<path d="M36.8989 204.985L24.7526 197.975L41.9759 188.026V183.057L16.3271 197.867L36.8989 209.75V204.985Z" fill="#50DEFF"/>
<path d="M64.7682 200.881L71.1894 204.59L63.0999 209.259L67.3967 211.743L79.615 204.686L64.7682 196.116V200.881Z" fill="#50DEFF"/>
<path d="M41.9759 212.678V207.913L39.5274 206.497V211.262L41.9759 212.678Z" fill="#50DEFF"/>
<path d="M54.6623 214.131L53.7141 214.683L46.9208 210.771V215.523L53.8942 219.544L58.9711 216.616L54.6623 214.131Z" fill="#50DEFF"/>
<path d="M61.0475 204.445L63.928 202.789L66.8086 204.445L63.928 206.102L61.0475 204.445Z" fill="#50DEFF"/>
<path d="M56.0425 207.338L58.9231 205.682L61.8036 207.338L58.9231 209.006L56.0425 207.338Z" fill="#50DEFF"/>
<path d="M51.5657 204.758L54.4462 203.102L57.3268 204.758L54.4462 206.426L51.5657 204.758Z" fill="#50DEFF"/>
<path d="M29.7936 197.977L32.6741 196.32L35.5547 197.977L32.6741 199.645L29.7936 197.977Z" fill="#50DEFF"/>
<path d="M56.5826 201.865L59.4512 200.209L62.3317 201.865L59.4512 203.522L56.5826 201.865Z" fill="#50DEFF"/>
<path d="M51.0376 210.231L53.9061 208.574L56.7867 210.231L53.9181 211.899L51.0376 210.231Z" fill="#50DEFF"/>
<path opacity="0.4" d="M82.7836 215.836L82.8436 211.923L30.1297 181.509L32.2781 180.285L51.3857 188.471L87.4645 209.283C87.4645 209.283 86.1082 213.711 86.0602 213.627C86.0002 213.543 85.6402 214.192 85.6402 214.192L82.7836 215.836Z" fill="#0C0F38"/>
<path d="M60.0249 133.777C61.6955 133.777 63.0498 132.423 63.0498 130.752C63.0498 129.082 61.6955 127.728 60.0249 127.728C58.3543 127.728 57 129.082 57 130.752C57 132.423 58.3543 133.777 60.0249 133.777Z" fill="#6DE0F6"/>
<path d="M82.7995 115.648C85.6449 115.648 87.9516 113.341 87.9516 110.496C87.9516 107.65 85.6449 105.344 82.7995 105.344C79.9541 105.344 77.6475 107.65 77.6475 110.496C77.6475 113.341 79.9541 115.648 82.7995 115.648Z" fill="#6DE0F6"/>
<path d="M76.4374 108.545C77.1703 108.545 77.7645 107.951 77.7645 107.218C77.7645 106.485 77.1703 105.891 76.4374 105.891C75.7045 105.891 75.1104 106.485 75.1104 107.218C75.1104 107.951 75.7045 108.545 76.4374 108.545Z" fill="#6DE0F6"/>
<path d="M98.958 83.8972C100.381 83.8972 101.534 82.7439 101.534 81.3212C101.534 79.8985 100.381 78.7451 98.958 78.7451C97.5353 78.7451 96.382 79.8985 96.382 81.3212C96.382 82.7439 97.5353 83.8972 98.958 83.8972Z" fill="#6DE0F6"/>
<path d="M85.3756 61.2588C86.378 61.2588 87.1906 60.4462 87.1906 59.4438C87.1906 58.4415 86.378 57.6289 85.3756 57.6289C84.3733 57.6289 83.5607 58.4415 83.5607 59.4438C83.5607 60.4462 84.3733 61.2588 85.3756 61.2588Z" fill="#6DE0F6"/>
<path d="M63.0496 48.7691C64.8711 48.7691 66.3477 47.2924 66.3477 45.4709C66.3477 43.6495 64.8711 42.1729 63.0496 42.1729C61.2281 42.1729 59.7515 43.6495 59.7515 45.4709C59.7515 47.2924 61.2281 48.7691 63.0496 48.7691Z" fill="#6DE0F6"/>
<path d="M74.5836 17.8367C74.5836 18.8515 73.764 19.6712 72.7492 19.6712C71.7344 19.6712 70.9147 18.8515 70.9147 17.8367C70.9147 16.8219 71.7344 16.0023 72.7492 16.0023C73.7445 15.9828 74.5836 16.8219 74.5836 17.8367Z" fill="#6DE0F6"/>
<path d="M88.8103 30.093C88.8103 31.2834 87.8345 32.2592 86.644 32.2592C85.4536 32.2592 84.4778 31.2834 84.4778 30.093C84.4778 28.9025 85.4536 27.9268 86.644 27.9268C87.854 27.9268 88.8103 28.9025 88.8103 30.093Z" fill="#6DE0F6"/>
<path d="M90.43 25.5646C90.43 26.15 89.9616 26.6184 89.3761 26.6184C88.7907 26.6184 88.3223 26.15 88.3223 25.5646C88.3223 24.9791 88.7907 24.5107 89.3761 24.5107C89.9616 24.5107 90.43 24.9986 90.43 25.5646Z" fill="#6DE0F6"/>
<path d="M104.052 3.02488C104.052 4.7032 102.686 6.04977 101.027 6.04977C99.3484 6.04977 98.0019 4.68369 98.0019 3.02488C98.0019 1.34655 99.3679 0 101.027 0C102.705 0 104.052 1.34655 104.052 3.02488Z" fill="#6DE0F6"/>
<defs>
<linearGradient id="paint0_linear_112_50" x1="6.16004" y1="195.587" x2="152.19" y2="195.587" gradientUnits="userSpaceOnUse">
<stop stop-color="#A31FA9"/>
<stop offset="0.0668" stop-color="#8B17A0"/>
<stop offset="0.1494" stop-color="#740F98"/>
<stop offset="0.2393" stop-color="#640A92"/>
<stop offset="0.3408" stop-color="#5B078F"/>
<stop offset="0.4785" stop-color="#58068E"/>
<stop offset="0.6264" stop-color="#4D22A3"/>
<stop offset="0.9436" stop-color="#3168DA"/>
<stop offset="1" stop-color="#2C75E4"/>
</linearGradient>
<linearGradient id="paint1_linear_112_50" x1="12.6501" y1="168.464" x2="132.202" y2="198.047" gradientUnits="userSpaceOnUse">
<stop stop-color="#8D139B"/>
<stop offset="0.1651" stop-color="#851BA1"/>
<stop offset="0.4284" stop-color="#6E33B2"/>
<stop offset="0.7551" stop-color="#4958CD"/>
<stop offset="1" stop-color="#2979E4"/>
</linearGradient>
<linearGradient id="paint2_linear_112_50" x1="6.16004" y1="166.972" x2="152.19" y2="166.972" gradientUnits="userSpaceOnUse">
<stop stop-color="#A31FA9"/>
<stop offset="0.0668" stop-color="#8B17A0"/>
<stop offset="0.1494" stop-color="#740F98"/>
<stop offset="0.2393" stop-color="#640A92"/>
<stop offset="0.3408" stop-color="#5B078F"/>
<stop offset="0.4785" stop-color="#58068E"/>
<stop offset="0.6264" stop-color="#4D22A3"/>
<stop offset="0.9436" stop-color="#3168DA"/>
<stop offset="1" stop-color="#2C75E4"/>
</linearGradient>
<linearGradient id="paint3_linear_112_50" x1="12.6502" y1="153.57" x2="132.202" y2="183.152" gradientUnits="userSpaceOnUse">
<stop stop-color="#8D139B"/>
<stop offset="0.1651" stop-color="#851BA1"/>
<stop offset="0.4284" stop-color="#6E33B2"/>
<stop offset="0.7551" stop-color="#4958CD"/>
<stop offset="1" stop-color="#2979E4"/>
</linearGradient>
<linearGradient id="paint4_linear_112_50" x1="52.8189" y1="197.727" x2="-1.34089" y2="237.113" gradientUnits="userSpaceOnUse">
<stop stop-color="#2C75E4"/>
<stop offset="0.0564" stop-color="#3168DA"/>
<stop offset="0.3736" stop-color="#4D22A3"/>
<stop offset="0.5215" stop-color="#58068E"/>
<stop offset="0.6592" stop-color="#5B078F"/>
<stop offset="0.7607" stop-color="#640A92"/>
<stop offset="0.8506" stop-color="#740F98"/>
<stop offset="0.9332" stop-color="#8B17A0"/>
<stop offset="1" stop-color="#A31FA9"/>
</linearGradient>
<linearGradient id="paint5_linear_112_50" x1="30.2045" y1="213.627" x2="70.7495" y2="143.345" gradientUnits="userSpaceOnUse">
<stop stop-color="#A31FA9"/>
<stop offset="0.0668" stop-color="#8B17A0"/>
<stop offset="0.1494" stop-color="#740F98"/>
<stop offset="0.2393" stop-color="#640A92"/>
<stop offset="0.3408" stop-color="#5B078F"/>
<stop offset="0.4785" stop-color="#58068E"/>
<stop offset="0.6264" stop-color="#4D22A3"/>
<stop offset="0.9436" stop-color="#3168DA"/>
<stop offset="1" stop-color="#2C75E4"/>
</linearGradient>
</defs>
</svg>
