<svg width="130" height="290" viewBox="0 0 130 290" fill="none" xmlns="http://www.w3.org/2000/svg">
<path d="M22.3176 175.456H54.8291L91.0148 154.557C95.6812 151.864 103.821 152.207 109.196 155.314L96.8744 148.143H129.362V242.204H129.351C129.48 244.023 128.464 245.784 126.232 247.071L60.677 284.911C56.0105 287.604 47.8708 287.262 42.4955 284.155L26.7596 275.129C23.9597 273.51 22.4712 271.467 22.3294 269.506H22.3058V175.456H22.3176Z" fill="url(#paint0_linear_112_51)"/>
<path d="M23.2627 175.456V270.557H23.2863C23.3572 271.502 23.7353 272.471 24.4087 273.392C23.1328 272.164 22.4358 270.829 22.3413 269.517H22.3176V175.456H23.2627Z" fill="#6EE8FC"/>
<path d="M60.677 190.86L126.232 153.021C130.898 150.327 130.307 145.625 124.92 142.518L109.184 133.493C103.797 130.386 95.6576 130.043 91.0029 132.737L25.4483 170.576C20.7818 173.27 21.3725 177.972 26.7478 181.079L42.4838 190.104C47.8827 193.211 56.0223 193.554 60.677 190.86Z" fill="url(#paint1_linear_112_51)"/>
<path d="M59.3893 190.861L124.944 153.021C129.61 150.328 129.02 145.626 123.644 142.519L107.909 133.493C105.144 131.898 101.659 131.036 98.2921 130.941C102.049 130.835 106.089 131.697 109.208 133.493L124.944 142.519C130.331 145.626 130.91 150.328 126.255 153.021L60.7006 190.861C58.4324 192.172 55.3372 192.763 52.1356 192.657C54.841 192.586 57.4282 191.995 59.3893 190.861Z" fill="#F88B93"/>
<path d="M25.4601 170.576L91.0148 132.737C93.2948 131.425 96.4137 130.835 99.627 130.941C96.8981 131.024 94.3226 131.614 92.3734 132.737L26.8187 170.576C22.1522 173.27 22.7429 177.972 28.13 181.079L43.866 190.104C46.6186 191.687 50.08 192.55 53.4351 192.656C49.6784 192.762 45.6262 191.9 42.5074 190.104L26.7714 181.079C21.3844 177.972 20.7937 173.27 25.4601 170.576Z" fill="#6EE8FC"/>
<path d="M58.5269 179.946L107.33 151.77C110.803 149.762 110.366 146.265 106.361 143.949L106.715 144.197C102.71 141.882 96.65 141.634 93.1767 143.642L44.374 171.818C40.9007 173.826 41.3378 177.323 45.3427 179.639L44.9883 179.39C48.9932 181.706 55.0536 181.954 58.5269 179.946Z" fill="url(#paint2_linear_112_51)"/>
<path d="M56.7903 171.191L92.1489 150.777C94.6653 149.324 94.3463 146.796 91.4401 145.118L104.695 152.821C101.789 151.143 97.4061 150.966 94.8897 152.419L59.5311 172.833C57.0148 174.286 57.3337 176.815 60.2399 178.492L46.9849 170.79C49.8911 172.455 54.274 172.644 56.7903 171.191Z" fill="#6DE0F6"/>
<path d="M91.4637 147.87L104.707 155.572C101.801 153.895 97.4061 153.718 94.8897 155.171L59.5192 175.597C58.964 175.916 58.5623 176.306 58.2788 176.707C57.4282 175.325 57.7944 173.825 59.5192 172.832L94.8897 152.406C97.4061 150.953 101.801 151.142 104.707 152.808L91.4637 145.105C93.7202 146.405 94.3935 148.224 93.4012 149.654C93.0113 149.028 92.3734 148.402 91.4637 147.87Z" fill="#267FE5"/>
<path d="M91.4637 151.202L104.707 158.904C101.801 157.227 97.406 157.049 94.8897 158.503L59.5192 178.929C59.0821 179.188 58.7513 179.484 58.4796 179.791C57.3573 178.326 57.6644 176.66 59.5192 175.597L94.8897 155.171C97.406 153.718 101.801 153.907 104.707 155.573L91.4637 147.87C93.8619 149.252 94.4644 151.213 93.2003 152.667C92.7986 152.147 92.2198 151.651 91.4637 151.202Z" fill="#25BFEC"/>
<path d="M92.8578 156.365C92.4915 155.975 92.0426 155.609 91.4638 155.266L104.707 162.969C101.801 161.291 97.4061 161.114 94.8897 162.567L59.5193 182.993C59.2475 183.147 59.0349 183.324 58.8223 183.501C57.3337 181.942 57.4991 180.099 59.5193 178.929L94.8897 158.503C97.4061 157.05 101.801 157.239 104.707 158.905L91.4638 151.202C94.051 152.702 94.5708 154.876 92.8578 156.365Z" fill="#18D0F7"/>
<path d="M22.3176 159.837H54.8291L91.0148 138.938C95.6812 136.245 103.821 136.587 109.196 139.694L96.8744 132.523H129.362V139.234H129.351C129.48 141.053 128.464 142.813 126.232 144.101L60.677 181.94C56.0105 184.634 47.8708 184.291 42.4955 181.184L26.7596 172.159C23.9597 170.54 22.4712 168.496 22.3294 166.535H22.3058V159.837H22.3176Z" fill="url(#paint3_linear_112_51)"/>
<path d="M23.2627 159.837V167.587H23.2863C23.3572 168.532 23.7353 169.501 24.4087 170.422C23.1328 169.193 22.4358 167.858 22.3413 166.547H22.3176V159.837H23.2627Z" fill="#6EE8FC"/>
<path d="M60.677 175.242L126.232 137.403C130.898 134.709 130.307 130.007 124.92 126.9L109.184 117.874C103.797 114.767 95.6576 114.425 91.0029 117.118L25.4483 154.958C20.7818 157.652 21.3725 162.353 26.7478 165.46L42.4838 174.486C47.8827 177.605 56.0223 177.936 60.677 175.242Z" fill="url(#paint4_linear_112_51)"/>
<path d="M59.3893 175.243L124.944 137.403C129.61 134.71 129.02 130.008 123.644 126.901L107.909 117.875C105.144 116.28 101.659 115.418 98.2921 115.323C102.049 115.217 106.089 116.079 109.208 117.875L124.944 126.901C130.331 130.008 130.91 134.71 126.255 137.403L60.7006 175.243C58.4324 176.554 55.3372 177.145 52.1356 177.038C54.841 176.968 57.4282 176.377 59.3893 175.243Z" fill="#F88B93"/>
<path d="M25.4601 154.958L91.0148 117.118C93.2948 115.807 96.4137 115.216 99.627 115.323C96.8981 115.405 94.3226 115.996 92.3734 117.118L26.8187 154.958C22.1522 157.651 22.7429 162.353 28.13 165.46L43.866 174.486C46.6186 176.069 50.08 176.932 53.4351 177.038C49.6784 177.144 45.6262 176.282 42.5074 174.486L26.7714 165.46C21.3844 162.353 20.7937 157.651 25.4601 154.958Z" fill="#6EE8FC"/>
<path d="M58.5269 164.338L107.33 136.162C110.803 134.154 110.366 130.657 106.361 128.342L106.715 128.59C102.71 126.274 96.65 126.026 93.1767 128.035L44.374 156.21C40.9007 158.219 41.3378 161.716 45.3427 164.031L44.9883 163.783C48.9932 166.087 55.0536 166.335 58.5269 164.338Z" fill="url(#paint5_linear_112_51)"/>
<path d="M56.7903 155.572L92.1489 135.158C94.6653 133.705 94.3463 131.177 91.4401 129.499L104.695 137.202C101.789 135.524 97.4061 135.347 94.8897 136.8L59.5311 157.214C57.0148 158.667 57.3337 161.195 60.2399 162.873L46.9849 155.17C49.8911 156.836 54.274 157.025 56.7903 155.572Z" fill="#6DE0F6"/>
<path d="M91.4637 132.253L104.707 139.955C101.801 138.278 97.4061 138.101 94.8897 139.554L59.5192 159.98C58.964 160.299 58.5623 160.688 58.2788 161.09C57.4282 159.708 57.7944 158.208 59.5192 157.215L94.8897 136.789C97.4061 135.336 101.801 135.525 104.707 137.191L91.4637 129.488C93.7202 130.788 94.3935 132.607 93.4012 134.037C93.0113 133.41 92.3734 132.784 91.4637 132.253Z" fill="#267FE5"/>
<path d="M91.4637 135.583L104.707 143.286C101.801 141.608 97.406 141.431 94.8897 142.884L59.5192 163.31C59.0821 163.57 58.7513 163.866 58.4796 164.173C57.3573 162.708 57.6644 161.042 59.5192 159.979L94.8897 139.553C97.406 138.1 101.801 138.289 104.707 139.955L91.4637 132.252C93.8619 133.634 94.4644 135.595 93.2003 137.048C92.7986 136.529 92.2198 136.032 91.4637 135.583Z" fill="#25BFEC"/>
<path d="M92.8578 140.747C92.4915 140.357 92.0426 139.991 91.4638 139.648L104.707 147.351C101.801 145.673 97.4061 145.496 94.8897 146.949L59.5193 167.375C59.2475 167.528 59.0349 167.706 58.8223 167.883C57.3337 166.323 57.4991 164.481 59.5193 163.311L94.8897 142.885C97.4061 141.432 101.801 141.621 104.707 143.287L91.4638 135.584C94.051 137.084 94.5708 139.27 92.8578 140.747Z" fill="#18D0F7"/>
<path d="M22.3176 146.535H54.8291L91.0148 125.637C95.6812 122.943 103.821 123.286 109.196 126.393L96.8744 119.222H129.362V125.932H129.351C129.48 127.751 128.464 129.511 126.232 130.799L60.677 168.639C56.0105 171.332 47.8708 170.99 42.4955 167.883L26.7596 158.857C23.9597 157.238 22.4712 155.195 22.3294 153.234H22.3058V146.535H22.3176Z" fill="url(#paint6_linear_112_51)"/>
<path d="M23.2627 146.535V154.285H23.2863C23.3572 155.23 23.7353 156.199 24.4087 157.12C23.1328 155.892 22.4358 154.557 22.3413 153.245H22.3176V146.535H23.2627Z" fill="#6EE8FC"/>
<path d="M60.677 161.94L126.232 124.101C130.898 121.407 130.307 116.705 124.92 113.598L109.184 104.573C103.797 101.466 95.6576 101.123 91.0029 103.817L25.4483 141.656C20.7818 144.35 21.3725 149.052 26.7478 152.159L42.4838 161.184C47.8827 164.291 56.0223 164.634 60.677 161.94Z" fill="url(#paint7_linear_112_51)"/>
<path d="M57.8534 155.455L115.41 122.211C118.198 120.604 117.856 117.781 114.63 115.926L105.215 110.515C101.99 108.661 97.1225 108.448 94.3226 110.066L36.7658 143.31C33.9778 144.917 34.3203 147.741 37.5455 149.595L46.9611 155.006C50.1863 156.861 55.0654 157.062 57.8534 155.455Z" fill="#6EE8FC"/>
<path d="M114.619 116.93L105.203 111.52C101.978 109.665 97.1107 109.452 94.3108 111.071L36.7541 144.315C35.7026 144.917 35.1001 145.697 34.9229 146.524C34.6984 145.331 35.2892 144.149 36.7541 143.31L94.3108 110.066C97.0989 108.46 101.978 108.661 105.203 110.515L114.619 115.926C116.627 117.084 117.525 118.62 117.23 120.002C117.029 118.915 116.155 117.816 114.619 116.93Z" fill="#267FE5"/>
<path d="M59.3893 161.94L124.944 124.1C129.61 121.407 129.02 116.705 123.644 113.598L107.909 104.572C105.144 102.977 101.659 102.115 98.2921 102.02C102.049 101.914 106.089 102.777 109.208 104.572L124.944 113.598C130.331 116.705 130.91 121.407 126.255 124.1L60.7006 161.94C58.4324 163.251 55.3372 163.842 52.1356 163.736C54.841 163.665 57.4282 163.074 59.3893 161.94Z" fill="#F88B93"/>
<path d="M25.46 141.656L91.0147 103.817C93.2948 102.505 96.4136 101.915 99.627 102.021C96.898 102.104 94.3226 102.694 92.3733 103.817L26.8186 141.656C22.1522 144.35 22.7429 149.052 28.13 152.159L43.8659 161.184C46.6185 162.767 50.08 163.63 53.4351 163.736C49.6783 163.842 45.6262 162.98 42.5073 161.184L26.7714 152.159C21.3843 149.052 20.7936 144.35 25.46 141.656Z" fill="#6EE8FC"/>
<path d="M65.4734 270.745L118.718 240.006C120.148 239.179 121.317 236.958 121.317 235.044V169.666C121.317 167.753 120.159 166.878 118.718 167.705L65.4734 198.445C64.044 199.272 62.8744 201.493 62.8744 203.407V268.784C62.8862 270.686 64.044 271.572 65.4734 270.745Z" fill="#6DE0F6"/>
<path d="M64.5282 270.343L117.773 239.603C119.202 238.776 120.372 236.555 120.372 234.642V169.264C120.372 168.414 120.136 167.776 119.746 167.398C120.679 167.386 121.329 168.236 121.329 169.666V235.043C121.329 236.957 120.171 239.178 118.73 240.005L65.4851 270.745C64.6936 271.205 63.9966 271.123 63.5122 270.65C63.8194 270.65 64.162 270.544 64.5282 270.343Z" fill="#267FE5"/>
<path d="M33.7533 271.242L36.3642 272.754C37.7109 273.534 38.8096 272.707 38.8096 270.899V200.335C38.8096 198.54 37.7109 196.437 36.3642 195.657L33.7533 194.145C32.4066 193.365 31.3079 194.192 31.3079 196V266.564C31.3079 268.371 32.4066 270.462 33.7533 271.242Z" fill="#22215B"/>
<path opacity="0.5" d="M1.90332 284.272L46.2168 258.684V189.23L1.90332 214.819V284.272Z" fill="#6EE8FC"/>
<path opacity="0.5" d="M5.75458 286.458L50.0799 260.869V191.416L5.75458 217.005V286.458Z" fill="#25BFEC"/>
<path opacity="0.5" d="M46.2168 189.23L50.0799 191.416L5.75461 217.005L1.90332 214.819L46.2168 189.23Z" fill="#6EE8FC"/>
<path opacity="0.5" d="M46.2168 258.684L50.0799 260.869L5.75461 286.458L1.90332 284.272L46.2168 258.684Z" fill="#6EE8FC"/>
<path d="M0.91095 210.98L3.35639 209.55V209.574C3.78169 209.338 4.33693 209.349 4.93944 209.692L7.55029 211.204C8.89706 211.984 9.99573 214.075 9.99573 215.882V286.446C9.99573 287.427 9.66496 288.1 9.15697 288.407L9.16877 288.419L6.81784 289.801L7.29039 288.147L4.95126 286.789C3.60449 286.009 2.5058 283.918 2.5058 282.11V211.547C2.5058 211.535 2.5058 211.535 2.5058 211.523L0.91095 210.98Z" fill="url(#paint8_linear_112_51)"/>
<path d="M7.55029 211.204L4.93944 209.692C4.44326 209.408 3.99435 209.361 3.60449 209.479C3.82895 209.515 4.07704 209.586 4.32513 209.739L6.99504 211.275C8.37725 212.067 9.48775 214.205 9.48775 216.036V288.006C9.48775 288.053 9.47594 288.088 9.47594 288.124C9.79492 287.757 9.99574 287.19 9.99574 286.434V215.871C9.99574 214.075 8.90888 211.984 7.55029 211.204Z" fill="#6DE0F6"/>
<path d="M2.51759 288.195L5.12844 289.707C6.47521 290.487 7.5739 289.66 7.5739 287.852V217.289C7.5739 215.493 6.47521 213.39 5.12844 212.61L2.51759 211.098C1.17082 210.318 0.0721436 211.145 0.0721436 212.953V283.517C0.0721436 285.324 1.17082 287.415 2.51759 288.195Z" fill="url(#paint9_linear_112_51)"/>
<path d="M41.6922 238.955L36.9785 236.238V229.351L41.6922 232.068V238.955Z" fill="#50DEFF"/>
<path d="M41.6922 242.416V249.741L36.9785 247.024V239.699L41.6922 242.416Z" fill="#50DEFF"/>
<path d="M21.8687 218.093V223.763L20.2383 224.709V219.038L21.8687 218.093Z" fill="#50DEFF"/>
<path d="M25.6254 221.6L23.9951 222.545V216.863L25.6254 215.93V221.6Z" fill="#50DEFF"/>
<path d="M17.0368 248.713V264.721L36.6949 253.368L41.6095 256.203L12.3231 273.109V245.996L17.0368 248.713Z" fill="#50DEFF"/>
<path d="M36.9785 223.503V215.044L27.7401 220.372V214.702L41.6922 206.645V226.22L36.9785 223.503Z" fill="#50DEFF"/>
<path d="M12.3231 239.31L17.0368 242.027V245.252L12.3231 242.535V239.31Z" fill="#50DEFF"/>
<path d="M18.1237 225.936L17.0368 226.562V235.506L12.3231 232.788V223.597L18.1237 220.254V225.936Z" fill="#50DEFF"/>
<path d="M31.3433 225.145L34.6275 223.243V219.451L31.3433 221.353V225.145Z" fill="#50DEFF"/>
<path d="M25.6254 228.441L28.9097 226.551V222.759L25.6254 224.649V228.441Z" fill="#50DEFF"/>
<path d="M25.6254 234.336L28.9097 232.446V228.653L25.6254 230.544V234.336Z" fill="#50DEFF"/>
<path d="M19.9075 259.735L23.1918 257.833V254.041L19.9075 255.943V259.735Z" fill="#50DEFF"/>
<path d="M31.3433 231.04L34.6275 229.138V225.346L31.3433 227.248V231.04Z" fill="#50DEFF"/>
<path d="M19.9075 231.749L23.1918 229.847V226.055L19.9075 227.957V231.749Z" fill="#50DEFF"/>
<path opacity="0.4" d="M32.4774 197.157L36.376 199.319V268.784L38.8096 267.367L41.6094 243.81V196.271C41.6094 196.271 36.4586 195.078 36.5177 195.184C36.565 195.291 35.7144 195.279 35.7144 195.279L32.4774 197.157Z" fill="#0C0F38"/>
<path d="M102.084 202.285L110.531 197.406V195.965L102.084 200.844V202.285Z" fill="#267FE5"/>
<path d="M95.374 206.16L99.6033 203.715V202.285L95.374 204.719V206.16Z" fill="#18D0F7"/>
<path d="M88.9473 209.869L93.1766 207.424V205.994L88.9473 208.428V209.869Z" fill="#267FE5"/>
<path d="M82.5206 213.578L86.7382 211.144V209.703L82.5206 212.149V213.578Z" fill="#267FE5"/>
<path d="M102.084 205.722L110.531 200.843V199.413L102.084 204.292V205.722Z" fill="#267FE5"/>
<path d="M95.374 209.597L99.6033 207.151V205.722L95.374 208.167V209.597Z" fill="#18D0F7"/>
<path d="M88.9473 213.307L93.1766 210.873V209.432L88.9473 211.877V213.307Z" fill="#267FE5"/>
<path d="M82.5206 217.016L86.7382 214.583V213.153L82.5206 215.587V217.016Z" fill="#267FE5"/>
<path d="M102.084 209.172L110.531 204.293V202.852L102.084 207.731V209.172Z" fill="#267FE5"/>
<path d="M92.1488 213.472L93.1766 212.881L99.6033 209.16V210.601L93.1766 214.311L92.1488 214.902L88.9473 216.756V215.315L92.1488 213.472Z" fill="#267FE5"/>
<path d="M82.5206 220.466L86.7382 218.02V216.591L82.5206 219.024V220.466Z" fill="#267FE5"/>
<path d="M80.3114 213.413V216.863V218.292V220.301V220.714V221.742L76.0939 224.175V223.159V222.746V220.738V219.296V215.859L80.3114 213.413Z" fill="#267FE5"/>
<path d="M102.084 212.609L110.531 207.73V206.301L102.084 211.18V212.609Z" fill="#18D0F7"/>
<path d="M95.374 216.484L99.6033 214.039V212.609L95.374 215.043V216.484Z" fill="#267FE5"/>
<path d="M88.9473 218.765L90.0814 218.103L93.1767 216.319V217.761L90.0814 219.544L88.9473 220.194L82.5206 223.904V222.474L88.9473 218.765Z" fill="#267FE5"/>
<path d="M76.0939 227.625L80.3114 225.179V223.75L76.0939 226.184V227.625Z" fill="#267FE5"/>
<path d="M102.084 222.935L110.531 218.055V216.626L102.084 221.505V222.935Z" fill="#267FE5"/>
<path d="M95.374 226.81L99.6033 224.377V222.936L95.374 225.381V226.81Z" fill="#267FE5"/>
<path d="M88.9473 229.09L90.0814 228.44L93.1767 226.645V228.086L90.0814 229.87L88.9473 230.519L82.5206 234.241V232.8L88.9473 229.09Z" fill="#267FE5"/>
<path d="M76.0939 237.95L80.3114 235.505V234.075L76.0939 236.509V237.95Z" fill="#267FE5"/>
<path d="M102.084 226.385L110.531 221.506V220.064L102.084 224.944V226.385Z" fill="#267FE5"/>
<path d="M95.374 230.26L99.6033 227.814V226.385L95.374 228.818V230.26Z" fill="#267FE5"/>
<path d="M76.0939 241.389L80.3114 238.955V237.514L76.0939 239.959V241.389Z" fill="#267FE5"/>
<path d="M102.084 229.822L110.531 224.943V223.514L102.084 228.393V229.822Z" fill="#267FE5"/>
<path d="M95.374 233.698L99.6033 231.265V229.823L95.374 232.269V233.698Z" fill="#267FE5"/>
<path d="M88.9473 232.527L90.0814 231.878L93.1767 230.094V231.098V231.523V234.973L90.0814 236.757L88.9473 237.406L82.5206 241.128V237.678V237.253V236.249L88.9473 232.527Z" fill="#18D0F7"/>
<path d="M76.0939 244.838L80.3114 242.392V240.963L76.0939 243.397V244.838Z" fill="#267FE5"/>
<path d="M102.084 216.048L110.531 211.181V209.739L102.084 214.618V216.048Z" fill="#267FE5"/>
<path d="M95.374 219.922L99.6033 217.488V216.047L95.374 218.492V219.922Z" fill="#18D0F7"/>
<path d="M82.5206 227.353L86.7382 224.908V223.479L82.5206 225.912V227.353Z" fill="#267FE5"/>
<path d="M76.0939 231.062L80.3114 228.617V227.188L76.0939 229.633V231.062Z" fill="#267FE5"/>
<path d="M102.084 219.498L110.531 214.619V213.189L102.084 218.057V219.498Z" fill="#267FE5"/>
<path d="M95.374 223.372L99.6033 220.927V219.497L95.374 221.931V223.372Z" fill="#267FE5"/>
<path d="M93.1766 219.77V220.478V221.199V224.637L88.9473 227.082V223.633V222.924V222.203L93.1766 219.77Z" fill="#18D0F7"/>
<path d="M82.5206 230.791L86.7382 228.357V226.916L82.5206 229.361V230.791Z" fill="#267FE5"/>
<path d="M76.0939 234.501L80.3114 232.067V230.638L76.0939 233.071V234.501Z" fill="#267FE5"/>
<path d="M58.0498 92.0249C58.0498 93.6837 56.7032 95.0498 55.0249 95.0498C53.3661 95.0498 52 93.7032 52 92.0249C52 90.3661 53.3465 89 55.0249 89C56.6837 89 58.0498 90.3466 58.0498 92.0249Z" fill="#6DE0F6"/>
<path d="M70.7996 123.649C73.645 123.649 75.9516 121.342 75.9516 118.497C75.9516 115.651 73.645 113.345 70.7996 113.345C67.9541 113.345 65.6475 115.651 65.6475 118.497C65.6475 121.342 67.9541 123.649 70.7996 123.649Z" fill="#6DE0F6"/>
<path d="M65.7645 115.218C65.7645 115.94 65.179 116.545 64.4374 116.545C63.7153 116.545 63.1104 115.959 63.1104 115.218C63.1104 114.496 63.6958 113.891 64.4374 113.891C65.179 113.891 65.7645 114.476 65.7645 115.218Z" fill="#6DE0F6"/>
<path d="M90.576 81.1521C91.9988 81.1521 93.1521 79.9988 93.1521 78.576C93.1521 77.1533 91.9988 76 90.576 76C89.1533 76 88 77.1533 88 78.576C88 79.9988 89.1533 81.1521 90.576 81.1521Z" fill="#6DE0F6"/>
<path d="M74.815 46.6299C75.8173 46.6299 76.6299 45.8173 76.6299 44.8149C76.6299 43.8126 75.8173 43 74.815 43C73.8126 43 73 43.8126 73 44.8149C73 45.8173 73.8126 46.6299 74.815 46.6299Z" fill="#6DE0F6"/>
<path d="M64.5962 72.2981C64.5962 74.113 63.113 75.5962 61.2981 75.5962C59.4832 75.5962 58 74.113 58 72.2981C58 70.4636 59.4832 69 61.2981 69C63.113 69 64.5962 70.4636 64.5962 72.2981Z" fill="#6DE0F6"/>
<path d="M62.5836 25.8179C62.5836 26.8327 61.7639 27.6523 60.7491 27.6523C59.7343 27.6523 58.9147 26.8327 58.9147 25.8179C58.9147 24.8031 59.7343 23.9834 60.7491 23.9834C61.7639 23.9834 62.5836 24.8031 62.5836 25.8179Z" fill="#6DE0F6"/>
<path d="M91.1662 47.3324C92.3626 47.3324 93.3324 46.3626 93.3324 45.1662C93.3324 43.9698 92.3626 43 91.1662 43C89.9699 43 89 43.9698 89 45.1662C89 46.3626 89.9699 47.3324 91.1662 47.3324Z" fill="#6DE0F6"/>
<path d="M90.1077 23.0538C90.1077 23.6393 89.6393 24.1077 89.0538 24.1077C88.4684 24.1077 88 23.6393 88 23.0538C88 22.4684 88.4684 22 89.0538 22C89.6393 22 90.1077 22.4684 90.1077 23.0538Z" fill="#6DE0F6"/>
<path d="M76.0497 3.02509C76.0497 4.70341 74.6837 6.04998 73.0249 6.04998C71.3465 6.04998 70 4.68389 70 3.02509C70 1.34676 71.3661 0.000206526 73.0249 0.000206526C74.7032 -0.0193089 76.0497 1.34676 76.0497 3.02509Z" fill="#6DE0F6"/>
<defs>
<linearGradient id="paint0_linear_112_51" x1="139.492" y1="217.444" x2="9.06336" y2="217.444" gradientUnits="userSpaceOnUse">
<stop stop-color="#A31FA9"/>
<stop offset="0.0668" stop-color="#8B17A0"/>
<stop offset="0.1494" stop-color="#740F98"/>
<stop offset="0.2393" stop-color="#640A92"/>
<stop offset="0.3408" stop-color="#5B078F"/>
<stop offset="0.4785" stop-color="#58068E"/>
<stop offset="0.6264" stop-color="#4D22A3"/>
<stop offset="0.9436" stop-color="#3168DA"/>
<stop offset="1" stop-color="#2C75E4"/>
</linearGradient>
<linearGradient id="paint1_linear_112_51" x1="133.695" y1="161.8" x2="26.9164" y2="188.222" gradientUnits="userSpaceOnUse">
<stop stop-color="#8D139B"/>
<stop offset="0.1651" stop-color="#851BA1"/>
<stop offset="0.4284" stop-color="#6E33B2"/>
<stop offset="0.7551" stop-color="#4958CD"/>
<stop offset="1" stop-color="#2979E4"/>
</linearGradient>
<linearGradient id="paint2_linear_112_51" x1="113.666" y1="161.801" x2="43.8557" y2="179.075" gradientUnits="userSpaceOnUse">
<stop stop-color="#630692"/>
<stop offset="0.2262" stop-color="#5B0E94"/>
<stop offset="0.587" stop-color="#432399"/>
<stop offset="1" stop-color="#2142A1"/>
</linearGradient>
<linearGradient id="paint3_linear_112_51" x1="139.492" y1="158.154" x2="9.06336" y2="158.154" gradientUnits="userSpaceOnUse">
<stop stop-color="#A31FA9"/>
<stop offset="0.0668" stop-color="#8B17A0"/>
<stop offset="0.1494" stop-color="#740F98"/>
<stop offset="0.2393" stop-color="#640A92"/>
<stop offset="0.3408" stop-color="#5B078F"/>
<stop offset="0.4785" stop-color="#58068E"/>
<stop offset="0.6264" stop-color="#4D22A3"/>
<stop offset="0.9436" stop-color="#3168DA"/>
<stop offset="1" stop-color="#2C75E4"/>
</linearGradient>
<linearGradient id="paint4_linear_112_51" x1="133.695" y1="146.184" x2="26.9165" y2="172.606" gradientUnits="userSpaceOnUse">
<stop stop-color="#8D139B"/>
<stop offset="0.1651" stop-color="#851BA1"/>
<stop offset="0.4284" stop-color="#6E33B2"/>
<stop offset="0.7551" stop-color="#4958CD"/>
<stop offset="1" stop-color="#2979E4"/>
</linearGradient>
<linearGradient id="paint5_linear_112_51" x1="113.666" y1="146.184" x2="43.8555" y2="163.458" gradientUnits="userSpaceOnUse">
<stop stop-color="#630692"/>
<stop offset="0.2262" stop-color="#5B0E94"/>
<stop offset="0.587" stop-color="#432399"/>
<stop offset="1" stop-color="#2142A1"/>
</linearGradient>
<linearGradient id="paint6_linear_112_51" x1="139.492" y1="144.851" x2="9.06336" y2="144.851" gradientUnits="userSpaceOnUse">
<stop stop-color="#A31FA9"/>
<stop offset="0.0668" stop-color="#8B17A0"/>
<stop offset="0.1494" stop-color="#740F98"/>
<stop offset="0.2393" stop-color="#640A92"/>
<stop offset="0.3408" stop-color="#5B078F"/>
<stop offset="0.4785" stop-color="#58068E"/>
<stop offset="0.6264" stop-color="#4D22A3"/>
<stop offset="0.9436" stop-color="#3168DA"/>
<stop offset="1" stop-color="#2C75E4"/>
</linearGradient>
<linearGradient id="paint7_linear_112_51" x1="133.695" y1="132.881" x2="26.9165" y2="159.303" gradientUnits="userSpaceOnUse">
<stop stop-color="#8D139B"/>
<stop offset="0.1651" stop-color="#851BA1"/>
<stop offset="0.4284" stop-color="#6E33B2"/>
<stop offset="0.7551" stop-color="#4958CD"/>
<stop offset="1" stop-color="#2979E4"/>
</linearGradient>
<linearGradient id="paint8_linear_112_51" x1="33.2896" y1="237.113" x2="-36.5468" y2="268.198" gradientUnits="userSpaceOnUse">
<stop stop-color="#2C75E4"/>
<stop offset="0.0564" stop-color="#3168DA"/>
<stop offset="0.3736" stop-color="#4D22A3"/>
<stop offset="0.5215" stop-color="#58068E"/>
<stop offset="0.6592" stop-color="#5B078F"/>
<stop offset="0.7607" stop-color="#640A92"/>
<stop offset="0.8506" stop-color="#740F98"/>
<stop offset="0.9332" stop-color="#8B17A0"/>
<stop offset="1" stop-color="#A31FA9"/>
</linearGradient>
<linearGradient id="paint9_linear_112_51" x1="4.66901" y1="250.404" x2="97.2521" y2="250.404" gradientUnits="userSpaceOnUse">
<stop stop-color="#2C75E4"/>
<stop offset="0.0564" stop-color="#3168DA"/>
<stop offset="0.3736" stop-color="#4D22A3"/>
<stop offset="0.5215" stop-color="#58068E"/>
<stop offset="0.6592" stop-color="#5B078F"/>
<stop offset="0.7607" stop-color="#640A92"/>
<stop offset="0.8506" stop-color="#740F98"/>
<stop offset="0.9332" stop-color="#8B17A0"/>
<stop offset="1" stop-color="#A31FA9"/>
</linearGradient>
</defs>
</svg>
