<svg width="176" height="38" viewBox="0 0 176 38" fill="none" xmlns="http://www.w3.org/2000/svg">
<path d="M42.0516 30.6747H37.4966C37.6361 27.3483 37.7058 23.6946 37.7058 19.7136C37.7058 15.797 37.6361 12.4652 37.4966 9.7182H42.0516C41.9121 12.4222 41.8424 15.7541 41.8424 19.7136C41.8424 23.7589 41.9121 27.4126 42.0516 30.6747ZM62.3706 30.6747H58.0894C58.3256 27.9599 58.4433 25.2129 58.4433 22.4337C58.4433 20.7491 58.1915 19.6063 57.6869 19.0054C57.1934 18.4045 56.4371 18.104 55.4175 18.104C54.1941 18.104 53.0354 18.5225 51.9407 19.3595C51.9943 23.5443 52.0213 27.3161 52.0213 30.6747H47.6916C47.8848 27.3161 47.9814 24.6764 47.9814 22.7556C47.9814 20.1911 47.7186 17.7714 47.1925 15.4965L51.313 15.0458L51.5868 16.752H51.8441C53.3142 15.4858 55.0045 14.8527 56.9141 14.8527C58.5669 14.8527 59.8868 15.2444 60.8739 16.0277C61.872 16.8003 62.3706 18.2328 62.3706 20.3252C62.3706 20.6364 62.3545 21.0549 62.3225 21.5807C62.301 22.0957 62.2904 22.6269 62.2904 23.1741C62.2904 24.6227 62.317 27.1229 62.3706 30.6747ZM83.1245 26.86L82.8507 30.562C81.3271 30.9269 79.8249 31.1093 78.3443 31.1093C74.6633 31.1093 71.8577 30.0953 69.9262 28.0672C68.0055 26.0284 67.045 23.5551 67.045 20.6471C67.045 17.6319 68.0641 15.0083 70.1033 12.7763C72.1526 10.5444 74.9586 9.42849 78.521 9.42849C79.8304 9.42849 81.0698 9.5787 82.2391 9.87913L81.6759 13.5972C80.4096 13.1895 79.1972 12.9856 78.0385 12.9856C75.8601 12.9856 74.2398 13.6777 73.1772 15.0619C72.115 16.4354 71.584 18.1094 71.584 20.0838C71.584 22.1011 72.2116 23.8502 73.467 25.3309C74.7334 26.8117 76.5038 27.5521 78.7788 27.5521C80.1092 27.5521 81.5578 27.3214 83.1245 26.86ZM98.0837 15.3839L97.1502 19.1502C96.3563 18.8283 95.5514 18.6673 94.736 18.6673C93.1583 18.6673 92.1177 19.3756 91.6132 20.792C91.6132 25.0734 91.6457 28.3676 91.7098 30.6747H87.4286C87.6108 27.4448 87.7019 24.8052 87.7019 22.7556C87.7019 20.2018 87.4336 17.7821 86.8975 15.4965L91.0015 15.0458C91.1842 16.2262 91.2753 16.9183 91.2753 17.1222H91.533C92.5201 15.6092 93.8346 14.8527 95.4763 14.8527C96.2487 14.8527 97.1181 15.0297 98.0837 15.3839ZM115.811 21.3875C115.811 21.9348 115.779 22.6484 115.715 23.5282L105.349 23.7053C105.5 24.9178 106.02 25.9265 106.911 26.7313C107.801 27.536 108.971 27.9384 110.419 27.9384C112.029 27.9384 113.741 27.697 115.554 27.2141L115.232 30.3367C113.751 30.8732 111.916 31.1415 109.727 31.1415C106.959 31.1415 104.834 30.3635 103.353 28.8076C101.883 27.2517 101.148 25.3792 101.148 23.1902C101.148 20.9047 101.846 18.9249 103.241 17.2509C104.647 15.5663 106.594 14.7239 109.084 14.7239C111.359 14.7239 113.048 15.3409 114.154 16.5749C115.259 17.8089 115.811 19.4131 115.811 21.3875ZM112.045 21.2426C112.045 18.7747 110.994 17.5407 108.89 17.5407C106.884 17.5407 105.693 18.8176 105.317 21.3714L112.045 21.2426ZM133.475 30.6586L129.676 30.7874C129.505 30.3367 129.419 29.9289 129.419 29.5641H129.209C128.029 30.5727 126.436 31.0771 124.429 31.0771C123.088 31.0771 121.972 30.7069 121.081 29.9665C120.202 29.2154 119.762 28.2228 119.762 26.9888C119.762 25.3578 120.448 24.0219 121.822 22.981C123.206 21.9401 125.625 21.3875 129.081 21.3231C129.102 21.13 129.113 20.9476 129.113 20.7759C129.113 19.617 128.834 18.8551 128.276 18.4903C127.718 18.1147 126.693 17.9269 125.202 17.9269C123.581 17.9269 121.999 18.1416 120.453 18.5708L120.808 15.6092C122.267 15.1049 124.327 14.8527 126.988 14.8527C128.931 14.8527 130.427 15.2604 131.479 16.076C132.541 16.8915 133.073 18.3186 133.073 20.3574C133.073 20.8081 133.051 21.629 133.008 22.8201C132.976 24.0111 132.96 24.8052 132.96 25.2022C132.96 27.4234 133.132 29.2422 133.475 30.6586ZM129.177 27.3107C129.113 25.8621 129.081 24.612 129.081 23.5604C125.422 23.5604 123.592 24.4886 123.592 26.345C123.592 27.6219 124.397 28.2604 126.006 28.2604C127.273 28.2604 128.329 27.9438 129.177 27.3107ZM149.158 26.2806C149.158 29.4997 146.776 31.1093 142.012 31.1093C140.274 31.1093 138.755 30.9215 137.457 30.546L138.004 27.3751C139.345 27.858 140.681 28.0994 142.012 28.0994C143.3 28.0994 144.19 27.9921 144.684 27.7775C145.188 27.5629 145.44 27.2034 145.44 26.6991C145.44 25.9158 144.539 25.17 142.736 24.4618C141.159 23.8394 140.011 23.2278 139.292 22.6269C138.305 21.7899 137.811 20.7652 137.811 19.5526C137.811 18.1254 138.342 16.9773 139.404 16.1082C140.467 15.239 142.012 14.8044 144.04 14.8044C145.939 14.8044 147.431 14.9707 148.515 15.3034L147.967 18.4903C146.755 18.0182 145.446 17.7821 144.04 17.7821C142.323 17.7821 141.465 18.2221 141.465 19.102C141.465 19.5526 141.647 19.9174 142.012 20.1964C142.377 20.4647 143.122 20.8081 144.249 21.2266C145.805 21.7953 146.937 22.3801 147.645 22.981C148.654 23.8394 149.158 24.9393 149.158 26.2806ZM158.275 30.6747H153.945C154.096 28.4535 154.171 25.905 154.171 23.0293C154.171 20.175 153.988 17.6748 153.623 15.5287L158.259 15.0619C158.12 17.1436 158.05 19.7994 158.05 23.0293C158.05 25.787 158.125 28.3355 158.275 30.6747ZM159.016 10.523C159.016 11.2526 158.763 11.8911 158.259 12.4384C157.765 12.9856 157.073 13.2592 156.183 13.2592C155.432 13.2592 154.841 13.0231 154.412 12.551C153.994 12.0789 153.784 11.5102 153.784 10.8449C153.784 10.1152 154.031 9.4821 154.525 8.94561C155.029 8.40908 155.732 8.14079 156.633 8.14079C157.395 8.14079 157.98 8.37689 158.388 8.84901C158.806 9.31041 159.016 9.86842 159.016 10.523ZM174.506 26.2806C174.506 29.4997 172.124 31.1093 167.36 31.1093C165.621 31.1093 164.103 30.9215 162.804 30.546L163.352 27.3751C164.693 27.858 166.029 28.0994 167.36 28.0994C168.647 28.0994 169.537 27.9921 170.031 27.7775C170.536 27.5629 170.788 27.2034 170.788 26.6991C170.788 25.9158 169.886 25.17 168.084 24.4618C166.506 23.8394 165.358 23.2278 164.639 22.6269C163.652 21.7899 163.158 20.7652 163.158 19.5526C163.158 18.1254 163.69 16.9773 164.752 16.1082C165.814 15.239 167.36 14.8044 169.387 14.8044C171.287 14.8044 172.778 14.9707 173.862 15.3034L173.315 18.4903C172.102 18.0182 170.793 17.7821 169.387 17.7821C167.67 17.7821 166.812 18.2221 166.812 19.102C166.812 19.5526 166.995 19.9174 167.36 20.1964C167.724 20.4647 168.47 20.8081 169.596 21.2266C171.153 21.7953 172.284 22.3801 172.993 22.981C174.001 23.8394 174.506 24.9393 174.506 26.2806Z" fill="#E5E5E5"/>
<path d="M4.57818 25.6386H0.915527V30.6747H4.57818V25.6386Z" fill="#C4C4C4"/>
<path d="M0.91748 22.3872L10.0999 13.1287L17.1878 19.9683L39.4958 1.16777" stroke="white" stroke-width="2"/>
<path d="M0.834095 23.3046C1.29475 23.3046 1.66819 22.9312 1.66819 22.4705C1.66819 22.0099 1.29475 21.6364 0.834095 21.6364C0.373437 21.6364 0 22.0099 0 22.4705C0 22.9312 0.373437 23.3046 0.834095 23.3046Z" fill="white"/>
<path d="M10.0167 13.6718C10.4774 13.6718 10.8508 13.2983 10.8508 12.8377C10.8508 12.377 10.4774 12.0036 10.0167 12.0036C9.55605 12.0036 9.18262 12.377 9.18262 12.8377C9.18262 13.2983 9.55605 13.6718 10.0167 13.6718Z" fill="white"/>
<path d="M17.1046 21.0934C17.5653 21.0934 17.9387 20.7199 17.9387 20.2593C17.9387 19.7986 17.5653 19.4252 17.1046 19.4252C16.6439 19.4252 16.2705 19.7986 16.2705 20.2593C16.2705 20.7199 16.6439 21.0934 17.1046 21.0934Z" fill="white"/>
<path d="M39.9127 1.66819C40.3734 1.66819 40.7468 1.29475 40.7468 0.834095C40.7468 0.373437 40.3734 0 39.9127 0C39.452 0 39.0786 0.373437 39.0786 0.834095C39.0786 1.29475 39.452 1.66819 39.9127 1.66819Z" fill="white"/>
<path d="M11.9034 20.1446H8.24072V30.6747H11.9034V20.1446Z" fill="#C4C4C4"/>
<path d="M18.7712 22.8916H15.5664V30.6747H18.7712V22.8916Z" fill="#C4C4C4"/>
<path d="M26.0962 21.0602H22.4336V30.6747H26.0962V21.0602Z" fill="#C4C4C4"/>
<path d="M33.4219 15.5663H29.7593V30.6747H33.4219V15.5663Z" fill="#C4C4C4"/>
</svg>
