<svg width="39" height="39" viewBox="0 0 39 39" fill="none" xmlns="http://www.w3.org/2000/svg">
<path d="M17 36C17 37.3807 18.1193 38.5 19.5 38.5C20.8807 38.5 22 37.3807 22 36H17ZM22 3C22 1.61929 20.8807 0.5 19.5 0.5C18.1193 0.5 17 1.61929 17 3H22ZM36 22C37.3807 22 38.5 20.8807 38.5 19.5C38.5 18.1193 37.3807 17 36 17V22ZM3 17C1.61929 17 0.5 18.1193 0.5 19.5C0.5 20.8807 1.61929 22 3 22V17ZM22 36V19.5H17V36H22ZM22 19.5V3H17V19.5H22ZM36 17H19.5V22H36V17ZM19.5 17H3V22H19.5V17Z" fill="#005EE9"/>
</svg>
