<svg width="60" height="60" viewBox="0 0 60 60" fill="none" xmlns="http://www.w3.org/2000/svg">
<path d="M27.66 0C12.925 0 0.977509 11.945 0.977509 26.6825C0.977509 41.42 12.925 53.365 27.6625 53.365C31.58 53.365 35.4575 52.6325 41.1575 52.59C46.24 52.59 51.825 54.375 57.9525 59.805C58.5725 60.3475 59.3875 59.65 58.845 58.99C52.8325 51.35 47.245 49.915 41.6625 48.675C34.8375 47.16 31.3475 43.36 28.9025 39.1325C28.4375 38.28 28.2025 38.435 28.165 39.5225C28.12 41.12 28.24 42.7175 28.515 44.2925H27.7C23.0202 44.2885 18.5331 42.4277 15.224 39.1185C11.9148 35.8094 10.054 31.3224 10.05 26.6425C10.0553 21.9637 11.9168 17.4782 15.2259 14.1706C18.535 10.8629 23.0213 9.00331 27.7 9C30.1905 9.00131 32.6526 9.52938 34.9246 10.5495C37.1966 11.5697 39.2271 13.0589 40.8829 14.9193C42.5386 16.7798 43.7821 18.9694 44.5318 21.3444C45.2814 23.7194 45.5202 26.2262 45.2325 28.7C43.9125 28.4675 41.39 28.43 39.6075 28.585C38.9475 28.6625 39.025 28.9725 39.53 29.0525C45.3475 30.1375 49.3425 33.745 50.2725 40.3C50.31 40.455 50.505 40.4925 50.5825 40.375C53.0424 36.232 54.342 31.5033 54.345 26.685C54.345 11.945 42.4 0 27.66 0ZM46.77 37.6925C46.6181 37.6758 46.4646 37.704 46.3285 37.7738C46.1925 37.8436 46.08 37.9518 46.005 38.085C45.695 38.63 45.93 39.675 46.51 40.6075C47.09 41.5375 47.635 42.0025 48.025 42.0025C48.4125 42.0025 48.76 41.5375 48.605 40.335C48.53 39.675 48.14 38.165 47.13 37.775C47.0125 37.7225 46.8775 37.7175 46.77 37.6925ZM41.235 42.16C40.6925 42.16 40.265 42.35 39.9925 42.7C39.295 43.5525 39.605 45.105 40.6925 46.0375C41.1575 46.4625 41.8575 46.695 42.5175 46.695C42.8169 46.7028 43.1144 46.6446 43.3887 46.5244C43.6631 46.4043 43.9076 46.2253 44.105 46C44.7275 45.145 44.38 43.98 43.175 42.9725C42.555 42.43 41.8575 42.16 41.235 42.16Z" fill="#F49B00"/>
</svg>
