<svg width="32" height="32" viewBox="0 0 32 32" fill="none" xmlns="http://www.w3.org/2000/svg">
<path d="M2.66667 16C2.66667 13.5077 2.66667 12.2615 3.20257 11.3333C3.55364 10.7252 4.05859 10.2203 4.66667 9.86921C5.59487 9.33331 6.84103 9.33331 9.33334 9.33331H22.6667C25.159 9.33331 26.4051 9.33331 27.3333 9.86921C27.9414 10.2203 28.4464 10.7252 28.7974 11.3333C29.3333 12.2615 29.3333 13.5077 29.3333 16C29.3333 18.4923 29.3333 19.7384 28.7974 20.6666C28.4464 21.2747 27.9414 21.7797 27.3333 22.1308C26.4051 22.6666 25.159 22.6666 22.6667 22.6666H9.33334C6.84103 22.6666 5.59487 22.6666 4.66667 22.1308C4.05859 21.7797 3.55364 21.2747 3.20257 20.6666C2.66667 19.7384 2.66667 18.4923 2.66667 16Z" stroke="white" stroke-width="2"/>
<path d="M25.3333 5.33335C25.3333 3.86059 24.1394 2.66669 22.6667 2.66669H9.33334C7.86058 2.66669 6.66667 3.86059 6.66667 5.33335" stroke="white" stroke-width="2"/>
<path d="M25.3333 26.6667C25.3333 28.1394 24.1394 29.3333 22.6667 29.3333H9.33334C7.86058 29.3333 6.66667 28.1394 6.66667 26.6667" stroke="white" stroke-width="2"/>
<rect x="7.33334" y="14" width="6.66667" height="1.33333" rx="0.666667" stroke="white" stroke-width="1.33333"/>
</svg>
