<svg width="456" height="263" viewBox="0 0 456 263" fill="none" xmlns="http://www.w3.org/2000/svg">
<path opacity="0.4" d="M227.686 262.911C353.434 262.911 455.372 204.057 455.372 131.456C455.372 58.8547 353.434 0 227.686 0C101.939 0 0 58.8547 0 131.456C0 204.057 101.939 262.911 227.686 262.911Z" fill="url(#paint0_radial_37_8680)"/>
<path d="M286.092 68.4757C281.52 71.1222 274.083 71.1055 269.493 68.4422C264.887 65.779 264.87 61.4909 269.443 58.8612C274.016 56.2147 281.453 56.2314 286.042 58.8947C290.648 61.5412 290.665 65.8292 286.092 68.4757Z" fill="url(#paint1_linear_37_8680)"/>
<path d="M202.058 112.713L204.352 113.048L203.783 111.708L205.207 110.887L205.776 113.114L206.882 113.751L205.575 114.505L204.47 113.868L200.634 113.533L202.058 112.713Z" fill="url(#paint2_linear_37_8680)"/>
<path d="M209.294 112.427C208.975 112.612 208.657 112.746 208.356 112.846C208.037 112.947 207.753 113.014 207.468 113.03C207.183 113.064 206.932 113.047 206.697 113.014C206.463 112.98 206.262 112.896 206.095 112.813C205.927 112.712 205.81 112.595 205.743 112.461C205.676 112.327 205.659 112.176 205.709 112.009C205.759 111.841 205.86 111.674 206.027 111.489C206.195 111.305 206.446 111.138 206.764 110.953C207.083 110.769 207.384 110.635 207.702 110.535C208.021 110.434 208.306 110.367 208.59 110.35C208.875 110.317 209.126 110.333 209.361 110.367C209.595 110.4 209.796 110.484 209.964 110.568C210.131 110.668 210.248 110.786 210.315 110.92C210.382 111.054 210.399 111.205 210.349 111.372C210.299 111.54 210.198 111.707 210.014 111.891C209.846 112.059 209.595 112.243 209.294 112.427ZM207.384 112.059C207.552 112.159 207.736 112.193 207.954 112.176C208.171 112.159 208.356 112.109 208.54 111.992C208.724 111.891 208.825 111.774 208.858 111.657C208.875 111.54 208.808 111.422 208.64 111.339C208.473 111.238 208.289 111.205 208.071 111.221C207.853 111.238 207.669 111.288 207.485 111.405C207.3 111.506 207.2 111.623 207.183 111.74C207.15 111.841 207.217 111.958 207.384 112.059Z" fill="url(#paint3_linear_37_8680)"/>
<path d="M212.074 110.82C211.722 111.021 211.371 111.139 211.019 111.155C210.684 111.172 210.366 111.105 210.081 110.938L208.456 110L209.729 109.263L211.153 110.083C211.253 110.15 211.388 110.167 211.505 110.167C211.639 110.167 211.756 110.117 211.873 110.05C211.974 110 212.057 109.933 212.124 109.849C212.191 109.765 212.225 109.665 212.225 109.547L210.717 108.676L211.99 107.939L213.464 108.794C213.548 108.844 213.632 108.861 213.699 108.861C213.766 108.861 213.85 108.827 213.95 108.794L214.704 109.229C214.52 109.38 214.352 109.48 214.218 109.564C213.783 109.815 213.414 109.899 213.129 109.799L213.012 109.765C212.995 109.949 212.912 110.134 212.744 110.301C212.593 110.485 212.359 110.653 212.074 110.82Z" fill="url(#paint4_linear_37_8680)"/>
<path d="M215.274 106.95C215.022 107.101 214.821 107.235 214.654 107.369C214.486 107.503 214.402 107.637 214.386 107.738L215.843 108.575L214.57 109.312L212.108 107.888L213.28 107.218L213.749 107.486C213.716 107.319 213.733 107.151 213.833 107.001C213.934 106.85 214.084 106.699 214.302 106.582C214.386 106.532 214.436 106.498 214.47 106.498L215.274 106.95Z" fill="url(#paint5_linear_37_8680)"/>
<path d="M217.166 105.945L218.791 106.883L217.485 107.636L214.168 105.727L215.19 105.14L218.791 105.007L217.099 104.035L218.406 103.281L221.722 105.191L220.684 105.794L217.166 105.945Z" fill="url(#paint6_linear_37_8680)"/>
<path d="M222.828 104.605C222.66 104.705 222.476 104.789 222.275 104.856C222.091 104.923 221.89 104.957 221.722 104.99C221.538 105.007 221.371 105.007 221.22 104.99C221.052 104.973 220.918 104.923 220.818 104.856C220.701 104.789 220.617 104.689 220.583 104.588C220.55 104.488 220.567 104.37 220.634 104.253C220.701 104.136 220.801 104.002 220.935 103.868C221.086 103.734 221.27 103.6 221.488 103.483C221.772 103.315 222.041 103.198 222.292 103.131L222.225 103.081C222.107 103.014 221.973 102.997 221.823 103.014C221.672 103.03 221.488 103.114 221.27 103.231C221.069 103.349 220.901 103.466 220.784 103.6C220.667 103.717 220.55 103.868 220.449 104.019L219.528 103.918C219.779 103.533 220.215 103.164 220.801 102.813C221.371 102.494 221.89 102.293 222.359 102.21C222.844 102.143 223.246 102.193 223.598 102.394L224.067 102.662C224.151 102.712 224.235 102.729 224.302 102.729C224.369 102.729 224.452 102.695 224.553 102.662L225.307 103.097C225.223 103.164 225.139 103.231 225.055 103.282C224.972 103.332 224.888 103.382 224.821 103.432C224.587 103.566 224.385 103.65 224.218 103.684C224.034 103.717 223.883 103.717 223.732 103.667L223.615 103.633C223.598 103.801 223.531 103.968 223.397 104.136C223.246 104.32 223.062 104.471 222.828 104.605ZM222.576 104.019C222.66 103.968 222.727 103.918 222.777 103.868C222.844 103.818 222.895 103.751 222.928 103.7C222.945 103.65 222.962 103.617 222.962 103.583C222.962 103.55 222.945 103.516 222.912 103.499L222.727 103.399C222.627 103.432 222.526 103.466 222.426 103.516C222.325 103.566 222.241 103.6 222.158 103.65C222.007 103.734 221.89 103.834 221.839 103.918C221.789 104.002 221.806 104.069 221.89 104.119C221.957 104.153 222.057 104.169 222.175 104.153C222.325 104.136 222.459 104.086 222.576 104.019Z" fill="url(#paint7_linear_37_8680)"/>
<path d="M230.784 99.9656L229.511 100.703L228.121 99.8985C228.003 99.8315 227.87 99.798 227.752 99.798C227.635 99.8148 227.518 99.8315 227.417 99.8985C227.317 99.9655 227.233 100.033 227.183 100.15C227.132 100.25 227.132 100.351 227.183 100.435L228.556 101.239L227.283 101.976L225.893 101.172C225.776 101.105 225.642 101.071 225.525 101.088C225.407 101.105 225.29 101.121 225.189 101.188C225.089 101.255 225.005 101.322 224.955 101.44C224.905 101.557 224.905 101.641 224.955 101.724L226.328 102.528L225.055 103.265L222.593 101.842L223.749 101.172L224.117 101.389C224.101 101.239 224.184 101.088 224.335 100.92C224.486 100.753 224.704 100.585 225.005 100.418C225.156 100.334 225.29 100.267 225.424 100.217C225.558 100.167 225.675 100.133 225.792 100.116C225.91 100.1 226.027 100.083 226.111 100.083C226.211 100.083 226.295 100.1 226.379 100.116C226.362 99.9655 226.429 99.8148 226.58 99.6306C226.714 99.4631 226.932 99.2956 227.216 99.1449C227.451 99.0109 227.669 98.927 227.853 98.8768C228.054 98.8265 228.238 98.8099 228.389 98.8266C228.556 98.8434 228.69 98.8601 228.824 98.9103C228.941 98.9606 229.059 99.0108 229.142 99.061L230.784 99.9656Z" fill="url(#paint8_linear_37_8680)"/>
<path d="M232.526 99.0113C232.224 99.1955 231.906 99.3295 231.605 99.43C231.303 99.5305 231.002 99.5975 230.717 99.631C230.432 99.6645 230.181 99.6477 229.947 99.6142C229.712 99.5807 229.511 99.5137 229.343 99.4132C229.159 99.3127 229.042 99.1955 228.958 99.0448C228.874 98.9108 228.875 98.76 228.908 98.5925C228.958 98.425 229.059 98.2575 229.226 98.0733C229.394 97.889 229.645 97.7215 229.963 97.5372C230.282 97.353 230.583 97.219 230.901 97.1185C231.22 97.018 231.504 96.951 231.789 96.9343C232.074 96.9008 232.325 96.9175 232.56 96.951C232.794 96.9845 232.995 97.0683 233.162 97.152C233.213 97.1855 233.246 97.2023 233.297 97.2358C233.33 97.2693 233.38 97.3027 233.397 97.3195L230.918 98.7432C231.069 98.8102 231.22 98.827 231.404 98.7935C231.588 98.76 231.755 98.693 231.906 98.6093C232.04 98.5255 232.158 98.4417 232.241 98.3412C232.325 98.2407 232.342 98.157 232.308 98.09L233.598 97.5874C233.648 97.7884 233.598 98.0062 233.414 98.2407C233.263 98.5087 232.961 98.76 232.526 99.0113ZM231.554 97.8052C231.42 97.755 231.253 97.7383 231.086 97.755C230.918 97.7718 230.751 97.8387 230.583 97.9225C230.416 98.023 230.332 98.1068 230.281 98.2073C230.248 98.3078 230.282 98.3915 230.365 98.4752L231.554 97.8052Z" fill="url(#paint9_linear_37_8680)"/>
<g opacity="0.7">
<path opacity="0.0909" d="M265.976 53.1992L106.549 144.956C102.546 147.267 100.268 150.902 100.285 154.922C100.301 159.327 103.065 163.448 107.889 166.228L173.599 204.167C173.7 204.234 176.882 206.043 177.016 206.093C181.07 208.304 186.095 209.427 191.003 209.226C194.973 209.226 199.445 207.852 202.275 206.211L360.831 114.957C364.834 112.645 367.112 109.01 367.096 104.99C367.079 100.585 364.315 96.4646 359.491 93.6841L291.134 54.2211C289.727 53.4003 287.751 52.5125 286.109 51.9765C283.362 51.0888 280.381 50.5695 277.366 50.536C273.044 50.5025 269.075 51.4237 265.976 53.1992Z" fill="black"/>
<path opacity="0.1818" d="M265.976 53.6345L106.549 145.408C102.713 147.619 100.553 151.086 100.603 154.888C100.637 159.042 103.283 162.962 107.906 165.625L173.918 203.731C174.136 203.849 177.117 205.54 177.368 205.624C181.522 207.768 186.648 208.756 191.438 208.354C195.006 208.354 199.997 206.562 202.543 205.088L360.211 114.337C364.047 112.126 366.208 108.658 366.174 104.856C366.141 100.702 363.494 96.7826 358.871 94.1194L290.917 54.8908C289.643 54.1538 287.416 53.1153 285.959 52.6128C283.245 51.7083 280.297 51.1388 277.299 51.0718C273.011 50.9881 269.041 51.8758 265.976 53.6345Z" fill="black"/>
<path opacity="0.2727" d="M265.976 54.0696L106.549 145.843C102.881 147.97 100.854 151.236 100.904 154.838C100.955 158.757 103.467 162.459 107.889 165.022L174.202 203.312C174.521 203.496 177.335 205.054 177.703 205.171C181.958 207.248 187.184 208.103 191.857 207.5C195.023 207.5 200.534 205.289 202.812 203.982L359.608 113.733C363.276 111.606 365.303 108.34 365.253 104.738C365.203 100.819 362.69 97.1171 358.268 94.5543L290.715 55.5604C289.576 54.9071 287.114 53.7011 285.808 53.2489C283.128 52.3276 280.213 51.6912 277.232 51.6074C272.994 51.4734 269.024 52.3276 265.976 54.0696Z" fill="black"/>
<path opacity="0.3636" d="M265.976 54.5043L106.549 146.278C103.048 148.304 101.139 151.403 101.206 154.787C101.273 158.472 103.668 161.972 107.889 164.401L174.504 202.859C174.923 203.11 177.553 204.534 178.038 204.702C182.393 206.712 187.72 207.432 192.276 206.628C195.056 206.628 201.069 203.998 203.063 202.859L358.988 113.113C362.489 111.086 364.399 107.987 364.332 104.604C364.265 100.919 361.869 97.4178 357.648 94.989L290.514 56.2296C289.526 55.6601 286.796 54.2866 285.657 53.8846C283.01 52.9466 280.129 52.2599 277.165 52.1426C272.96 51.9584 268.991 52.7791 265.976 54.5043Z" fill="black"/>
<path opacity="0.4545" d="M265.976 54.942L106.549 146.698C103.216 148.625 101.424 151.539 101.508 154.722C101.591 158.156 103.869 161.455 107.889 163.783L174.822 202.426C175.358 202.727 177.787 204.051 178.407 204.235C182.862 206.178 188.289 206.764 192.728 205.759C195.107 205.759 201.639 202.727 203.348 201.739L358.402 112.495C361.736 110.569 363.528 107.654 363.444 104.472C363.36 101.038 361.082 97.7382 357.062 95.4267L290.33 56.9017C289.476 56.416 286.495 54.875 285.523 54.5233C282.91 53.5685 280.063 52.8148 277.131 52.664C272.944 52.463 268.957 53.2335 265.976 54.942Z" fill="black"/>
<path opacity="0.5455" d="M265.976 55.3766L106.549 147.15C103.367 148.976 101.709 151.723 101.809 154.687C101.91 157.887 104.07 160.969 107.889 163.18L175.124 202.006C175.76 202.375 178.005 203.564 178.742 203.782C183.298 205.674 188.808 206.11 193.147 204.921C195.123 204.921 202.175 201.47 203.599 200.649L357.766 111.908C360.948 110.082 362.606 107.335 362.506 104.37C362.405 101.171 360.245 98.0891 356.426 95.8781L290.096 57.5877C289.392 57.1857 286.159 55.4771 285.355 55.1756C282.776 54.2041 279.962 53.4001 277.048 53.2158C272.91 52.9478 268.924 53.6849 265.976 55.3766Z" fill="black"/>
<path opacity="0.6364" d="M265.976 55.8126L106.549 147.586C103.534 149.328 102.01 151.891 102.127 154.638C102.244 157.586 104.271 160.467 107.889 162.56L175.425 201.554C176.162 201.99 178.222 203.045 179.093 203.313C183.75 205.139 189.361 205.424 193.582 204.05C195.173 204.05 202.728 200.181 203.867 199.528L357.163 111.289C360.178 109.547 361.719 106.984 361.585 104.237C361.467 101.289 359.441 98.4078 355.823 96.3141L289.895 58.258C289.325 57.923 285.841 56.0638 285.205 55.8126C282.659 54.8243 279.861 53.9533 276.98 53.7523C272.893 53.434 268.89 54.1376 265.976 55.8126Z" fill="black"/>
<path opacity="0.7273" d="M265.976 56.2469L106.549 148.003C103.702 149.645 102.295 152.023 102.429 154.569C102.563 157.283 104.472 159.963 107.889 161.939L175.743 201.118C176.598 201.604 178.457 202.541 179.445 202.843C184.219 204.602 189.914 204.752 194.034 203.178C195.224 203.178 203.297 198.89 204.151 198.388L356.576 110.651C359.424 109.01 360.831 106.631 360.697 104.085C360.563 101.371 358.653 98.6915 355.236 96.715L289.727 58.8935C289.309 58.6422 285.573 56.6155 285.087 56.4145C282.575 55.4095 279.811 54.4883 276.947 54.237C272.86 53.9188 268.857 54.5887 265.976 56.2469Z" fill="black"/>
<path opacity="0.8182" d="M265.976 56.6831L106.549 148.456C103.869 149.997 102.579 152.208 102.73 154.537C102.881 157.016 104.673 159.478 107.889 161.337L176.045 200.683C177 201.236 178.675 202.04 179.797 202.375C184.671 204.066 190.467 204.083 194.47 202.308C195.257 202.308 203.867 197.601 204.42 197.266L355.957 110.049C358.637 108.508 359.927 106.297 359.776 103.968C359.625 101.489 357.833 99.0271 354.617 97.1678L289.51 59.5809C289.225 59.4134 285.238 57.2024 284.92 57.0684C282.441 56.0467 279.711 55.0583 276.863 54.7903C272.843 54.4218 268.84 55.0416 265.976 56.6831Z" fill="black"/>
<path opacity="0.9091" d="M265.976 57.1187L106.549 148.875C104.037 150.316 102.864 152.342 103.032 154.47C103.199 156.697 104.874 158.959 107.889 160.701L176.346 200.231C177.402 200.85 178.893 201.52 180.132 201.906C185.107 203.531 191.003 203.413 194.889 201.437C195.291 201.437 204.403 196.311 204.687 196.144L355.354 109.412C357.866 107.972 359.039 105.945 358.871 103.818C358.704 101.59 357.029 99.3287 354.014 97.5867L289.308 60.2342C289.174 60.1505 284.937 57.7553 284.786 57.6883C282.324 56.6498 279.644 55.6112 276.813 55.3097C272.81 54.9077 268.807 55.494 265.976 57.1187Z" fill="black"/>
<path opacity="0.7" d="M195.324 200.583L354.751 108.81C359.541 106.046 358.938 101.222 353.411 98.0394L284.635 58.3419C279.108 55.1594 270.749 54.8077 265.959 57.5715L106.532 149.345C101.742 152.108 102.345 156.932 107.872 160.115L176.648 199.812C182.175 202.995 190.534 203.347 195.324 200.583Z" fill="black"/>
</g>
<path d="M172.745 201.739L108.459 164.621C101.206 160.433 102.11 153.114 110.485 148.29L261.654 61.0054C270.029 56.1647 282.692 55.6454 289.945 59.8329L354.231 96.951C361.484 101.138 360.58 108.458 352.205 113.282L201.036 200.566C192.661 205.407 179.998 205.926 172.745 201.739Z" fill="url(#paint10_linear_37_8680)"/>
<path d="M172.745 200.633L108.459 163.515C105.226 161.639 103.601 159.143 103.568 156.53C103.568 156.295 103.568 151.254 103.585 151.019C103.853 147.987 106.181 149.662 110.486 147.167L261.654 59.8824C270.029 55.0416 282.692 54.5224 289.945 58.7099L354.231 95.8278C357.464 97.7038 359.072 94.4041 359.123 97.0171C359.123 97.2516 359.122 103.265 359.106 103.483C358.838 106.514 356.51 109.663 352.205 112.159L201.036 199.443C192.661 204.301 179.998 204.82 172.745 200.633Z" fill="url(#paint11_linear_37_8680)"/>
<path d="M172.745 195.122L108.459 158.004C101.206 153.816 102.11 146.496 110.485 141.672L261.654 54.3883C270.029 49.5475 282.692 49.0282 289.945 53.2157L354.231 90.3338C361.484 94.5213 360.58 101.841 352.205 106.665L201.036 193.949C192.661 198.79 179.998 199.309 172.745 195.122Z" fill="url(#paint12_linear_37_8680)"/>
<path d="M108.442 157.285L172.728 194.403C179.981 198.59 192.644 198.071 201.019 193.23L352.188 105.946C356.593 103.4 358.938 100.167 359.106 97.0684C359.29 100.385 356.945 103.919 352.188 106.666L201.019 193.95C192.644 198.791 179.981 199.31 172.728 195.123L108.442 158.005C105.008 156.028 103.4 153.332 103.551 150.551C103.702 153.08 105.31 155.476 108.442 157.285Z" fill="white"/>
<path d="M112.177 142.762L263.53 55.3773C270.867 51.1396 281.972 50.6705 288.337 54.3555L352.288 91.2726C358.653 94.9408 357.849 101.356 350.513 105.594L199.16 192.979C191.824 197.216 180.718 197.685 174.353 194L110.402 157.083C104.037 153.415 104.841 147 112.177 142.762Z" fill="url(#paint13_linear_37_8680)"/>
<path d="M115.109 144.018L265.708 57.069C271.855 53.518 281.151 53.1327 286.461 56.2147L349.039 92.3445C354.366 95.4097 353.695 100.786 347.548 104.337L196.949 191.287C190.802 194.838 181.506 195.223 176.196 192.141L113.618 156.011C108.308 152.929 108.961 147.569 115.109 144.018Z" fill="#1F0D3D"/>
<path d="M285.942 57.3538C280.934 54.456 272.827 54.4392 267.835 57.3202L115.561 145.224C110.569 148.105 110.603 152.779 115.611 155.676L176.749 190.968C181.757 193.866 189.864 193.883 194.855 191.002L347.13 103.098C352.121 100.217 352.088 95.5438 347.079 92.646L285.942 57.3538Z" fill="url(#paint14_linear_37_8680)"/>
<path d="M185.861 191.94C189.043 191.94 192.025 191.236 194.236 189.964L346.51 102.06C348.503 100.904 349.609 99.4465 349.609 97.939C349.609 96.4147 348.486 94.924 346.443 93.7515L285.305 58.4592C283.061 57.1527 280.046 56.4492 276.813 56.4492C273.63 56.4492 270.649 57.1528 268.438 58.4258L116.164 146.33C114.171 147.486 113.065 148.943 113.065 150.45C113.065 151.975 114.187 153.465 116.231 154.638L177.368 189.93C179.629 191.22 182.645 191.94 185.861 191.94Z" fill="url(#paint15_linear_37_8680)"/>
<path d="M323.663 127.988L330.664 123.935C331.535 123.433 332.255 122.076 332.255 120.903C332.255 119.731 331.552 119.195 330.664 119.714L323.663 123.767C322.792 124.27 322.072 125.627 322.072 126.799C322.072 127.955 322.775 128.491 323.663 127.988Z" fill="url(#paint16_linear_37_8680)"/>
<path d="M323.663 127.988L330.664 123.935C331.535 123.433 332.255 122.076 332.255 120.903C332.255 119.731 331.552 119.195 330.664 119.714L323.663 123.767C322.792 124.27 322.072 125.627 322.072 126.799C322.072 127.955 322.775 128.491 323.663 127.988Z" fill="url(#paint17_linear_37_8680)"/>
<path d="M323.026 127.753C323.144 127.753 323.294 127.703 323.445 127.619L330.447 123.582C331.2 123.146 331.82 121.924 331.82 120.919C331.82 120.467 331.686 119.947 331.284 119.947C331.167 119.947 331.016 119.998 330.865 120.081L323.864 124.135C323.11 124.57 322.49 125.793 322.49 126.798C322.49 127.233 322.624 127.753 323.026 127.753Z" fill="url(#paint18_linear_37_8680)"/>
<path d="M311.15 135.207L318.152 131.154C319.023 130.651 319.743 129.295 319.743 128.122C319.743 126.95 319.04 126.413 318.152 126.933L311.15 130.986C310.279 131.489 309.559 132.845 309.559 134.018C309.559 135.174 310.263 135.71 311.15 135.207Z" fill="url(#paint19_linear_37_8680)"/>
<path d="M311.15 135.207L318.152 131.154C319.023 130.651 319.743 129.295 319.743 128.122C319.743 126.95 319.04 126.413 318.152 126.933L311.15 130.986C310.279 131.489 309.559 132.845 309.559 134.018C309.559 135.174 310.263 135.71 311.15 135.207Z" fill="url(#paint20_linear_37_8680)"/>
<path d="M310.514 134.988C310.631 134.988 310.782 134.938 310.933 134.854L317.934 130.801C318.688 130.365 319.308 129.143 319.308 128.138C319.308 127.685 319.174 127.166 318.772 127.166C318.654 127.166 318.504 127.216 318.353 127.3L311.351 131.354C310.598 131.789 309.978 133.012 309.978 134.017C309.978 134.452 310.112 134.988 310.514 134.988Z" fill="url(#paint21_linear_37_8680)"/>
<path d="M134.723 178.238L146.23 184.888C146.23 182.777 144.957 180.349 143.383 179.427L137.587 176.077C135.996 175.173 134.723 176.127 134.723 178.238Z" fill="url(#paint22_linear_37_8680)"/>
<path d="M136.481 175.743C135.929 176.128 135.594 176.899 135.594 177.987L146.163 184.085C146.197 184.353 146.213 184.621 146.213 184.889L134.706 178.239C134.723 176.648 135.443 175.71 136.481 175.743Z" fill="#4916A1"/>
<path d="M155.777 140.099L153.098 138.558L148.173 141.406L145.627 139.932L150.551 137.084L147.855 135.526L149.413 134.639L157.335 139.211L155.777 140.099Z" fill="url(#paint23_linear_37_8680)"/>
<path d="M158.156 143.315C157.67 143.047 157.201 142.812 156.732 142.628C156.263 142.444 155.845 142.343 155.493 142.326L152.645 143.968L150.15 142.527L154.94 139.764L157.218 141.087L156.313 141.606C156.883 141.556 157.436 141.589 157.972 141.707C158.508 141.824 158.977 141.991 159.396 142.226C159.563 142.326 159.664 142.377 159.697 142.41L158.156 143.315Z" fill="url(#paint24_linear_37_8680)"/>
<path d="M156.146 146.112C155.811 145.911 155.526 145.71 155.308 145.492C155.091 145.275 154.94 145.074 154.873 144.856C154.789 144.655 154.789 144.471 154.856 144.286C154.923 144.102 155.074 143.951 155.292 143.834C155.526 143.7 155.828 143.6 156.179 143.583C156.531 143.549 156.916 143.566 157.318 143.633C157.72 143.7 158.156 143.817 158.591 143.985C159.027 144.152 159.479 144.353 159.915 144.605C160.467 144.923 160.869 145.224 161.121 145.509L161.271 145.425C161.489 145.291 161.573 145.141 161.489 144.973C161.406 144.806 161.154 144.588 160.752 144.353C160.35 144.119 159.948 143.935 159.529 143.801C159.111 143.667 158.625 143.533 158.089 143.415L158.441 142.377C159.764 142.662 161.003 143.147 162.159 143.817C163.265 144.454 163.935 145.04 164.186 145.576C164.437 146.112 164.236 146.581 163.549 146.983L162.611 147.519C162.444 147.62 162.36 147.703 162.377 147.77C162.377 147.854 162.461 147.938 162.628 148.055L161.171 148.893C160.936 148.792 160.735 148.692 160.534 148.608C160.333 148.507 160.166 148.424 160.032 148.34C159.58 148.089 159.295 147.854 159.178 147.653C159.06 147.452 159.077 147.268 159.228 147.1L159.345 146.966C158.759 146.95 158.206 146.866 157.653 146.715C157.101 146.564 156.598 146.363 156.146 146.112ZM158.139 145.811C158.29 145.894 158.457 145.978 158.642 146.045C158.826 146.112 159.027 146.179 159.195 146.213C159.345 146.246 159.462 146.263 159.596 146.263C159.714 146.263 159.814 146.246 159.864 146.213L160.216 146.012C160.099 145.911 159.965 145.794 159.814 145.677C159.664 145.559 159.529 145.459 159.379 145.375C159.077 145.191 158.776 145.09 158.458 145.023C158.156 144.973 157.921 144.99 157.771 145.074C157.637 145.157 157.603 145.258 157.67 145.392C157.754 145.543 157.905 145.677 158.139 145.811Z" fill="url(#paint25_linear_37_8680)"/>
<path d="M167.687 152.661L165.191 151.221L167.888 149.663C168.122 149.529 168.223 149.379 168.173 149.228C168.122 149.077 168.005 148.943 167.804 148.826C167.586 148.709 167.301 148.608 166.95 148.558C166.581 148.491 166.246 148.491 165.928 148.541L163.231 150.099L160.736 148.658L165.526 145.895L167.771 147.184L167.067 147.603C167.569 147.586 168.122 147.67 168.692 147.854C169.278 148.022 169.864 148.29 170.467 148.642C170.936 148.91 171.254 149.161 171.405 149.395C171.556 149.63 171.623 149.831 171.589 150.015C171.556 150.199 171.472 150.367 171.305 150.501C171.154 150.635 170.986 150.769 170.819 150.853L167.687 152.661Z" fill="url(#paint26_linear_37_8680)"/>
<path d="M170.333 154.285C169.73 153.933 169.211 153.565 168.776 153.146C168.34 152.727 168.038 152.342 167.904 151.956L169.797 151.856C170.032 152.224 170.283 152.543 170.568 152.844C170.853 153.129 171.171 153.38 171.506 153.565C171.858 153.766 172.109 153.816 172.26 153.732C172.343 153.682 172.343 153.598 172.276 153.497C172.209 153.38 172.008 153.196 171.69 152.911C171.305 152.576 170.987 152.275 170.752 152.04C170.518 151.789 170.35 151.588 170.25 151.404C170.149 151.219 170.132 151.069 170.166 150.935C170.216 150.801 170.333 150.683 170.517 150.583C170.769 150.449 171.054 150.348 171.405 150.315C171.757 150.281 172.125 150.281 172.527 150.348C172.929 150.399 173.348 150.516 173.767 150.667C174.202 150.817 174.621 151.018 175.023 151.253C175.526 151.538 175.961 151.856 176.33 152.174C176.698 152.492 176.983 152.861 177.151 153.296L175.174 153.347C174.94 152.995 174.722 152.693 174.521 152.492C174.32 152.275 174.085 152.107 173.834 151.956C173.683 151.873 173.549 151.806 173.415 151.772C173.281 151.739 173.164 151.756 173.08 151.789C172.997 151.839 172.98 151.923 173.064 152.04C173.147 152.157 173.348 152.342 173.7 152.627C174.102 152.962 174.437 153.263 174.672 153.514C174.906 153.765 175.074 153.983 175.157 154.184C175.241 154.368 175.258 154.536 175.191 154.67C175.124 154.804 175.006 154.938 174.805 155.039C174.554 155.189 174.27 155.273 173.951 155.306C173.616 155.34 173.265 155.323 172.879 155.273C172.494 155.206 172.075 155.106 171.656 154.938C171.221 154.754 170.786 154.553 170.333 154.285Z" fill="url(#paint27_linear_37_8680)"/>
<path d="M174.772 156.848C174.437 156.647 174.152 156.447 173.934 156.229C173.717 156.011 173.566 155.81 173.482 155.592C173.398 155.391 173.398 155.207 173.465 155.023C173.532 154.839 173.666 154.688 173.884 154.571C174.135 154.437 174.42 154.336 174.772 154.319C175.124 154.286 175.509 154.303 175.911 154.37C176.313 154.437 176.748 154.554 177.184 154.721C177.619 154.889 178.072 155.09 178.507 155.341C179.077 155.659 179.479 155.961 179.713 156.246L179.864 156.162C180.082 156.028 180.165 155.877 180.082 155.71C179.998 155.542 179.747 155.324 179.328 155.09C178.926 154.855 178.524 154.671 178.105 154.537C177.686 154.403 177.201 154.269 176.665 154.152L177.016 153.113C178.34 153.398 179.579 153.884 180.735 154.554C181.84 155.19 182.51 155.777 182.762 156.313C183.013 156.849 182.795 157.318 182.125 157.72L181.204 158.256C181.036 158.356 180.953 158.44 180.97 158.507C180.97 158.591 181.053 158.674 181.221 158.792L179.763 159.629C179.529 159.529 179.328 159.428 179.127 159.344C178.926 159.261 178.758 159.16 178.624 159.076C178.172 158.825 177.887 158.591 177.787 158.39C177.67 158.189 177.686 158.004 177.837 157.837L177.954 157.703C177.385 157.686 176.815 157.602 176.263 157.452C175.71 157.301 175.224 157.116 174.772 156.848ZM176.765 156.564C176.916 156.648 177.083 156.731 177.268 156.798C177.452 156.865 177.653 156.932 177.82 156.966C177.971 156.999 178.088 157.016 178.222 157.016C178.34 157.016 178.423 156.999 178.49 156.966L178.842 156.765C178.725 156.664 178.591 156.547 178.44 156.43C178.289 156.312 178.139 156.212 178.005 156.128C177.703 155.944 177.402 155.844 177.083 155.777C176.782 155.726 176.547 155.743 176.397 155.827C176.263 155.911 176.229 156.011 176.296 156.145C176.38 156.296 176.531 156.43 176.765 156.564Z" fill="url(#paint28_linear_37_8680)"/>
<path d="M181.388 157.802C181.723 157.618 182.108 157.484 182.577 157.4C183.046 157.316 183.549 157.316 184.102 157.366C184.655 157.417 185.224 157.534 185.844 157.735C186.447 157.936 187.067 158.204 187.67 158.556C188.507 159.041 189.093 159.51 189.411 159.979C189.73 160.448 189.847 160.867 189.73 161.252L186.799 160.147C186.799 159.879 186.598 159.628 186.196 159.393C185.861 159.192 185.475 159.075 185.073 159.041C184.654 159.008 184.286 159.092 183.951 159.276C183.616 159.46 183.482 159.678 183.549 159.912C183.599 160.147 183.8 160.365 184.152 160.566C184.554 160.8 184.99 160.917 185.459 160.917L187.368 162.609C186.698 162.676 185.978 162.609 185.157 162.425C184.353 162.241 183.532 161.906 182.695 161.42C182.092 161.068 181.606 160.716 181.271 160.365C180.936 160.013 180.718 159.678 180.635 159.36C180.551 159.041 180.567 158.757 180.701 158.489C180.835 158.221 181.07 157.986 181.388 157.802Z" fill="url(#paint29_linear_37_8680)"/>
<path d="M190.735 165.66C190.282 165.509 189.83 165.358 189.361 165.157C188.892 164.973 188.474 164.755 188.088 164.537C187.804 164.37 187.569 164.202 187.368 164.035C187.167 163.867 187.016 163.683 186.949 163.516C186.865 163.348 186.866 163.181 186.933 163.013C187 162.846 187.167 162.695 187.418 162.544L189.613 161.271L188.758 160.785L190.065 160.032L190.919 160.517L192.427 159.646L194.922 161.087L193.415 161.958L194.772 162.745L193.465 163.499L192.108 162.712L190.517 163.633C190.349 163.717 190.299 163.817 190.333 163.901C190.366 163.985 190.467 164.085 190.634 164.186C190.768 164.253 190.919 164.336 191.103 164.403C191.288 164.487 191.488 164.554 191.689 164.604L190.735 165.66Z" fill="url(#paint30_linear_37_8680)"/>
<path d="M189.864 165.457L194.654 162.693L197.15 164.134L192.36 166.897L189.864 165.457ZM195.056 162.459L196.514 161.621L199.009 163.062L197.552 163.899L195.056 162.459Z" fill="url(#paint31_linear_37_8680)"/>
<path d="M195.592 168.875C194.973 168.523 194.503 168.172 194.168 167.82C193.833 167.468 193.633 167.133 193.532 166.831C193.448 166.513 193.465 166.228 193.599 165.96C193.75 165.692 193.967 165.458 194.302 165.274C194.637 165.089 195.023 164.955 195.492 164.872C195.961 164.788 196.463 164.771 196.999 164.838C197.552 164.888 198.121 165.006 198.724 165.207C199.327 165.391 199.947 165.676 200.567 166.027C201.187 166.379 201.656 166.731 201.991 167.083C202.326 167.434 202.544 167.769 202.627 168.088C202.728 168.406 202.694 168.691 202.56 168.959C202.426 169.227 202.192 169.461 201.857 169.645C201.522 169.83 201.136 169.964 200.667 170.047C200.198 170.131 199.696 170.148 199.16 170.081C198.624 170.031 198.038 169.897 197.435 169.713C196.832 169.512 196.212 169.227 195.592 168.875ZM196.865 166.731C196.547 166.915 196.413 167.133 196.447 167.367C196.497 167.602 196.698 167.82 197.049 168.038C197.401 168.239 197.787 168.356 198.205 168.389C198.607 168.406 198.976 168.339 199.294 168.155C199.612 167.97 199.763 167.753 199.713 167.518C199.662 167.284 199.461 167.066 199.11 166.848C198.758 166.647 198.373 166.53 197.954 166.496C197.569 166.48 197.2 166.547 196.865 166.731Z" fill="url(#paint32_linear_37_8680)"/>
<path d="M205.961 174.753L203.465 173.313L206.161 171.755C206.396 171.621 206.496 171.47 206.446 171.32C206.396 171.169 206.279 171.035 206.078 170.918C205.86 170.8 205.575 170.7 205.224 170.65C204.855 170.583 204.52 170.583 204.202 170.633L201.505 172.191L199.009 170.75L203.8 167.986L206.044 169.276L205.341 169.678C205.843 169.661 206.396 169.745 206.965 169.929C207.552 170.114 208.138 170.365 208.741 170.717C209.21 170.985 209.528 171.236 209.679 171.47C209.83 171.705 209.897 171.906 209.863 172.09C209.83 172.274 209.729 172.442 209.578 172.576C209.428 172.71 209.26 172.827 209.093 172.928L205.961 174.753Z" fill="url(#paint33_linear_37_8680)"/>
<path d="M270.448 90.7855C268.689 90.7855 267.282 91.6062 267.282 92.6112C267.282 93.6162 268.706 94.4537 270.465 94.4537C272.224 94.4537 273.63 93.633 273.63 92.628C273.63 91.623 272.19 90.7855 270.448 90.7855ZM280.531 96.6145C278.773 96.6145 277.366 97.4352 277.366 98.4402C277.366 99.4452 278.789 100.283 280.548 100.283C282.307 100.283 283.714 99.462 283.714 98.457C283.714 97.452 282.29 96.6145 280.531 96.6145ZM291.52 95.9445L305.003 90.9195L279.443 76.1627L281.905 72.0422L272.123 66.3975C271.788 66.1965 271.353 66.3137 271.152 66.6487C270.951 66.9837 271.068 67.4193 271.403 67.6203L279.945 72.5448L269.845 89.4287L286.93 99.2945C287.047 99.3615 287.165 99.395 287.282 99.395C287.533 99.395 287.768 99.261 287.902 99.0433C288.103 98.7083 287.985 98.2728 287.65 98.0718L271.805 88.9262L273.748 85.6767L291.52 95.9445ZM300.364 96.112L311.921 102.779L314.567 101.254L303.579 94.906L300.364 96.112ZM308.638 93.03L305.439 94.2193L320.53 102.929L323.177 101.405L308.638 93.03ZM295.272 98.0047L303.295 102.644L305.941 101.12L298.488 96.8155L295.272 98.0047Z" fill="url(#paint34_linear_37_8680)"/>
<path d="M192.762 182.225L131.842 147.05C130.351 146.195 130.535 144.688 132.261 143.7C133.986 142.711 136.582 142.594 138.056 143.465L198.976 178.64C200.467 179.494 200.282 181.002 198.557 181.99C196.832 182.978 194.236 183.079 192.762 182.225Z" fill="#4B61B8"/>
<path d="M133.031 145.509L135.376 144.152L181.338 170.701L179.01 172.041L133.031 145.509Z" fill="url(#paint35_linear_37_8680)"/>
<path opacity="0.01" d="M284.585 129.714C272.559 122.897 264.502 114.087 261.52 104.539L261.386 104.455C244.837 102.73 229.595 98.0735 217.769 91.139L217.317 90.8711L210.851 95.3433C188.122 111.072 184.336 126.867 187.368 147L187.837 147.268C222.71 149.027 250.046 146.833 277.299 133.701L285.054 129.966L284.585 129.714Z" fill="black"/>
<path opacity="0.019" d="M284.485 129.715C272.508 122.915 264.468 114.154 261.504 104.624L261.37 104.54C244.871 102.831 229.679 98.1917 217.92 91.2739L217.468 91.0059L211.019 95.4614C188.373 111.139 184.604 126.868 187.619 146.917L188.072 147.185C222.811 148.927 250.047 146.75 277.215 133.668L284.937 129.95L284.485 129.715Z" fill="black"/>
<path opacity="0.0286" d="M284.401 129.715C272.458 122.948 264.468 114.204 261.503 104.724L261.37 104.64C244.938 102.931 229.796 98.3085 218.071 91.4242L217.618 91.1562L211.203 95.595C188.641 111.223 184.872 126.884 187.887 146.867L188.339 147.135C222.962 148.877 250.097 146.699 277.148 133.668L284.853 129.966L284.401 129.715Z" fill="black"/>
<path opacity="0.0381" d="M284.3 129.714C272.408 122.963 264.435 114.253 261.487 104.806L261.353 104.722C244.988 103.014 229.896 98.4245 218.205 91.557L217.753 91.2891L211.354 95.711C188.876 111.272 185.124 126.883 188.122 146.798L188.574 147.067C223.062 148.792 250.097 146.631 277.064 133.65L284.736 129.965L284.3 129.714Z" fill="black"/>
<path opacity="0.0476" d="M284.216 129.714C272.374 122.998 264.418 114.321 261.487 104.891L261.353 104.824C245.038 103.132 230.013 98.5426 218.372 91.6919L217.92 91.4238L211.555 95.8291C189.143 111.34 185.425 126.884 188.406 146.732L188.859 147C223.23 148.726 250.164 146.565 277.031 133.634L284.669 129.949L284.216 129.714Z" fill="black"/>
<path opacity="0.0571" d="M284.116 129.714C272.307 123.014 264.401 114.371 261.47 104.991L261.336 104.924C245.088 103.232 230.114 98.6594 218.506 91.8422L218.071 91.5742L211.722 95.9627C189.395 111.423 185.676 126.917 188.658 146.682L189.11 146.95C223.347 148.675 250.197 146.514 276.947 133.633L284.568 129.965L284.116 129.714Z" fill="black"/>
<path opacity="0.0667" d="M284.032 129.713C272.274 123.046 264.385 114.42 261.47 105.073L261.336 105.007C245.139 103.315 230.231 98.7755 218.674 91.975L218.238 91.707L211.907 96.0788C189.663 111.472 185.961 126.915 188.926 146.613L189.378 146.882C223.498 148.59 250.231 146.463 276.897 133.615L284.485 129.964L284.032 129.713Z" fill="black"/>
<path opacity="0.0762" d="M283.932 129.713C272.207 123.064 264.351 114.488 261.453 105.175L261.319 105.108C245.189 103.433 230.332 98.8933 218.808 92.1263L218.372 91.875L212.074 96.23C189.914 111.573 186.229 126.949 189.177 146.58L189.629 146.832C223.615 148.54 250.264 146.413 276.83 133.616L284.384 129.981L283.932 129.713Z" fill="black"/>
<path opacity="0.0857" d="M283.831 129.714C272.156 123.081 264.334 114.538 261.436 105.259L261.302 105.192C245.222 103.517 230.415 98.9945 218.942 92.261L218.506 92.0098L212.225 96.3647C190.148 111.641 186.48 126.967 189.411 146.514L189.864 146.766C223.732 148.474 250.264 146.347 276.746 133.6L284.283 129.982L283.831 129.714Z" fill="black"/>
<path opacity="0.0952" d="M283.748 129.714C272.123 123.114 264.318 114.605 261.437 105.359L261.303 105.292C245.29 103.634 230.533 99.1282 219.109 92.4114L218.674 92.1602L212.409 96.4985C190.417 111.724 186.748 127 189.679 146.464L190.132 146.715C223.866 148.407 250.315 146.296 276.679 133.6L284.183 129.982L283.748 129.714Z" fill="black"/>
<path opacity="0.1048" d="M283.647 129.714C272.056 123.132 264.284 114.656 261.42 105.444L261.286 105.377C245.323 103.718 230.633 99.2295 219.243 92.5462L218.808 92.2949L212.577 96.6165C190.668 111.792 187.016 127.001 189.931 146.397L190.383 146.649C224 148.34 250.348 146.23 276.612 133.584L284.082 129.982L283.647 129.714Z" fill="black"/>
<path opacity="0.1143" d="M283.563 129.713C272.023 123.164 264.284 114.705 261.42 105.526L261.286 105.459C245.39 103.801 230.75 99.3454 219.411 92.6789L218.975 92.4277L212.761 96.7325C190.936 111.841 187.301 127 190.215 146.329L190.651 146.58C224.134 148.255 250.381 146.162 276.562 133.566L284.015 129.981L283.563 129.713Z" fill="black"/>
<path opacity="0.1238" d="M283.463 129.714C271.955 123.182 264.251 114.773 261.403 105.628L261.269 105.561C245.44 103.919 230.851 99.4635 219.545 92.8138L219.109 92.5625L212.929 96.8506C191.187 111.909 187.552 127.001 190.467 146.263L190.902 146.514C224.268 148.189 250.415 146.096 276.478 133.55L283.898 129.982L283.463 129.714Z" fill="black"/>
<path opacity="0.1333" d="M283.379 129.715C271.922 123.216 264.234 114.824 261.403 105.712L261.269 105.645C245.49 104.004 230.968 99.5648 219.695 92.9486L219.26 92.6973L213.096 96.9685C191.438 111.96 187.82 127.001 190.718 146.197L191.153 146.448C224.385 148.123 250.432 146.029 276.411 133.517L283.798 129.966L283.379 129.715Z" fill="black"/>
<path opacity="0.1429" d="M283.278 129.714C271.855 123.232 264.217 114.874 261.386 105.812L261.269 105.745C245.557 104.104 231.085 99.6983 219.863 93.0988L219.427 92.8477L213.28 97.1021C191.689 112.043 188.105 127.034 190.986 146.146L191.421 146.397C224.519 148.056 250.482 145.979 276.361 133.517L283.714 129.966L283.278 129.714Z" fill="black"/>
<path opacity="0.1524" d="M283.195 129.715C271.821 123.267 264.2 114.942 261.386 105.897L261.269 105.83C245.608 104.205 231.186 99.7997 220.014 93.2337L219.578 92.9824L213.464 97.2202C191.957 112.111 188.39 127.035 191.254 146.08L191.689 146.331C224.67 147.989 250.516 145.912 276.311 133.501L283.647 129.966L283.195 129.715Z" fill="black"/>
<path opacity="0.1619" d="M283.094 129.715C271.771 123.283 264.167 114.992 261.369 105.997L261.252 105.93C245.658 104.305 231.286 99.9166 220.164 93.3841L219.746 93.1328L213.649 97.3538C192.225 112.178 188.658 127.052 191.522 146.013L191.957 146.264C224.804 147.905 250.566 145.862 276.243 133.484L283.546 129.966L283.094 129.715Z" fill="black"/>
<path opacity="0.1714" d="M283.01 129.714C271.721 123.315 264.167 115.041 261.37 106.079L261.252 106.012C245.708 104.404 231.404 100.033 220.315 93.5168L219.896 93.2656L213.833 97.4699C192.494 112.243 188.942 127.05 191.79 145.944L192.225 146.196C224.955 147.837 250.616 145.794 276.193 133.466L283.463 129.965L283.01 129.714Z" fill="black"/>
<path opacity="0.181" d="M282.91 129.714C271.671 123.333 264.133 115.108 261.353 106.164L261.236 106.097C245.759 104.489 231.504 100.134 220.449 93.6517L220.03 93.4004L213.984 97.5879C192.728 112.294 189.194 127.051 192.025 145.878L192.46 146.129C225.056 147.771 250.616 145.727 276.11 133.45L283.362 129.966L282.91 129.714Z" fill="black"/>
<path opacity="0.1905" d="M282.826 129.714C271.621 123.366 264.116 115.158 261.336 106.264L261.219 106.197C245.809 104.589 231.605 100.268 220.6 93.8021L220.181 93.5508L214.151 97.7215C192.979 112.378 189.445 127.084 192.276 145.828L192.711 146.079C225.189 147.704 250.65 145.677 276.026 133.449L283.245 129.965L282.826 129.714Z" fill="black"/>
<path opacity="0.2" d="M282.726 129.714C271.57 123.383 264.1 115.225 261.319 106.348L261.202 106.281C245.842 104.689 231.705 100.368 220.734 93.9193L220.315 93.668L214.319 97.8219C193.23 112.428 189.713 127.067 192.527 145.744L192.962 145.995C225.307 147.62 250.666 145.593 275.959 133.416L283.145 129.948L282.726 129.714Z" fill="black"/>
<path d="M279.61 123.918C268.873 117.821 261.269 113.449 258.606 104.907L258.488 104.84C243.715 103.299 230.097 99.1449 219.545 92.9474L219.143 92.7129L213.364 96.7162C193.063 110.769 189.696 126.012 192.393 143.985L192.812 145.325C223.95 146.882 248.355 144.939 272.676 133.214L279.593 129.881V123.918H279.61Z" fill="url(#paint36_linear_37_8680)"/>
<path d="M192.828 143.885L192.41 142.545C191.941 139.396 191.656 136.314 191.606 133.316C191.556 136.766 191.857 140.317 192.41 143.985L192.828 145.325C223.967 146.883 248.371 144.94 272.692 133.215L279.61 129.882V128.441L272.692 131.775C248.355 143.483 223.95 145.443 192.828 143.885Z" fill="url(#paint37_linear_37_8680)"/>
<path d="M279.208 123.684C268.471 117.587 261.286 109.732 258.623 101.206L258.505 101.139C243.732 99.5978 230.114 95.4437 219.562 89.2462L219.16 89.0117L213.381 93.015C193.08 107.068 189.713 121.155 192.41 139.128L192.828 139.362C223.967 140.92 248.371 138.977 272.692 127.252L279.61 123.919L279.208 123.684Z" fill="url(#paint38_linear_37_8680)"/>
<g opacity="0.2">
<path opacity="0.2" d="M279.175 130.535C279.325 130.619 279.459 130.703 279.61 130.786L279.208 130.552L279.175 130.535Z" fill="url(#paint39_linear_37_8680)"/>
<path opacity="0.2" d="M192.41 145.978L192.828 146.213C223.967 147.771 248.371 145.828 272.692 134.103L279.61 130.77V134.505L272.692 137.838C248.355 149.563 223.95 151.506 192.828 149.948L192.41 148.608C191.773 144.354 191.472 142.494 191.656 138.541C191.773 140.937 192.024 143.416 192.41 145.978Z" fill="url(#paint40_linear_37_8680)"/>
</g>
<path opacity="0.2" d="M279.175 136.027C279.325 136.111 279.459 136.195 279.61 136.279L279.208 136.044L279.175 136.027Z" fill="url(#paint41_linear_37_8680)"/>
<path d="M195.509 111.842C191.422 120.066 191.053 128.843 192.544 138.793L192.963 139.027C224.101 140.585 248.505 138.642 272.826 126.917L279.108 123.902L279.493 124.12L272.575 127.453C248.237 139.178 223.833 141.121 192.711 139.563L192.292 139.329C190.751 129.161 191.17 120.234 195.509 111.842Z" fill="url(#paint42_radial_37_8680)"/>
<path d="M210.701 135.075C234.017 135.075 251.001 131.692 267.483 123.752L268.287 123.367C261.068 118.325 255.976 112.345 253.38 105.796C240.616 104.238 228.958 100.67 219.461 95.4277L215.893 97.9067C198.875 109.699 195.91 120.904 197.535 134.773C202.275 134.974 206.614 135.075 210.701 135.075Z" fill="url(#paint43_linear_37_8680)"/>
<path d="M267.249 123.853C260.566 118.962 255.842 113.25 253.363 107.019C240.6 105.461 228.942 101.893 219.444 96.6505L215.877 99.1295C201.706 108.928 197.284 118.342 197.133 129.229C196.966 117.822 201.187 108.074 215.877 97.9067L219.444 95.4277C228.942 100.687 240.583 104.255 253.363 105.796C255.976 112.328 261.051 118.308 268.271 123.367L267.467 123.752C267.4 123.769 267.333 123.819 267.249 123.853Z" fill="url(#paint44_linear_37_8680)"/>
<path d="M215.877 97.8887L219.444 95.4096C228.942 100.669 240.583 104.237 253.363 105.778C255.909 112.16 260.834 118.005 267.785 122.98L268.271 122.746C261.051 117.704 255.959 111.724 253.363 105.175C240.6 103.617 228.958 100.049 219.444 94.8066L215.877 97.2856C201.187 107.453 196.966 117.201 197.133 128.608C197.133 128.541 197.133 128.457 197.15 128.39C197.2 117.335 201.539 107.821 215.877 97.8887Z" fill="url(#paint45_radial_37_8680)"/>
<path d="M232.693 119.496C235.156 118.072 235.139 115.777 232.66 114.354C230.198 112.93 226.194 112.913 223.749 114.337C221.973 115.359 221.488 116.849 222.309 118.139L215.173 122.26L218.975 124.454L226.111 120.333C228.338 120.802 230.918 120.534 232.693 119.496Z" fill="#FED2A3"/>
<path d="M232.66 116.884C230.198 115.46 226.194 115.443 223.749 116.867C221.973 117.889 221.488 119.379 222.309 120.669L217.35 123.533L215.173 122.277L222.309 118.157C221.505 116.867 221.973 115.376 223.749 114.354C226.211 112.931 230.198 112.947 232.66 114.371C234.469 115.41 234.938 116.934 234.117 118.224C233.816 117.721 233.33 117.269 232.66 116.884Z" fill="url(#paint46_linear_37_8680)"/>
<path d="M222.024 117.688C222.091 117.838 222.158 117.989 222.258 118.14L215.491 122.059L214.972 121.758L222.024 117.688Z" fill="url(#paint47_radial_37_8680)"/>
<path d="M232.61 114.354C230.148 112.93 226.144 112.914 223.699 114.337C222.308 115.141 221.722 116.213 221.906 117.269C221.404 116.079 221.94 114.773 223.531 113.835C225.994 112.411 229.98 112.428 232.442 113.852C233.514 114.471 234.084 115.242 234.235 116.046C233.983 115.426 233.447 114.84 232.61 114.354Z" fill="url(#paint48_radial_37_8680)"/>
<defs>
<radialGradient id="paint0_radial_37_8680" cx="0" cy="0" r="1" gradientUnits="userSpaceOnUse" gradientTransform="translate(227.688 131.465) rotate(30.0007) scale(185.899 160.996)">
<stop offset="0.0108" stop-color="#D4088C"/>
<stop offset="0.0958" stop-color="#B70980"/>
<stop offset="0.2598" stop-color="#860C6C"/>
<stop offset="0.4224" stop-color="#5C0E5B"/>
<stop offset="0.5801" stop-color="#3C0F4E"/>
<stop offset="0.7318" stop-color="#261045"/>
<stop offset="0.8748" stop-color="#18113F"/>
<stop offset="1" stop-color="#13113D"/>
</radialGradient>
<linearGradient id="paint1_linear_37_8680" x1="269.443" y1="58.8597" x2="277.772" y2="73.2839" gradientUnits="userSpaceOnUse">
<stop offset="0.0404" stop-color="#3D065F"/>
<stop offset="0.1266" stop-color="#3A065A"/>
<stop offset="0.231" stop-color="#30054B"/>
<stop offset="0.345" stop-color="#200333"/>
<stop offset="0.4649" stop-color="#0B0111"/>
<stop offset="0.5152"/>
<stop offset="0.581" stop-color="#010005"/>
<stop offset="0.6609" stop-color="#040114"/>
<stop offset="0.748" stop-color="#09032D"/>
<stop offset="0.8404" stop-color="#10064F"/>
<stop offset="0.9358" stop-color="#19097A"/>
<stop offset="1" stop-color="#200B9C"/>
</linearGradient>
<linearGradient id="paint2_linear_37_8680" x1="201.254" y1="111.034" x2="227.961" y2="129.899" gradientUnits="userSpaceOnUse">
<stop offset="0.0152" stop-color="#F4E4FF"/>
<stop offset="0.2419" stop-color="#E8D4F6"/>
<stop offset="0.5859" stop-color="#D1B4E3"/>
<stop offset="0.595" stop-color="#D0B3E3"/>
<stop offset="0.8273" stop-color="#C3A2D9"/>
<stop offset="1" stop-color="#BE9CD6"/>
</linearGradient>
<linearGradient id="paint3_linear_37_8680" x1="203.194" y1="108.287" x2="229.901" y2="127.154" gradientUnits="userSpaceOnUse">
<stop offset="0.0152" stop-color="#F4E4FF"/>
<stop offset="0.2419" stop-color="#E8D4F6"/>
<stop offset="0.5859" stop-color="#D1B4E3"/>
<stop offset="0.595" stop-color="#D0B3E3"/>
<stop offset="0.8273" stop-color="#C3A2D9"/>
<stop offset="1" stop-color="#BE9CD6"/>
</linearGradient>
<linearGradient id="paint4_linear_37_8680" x1="205.358" y1="105.224" x2="232.065" y2="124.09" gradientUnits="userSpaceOnUse">
<stop offset="0.0152" stop-color="#F4E4FF"/>
<stop offset="0.2419" stop-color="#E8D4F6"/>
<stop offset="0.5859" stop-color="#D1B4E3"/>
<stop offset="0.595" stop-color="#D0B3E3"/>
<stop offset="0.8273" stop-color="#C3A2D9"/>
<stop offset="1" stop-color="#BE9CD6"/>
</linearGradient>
<linearGradient id="paint5_linear_37_8680" x1="207.092" y1="102.77" x2="233.798" y2="121.636" gradientUnits="userSpaceOnUse">
<stop offset="0.0152" stop-color="#F4E4FF"/>
<stop offset="0.2419" stop-color="#E8D4F6"/>
<stop offset="0.5859" stop-color="#D1B4E3"/>
<stop offset="0.595" stop-color="#D0B3E3"/>
<stop offset="0.8273" stop-color="#C3A2D9"/>
<stop offset="1" stop-color="#BE9CD6"/>
</linearGradient>
<linearGradient id="paint6_linear_37_8680" x1="209.441" y1="99.4435" x2="236.147" y2="118.31" gradientUnits="userSpaceOnUse">
<stop offset="0.0152" stop-color="#F4E4FF"/>
<stop offset="0.2419" stop-color="#E8D4F6"/>
<stop offset="0.5859" stop-color="#D1B4E3"/>
<stop offset="0.595" stop-color="#D0B3E3"/>
<stop offset="0.8273" stop-color="#C3A2D9"/>
<stop offset="1" stop-color="#BE9CD6"/>
</linearGradient>
<linearGradient id="paint7_linear_37_8680" x1="211.824" y1="96.069" x2="238.532" y2="114.935" gradientUnits="userSpaceOnUse">
<stop offset="0.0152" stop-color="#F4E4FF"/>
<stop offset="0.2419" stop-color="#E8D4F6"/>
<stop offset="0.5859" stop-color="#D1B4E3"/>
<stop offset="0.595" stop-color="#D0B3E3"/>
<stop offset="0.8273" stop-color="#C3A2D9"/>
<stop offset="1" stop-color="#BE9CD6"/>
</linearGradient>
<linearGradient id="paint8_linear_37_8680" x1="214.507" y1="92.2726" x2="241.214" y2="111.139" gradientUnits="userSpaceOnUse">
<stop offset="0.0152" stop-color="#F4E4FF"/>
<stop offset="0.2419" stop-color="#E8D4F6"/>
<stop offset="0.5859" stop-color="#D1B4E3"/>
<stop offset="0.595" stop-color="#D0B3E3"/>
<stop offset="0.8273" stop-color="#C3A2D9"/>
<stop offset="1" stop-color="#BE9CD6"/>
</linearGradient>
<linearGradient id="paint9_linear_37_8680" x1="217.252" y1="88.3875" x2="243.958" y2="107.254" gradientUnits="userSpaceOnUse">
<stop offset="0.0152" stop-color="#F4E4FF"/>
<stop offset="0.2419" stop-color="#E8D4F6"/>
<stop offset="0.5859" stop-color="#D1B4E3"/>
<stop offset="0.595" stop-color="#D0B3E3"/>
<stop offset="0.8273" stop-color="#C3A2D9"/>
<stop offset="1" stop-color="#BE9CD6"/>
</linearGradient>
<linearGradient id="paint10_linear_37_8680" x1="359.136" y1="130.786" x2="103.551" y2="130.786" gradientUnits="userSpaceOnUse">
<stop stop-color="#2F054A"/>
<stop offset="1" stop-color="#5824B0"/>
</linearGradient>
<linearGradient id="paint11_linear_37_8680" x1="325.533" y1="129.683" x2="69.9473" y2="129.683" gradientUnits="userSpaceOnUse">
<stop offset="0.0556" stop-color="#9F79B8"/>
<stop offset="0.2575" stop-color="#A17BBA"/>
<stop offset="0.3569" stop-color="#A783BF"/>
<stop offset="0.4338" stop-color="#B290C9"/>
<stop offset="0.4949" stop-color="#C1A1D5"/>
<stop offset="0.5067" stop-color="#C4A5D7"/>
<stop offset="0.5196" stop-color="#CDB3DD"/>
<stop offset="0.5329" stop-color="#DBC8E7"/>
<stop offset="0.5466" stop-color="#EFE7F4"/>
<stop offset="0.5556" stop-color="white"/>
<stop offset="0.5678" stop-color="#ECE0F3"/>
<stop offset="0.5801" stop-color="#DDC8EA"/>
<stop offset="0.5915" stop-color="#D4B9E5"/>
<stop offset="0.601" stop-color="#D1B4E3"/>
<stop offset="0.658" stop-color="#B395D6"/>
<stop offset="0.7155" stop-color="#9C7DCB"/>
<stop offset="0.7687" stop-color="#8E6EC5"/>
<stop offset="0.8131" stop-color="#8969C3"/>
<stop offset="1" stop-color="#B086CC"/>
</linearGradient>
<linearGradient id="paint12_linear_37_8680" x1="359.136" y1="124.174" x2="103.551" y2="124.174" gradientUnits="userSpaceOnUse">
<stop stop-color="#58098A"/>
<stop offset="1" stop-color="#773BDB"/>
</linearGradient>
<linearGradient id="paint13_linear_37_8680" x1="356.583" y1="124.175" x2="106.105" y2="124.175" gradientUnits="userSpaceOnUse">
<stop stop-color="#2F054A"/>
<stop offset="1" stop-color="#5824B0"/>
</linearGradient>
<linearGradient id="paint14_linear_37_8680" x1="215.904" y1="226.898" x2="249.635" y2="2.48511" gradientUnits="userSpaceOnUse">
<stop offset="0.0303" stop-color="#7C1DC9"/>
<stop offset="0.2138" stop-color="#6E41D2"/>
<stop offset="0.6184" stop-color="#4C9BE8"/>
<stop offset="1" stop-color="#2AF6FF"/>
</linearGradient>
<linearGradient id="paint15_linear_37_8680" x1="240.48" y1="181.824" x2="220.517" y2="55.8502" gradientUnits="userSpaceOnUse">
<stop offset="0.0303" stop-color="#7C1DC9"/>
<stop offset="0.2138" stop-color="#6E41D2"/>
<stop offset="0.6184" stop-color="#4C9BE8"/>
<stop offset="1" stop-color="#2AF6FF"/>
</linearGradient>
<linearGradient id="paint16_linear_37_8680" x1="332.493" y1="120.772" x2="324.875" y2="118.133" gradientUnits="userSpaceOnUse">
<stop stop-color="#3D065F"/>
<stop offset="1" stop-color="#5F27BD"/>
</linearGradient>
<linearGradient id="paint17_linear_37_8680" x1="332.493" y1="120.772" x2="324.875" y2="118.133" gradientUnits="userSpaceOnUse">
<stop stop-color="#2F054A"/>
<stop offset="1" stop-color="#5824B0"/>
</linearGradient>
<linearGradient id="paint18_linear_37_8680" x1="325.861" y1="166.746" x2="331.219" y2="171.516" gradientUnits="userSpaceOnUse">
<stop offset="0.0556" stop-color="#9F79B8"/>
<stop offset="0.2575" stop-color="#A17BBA"/>
<stop offset="0.3569" stop-color="#A783BF"/>
<stop offset="0.4338" stop-color="#B290C9"/>
<stop offset="0.4949" stop-color="#C1A1D5"/>
<stop offset="0.5067" stop-color="#C4A5D7"/>
<stop offset="0.5196" stop-color="#CDB3DD"/>
<stop offset="0.5329" stop-color="#DBC8E7"/>
<stop offset="0.5466" stop-color="#EFE7F4"/>
<stop offset="0.5556" stop-color="white"/>
<stop offset="0.5678" stop-color="#ECE0F3"/>
<stop offset="0.5801" stop-color="#DDC8EA"/>
<stop offset="0.5915" stop-color="#D4B9E5"/>
<stop offset="0.601" stop-color="#D1B4E3"/>
<stop offset="0.658" stop-color="#B395D6"/>
<stop offset="0.7155" stop-color="#9C7DCB"/>
<stop offset="0.7687" stop-color="#8E6EC5"/>
<stop offset="0.8131" stop-color="#8969C3"/>
<stop offset="1" stop-color="#B086CC"/>
</linearGradient>
<linearGradient id="paint19_linear_37_8680" x1="319.982" y1="127.995" x2="312.364" y2="125.356" gradientUnits="userSpaceOnUse">
<stop stop-color="#3D065F"/>
<stop offset="1" stop-color="#5F27BD"/>
</linearGradient>
<linearGradient id="paint20_linear_37_8680" x1="319.982" y1="127.995" x2="312.364" y2="125.356" gradientUnits="userSpaceOnUse">
<stop stop-color="#2F054A"/>
<stop offset="1" stop-color="#5824B0"/>
</linearGradient>
<linearGradient id="paint21_linear_37_8680" x1="313.135" y1="181.04" x2="318.493" y2="185.81" gradientUnits="userSpaceOnUse">
<stop offset="0.0556" stop-color="#9F79B8"/>
<stop offset="0.2575" stop-color="#A17BBA"/>
<stop offset="0.3569" stop-color="#A783BF"/>
<stop offset="0.4338" stop-color="#B290C9"/>
<stop offset="0.4949" stop-color="#C1A1D5"/>
<stop offset="0.5067" stop-color="#C4A5D7"/>
<stop offset="0.5196" stop-color="#CDB3DD"/>
<stop offset="0.5329" stop-color="#DBC8E7"/>
<stop offset="0.5466" stop-color="#EFE7F4"/>
<stop offset="0.5556" stop-color="white"/>
<stop offset="0.5678" stop-color="#ECE0F3"/>
<stop offset="0.5801" stop-color="#DDC8EA"/>
<stop offset="0.5915" stop-color="#D4B9E5"/>
<stop offset="0.601" stop-color="#D1B4E3"/>
<stop offset="0.658" stop-color="#B395D6"/>
<stop offset="0.7155" stop-color="#9C7DCB"/>
<stop offset="0.7687" stop-color="#8E6EC5"/>
<stop offset="0.8131" stop-color="#8969C3"/>
<stop offset="1" stop-color="#B086CC"/>
</linearGradient>
<linearGradient id="paint22_linear_37_8680" x1="142.197" y1="180.243" x2="121.023" y2="181.792" gradientUnits="userSpaceOnUse">
<stop stop-color="#58098A"/>
<stop offset="1" stop-color="#773BDB"/>
</linearGradient>
<linearGradient id="paint23_linear_37_8680" x1="208.572" y1="259.896" x2="147.204" y2="130.55" gradientUnits="userSpaceOnUse">
<stop offset="0.1717" stop-color="#D4D1D8"/>
<stop offset="1" stop-color="white"/>
</linearGradient>
<linearGradient id="paint24_linear_37_8680" x1="210.26" y1="259.092" x2="148.893" y2="129.748" gradientUnits="userSpaceOnUse">
<stop offset="0.1717" stop-color="#D4D1D8"/>
<stop offset="1" stop-color="white"/>
</linearGradient>
<linearGradient id="paint25_linear_37_8680" x1="212.947" y1="257.821" x2="151.579" y2="128.474" gradientUnits="userSpaceOnUse">
<stop offset="0.1717" stop-color="#D4D1D8"/>
<stop offset="1" stop-color="white"/>
</linearGradient>
<linearGradient id="paint26_linear_37_8680" x1="216.844" y1="255.973" x2="155.475" y2="126.625" gradientUnits="userSpaceOnUse">
<stop offset="0.1717" stop-color="#D4D1D8"/>
<stop offset="1" stop-color="white"/>
</linearGradient>
<linearGradient id="paint27_linear_37_8680" x1="220.697" y1="254.146" x2="159.327" y2="124.796" gradientUnits="userSpaceOnUse">
<stop offset="0.1717" stop-color="#D4D1D8"/>
<stop offset="1" stop-color="white"/>
</linearGradient>
<linearGradient id="paint28_linear_37_8680" x1="223.984" y1="252.586" x2="162.614" y2="123.237" gradientUnits="userSpaceOnUse">
<stop offset="0.1717" stop-color="#D4D1D8"/>
<stop offset="1" stop-color="white"/>
</linearGradient>
<linearGradient id="paint29_linear_37_8680" x1="228.171" y1="250.598" x2="166.801" y2="121.25" gradientUnits="userSpaceOnUse">
<stop offset="0.1717" stop-color="#D4D1D8"/>
<stop offset="1" stop-color="white"/>
</linearGradient>
<linearGradient id="paint30_linear_37_8680" x1="231.947" y1="248.808" x2="170.578" y2="119.46" gradientUnits="userSpaceOnUse">
<stop offset="0.1717" stop-color="#D4D1D8"/>
<stop offset="1" stop-color="white"/>
</linearGradient>
<linearGradient id="paint31_linear_37_8680" x1="234.071" y1="247.797" x2="172.703" y2="118.451" gradientUnits="userSpaceOnUse">
<stop offset="0.1717" stop-color="#D4D1D8"/>
<stop offset="1" stop-color="white"/>
</linearGradient>
<linearGradient id="paint32_linear_37_8680" x1="235.822" y1="246.969" x2="174.453" y2="117.621" gradientUnits="userSpaceOnUse">
<stop offset="0.1717" stop-color="#D4D1D8"/>
<stop offset="1" stop-color="white"/>
</linearGradient>
<linearGradient id="paint33_linear_37_8680" x1="239.533" y1="245.207" x2="178.164" y2="115.859" gradientUnits="userSpaceOnUse">
<stop offset="0.1717" stop-color="#D4D1D8"/>
<stop offset="1" stop-color="white"/>
</linearGradient>
<linearGradient id="paint34_linear_37_8680" x1="313.325" y1="142.872" x2="285.532" y2="72.5918" gradientUnits="userSpaceOnUse">
<stop offset="0.1717" stop-color="#D4D1D8"/>
<stop offset="1" stop-color="white"/>
</linearGradient>
<linearGradient id="paint35_linear_37_8680" x1="133.039" y1="158.098" x2="181.337" y2="158.098" gradientUnits="userSpaceOnUse">
<stop offset="0.1717" stop-color="#D4D1D8"/>
<stop offset="1" stop-color="white"/>
</linearGradient>
<linearGradient id="paint36_linear_37_8680" x1="197.471" y1="119.252" x2="279.476" y2="119.252" gradientUnits="userSpaceOnUse">
<stop stop-color="#FFBB96"/>
<stop offset="0.2273" stop-color="#FFFBC9"/>
<stop offset="0.5404" stop-color="#F9B673"/>
<stop offset="0.6391" stop-color="#F9B876"/>
<stop offset="0.7249" stop-color="#FABE81"/>
<stop offset="0.8057" stop-color="#FCC993"/>
<stop offset="0.8586" stop-color="#FED2A3"/>
<stop offset="0.9697" stop-color="#FFC28C"/>
</linearGradient>
<linearGradient id="paint37_linear_37_8680" x1="231.947" y1="146.011" x2="228.211" y2="160.702" gradientUnits="userSpaceOnUse">
<stop stop-color="#FFBB96"/>
<stop offset="0.2273" stop-color="#FFFBC9"/>
<stop offset="0.5404" stop-color="#F9B673"/>
<stop offset="0.6391" stop-color="#F9B876"/>
<stop offset="0.7249" stop-color="#FABE81"/>
<stop offset="0.8057" stop-color="#FCC993"/>
<stop offset="0.8586" stop-color="#FED2A3"/>
<stop offset="0.9697" stop-color="#FFC28C"/>
</linearGradient>
<linearGradient id="paint38_linear_37_8680" x1="150.712" y1="44.8812" x2="234.289" y2="128.989" gradientUnits="userSpaceOnUse">
<stop offset="0.0354" stop-color="#FFBA78"/>
<stop offset="0.395" stop-color="#FFC987"/>
<stop offset="1" stop-color="#FEECA8"/>
</linearGradient>
<linearGradient id="paint39_linear_37_8680" x1="279.209" y1="130.653" x2="279.613" y2="130.653" gradientUnits="userSpaceOnUse">
<stop stop-color="#FFBB96"/>
<stop offset="0.2273" stop-color="#FFFBC9"/>
<stop offset="0.5404" stop-color="#F9B673"/>
<stop offset="0.6391" stop-color="#F9B876"/>
<stop offset="0.7249" stop-color="#FABE81"/>
<stop offset="0.8057" stop-color="#FCC993"/>
<stop offset="0.8586" stop-color="#FED2A3"/>
<stop offset="0.9697" stop-color="#FFC28C"/>
</linearGradient>
<linearGradient id="paint40_linear_37_8680" x1="197.476" y1="140.593" x2="279.476" y2="140.593" gradientUnits="userSpaceOnUse">
<stop stop-color="#FFBB96"/>
<stop offset="0.2273" stop-color="#FFFBC9"/>
<stop offset="0.5404" stop-color="#F9B673"/>
<stop offset="0.6391" stop-color="#F9B876"/>
<stop offset="0.7249" stop-color="#FABE81"/>
<stop offset="0.8057" stop-color="#FCC993"/>
<stop offset="0.8586" stop-color="#FED2A3"/>
<stop offset="0.9697" stop-color="#FFC28C"/>
</linearGradient>
<linearGradient id="paint41_linear_37_8680" x1="279.419" y1="136.234" x2="279.453" y2="136.369" gradientUnits="userSpaceOnUse">
<stop stop-color="#FEE2A6"/>
<stop offset="0.466" stop-color="#F9BA96"/>
<stop offset="0.6313" stop-color="#F7AA90"/>
<stop offset="0.6334" stop-color="#F7A990"/>
<stop offset="0.6915" stop-color="#F59E8B"/>
<stop offset="0.7731" stop-color="#F49788"/>
<stop offset="1" stop-color="#F49587"/>
</linearGradient>
<radialGradient id="paint42_radial_37_8680" cx="0" cy="0" r="1" gradientUnits="userSpaceOnUse" gradientTransform="translate(235.474 125.943) rotate(180) scale(32.6746)">
<stop stop-color="white"/>
<stop offset="1"/>
</radialGradient>
<linearGradient id="paint43_linear_37_8680" x1="254.012" y1="97.8007" x2="182.303" y2="169.967" gradientUnits="userSpaceOnUse">
<stop offset="0.0354" stop-color="#FFBA78"/>
<stop offset="0.5088" stop-color="#FFC987"/>
<stop offset="1" stop-color="#FEDE9B"/>
</linearGradient>
<linearGradient id="paint44_linear_37_8680" x1="260.58" y1="112.313" x2="189.435" y2="112.313" gradientUnits="userSpaceOnUse">
<stop stop-color="#FFBB96"/>
<stop offset="0.2273" stop-color="#FFFBC9"/>
<stop offset="0.5404" stop-color="#F9B673"/>
<stop offset="0.6391" stop-color="#F9B876"/>
<stop offset="0.7249" stop-color="#FABE81"/>
<stop offset="0.8057" stop-color="#FCC993"/>
<stop offset="0.8586" stop-color="#FED2A3"/>
<stop offset="0.9697" stop-color="#FFC28C"/>
</linearGradient>
<radialGradient id="paint45_radial_37_8680" cx="0" cy="0" r="1" gradientUnits="userSpaceOnUse" gradientTransform="translate(238.445 98.438) scale(27.8471)">
<stop stop-color="white"/>
<stop offset="0.2465" stop-color="#BABABA"/>
<stop offset="0.6183" stop-color="#575757"/>
<stop offset="0.8777" stop-color="#181818"/>
<stop offset="1"/>
</radialGradient>
<linearGradient id="paint46_linear_37_8680" x1="234.511" y1="118.4" x2="215.16" y2="118.4" gradientUnits="userSpaceOnUse">
<stop stop-color="#FFBB96"/>
<stop offset="0.2273" stop-color="#FFFBC9"/>
<stop offset="0.5404" stop-color="#F9B673"/>
<stop offset="0.6391" stop-color="#F9B876"/>
<stop offset="0.7249" stop-color="#FABE81"/>
<stop offset="0.8057" stop-color="#FCC993"/>
<stop offset="0.8586" stop-color="#FED2A3"/>
<stop offset="0.9697" stop-color="#FFC28C"/>
</linearGradient>
<radialGradient id="paint47_radial_37_8680" cx="0" cy="0" r="1" gradientUnits="userSpaceOnUse" gradientTransform="translate(218.602 119.865) rotate(180) scale(3.0046)">
<stop stop-color="white"/>
<stop offset="1"/>
</radialGradient>
<radialGradient id="paint48_radial_37_8680" cx="0" cy="0" r="1" gradientUnits="userSpaceOnUse" gradientTransform="translate(227.989 115.017) rotate(180) scale(4.70577)">
<stop stop-color="white"/>
<stop offset="1"/>
</radialGradient>
</defs>
</svg>
