<svg width="100" height="100" viewBox="0 0 100 100" fill="none" xmlns="http://www.w3.org/2000/svg">
<path d="M9.41503 51.9446C8.88632 50.9941 8.62196 50.5189 8.62196 50.0001C8.62196 49.4812 8.88632 49.006 9.41503 48.0556L18.4622 31.7917L28.0235 15.8247C28.5823 14.8916 28.8617 14.4251 29.311 14.1656C29.7603 13.9062 30.304 13.8975 31.3915 13.8802L50 13.5834L68.6085 13.8802C69.696 13.8975 70.2397 13.9062 70.689 14.1656C71.1384 14.4251 71.4177 14.8916 71.9765 15.8247L81.5378 31.7917L90.585 48.0556C91.1137 49.006 91.3781 49.4812 91.3781 50.0001C91.3781 50.5189 91.1137 50.9941 90.585 51.9446L81.5378 68.2084L71.9765 84.1755C71.4177 85.1085 71.1384 85.5751 70.689 85.8345C70.2397 86.0939 69.696 86.1026 68.6085 86.12L50 86.4167L31.3915 86.12C30.304 86.1026 29.7603 86.0939 29.311 85.8345C28.8617 85.5751 28.5823 85.1085 28.0235 84.1755L18.4623 68.2084L9.41503 51.9446Z" stroke="white" stroke-width="3"/>
<circle cx="50" cy="50" r="12.5" stroke="white" stroke-width="3"/>
</svg>
