<svg width="28" height="28" viewBox="0 0 28 28" fill="none" xmlns="http://www.w3.org/2000/svg">
<path fill-rule="evenodd" clip-rule="evenodd" d="M23.9203 4.06959C22.6288 2.77575 21.0922 1.74983 19.3994 1.05128C17.7067 0.35272 15.8915 -0.00459077 14.059 4.45272e-05C6.37492 4.45272e-05 0.119578 6.22415 0.116472 13.8748C0.116472 16.32 0.757846 18.7064 1.97692 20.8114L0 28L7.39056 26.0696C9.43487 27.1771 11.7252 27.7579 14.0528 27.7589H14.059C21.7415 27.7589 27.9968 21.5348 27.9999 13.8841C28.0052 12.0611 27.6474 10.255 26.9472 8.57045C26.2469 6.88586 25.2181 5.3561 23.9203 4.06959ZM14.059 25.4173H14.0543C11.9788 25.4175 9.94151 24.8618 8.15617 23.8084L7.73376 23.558L3.34819 24.7033L4.51757 20.4482L4.2427 20.0124C3.0823 18.1738 2.46802 16.0461 2.47077 13.8748C2.47387 7.51626 7.67164 2.34316 14.0636 2.34316C15.5859 2.3398 17.0938 2.63695 18.4999 3.21743C19.9061 3.79791 21.1826 4.65018 22.2555 5.72492C23.3342 6.79454 24.1893 8.06633 24.7712 9.4668C25.353 10.8673 25.6503 12.3686 25.6456 13.8841C25.6425 20.2427 20.4448 25.4173 14.059 25.4173ZM20.4153 16.779C20.0658 16.6043 18.3545 15.7666 18.0346 15.6507C17.7162 15.5348 17.4848 15.4776 17.2519 15.8238C17.0189 16.17 16.3512 16.9506 16.1477 17.1824C15.9443 17.4142 15.7408 17.4421 15.393 17.269C15.0451 17.0958 13.9223 16.7295 12.5914 15.5487C11.5556 14.6291 10.8568 13.4946 10.6533 13.1469C10.4499 12.7991 10.6316 12.6121 10.8071 12.439C10.9639 12.2844 11.1549 12.034 11.3289 11.8316C11.5028 11.6291 11.5603 11.4853 11.6767 11.2535C11.7932 11.0217 11.7357 10.8192 11.6472 10.6461C11.5603 10.4714 10.863 8.7651 10.5726 8.07113C10.2915 7.3988 10.0042 7.48844 9.78989 7.47917C9.56793 7.47013 9.3458 7.46601 9.12366 7.4668C8.94702 7.47128 8.77322 7.51204 8.61314 7.58651C8.45307 7.66098 8.31018 7.76756 8.19344 7.89957C7.87353 8.24733 6.97436 9.08504 6.97436 10.7914C6.97436 12.4977 8.22294 14.1469 8.39688 14.3787C8.57081 14.6105 10.8537 18.1113 14.3478 19.6136C15.1802 19.9706 15.8294 20.1839 16.3341 20.3447C17.168 20.609 17.9274 20.5703 18.5284 20.4822C19.1977 20.3833 20.5892 19.6445 20.8796 18.8346C21.17 18.0247 21.17 17.3308 21.083 17.1855C20.9961 17.0402 20.7616 16.9521 20.4153 16.779Z" fill="#E5E5E5"/>
</svg>
