<svg width="846" height="643" viewBox="0 0 846 643" fill="none" xmlns="http://www.w3.org/2000/svg">
<g opacity="0.3">
<path opacity="0.3" d="M774.291 157.888V146.009L771.005 144.18C770.077 149.801 763.479 153.486 757.967 154.255L720.416 176.236L704.013 182.148L651.702 155.13L652.921 154.441C648.442 152.346 646.031 147.574 643.619 143.199L640.095 145.294L638.001 145.877V158.073C638.001 160.407 639.538 162.74 642.612 164.49L695.029 194.769C701.177 198.322 711.141 198.322 717.289 194.769L769.707 164.49C772.728 162.74 774.264 160.46 774.318 158.179C774.318 158.1 774.291 157.994 774.291 157.888Z" fill="url(#paint0_linear_9_320)"/>
<path opacity="0.3" d="M757.967 154.255L720.416 176.236L706.159 181.379V197.447C710.187 197.447 714.215 196.572 717.289 194.796L769.707 164.516C772.728 162.767 774.265 160.486 774.318 158.206C774.318 158.1 774.318 157.994 774.318 157.888V146.009L771.323 144.339H771.005C769.971 149.854 763.452 153.486 757.967 154.255Z" fill="#0F054C"/>
<g opacity="0.3">
<path opacity="0.3" d="M695.029 182.705L642.612 152.426C636.464 148.873 636.464 143.119 642.612 139.566L695.029 109.287C701.177 105.734 711.141 105.734 717.289 109.287L769.707 139.566C775.855 143.119 775.855 148.873 769.707 152.426L717.289 182.705C711.141 186.258 701.151 186.258 695.029 182.705Z" fill="url(#paint1_linear_9_320)"/>
</g>
<g opacity="0.3">
<path opacity="0.3" d="M695.029 182.705L642.612 152.426C636.464 148.873 636.464 143.119 642.612 139.566L695.029 109.287C701.177 105.734 711.141 105.734 717.289 109.287L769.707 139.566C775.855 143.119 775.855 148.873 769.707 152.426L717.289 182.705C711.141 186.258 701.151 186.258 695.029 182.705Z" fill="#0F054C"/>
</g>
</g>
<path d="M706.159 144.445C702.582 144.445 699.004 143.65 696.275 142.085L643.858 111.806C641.128 110.242 639.644 108.121 639.644 105.84C639.644 103.56 641.155 101.439 643.858 99.8746L696.275 69.5953C701.734 66.4666 710.585 66.4401 716.044 69.5953L768.461 99.8746C771.19 101.439 772.674 103.56 772.674 105.84C772.674 108.121 771.164 110.242 768.461 111.806L716.044 142.085C713.314 143.65 709.737 144.445 706.159 144.445ZM706.159 68.137C702.741 68.137 699.322 68.8794 696.725 70.3907L644.308 100.67C641.87 102.075 640.545 103.905 640.545 105.84C640.545 107.776 641.87 109.605 644.308 111.011L696.725 141.29C701.919 144.286 710.373 144.286 715.567 141.29L767.984 111.011C770.395 109.605 771.747 107.776 771.747 105.84C771.747 103.905 770.422 102.075 767.984 100.67L715.567 70.3907C712.97 68.8794 709.551 68.137 706.159 68.137Z" fill="#42E8E0"/>
<path opacity="0.4" d="M774.291 94.2005V76.2504L771.005 74.4209C770.077 80.0419 763.479 83.7274 757.967 84.4963L720.416 106.477L704.013 112.389L651.702 85.3713L652.921 84.6819C648.442 82.5873 646.031 77.8147 643.619 73.4399L640.095 75.5345L638.001 76.1178V94.3861C638.001 96.7194 639.538 99.0527 642.612 100.803L695.029 131.082C701.177 134.635 711.141 134.635 717.289 131.082L769.706 100.803C772.727 99.0527 774.264 96.7724 774.317 94.4922C774.317 94.4126 774.291 94.3066 774.291 94.2005Z" fill="#42E8E0"/>
<path d="M774.291 78.2389V66.3605L771.005 64.531C770.077 70.1521 763.479 73.8375 757.967 74.6064L720.416 96.5868L704.013 102.499L651.702 75.4814L652.921 74.7921C648.442 72.6974 646.031 67.9248 643.619 63.55L640.095 65.6446L638.001 66.228V78.4245C638.001 80.7578 639.538 83.091 642.612 84.841L695.029 115.12C701.177 118.673 711.141 118.673 717.289 115.12L769.706 84.841C772.727 83.091 774.264 80.8108 774.317 78.5306C774.317 78.451 774.291 78.345 774.291 78.2389Z" fill="url(#paint2_linear_9_320)"/>
<path opacity="0.3" d="M757.967 74.6065L720.416 96.5868L706.159 101.731V117.798C710.187 117.798 714.215 116.923 717.289 115.147L769.706 84.8675C772.727 83.1176 774.264 80.8373 774.317 78.5571C774.317 78.451 774.317 78.345 774.317 78.2389V66.3605L771.323 64.6901H771.005C769.971 70.2051 763.452 73.8375 757.967 74.6065Z" fill="#0F054C"/>
<path d="M695.029 103.083L642.612 72.8035C636.464 69.2505 636.464 63.4969 642.612 59.944L695.029 29.6647C701.177 26.1118 711.141 26.1118 717.289 29.6647L769.706 59.944C775.854 63.4969 775.854 69.2505 769.706 72.8035L717.289 103.083C711.141 106.609 701.151 106.609 695.029 103.083Z" fill="url(#paint3_linear_9_320)"/>
<path d="M769.706 72.8035L717.289 103.083C711.141 106.636 701.177 106.636 695.029 103.083L642.612 72.8035C639.856 71.2126 638.346 69.1975 638.054 67.1029C637.683 69.6748 639.22 72.2997 642.612 74.2618L695.029 104.541C701.177 108.094 711.141 108.094 717.289 104.541L769.706 74.2618C773.098 72.2997 774.609 69.6483 774.264 67.1029C773.946 69.171 772.436 71.2126 769.706 72.8035Z" fill="white"/>
<g opacity="0.3">
<path opacity="0.3" d="M845.317 541.668V529.79L842.031 527.96C841.104 533.581 834.505 537.267 828.993 538.035L791.443 560.016L775.039 565.928L722.728 538.91L723.947 538.221C719.469 536.126 717.057 531.354 714.646 526.979L711.121 529.074L709.028 529.657V541.854C709.028 544.187 710.565 546.52 713.639 548.27L766.056 578.549C772.204 582.102 782.168 582.102 788.316 578.549L840.733 548.27C843.754 546.52 845.291 544.24 845.344 541.96C845.317 541.88 845.291 541.774 845.317 541.668Z" fill="url(#paint4_linear_9_320)"/>
<path opacity="0.3" d="M828.993 538.036L791.442 560.016L777.185 565.16V581.227C781.213 581.227 785.241 580.352 788.315 578.576L840.733 548.297C843.754 546.547 845.291 544.266 845.344 541.986C845.344 541.88 845.344 541.774 845.344 541.668V529.79L842.349 528.119H842.031C840.971 533.634 834.452 537.267 828.993 538.036Z" fill="#0F054C"/>
<g opacity="0.3">
<path opacity="0.3" d="M766.029 566.512L713.612 536.232C707.464 532.679 707.464 526.926 713.612 523.373L766.029 493.094C772.177 489.541 782.141 489.541 788.289 493.094L840.706 523.373C846.854 526.926 846.854 532.679 840.706 536.232L788.289 566.512C782.141 570.038 772.151 570.038 766.029 566.512Z" fill="url(#paint5_linear_9_320)"/>
</g>
<g opacity="0.3">
<path opacity="0.3" d="M766.029 566.512L713.612 536.232C707.464 532.679 707.464 526.926 713.612 523.373L766.029 493.094C772.177 489.541 782.141 489.541 788.289 493.094L840.706 523.373C846.854 526.926 846.854 532.679 840.706 536.232L788.289 566.512C782.141 570.038 772.151 570.038 766.029 566.512Z" fill="#0F054C"/>
</g>
</g>
<path d="M777.159 522.445C773.582 522.445 770.004 521.65 767.275 520.085L714.858 489.806C712.128 488.242 710.644 486.121 710.644 483.84C710.644 481.56 712.155 479.439 714.858 477.875L767.275 447.595C772.734 444.44 781.585 444.44 787.044 447.595L839.461 477.875C842.19 479.439 843.674 481.56 843.674 483.84C843.674 486.121 842.164 488.242 839.461 489.806L787.044 520.085C784.314 521.676 780.737 522.445 777.159 522.445ZM767.725 519.29C772.919 522.286 781.373 522.286 786.567 519.29L838.984 489.011C841.422 487.605 842.747 485.776 842.747 483.84C842.747 481.905 841.422 480.075 838.984 478.67L786.567 448.391C781.373 445.395 772.919 445.395 767.725 448.391L715.308 478.67C712.87 480.075 711.545 481.905 711.545 483.84C711.545 485.776 712.87 487.605 715.308 489.011L767.725 519.29Z" fill="#42E8E0"/>
<path opacity="0.4" d="M845.317 472.227V454.277L842.031 452.447C841.104 458.068 834.505 461.754 828.993 462.523L791.443 484.503L775.039 490.416L722.728 463.398L723.947 462.708C719.469 460.614 717.057 455.841 714.646 451.466L711.121 453.561L709.028 454.144V472.413C709.028 474.746 710.565 477.079 713.639 478.829L766.056 509.108C772.204 512.661 782.168 512.661 788.316 509.108L840.733 478.829C843.754 477.079 845.291 474.799 845.344 472.519C845.317 472.413 845.291 472.307 845.317 472.227Z" fill="#42E8E0"/>
<path d="M845.317 456.239V444.36L842.031 442.531C841.104 448.152 834.505 451.838 828.993 452.606L791.443 474.587L775.039 480.499L722.728 453.481L723.947 452.792C719.469 450.697 717.057 445.925 714.646 441.55L711.121 443.645L709.028 444.228V456.424C709.028 458.758 710.565 461.091 713.639 462.841L766.056 493.12C772.204 496.673 782.168 496.673 788.316 493.12L840.733 462.841C843.754 461.091 845.291 458.811 845.344 456.53C845.317 456.451 845.291 456.345 845.317 456.239Z" fill="url(#paint6_linear_9_320)"/>
<path opacity="0.3" d="M828.993 452.606L791.443 474.587L777.186 479.731V495.798C781.214 495.798 785.242 494.923 788.316 493.147L840.733 462.867C843.754 461.118 845.291 458.837 845.344 456.557C845.344 456.451 845.344 456.345 845.344 456.239V444.36L842.349 442.69H842.031C840.971 448.205 834.452 451.864 828.993 452.606Z" fill="#0F054C"/>
<path d="M766.029 481.083L713.612 450.803C707.464 447.25 707.464 441.497 713.612 437.944L766.029 407.665C772.177 404.112 782.141 404.112 788.289 407.665L840.706 437.944C846.854 441.497 846.854 447.25 840.706 450.803L788.289 481.083C782.141 484.636 772.151 484.636 766.029 481.083Z" fill="url(#paint7_linear_9_320)"/>
<path d="M777.159 475.568C773.926 475.568 770.693 474.852 768.229 473.447L727.286 449.796C724.822 448.364 723.47 446.455 723.47 444.36C723.47 442.292 724.822 440.357 727.286 438.952L768.229 415.301C773.158 412.464 781.161 412.464 786.09 415.301L827.032 438.952C829.497 440.383 830.848 442.292 830.848 444.387C830.848 446.455 829.497 448.391 827.032 449.796L786.09 473.447C783.625 474.878 780.392 475.568 777.159 475.568ZM768.679 472.651C773.343 475.356 780.949 475.356 785.613 472.651L826.555 449C828.728 447.754 829.921 446.11 829.921 444.387C829.921 442.664 828.728 441.02 826.555 439.747L785.613 416.096C780.949 413.392 773.343 413.392 768.679 416.096L727.737 439.747C725.564 440.993 724.371 442.637 724.371 444.36C724.371 446.084 725.564 447.728 727.737 448.974L768.679 472.651Z" fill="#5351AF"/>
<path d="M840.706 450.803L788.289 481.083C782.141 484.636 772.177 484.636 766.029 481.083L713.612 450.803C710.856 449.213 709.346 447.197 709.054 445.103C708.683 447.675 710.22 450.3 713.612 452.262L766.029 482.541C772.177 486.094 782.141 486.094 788.289 482.541L840.706 452.262C844.098 450.3 845.609 447.648 845.264 445.103C844.946 447.197 843.436 449.213 840.706 450.803Z" fill="white"/>
<g opacity="0.3">
<path opacity="0.3" d="M161.317 299.65V287.772L158.031 285.942C157.104 291.563 150.505 295.249 144.993 296.018L107.443 317.998L91.0392 323.911L38.7282 296.893L39.9472 296.203C35.4687 294.109 33.0572 289.336 30.6457 284.961L27.1212 287.056L25.0277 287.639V299.836C25.0277 302.169 26.5647 304.502 29.6387 306.252L82.0557 336.531C88.2037 340.084 98.1677 340.084 104.316 336.531L156.733 306.252C159.754 304.502 161.291 302.222 161.344 299.942C161.317 299.836 161.317 299.756 161.317 299.65Z" fill="url(#paint8_linear_9_320)"/>
<path opacity="0.3" d="M144.993 296.018L107.443 317.998L93.1857 323.142V339.209C97.2137 339.209 101.242 338.334 104.316 336.558L156.733 306.279C159.754 304.529 161.291 302.248 161.344 299.968C161.344 299.862 161.344 299.756 161.344 299.65V287.772L158.349 286.101H158.031C156.971 291.616 150.452 295.249 144.993 296.018Z" fill="#0F054C"/>
<g opacity="0.3">
<path opacity="0.3" d="M82.0292 324.467L29.6122 294.188C23.4642 290.635 23.4642 284.882 29.6122 281.329L82.0292 251.049C88.1772 247.496 98.1412 247.496 104.289 251.049L156.706 281.329C162.854 284.882 162.854 290.635 156.706 294.188L104.289 324.467C98.1677 328.02 88.1772 328.02 82.0292 324.467Z" fill="url(#paint9_linear_9_320)"/>
</g>
<g opacity="0.3">
<path opacity="0.3" d="M82.0292 324.467L29.6122 294.188C23.4642 290.635 23.4642 284.882 29.6122 281.329L82.0292 251.049C88.1772 247.496 98.1412 247.496 104.289 251.049L156.706 281.329C162.854 284.882 162.854 290.635 156.706 294.188L104.289 324.467C98.1677 328.02 88.1772 328.02 82.0292 324.467Z" fill="#0F054C"/>
</g>
</g>
<path d="M93.1592 288.196C89.5817 288.196 86.0042 287.4 83.2747 285.836L30.8577 255.557C28.1282 253.992 26.6442 251.871 26.6442 249.591C26.6442 247.311 28.1547 245.19 30.8577 243.625L83.2747 213.346C88.7337 210.191 97.5847 210.191 103.044 213.346L155.461 243.625C158.19 245.19 159.674 247.311 159.674 249.591C159.674 251.871 158.164 253.992 155.461 255.557L103.044 285.836C100.314 287.4 96.7367 288.196 93.1592 288.196ZM93.1592 211.861C89.7407 211.861 86.3487 212.604 83.7252 214.115L31.3082 244.394C28.8702 245.8 27.5452 247.629 27.5452 249.565C27.5452 251.5 28.8702 253.33 31.3082 254.735L83.7252 285.014C88.9192 288.01 97.3727 288.01 102.567 285.014L154.984 254.735C157.422 253.33 158.747 251.5 158.747 249.565C158.747 247.629 157.422 245.8 154.984 244.394L102.567 214.115C99.9962 212.63 96.5777 211.861 93.1592 211.861Z" fill="#42E8E0"/>
<path opacity="0.4" d="M161.317 237.951V220.001L158.031 218.172C157.104 223.793 150.505 227.478 144.993 228.247L107.443 250.227L91.0392 256.14L38.7282 229.122L39.9472 228.433C35.4687 226.338 33.0572 221.565 30.6457 217.191L27.1212 219.285L25.0277 219.869V238.137C25.0277 240.47 26.5647 242.803 29.6387 244.553L82.0557 274.833C88.2037 278.386 98.1677 278.386 104.316 274.833L156.733 244.553C159.754 242.803 161.291 240.523 161.344 238.243C161.317 238.163 161.317 238.057 161.317 237.951Z" fill="#42E8E0"/>
<path d="M161.317 221.99V210.111L158.031 208.282C157.104 213.903 150.505 217.588 144.993 218.357L107.416 240.338L91.0127 246.25L38.7017 219.232L39.9207 218.543C35.4422 216.448 33.0306 211.676 30.6191 207.301L27.0947 209.395L25.0012 209.979V222.175C25.0012 224.509 26.5382 226.842 29.6122 228.592L82.0292 258.898C88.1772 262.451 98.1412 262.451 104.289 258.898L156.706 228.618C159.727 226.868 161.264 224.588 161.317 222.308C161.317 222.202 161.317 222.096 161.317 221.99Z" fill="url(#paint10_linear_9_320)"/>
<path opacity="0.3" d="M144.993 218.357L107.416 240.338L93.1592 245.481V261.549C97.1872 261.549 101.215 260.674 104.289 258.898L156.706 228.618C159.727 226.868 161.264 224.588 161.317 222.308C161.317 222.202 161.317 222.096 161.317 221.99V210.111L158.323 208.441H158.005C156.971 213.956 150.452 217.588 144.993 218.357Z" fill="#0F054C"/>
<path d="M39.9207 218.543L89.5816 189.854C91.5426 188.714 94.7492 188.714 96.7102 189.854L145.523 218.039L144.993 218.357C150.505 217.588 157.104 213.903 158.031 208.282L103.256 177.79L87.3292 173.575L74.3441 181.211L30.6191 207.301C33.0306 211.676 35.4422 216.448 39.9207 218.543Z" fill="url(#paint11_linear_9_320)"/>
<path opacity="0.3" d="M93.1592 175.139L87.3027 173.601L74.3177 181.237L30.5927 207.327C33.0042 211.676 35.4157 216.475 39.8942 218.569L89.5552 189.881C90.5357 189.324 91.8342 189.032 93.1327 189.032V175.139H93.1592Z" fill="#0F054C"/>
<path d="M82.0292 246.807L29.6122 216.528C23.4642 212.975 23.4642 207.221 29.6122 203.668L82.0292 173.389C88.1772 169.836 98.1412 169.836 104.289 173.389L156.706 203.668C162.854 207.221 162.854 212.975 156.706 216.528L104.289 246.807C98.1677 250.36 88.1772 250.36 82.0292 246.807ZM96.7367 177.764C94.7757 176.624 91.5692 176.624 89.6082 177.764L37.1912 208.043C35.2302 209.183 35.2302 211.013 37.1912 212.153L89.6082 242.432C91.5692 243.572 94.7757 243.572 96.7367 242.432L149.154 212.153C151.115 211.013 151.115 209.183 149.154 208.043L96.7367 177.764Z" fill="url(#paint12_linear_9_320)"/>
<path d="M149.154 208.043L96.7367 177.764C94.7757 176.624 91.5692 176.624 89.6082 177.764L37.1912 208.043C35.8927 208.812 35.4422 209.873 35.8927 210.854C36.1047 210.376 36.5552 209.926 37.1912 209.528L89.6082 179.249C91.5692 178.109 94.7757 178.109 96.7367 179.249L149.154 209.528C149.816 209.899 150.24 210.35 150.452 210.854C150.876 209.873 150.452 208.812 149.154 208.043Z" fill="white"/>
<path d="M156.706 216.528L104.289 246.807C98.1412 250.36 88.1772 250.36 82.0292 246.807L29.6122 216.528C26.8562 214.937 25.3457 212.922 25.0542 210.827C24.6832 213.399 26.2202 216.024 29.6122 217.986L82.0292 248.292C88.1772 251.845 98.1412 251.845 104.289 248.292L156.706 218.013C160.098 216.051 161.609 213.399 161.264 210.854C160.973 212.922 159.462 214.963 156.706 216.528Z" fill="white"/>
<path d="M83.5132 245.959L31.0962 215.679C25.7697 212.604 25.7697 207.592 31.0962 204.517L83.5132 174.237C88.8397 171.162 97.5052 171.162 102.805 174.237L155.222 204.517C160.549 207.592 160.549 212.604 155.222 215.653L102.805 245.932C97.4787 249.034 88.8397 249.034 83.5132 245.959ZM98.1942 176.915C95.4117 175.298 90.8802 175.298 88.0977 176.915L35.6806 207.195C32.8981 208.812 32.8981 211.411 35.6806 213.028L88.0977 243.307C90.8802 244.925 95.4117 244.925 98.1942 243.307L150.611 213.028C153.394 211.411 153.394 208.812 150.611 207.195L98.1942 176.915Z" fill="url(#paint13_linear_9_320)"/>
<path opacity="0.4" d="M96.7367 177.764C94.7757 176.624 91.5692 176.624 89.6082 177.764L37.1912 208.043C35.2302 209.183 35.2302 211.013 37.1912 212.153L89.6082 242.432C91.5692 243.572 94.7757 243.572 96.7367 242.432L149.154 212.153C151.115 211.013 151.115 209.183 149.154 208.043L96.7367 177.764Z" fill="#42E8E0"/>
<path opacity="0.5" d="M150.611 210.058V23H35.7072V210.058C35.6807 210.827 36.1841 211.57 37.1646 212.153L89.5816 242.432C91.5426 243.572 94.7491 243.572 96.7101 242.432L149.127 212.153C150.134 211.596 150.638 210.827 150.611 210.058Z" fill="url(#paint14_linear_9_320)"/>
<path d="M270.168 642.865C263.172 642.865 256.493 641.459 251.538 638.569L7.579 497.646C2.6765 494.809 0 490.885 0 486.563C0 481.393 3.86899 476.169 10.6265 472.272L475.914 203.496C488.554 196.178 507.793 195.41 518.764 201.747L762.723 342.67C767.626 345.507 770.302 349.431 770.302 353.753C770.302 358.923 766.433 364.147 759.676 368.044L294.389 636.819C287.472 640.797 278.595 642.865 270.168 642.865ZM252.068 637.668C262.748 643.846 281.51 643.05 293.859 635.918L759.146 367.143C765.559 363.431 769.242 358.552 769.242 353.779C769.242 349.855 766.724 346.249 762.193 343.624L518.234 202.701C507.555 196.523 488.793 197.319 476.444 204.451L11.13 473.2C4.71699 476.912 1.0335 481.79 1.0335 486.563C1.0335 490.487 3.55101 494.093 8.08251 496.718L252.068 637.668Z" fill="#42E8E0"/>
<path d="M769.772 288.66L734.739 294.706L518.499 169.797C507.66 163.539 488.713 164.308 476.178 171.547L62.487 410.52L0.530029 421.205V443.186H0.556555C0.530055 447.189 2.91506 451.034 7.84405 453.871L251.803 594.794C262.642 601.052 281.589 600.283 294.124 593.044L759.41 324.269C766.141 320.371 769.64 315.413 769.746 310.667H769.772V288.66Z" fill="url(#paint15_linear_9_320)"/>
<path d="M251.803 572.655L7.84404 431.731C-2.99446 425.474 -1.64298 414.524 10.8915 407.285L476.178 138.483C488.713 131.245 507.66 130.45 518.499 136.734L762.458 277.657C773.296 283.914 771.945 294.865 759.41 302.103L294.124 570.905C281.589 578.117 262.642 578.912 251.803 572.655Z" fill="#24126A"/>
<path d="M759.411 302.103L294.124 570.905C281.589 578.143 262.642 578.939 251.803 572.655L7.84401 431.731C3.49801 429.213 1.13951 425.951 0.63601 422.478C-0.0264902 426.985 2.30551 431.387 7.84401 434.595L251.803 575.492C262.642 581.749 281.589 580.98 294.124 573.742L759.411 304.967C766.91 300.645 770.381 294.971 769.639 289.774C769.003 294.122 765.559 298.55 759.411 302.103Z" fill="white"/>
<path opacity="0.51" d="M252.28 567.193L17.013 431.254C6.51896 425.182 7.84397 414.603 19.9545 407.603L476.602 143.892C488.713 136.893 507.051 136.124 517.545 142.195L752.812 278.134C763.306 284.206 761.981 294.785 749.871 301.785L293.223 565.496C281.112 572.496 262.774 573.265 252.28 567.193Z" fill="#453C9E"/>
<path opacity="0.8" d="M270.061 565.947C263.251 565.947 256.758 564.568 251.909 561.784L16.6419 425.845C11.8189 423.061 9.16895 419.19 9.16895 414.921C9.16895 409.831 12.9584 404.713 19.5834 400.869L476.231 137.158C488.527 130.052 507.263 129.283 517.942 135.461L753.21 271.4C758.033 274.184 760.682 278.055 760.682 282.323C760.682 287.414 756.893 292.531 750.268 296.376L293.62 560.087C286.889 563.958 278.25 565.947 270.061 565.947ZM252.651 560.458C262.933 566.398 280.953 565.629 292.851 558.761L749.499 295.05C755.621 291.497 759.146 286.857 759.146 282.323C759.146 278.611 756.76 275.218 752.441 272.699L517.174 136.76C506.892 130.821 488.872 131.59 476.973 138.457L20.3254 402.168C14.2039 405.721 10.6794 410.361 10.6794 414.895C10.6794 418.607 13.0644 422.001 17.3839 424.52L252.651 560.458Z" fill="url(#paint16_linear_9_320)"/>
<g opacity="0.1">
<path opacity="0.5" d="M252.28 561.121L17.013 425.182C6.51896 419.111 7.84397 408.531 19.9545 401.532L476.602 137.821C488.713 130.821 507.051 130.052 517.545 136.124L752.812 272.062C763.306 278.134 761.981 288.713 749.871 295.713L293.223 559.424C281.112 566.424 262.774 567.193 252.28 561.121Z" fill="url(#paint17_radial_9_320)"/>
<g opacity="0.1">
<path opacity="0.1" d="M512.139 510.081C512.139 480.518 491.39 444.564 465.791 429.769C452.965 422.372 441.358 421.682 432.984 426.561L424.212 431.678L426.756 431.917C422.145 437.565 419.442 445.917 419.442 456.549C419.442 486.112 440.192 522.066 465.791 536.86C474.589 541.951 482.804 543.86 489.8 542.985L489.614 545.345L498.518 540.148C498.545 540.122 498.598 540.095 498.624 540.095L498.995 539.883H498.969C507.131 534.898 512.139 524.611 512.139 510.081Z" fill="#9FFFF8"/>
<path opacity="0.1" d="M489.708 545.297C507.808 534.842 507.809 500.943 489.712 469.583C471.616 438.222 442.273 421.275 424.174 431.731C406.075 442.186 406.073 476.085 424.17 507.445C442.267 538.806 471.609 555.753 489.708 545.297Z" fill="#42E8E0"/>
</g>
</g>
<path d="M702.595 285.479C698.991 287.547 693.187 287.547 689.583 285.479C685.979 283.411 685.979 280.043 689.583 277.975C693.187 275.907 698.991 275.907 702.595 277.975C706.199 280.043 706.172 283.411 702.595 285.479Z" fill="#42E8E0"/>
<path d="M652.96 249.287L678.427 264.002C681.527 265.805 681.156 268.934 677.552 271.002C673.948 273.07 668.516 273.309 665.415 271.506L639.949 256.79C636.848 254.987 637.219 251.859 640.823 249.79C644.401 247.722 649.833 247.484 652.96 249.287Z" fill="#42E8E0"/>
<path d="M507.74 161.074L533.206 175.789C536.307 177.592 535.936 180.721 532.332 182.789C528.728 184.857 523.322 185.096 520.195 183.293L494.728 168.577C491.628 166.774 491.999 163.645 495.603 161.577C499.181 159.509 504.613 159.297 507.74 161.074Z" fill="#42E8E0"/>
<path d="M494.739 247.282C494.739 217.718 473.989 181.765 448.39 166.97C435.564 159.572 423.957 158.883 415.583 163.762L406.812 168.879L409.356 169.118C404.745 174.765 402.042 183.117 402.042 193.749C402.042 223.313 422.791 259.266 448.39 274.061C457.188 279.152 465.403 281.061 472.399 280.186L472.214 282.546L481.118 277.349C481.144 277.322 481.197 277.296 481.224 277.296L481.595 277.084H481.568C489.73 272.099 494.739 261.838 494.739 247.282Z" fill="#9FFFF8"/>
<path d="M472.306 282.498C490.405 272.043 490.406 238.144 472.31 206.783C454.213 175.423 424.87 158.476 406.771 168.931C388.672 179.387 388.67 213.285 406.767 244.646C424.864 276.007 454.207 292.954 472.306 282.498Z" fill="#42E8E0"/>
<path d="M368.376 118.518C385.522 94.4433 389.497 53.1075 377.227 26.222C371.079 12.7528 362.043 5.43483 352.37 4.53335L342.274 3.63185L344.208 5.30226C337.159 7.23781 330.137 12.4611 323.962 21.1048C306.817 45.1797 302.842 86.5155 315.085 113.401C319.298 122.654 324.89 128.991 331.091 132.332L329.58 134.135L339.836 135.063C339.889 135.063 339.915 135.063 339.968 135.063L340.392 135.09L340.366 135.063C349.879 135.806 359.949 130.344 368.376 118.518Z" fill="#9FFFF8"/>
<path d="M373.601 72.5074C377.061 36.4608 363.002 5.6187 342.198 3.61963C321.395 1.62055 301.725 29.2215 298.265 65.2681C294.805 101.315 308.865 132.157 329.668 134.156C350.471 136.155 370.141 108.554 373.601 72.5074Z" fill="#42E8E0"/>
<path opacity="0.4" d="M367.264 430.114C335.305 430.114 303.319 423.088 278.992 409.035C255.328 395.354 242.29 377.165 242.29 357.783C242.29 338.401 255.328 320.212 278.992 306.531C327.673 278.399 406.855 278.426 455.535 306.531C479.2 320.212 492.238 338.401 492.238 357.783C492.238 377.165 479.2 395.38 455.535 409.035L455.297 408.638L455.535 409.035C431.208 423.088 399.249 430.114 367.264 430.114ZM367.264 286.354C335.464 286.354 303.664 293.353 279.443 307.326C256.07 320.822 243.217 338.746 243.217 357.783C243.217 376.82 256.096 394.744 279.469 408.24C327.885 436.212 406.669 436.212 455.085 408.24C478.458 394.744 491.31 376.82 491.31 357.783C491.31 338.746 478.431 320.822 455.058 307.326C430.864 293.327 399.064 286.354 367.264 286.354Z" fill="#42E8E0"/>
<path opacity="0.2" d="M367.263 449.523C326.692 449.523 286.12 440.614 255.248 422.77C225.25 405.429 208.714 382.362 208.714 357.81C208.714 333.257 225.25 310.163 255.248 292.85C317.019 257.161 417.507 257.161 479.279 292.85C509.277 310.19 525.813 333.257 525.813 357.81C525.813 382.362 509.277 405.456 479.279 422.77C448.406 440.587 407.835 449.523 367.263 449.523ZM367.263 266.945C326.851 266.945 286.465 275.827 255.698 293.592C225.992 310.747 209.615 333.549 209.615 357.757C209.615 381.991 225.965 404.766 255.698 421.921C317.205 457.45 417.295 457.45 478.802 421.921C508.508 404.766 524.885 381.964 524.885 357.757C524.885 333.522 508.535 310.747 478.802 293.592C448.062 275.827 407.676 266.945 367.263 266.945Z" fill="#42E8E0"/>
<path d="M367.264 414.842C342.062 414.842 316.887 409.3 297.701 398.217C279.045 387.426 268.763 373.055 268.763 357.757C268.763 342.458 279.045 328.087 297.701 317.296C336.073 295.13 398.481 295.13 436.826 317.296C455.482 328.087 465.764 342.458 465.764 357.757C465.764 373.055 455.482 387.426 436.826 398.217L436.588 397.82L436.826 398.217C417.667 409.3 392.465 414.842 367.264 414.842ZM367.264 301.626C342.248 301.626 317.205 307.141 298.152 318.144C279.787 328.75 269.664 342.829 269.664 357.81C269.664 372.79 279.787 386.843 298.152 397.475C336.259 419.482 398.269 419.482 436.376 397.475C454.74 386.869 464.863 372.79 464.863 357.836C464.863 342.882 454.74 328.803 436.376 318.171C417.322 307.114 392.306 301.626 367.264 301.626Z" fill="#42E8E0"/>
<path d="M360.755 328.281C360.755 298.718 340.006 262.764 314.407 247.969C301.581 240.572 289.974 239.882 281.6 244.761L272.828 249.878L275.372 250.117C270.761 255.764 268.058 264.116 268.058 274.749C268.058 304.312 288.808 340.266 314.407 355.06C323.205 360.151 331.42 362.06 338.416 361.185L338.23 363.545L347.134 358.348C347.161 358.322 347.214 358.295 347.24 358.295L347.611 358.083H347.585C355.747 353.098 360.755 342.811 360.755 328.281Z" fill="#9FFFF8"/>
<path d="M338.306 363.498C356.405 353.043 356.406 319.144 338.31 287.783C320.213 256.423 290.87 239.476 272.771 249.931C254.672 260.387 254.67 294.285 272.767 325.646C290.864 357.007 320.207 373.954 338.306 363.498Z" fill="#42E8E0"/>
<path opacity="0.4" d="M242.819 509.789L97.2815 425.713C92.9885 423.22 92.9885 417.043 97.2815 414.55L119.488 401.611C126.908 397.316 136.077 397.316 143.497 401.611L289.035 485.688C293.328 488.18 293.328 494.358 289.035 496.85L266.828 509.789C259.382 514.085 250.239 514.085 242.819 509.789Z" fill="#24126A"/>
<path d="M169.971 423.857L146.677 410.387L151.288 407.709L174.582 421.179L169.971 423.857Z" fill="#42E8E0"/>
<path d="M235.638 462.727L228.483 458.59L233.094 455.912L240.249 460.049L235.638 462.727Z" fill="#42E8E0"/>
<path d="M183.459 431.864L176.305 427.728L180.942 425.05L188.097 429.186L183.459 431.864Z" fill="#42E8E0"/>
<path d="M254.824 493.032C250.584 493.032 246.344 491.945 242.554 489.745L97.0164 405.668C94.8434 404.395 93.5449 402.141 93.5449 399.623C93.5449 397.104 94.8434 394.85 97.0164 393.577L119.223 380.638C126.802 376.264 136.183 376.264 143.762 380.638L289.3 464.715C291.473 465.961 292.772 468.242 292.772 470.76C292.772 473.279 291.473 475.533 289.3 476.806L267.093 489.745C263.304 491.945 259.064 493.032 254.824 493.032ZM131.493 378.438C127.438 378.438 123.384 379.472 119.753 381.566L97.5464 394.505C95.6914 395.566 94.5784 397.501 94.5784 399.623C94.5784 401.77 95.6914 403.679 97.5464 404.74L243.084 488.817C250.319 493.006 259.329 493.006 266.563 488.817L288.77 475.878C290.625 474.817 291.738 472.882 291.738 470.76C291.738 468.613 290.625 466.704 288.77 465.643L143.232 381.566C139.628 379.498 135.574 378.438 131.493 378.438Z" fill="#42E8E0"/>
<defs>
<linearGradient id="paint0_linear_9_320" x1="651.559" y1="122.393" x2="759.734" y2="184.814" gradientUnits="userSpaceOnUse">
<stop stop-color="#BCBEFF"/>
<stop offset="0.2271" stop-color="#AAADF8"/>
<stop offset="0.6802" stop-color="#7C83E5"/>
<stop offset="1" stop-color="#5761D7"/>
</linearGradient>
<linearGradient id="paint1_linear_9_320" x1="637.999" y1="146.007" x2="774.303" y2="146.007" gradientUnits="userSpaceOnUse">
<stop stop-color="#E9E9FD"/>
<stop offset="0.3601" stop-color="#D3D2F9"/>
<stop offset="0.7062" stop-color="#C5C4F7"/>
<stop offset="1" stop-color="#C0BFF6"/>
</linearGradient>
<linearGradient id="paint2_linear_9_320" x1="651.559" y1="42.7485" x2="759.734" y2="105.17" gradientUnits="userSpaceOnUse">
<stop stop-color="#BCBEFF"/>
<stop offset="0.2271" stop-color="#AAADF8"/>
<stop offset="0.6802" stop-color="#7C83E5"/>
<stop offset="1" stop-color="#5761D7"/>
</linearGradient>
<linearGradient id="paint3_linear_9_320" x1="637.999" y1="66.3626" x2="774.303" y2="66.3626" gradientUnits="userSpaceOnUse">
<stop stop-color="#E9E9FD"/>
<stop offset="0.3601" stop-color="#D3D2F9"/>
<stop offset="0.7062" stop-color="#C5C4F7"/>
<stop offset="1" stop-color="#C0BFF6"/>
</linearGradient>
<linearGradient id="paint4_linear_9_320" x1="722.562" y1="506.178" x2="830.737" y2="568.599" gradientUnits="userSpaceOnUse">
<stop stop-color="#BCBEFF"/>
<stop offset="0.2271" stop-color="#AAADF8"/>
<stop offset="0.6802" stop-color="#7C83E5"/>
<stop offset="1" stop-color="#5761D7"/>
</linearGradient>
<linearGradient id="paint5_linear_9_320" x1="709.001" y1="529.792" x2="845.306" y2="529.792" gradientUnits="userSpaceOnUse">
<stop stop-color="#E9E9FD"/>
<stop offset="0.3601" stop-color="#D3D2F9"/>
<stop offset="0.7062" stop-color="#C5C4F7"/>
<stop offset="1" stop-color="#C0BFF6"/>
</linearGradient>
<linearGradient id="paint6_linear_9_320" x1="722.562" y1="420.754" x2="830.737" y2="483.175" gradientUnits="userSpaceOnUse">
<stop stop-color="#BCBEFF"/>
<stop offset="0.2271" stop-color="#AAADF8"/>
<stop offset="0.6802" stop-color="#7C83E5"/>
<stop offset="1" stop-color="#5761D7"/>
</linearGradient>
<linearGradient id="paint7_linear_9_320" x1="709.001" y1="444.368" x2="845.306" y2="444.368" gradientUnits="userSpaceOnUse">
<stop stop-color="#E9E9FD"/>
<stop offset="0.3601" stop-color="#D3D2F9"/>
<stop offset="0.7062" stop-color="#C5C4F7"/>
<stop offset="1" stop-color="#C0BFF6"/>
</linearGradient>
<linearGradient id="paint8_linear_9_320" x1="38.5697" y1="264.147" x2="146.745" y2="326.568" gradientUnits="userSpaceOnUse">
<stop stop-color="#BCBEFF"/>
<stop offset="0.2271" stop-color="#AAADF8"/>
<stop offset="0.6802" stop-color="#7C83E5"/>
<stop offset="1" stop-color="#5761D7"/>
</linearGradient>
<linearGradient id="paint9_linear_9_320" x1="25.0094" y1="287.761" x2="161.314" y2="287.761" gradientUnits="userSpaceOnUse">
<stop stop-color="#E9E9FD"/>
<stop offset="0.3601" stop-color="#D3D2F9"/>
<stop offset="0.7062" stop-color="#C5C4F7"/>
<stop offset="1" stop-color="#C0BFF6"/>
</linearGradient>
<linearGradient id="paint10_linear_9_320" x1="38.57" y1="186.495" x2="146.745" y2="248.916" gradientUnits="userSpaceOnUse">
<stop stop-color="#BCBEFF"/>
<stop offset="0.2271" stop-color="#AAADF8"/>
<stop offset="0.6802" stop-color="#7C83E5"/>
<stop offset="1" stop-color="#5761D7"/>
</linearGradient>
<linearGradient id="paint11_linear_9_320" x1="45.0601" y1="182.288" x2="141.531" y2="237.955" gradientUnits="userSpaceOnUse">
<stop offset="0.2421" stop-color="#5761D7"/>
<stop offset="0.3923" stop-color="#7A82E5"/>
<stop offset="0.5463" stop-color="#979CF0"/>
<stop offset="0.7" stop-color="#ACAFF8"/>
<stop offset="0.8519" stop-color="#B8BAFD"/>
<stop offset="1" stop-color="#BCBEFF"/>
</linearGradient>
<linearGradient id="paint12_linear_9_320" x1="25.0094" y1="210.109" x2="161.314" y2="210.109" gradientUnits="userSpaceOnUse">
<stop stop-color="#E9E9FD"/>
<stop offset="0.3601" stop-color="#D3D2F9"/>
<stop offset="0.7062" stop-color="#C5C4F7"/>
<stop offset="1" stop-color="#C0BFF6"/>
</linearGradient>
<linearGradient id="paint13_linear_9_320" x1="27.1018" y1="210.109" x2="159.221" y2="210.109" gradientUnits="userSpaceOnUse">
<stop stop-color="#E9E9FD"/>
<stop offset="0.3601" stop-color="#D3D2F9"/>
<stop offset="0.7062" stop-color="#C5C4F7"/>
<stop offset="1" stop-color="#C0BFF6"/>
</linearGradient>
<linearGradient id="paint14_linear_9_320" x1="93.1584" y1="243.299" x2="93.1584" y2="23.0125" gradientUnits="userSpaceOnUse">
<stop stop-color="#42E8E0"/>
<stop offset="1" stop-color="#09207B"/>
</linearGradient>
<linearGradient id="paint15_linear_9_320" x1="0.513334" y1="382.274" x2="769.779" y2="382.274" gradientUnits="userSpaceOnUse">
<stop stop-color="#BCBEFF"/>
<stop offset="0.151" stop-color="#A3A7F5"/>
<stop offset="0.3866" stop-color="#8289E8"/>
<stop offset="0.6124" stop-color="#6A73DF"/>
<stop offset="0.8221" stop-color="#5C66D9"/>
<stop offset="1" stop-color="#5761D7"/>
</linearGradient>
<linearGradient id="paint16_linear_9_320" x1="492.293" y1="491.165" x2="277.41" y2="206.16" gradientUnits="userSpaceOnUse">
<stop stop-color="#42E8E0"/>
<stop offset="0.1055" stop-color="#37B6BF"/>
<stop offset="0.2197" stop-color="#2C87A1"/>
<stop offset="0.338" stop-color="#235F87"/>
<stop offset="0.4587" stop-color="#1C3F72"/>
<stop offset="0.5824" stop-color="#162561"/>
<stop offset="0.7105" stop-color="#121355"/>
<stop offset="0.8458" stop-color="#10084E"/>
<stop offset="1" stop-color="#0F054C"/>
</linearGradient>
<radialGradient id="paint17_radial_9_320" cx="0" cy="0" r="1" gradientUnits="userSpaceOnUse" gradientTransform="translate(366.055 355.886) scale(602.108 602.433)">
<stop stop-color="#42E8E0"/>
<stop offset="0.1055" stop-color="#37B6BF"/>
<stop offset="0.2197" stop-color="#2C87A1"/>
<stop offset="0.338" stop-color="#235F87"/>
<stop offset="0.4587" stop-color="#1C3F72"/>
<stop offset="0.5824" stop-color="#162561"/>
<stop offset="0.7105" stop-color="#121355"/>
<stop offset="0.8458" stop-color="#10084E"/>
<stop offset="1" stop-color="#0F054C"/>
</radialGradient>
</defs>
</svg>
