<svg width="60" height="60" viewBox="0 0 60 60" fill="none" xmlns="http://www.w3.org/2000/svg">
<circle cx="30" cy="30" r="30" fill="#00A4DD"/>
<path d="M42.6406 23.4766C42.6406 27.2109 41.25 29.9688 38.4688 31.75C35.7031 33.5312 32.3047 34.4219 28.2734 34.4219C27.5391 34.4219 27.0156 34.4062 26.7031 34.375C26.7031 37.3125 26.7891 41.1875 26.9609 46H20.375C20.5781 41.4844 20.6797 36.1641 20.6797 30.0391C20.6797 24.4141 20.5781 19.5625 20.375 15.4844H24.4531C25.0312 15.4844 26.1406 15.4609 27.7812 15.4141C29.4219 15.3672 30.8438 15.3438 32.0469 15.3438C35.0156 15.3438 37.5234 16.0156 39.5703 17.3594C41.6172 18.7031 42.6406 20.7422 42.6406 23.4766ZM36.5938 24.7656C36.5938 21.4219 34.375 19.75 29.9375 19.75C28.8281 19.75 27.6562 19.8672 26.4219 20.1016C26.5938 23.0547 26.6797 26.3984 26.6797 30.1328C27.0703 30.1641 27.5234 30.1797 28.0391 30.1797C33.7422 30.1797 36.5938 28.375 36.5938 24.7656Z" fill="white"/>
</svg>
