<svg width="138" height="119" viewBox="0 0 138 119" fill="none" xmlns="http://www.w3.org/2000/svg">
<path d="M137.358 64.7543H100.967L60.4474 41.3619C55.2264 38.3494 46.1167 38.7214 40.0915 42.2021L53.8821 34.1846H17.5033V69.1472H17.5153C17.3712 71.1875 18.4995 73.1559 21.0079 74.5962L94.4018 116.964C99.6228 119.977 108.732 119.605 114.758 116.124L132.377 106.018C135.51 104.206 137.178 101.925 137.334 99.7169H137.358V64.7543Z" fill="url(#paint0_linear_36_2266)"/>
<path d="M136.302 64.7539V100.869H136.266C136.194 101.925 135.762 103.005 135.005 104.049C136.434 102.681 137.214 101.181 137.322 99.7165H137.346V64.7539H136.302Z" fill="#6EE8FC"/>
<path d="M94.4018 82.001L21.0079 39.633C15.7869 36.6205 16.4471 31.3635 22.4722 27.8828L40.0795 17.7649C46.1047 14.2842 55.2144 13.9122 60.4354 16.9247L133.829 59.2928C139.05 62.3053 138.39 67.5623 132.365 71.043L114.758 81.1609C108.733 84.6415 99.6228 85.0136 94.4018 82.001Z" fill="url(#paint1_linear_36_2266)"/>
<path d="M95.8541 82.0018L22.4602 39.6338C17.2392 36.6212 17.8993 31.3643 23.9245 27.8836L41.5318 17.7777C44.6284 15.9893 48.5291 15.0292 52.2978 14.9211C48.097 14.8011 43.5722 15.7613 40.0795 17.7777L22.4602 27.8836C16.4351 31.3643 15.7749 36.6212 20.9959 39.6338L94.3898 82.0018C96.9343 83.4661 100.403 84.1262 103.98 84.0182C100.931 83.9342 98.0505 83.274 95.8541 82.0018Z" fill="#F88B93"/>
<path d="M133.829 59.2937L60.4354 16.9257C57.8789 15.4495 54.3982 14.7893 50.7975 14.9093C53.8461 15.0054 56.7267 15.6535 58.9231 16.9257L132.317 59.2937C137.538 62.3063 136.878 67.5633 130.853 71.044L113.245 81.1499C110.173 82.9262 106.284 83.8864 102.527 84.0064C106.74 84.1264 111.265 83.1662 114.758 81.1499L132.377 71.044C138.402 67.5753 139.05 62.3063 133.829 59.2937Z" fill="#6EE8FC"/>
<path d="M137.358 49.8588H100.967L60.4474 26.4664C55.2264 23.4538 46.1167 23.8259 40.0915 27.3066L53.8821 19.2891H17.5033V26.8025H17.5153C17.3712 28.8429 18.4995 30.8112 21.0079 32.2515L94.4018 74.6195C99.6228 77.6321 108.732 77.26 114.758 73.7793L132.377 63.6614C135.51 61.8491 137.178 59.5687 137.334 57.3603H137.358V49.8588Z" fill="url(#paint2_linear_36_2266)"/>
<path d="M136.302 49.8594V58.537H136.266C136.194 59.5932 135.762 60.6734 135.005 61.7176C136.434 60.3493 137.214 58.8491 137.322 57.3848H137.346V49.8714H136.302V49.8594Z" fill="#6EE8FC"/>
<path d="M94.4018 67.1062L21.008 24.7382C15.787 21.7256 16.4471 16.4687 22.4722 12.988L40.0796 2.88209C46.1047 -0.598567 55.2144 -0.970643 60.4354 2.04193L133.829 44.4099C139.05 47.4225 138.39 52.6795 132.365 56.1602L114.758 66.2661C108.733 69.7467 99.6228 70.1188 94.4018 67.1062Z" fill="url(#paint3_linear_36_2266)"/>
<path d="M97.5704 59.8446L33.1302 22.6256C30.0096 20.8253 30.3937 17.6687 34.0064 15.5923L44.5564 9.54312C48.1691 7.45473 53.6181 7.23869 56.7507 9.03903L121.191 46.2581C124.311 48.0584 123.927 51.215 120.315 53.2914L109.765 59.3405C106.14 61.4169 100.691 61.645 97.5704 59.8446Z" fill="#6EE8FC"/>
<path d="M34.0064 16.7086L44.5564 10.6595C48.1691 8.57109 53.6181 8.35505 56.7507 10.1554L121.191 47.3744C122.367 48.0465 123.039 48.9227 123.243 49.8469C123.495 48.5026 122.835 47.1944 121.191 46.2462L56.7507 9.02717C53.6301 7.22683 48.1691 7.45487 44.5564 9.53126L34.0064 15.5804C31.75 16.8767 30.7538 18.593 31.0778 20.1413C31.3059 18.929 32.2901 17.6928 34.0064 16.7086Z" fill="#267FE5"/>
<path d="M95.8541 67.1063L22.4602 24.7383C17.2392 21.7257 17.8993 16.4687 23.9245 12.9881L41.5318 2.88218C44.6284 1.09384 48.5291 0.133651 52.2978 0.025631C48.097 -0.0943917 43.5722 0.865796 40.0795 2.88218L22.4602 12.9881C16.4351 16.4687 15.7749 21.7257 20.9959 24.7383L94.3898 67.1063C96.9343 68.5706 100.403 69.2307 103.98 69.1227C100.931 69.0387 98.0505 68.3785 95.8541 67.1063Z" fill="#F88B93"/>
<path d="M133.829 44.3982L60.4354 2.03021C57.8789 0.553935 54.3982 -0.10619 50.7975 0.0138324C53.8461 0.109851 56.7267 0.757973 58.9231 2.03021L132.317 44.3982C137.538 47.4108 136.878 52.6678 130.853 56.1484L113.245 66.2544C110.173 68.0307 106.284 68.9909 102.527 69.1109C106.74 69.2309 111.265 68.2707 114.758 66.2544L132.377 56.1484C138.402 52.6798 139.05 47.4108 133.829 44.3982Z" fill="#6EE8FC"/>
<path opacity="0.5" d="M115.034 108.227C114.782 108.227 114.53 108.167 114.314 108.035C113.761 107.711 113.437 107.039 113.437 106.175V92.0239C113.437 90.5956 114.302 88.9753 115.394 88.3392L128.164 80.9698C128.752 80.6217 129.352 80.5977 129.844 80.8858C130.397 81.2098 130.721 81.8819 130.721 82.7461V96.8968C130.721 98.3251 129.856 99.9454 128.764 100.581L115.994 107.951C115.67 108.131 115.346 108.227 115.034 108.227ZM129.112 81.894C128.98 81.894 128.824 81.966 128.752 82.014L115.982 89.3834C115.25 89.8034 114.626 91.0157 114.626 92.0239V106.175C114.626 106.667 114.77 106.919 114.902 106.991C115.046 107.075 115.286 106.955 115.382 106.907L128.152 99.5373C128.884 99.1172 129.508 97.905 129.508 96.8968V82.7461C129.508 82.254 129.364 82.002 129.232 81.93C129.208 81.906 129.16 81.894 129.112 81.894Z" fill="#0F133B"/>
<path d="M27.1291 63.4334V60.7929C27.1291 59.4247 28.2333 58.9566 29.6016 59.7487L83.1557 90.6426C84.5239 91.4347 85.6281 93.175 85.6281 94.5433V97.1838C85.6281 98.5521 84.5239 99.0202 83.1557 98.228L29.6016 67.3342C28.2333 66.542 27.1291 64.8017 27.1291 63.4334Z" fill="#38025B"/>
<path opacity="0.5" d="M3.29257 81.9049L42.1079 59.4727L94.8219 89.8744L55.9945 112.307L3.29257 81.9049Z" fill="#6EE8FC"/>
<path opacity="0.5" d="M3.31659 78.0162L42.1439 55.584L94.8459 85.9977L56.0185 108.418L3.31659 78.0162Z" fill="#25BFEC"/>
<path opacity="0.5" d="M94.8219 89.8738L94.8459 85.9971L56.0186 108.417L55.9946 112.306L94.8219 89.8738Z" fill="#6EE8FC"/>
<path opacity="0.5" d="M42.1079 59.4727L42.1439 55.584L3.31658 78.0162L3.29257 81.9049L42.1079 59.4727Z" fill="#6EE8FC"/>
<path d="M58.479 114.73L60.6394 113.506H60.6274C60.9995 113.29 61.2275 112.87 61.2275 112.258V109.617C61.2275 108.249 60.1233 106.509 58.7551 105.717L5.20094 74.8229C4.4568 74.3908 3.80868 74.3428 3.35259 74.6068L3.34059 74.5948L1.26419 75.783L2.72847 76.1551V78.5316C2.72847 79.8998 3.83268 81.6401 5.20094 82.4323L58.7551 113.326C58.7551 113.326 58.767 113.326 58.767 113.338L58.479 114.73Z" fill="url(#paint4_linear_36_2266)"/>
<path d="M61.2155 109.605V112.246C61.2155 112.75 61.0595 113.11 60.7954 113.35C60.8675 113.158 60.9155 112.942 60.9155 112.69V109.989C60.9155 108.597 59.7872 106.809 58.395 106.005L3.78468 74.4987C3.74867 74.4747 3.72467 74.4747 3.68866 74.4507C4.10874 74.3667 4.62484 74.4627 5.20095 74.7868L58.7551 105.681C60.1113 106.485 61.2155 108.237 61.2155 109.605Z" fill="#6DE0F6"/>
<path d="M0.592072 79.7078V77.0673C0.592072 75.6991 1.69628 75.231 3.06454 76.0231L56.6187 106.917C57.9869 107.709 59.0911 109.449 59.0911 110.818V113.458C59.0911 114.826 57.9869 115.295 56.6187 114.502L3.06454 83.6086C1.69628 82.8284 0.592072 81.0761 0.592072 79.7078Z" fill="url(#paint5_linear_36_2266)"/>
<path d="M55.0944 71.5459L55.1064 76.3108L60.3273 79.3234V74.5585L55.0944 71.5459Z" fill="#50DEFF"/>
<path d="M52.4659 70.023L46.9208 66.8184V71.5833L52.4779 74.7879L52.4659 70.023Z" fill="#50DEFF"/>
<path d="M62.2597 95.7188L57.9509 93.2344L56.5226 94.0625L60.8315 96.547L62.2597 95.7188Z" fill="#50DEFF"/>
<path d="M61.2396 91.3389L59.8113 92.167L64.1081 94.6515L65.5484 93.8233L61.2396 91.3389Z" fill="#50DEFF"/>
<path d="M36.8989 85.9848L24.7526 78.9755L41.9759 69.0256V64.0566L16.3271 78.8674L36.8989 90.7497V85.9848Z" fill="#50DEFF"/>
<path d="M64.7682 81.8811L71.1894 85.5898L63.0999 90.2587L67.3967 92.7432L79.615 85.6858L64.7682 77.1162V81.8811Z" fill="#50DEFF"/>
<path d="M41.9759 93.6782V88.9133L39.5274 87.4971V92.262L41.9759 93.6782Z" fill="#50DEFF"/>
<path d="M54.6623 95.1311L53.7141 95.6832L46.9208 91.7705V96.5234L53.8942 100.544L58.9711 97.6156L54.6623 95.1311Z" fill="#50DEFF"/>
<path d="M61.0475 85.4454L63.928 83.7891L66.8086 85.4454L63.928 87.1017L61.0475 85.4454Z" fill="#50DEFF"/>
<path d="M56.0425 88.338L58.9231 86.6816L61.8036 88.338L58.9231 90.0063L56.0425 88.338Z" fill="#50DEFF"/>
<path d="M51.5657 85.7579L54.4462 84.1016L57.3268 85.7579L54.4462 87.4262L51.5657 85.7579Z" fill="#50DEFF"/>
<path d="M29.7936 78.9766L32.6741 77.3203L35.5547 78.9766L32.6741 80.6449L29.7936 78.9766Z" fill="#50DEFF"/>
<path d="M56.5826 82.8653L59.4512 81.209L62.3317 82.8653L59.4512 84.5216L56.5826 82.8653Z" fill="#50DEFF"/>
<path d="M51.0376 91.2305L53.9061 89.5742L56.7867 91.2305L53.9181 92.8989L51.0376 91.2305Z" fill="#50DEFF"/>
<path opacity="0.4" d="M82.7836 96.8359L82.8436 92.9231L30.1297 62.5094L32.2781 61.2852L51.3857 69.4707L87.4645 90.2826C87.4645 90.2826 86.1082 94.7115 86.0602 94.6275C86.0002 94.5434 85.6402 95.1916 85.6402 95.1916L82.7836 96.8359Z" fill="#0C0F38"/>
<defs>
<linearGradient id="paint0_linear_36_2266" x1="6.16004" y1="76.5868" x2="152.19" y2="76.5868" gradientUnits="userSpaceOnUse">
<stop stop-color="#A31FA9"/>
<stop offset="0.0668" stop-color="#8B17A0"/>
<stop offset="0.1494" stop-color="#740F98"/>
<stop offset="0.2393" stop-color="#640A92"/>
<stop offset="0.3408" stop-color="#5B078F"/>
<stop offset="0.4785" stop-color="#58068E"/>
<stop offset="0.6264" stop-color="#4D22A3"/>
<stop offset="0.9436" stop-color="#3168DA"/>
<stop offset="1" stop-color="#2C75E4"/>
</linearGradient>
<linearGradient id="paint1_linear_36_2266" x1="12.6501" y1="49.4643" x2="132.202" y2="79.0468" gradientUnits="userSpaceOnUse">
<stop stop-color="#8D139B"/>
<stop offset="0.1651" stop-color="#851BA1"/>
<stop offset="0.4284" stop-color="#6E33B2"/>
<stop offset="0.7551" stop-color="#4958CD"/>
<stop offset="1" stop-color="#2979E4"/>
</linearGradient>
<linearGradient id="paint2_linear_36_2266" x1="6.16004" y1="47.9716" x2="152.19" y2="47.9716" gradientUnits="userSpaceOnUse">
<stop stop-color="#A31FA9"/>
<stop offset="0.0668" stop-color="#8B17A0"/>
<stop offset="0.1494" stop-color="#740F98"/>
<stop offset="0.2393" stop-color="#640A92"/>
<stop offset="0.3408" stop-color="#5B078F"/>
<stop offset="0.4785" stop-color="#58068E"/>
<stop offset="0.6264" stop-color="#4D22A3"/>
<stop offset="0.9436" stop-color="#3168DA"/>
<stop offset="1" stop-color="#2C75E4"/>
</linearGradient>
<linearGradient id="paint3_linear_36_2266" x1="12.6502" y1="34.5697" x2="132.202" y2="64.1523" gradientUnits="userSpaceOnUse">
<stop stop-color="#8D139B"/>
<stop offset="0.1651" stop-color="#851BA1"/>
<stop offset="0.4284" stop-color="#6E33B2"/>
<stop offset="0.7551" stop-color="#4958CD"/>
<stop offset="1" stop-color="#2979E4"/>
</linearGradient>
<linearGradient id="paint4_linear_36_2266" x1="52.8189" y1="78.7272" x2="-1.34089" y2="118.113" gradientUnits="userSpaceOnUse">
<stop stop-color="#2C75E4"/>
<stop offset="0.0564" stop-color="#3168DA"/>
<stop offset="0.3736" stop-color="#4D22A3"/>
<stop offset="0.5215" stop-color="#58068E"/>
<stop offset="0.6592" stop-color="#5B078F"/>
<stop offset="0.7607" stop-color="#640A92"/>
<stop offset="0.8506" stop-color="#740F98"/>
<stop offset="0.9332" stop-color="#8B17A0"/>
<stop offset="1" stop-color="#A31FA9"/>
</linearGradient>
<linearGradient id="paint5_linear_36_2266" x1="30.2045" y1="94.6272" x2="70.7495" y2="24.3448" gradientUnits="userSpaceOnUse">
<stop stop-color="#A31FA9"/>
<stop offset="0.0668" stop-color="#8B17A0"/>
<stop offset="0.1494" stop-color="#740F98"/>
<stop offset="0.2393" stop-color="#640A92"/>
<stop offset="0.3408" stop-color="#5B078F"/>
<stop offset="0.4785" stop-color="#58068E"/>
<stop offset="0.6264" stop-color="#4D22A3"/>
<stop offset="0.9436" stop-color="#3168DA"/>
<stop offset="1" stop-color="#2C75E4"/>
</linearGradient>
</defs>
</svg>
