<svg width="130" height="188" viewBox="0 0 130 188" fill="none" xmlns="http://www.w3.org/2000/svg">
<path d="M22.3176 73.4561H54.8291L91.0148 52.5575C95.6812 49.8639 103.821 50.2065 109.196 53.3135L96.8744 46.1426H129.362V140.204H129.351C129.48 142.023 128.464 143.784 126.232 145.071L60.677 182.911C56.0105 185.604 47.8708 185.262 42.4955 182.155L26.7596 173.129C23.9597 171.51 22.4712 169.467 22.3294 167.506H22.3058V73.4561H22.3176Z" fill="url(#paint0_linear_36_2314)"/>
<path d="M23.2627 73.4561V168.557H23.2863C23.3572 169.502 23.7353 170.471 24.4087 171.392C23.1328 170.164 22.4358 168.829 22.3413 167.517H22.3176V73.4561H23.2627Z" fill="#6EE8FC"/>
<path d="M60.677 88.8604L126.232 51.0208C130.898 48.3273 130.307 43.6254 124.92 40.5184L109.184 31.4927C103.797 28.3856 95.6576 28.043 91.0029 30.7366L25.4483 68.5761C20.7818 71.2697 21.3725 75.9715 26.7478 79.0786L42.4838 88.1043C47.8827 91.2113 56.0223 91.5539 60.677 88.8604Z" fill="url(#paint1_linear_36_2314)"/>
<path d="M59.3893 88.8609L124.944 51.0213C129.61 48.3278 129.02 43.6259 123.644 40.5189L107.909 31.4932C105.144 29.8983 101.659 29.0359 98.2921 28.9414C102.049 28.8351 106.089 29.6975 109.208 31.4932L124.944 40.5189C130.331 43.6259 130.91 48.3278 126.255 51.0213L60.7006 88.8609C58.4324 90.1722 55.3372 90.7629 52.1356 90.6566C54.841 90.5857 57.4282 89.995 59.3893 88.8609Z" fill="#F88B93"/>
<path d="M25.4601 68.5761L91.0148 30.7366C93.2948 29.4252 96.4137 28.8345 99.627 28.9409C96.8981 29.0236 94.3226 29.6143 92.3734 30.7366L26.8187 68.5761C22.1522 71.2697 22.7429 75.9715 28.13 79.0786L43.866 88.1043C46.6186 89.6873 50.08 90.5498 53.4351 90.6561C49.6784 90.7624 45.6262 89.9 42.5074 88.1043L26.7714 79.0786C21.3844 75.9715 20.7937 71.2697 25.4601 68.5761Z" fill="#6EE8FC"/>
<path d="M58.5269 77.9457L107.33 49.7699C110.803 47.7615 110.366 44.2646 106.361 41.9491L106.715 42.1972C102.71 39.8817 96.65 39.6336 93.1767 41.642L44.374 69.8179C40.9007 71.8262 41.3378 75.3231 45.3427 77.6386L44.9883 77.3905C48.9932 79.706 55.0536 79.9541 58.5269 77.9457Z" fill="url(#paint2_linear_36_2314)"/>
<path d="M56.7903 69.1912L92.1489 48.777C94.6653 47.3239 94.3463 44.7957 91.4401 43.1182L104.695 50.8208C101.789 49.1432 97.4061 48.966 94.8897 50.4191L59.5311 70.8333C57.0148 72.2864 57.3337 74.8145 60.2399 76.4921L46.9849 68.7895C49.8911 70.4553 54.274 70.6443 56.7903 69.1912Z" fill="#6DE0F6"/>
<path d="M91.4637 45.8699L104.707 53.5725C101.801 51.8949 97.4061 51.7177 94.8897 53.1708L59.5192 73.5968C58.964 73.9158 58.5623 74.3057 58.2788 74.7073C57.4282 73.3251 57.7944 71.8248 59.5192 70.8324L94.8897 50.4064C97.4061 48.9533 101.801 49.1423 104.707 50.8081L91.4637 43.1055C93.7202 44.405 94.3935 46.2243 93.4012 47.6538C93.0113 47.0276 92.3734 46.4015 91.4637 45.8699Z" fill="#267FE5"/>
<path d="M91.4637 49.2016L104.707 56.9042C101.801 55.2266 97.406 55.0494 94.8897 56.5025L59.5192 76.9286C59.0821 77.1885 58.7513 77.4838 58.4796 77.791C57.3573 76.3261 57.6644 74.6603 59.5192 73.5971L94.8897 53.171C97.406 51.7179 101.801 51.907 104.707 53.5727L91.4637 45.8701C93.8619 47.2523 94.4644 49.2134 93.2003 50.6665C92.7986 50.1467 92.2198 49.6505 91.4637 49.2016Z" fill="#25BFEC"/>
<path d="M92.8578 54.3648C92.4915 53.9749 92.0426 53.6087 91.4638 53.2661L104.707 60.9687C101.801 59.2911 97.4061 59.1139 94.8897 60.567L59.5193 80.993C59.2475 81.1466 59.0349 81.3238 58.8223 81.501C57.3337 79.9416 57.4991 78.0987 59.5193 76.9291L94.8897 56.5031C97.4061 55.05 101.801 55.239 104.707 56.9047L91.4638 49.2021C94.051 50.7025 94.5708 52.8762 92.8578 54.3648Z" fill="#18D0F7"/>
<path d="M22.3176 57.8369H54.8291L91.0148 36.9383C95.6812 34.2448 103.821 34.5874 109.196 37.6944L96.8744 30.5234H129.362V37.2337H129.351C129.48 39.053 128.464 40.8132 126.232 42.1009L60.677 79.9405C56.0105 82.634 47.8708 82.2914 42.4955 79.1844L26.7596 70.1587C23.9597 68.5402 22.4712 66.4964 22.3294 64.5353H22.3058V57.8369H22.3176Z" fill="url(#paint3_linear_36_2314)"/>
<path d="M23.2627 57.8369V65.5868H23.2863C23.3572 66.5319 23.7353 67.5006 24.4087 68.4221C23.1328 67.1934 22.4358 65.8585 22.3413 64.5471H22.3176V57.8369H23.2627Z" fill="#6EE8FC"/>
<path d="M60.677 73.2422L126.232 35.4027C130.898 32.7091 130.307 28.0072 124.92 24.9002L109.184 15.8745C103.797 12.7675 95.6576 12.4249 91.0029 15.1184L25.4483 52.958C20.7818 55.6515 21.3725 60.3534 26.7478 63.4604L42.4838 72.4861C47.8827 75.605 56.0223 75.9358 60.677 73.2422Z" fill="url(#paint4_linear_36_2314)"/>
<path d="M59.3893 73.2427L124.944 35.4032C129.61 32.7096 129.02 28.0077 123.644 24.9007L107.909 15.875C105.144 14.2801 101.659 13.4177 98.2921 13.3232C102.049 13.2169 106.089 14.0793 109.208 15.875L124.944 24.9007C130.331 28.0077 130.91 32.7096 126.255 35.4032L60.7006 73.2427C58.4324 74.5541 55.3372 75.1447 52.1356 75.0384C54.841 74.9675 57.4282 74.3768 59.3893 73.2427Z" fill="#F88B93"/>
<path d="M25.4601 52.9579L91.0148 15.1184C93.2948 13.8071 96.4137 13.2164 99.627 13.3227C96.8981 13.4054 94.3226 13.9961 92.3734 15.1184L26.8187 52.9579C22.1522 55.6515 22.7429 60.3534 28.13 63.4604L43.866 72.4861C46.6186 74.0692 50.08 74.9316 53.4351 75.0379C49.6784 75.1442 45.6262 74.2818 42.5074 72.4861L26.7714 63.4604C21.3844 60.3534 20.7937 55.6515 25.4601 52.9579Z" fill="#6EE8FC"/>
<path d="M58.5269 62.3383L107.33 34.1624C110.803 32.1541 110.366 28.6572 106.361 26.3417L106.715 26.5898C102.71 24.2743 96.65 24.0262 93.1767 26.0345L44.374 54.2104C40.9007 56.2188 41.3378 59.7157 45.3427 62.0312L44.9883 61.7831C48.9932 64.0868 55.0536 64.3348 58.5269 62.3383Z" fill="url(#paint5_linear_36_2314)"/>
<path d="M56.7903 53.572L92.1489 33.1578C94.6653 31.7047 94.3463 29.1766 91.4401 27.499L104.695 35.2016C101.789 33.524 97.4061 33.3468 94.8897 34.7999L59.5311 55.2142C57.0148 56.6673 57.3337 59.1954 60.2399 60.873L46.9849 53.1704C49.8911 54.8361 54.274 55.0251 56.7903 53.572Z" fill="#6DE0F6"/>
<path d="M91.4637 30.2527L104.707 37.9553C101.801 36.2777 97.4061 36.1005 94.8897 37.5536L59.5192 57.9797C58.964 58.2986 58.5623 58.6885 58.2788 59.0902C57.4282 57.7079 57.7944 56.2076 59.5192 55.2152L94.8897 34.7892C97.4061 33.3361 101.801 33.5251 104.707 35.1909L91.4637 27.4883C93.7202 28.7878 94.3935 30.6071 93.4012 32.0366C93.0113 31.4105 92.3734 30.7843 91.4637 30.2527Z" fill="#267FE5"/>
<path d="M91.4637 33.5834L104.707 41.286C101.801 39.6085 97.406 39.4313 94.8897 40.8844L59.5192 61.3104C59.0821 61.5703 58.7513 61.8656 58.4796 62.1728C57.3573 60.7079 57.6644 59.0421 59.5192 57.9789L94.8897 37.5529C97.406 36.0998 101.801 36.2888 104.707 37.9545L91.4637 30.252C93.8619 31.6342 94.4644 33.5953 93.2003 35.0484C92.7986 34.5285 92.2198 34.0324 91.4637 33.5834Z" fill="#25BFEC"/>
<path d="M92.8578 38.7466C92.4915 38.3568 92.0426 37.9905 91.4638 37.6479L104.707 45.3505C101.801 43.673 97.4061 43.4958 94.8897 44.9488L59.5193 65.3749C59.2475 65.5285 59.0349 65.7057 58.8223 65.8829C57.3337 64.3235 57.4991 62.4805 59.5193 61.3109L94.8897 40.8849C97.4061 39.4318 101.801 39.6208 104.707 41.2866L91.4638 33.584C94.051 35.0843 94.5708 37.2699 92.8578 38.7466Z" fill="#18D0F7"/>
<path d="M22.3176 44.5352H54.8291L91.0148 23.6366C95.6812 20.943 103.821 21.2856 109.196 24.3926L96.8744 17.2217H129.362V23.9319H129.351C129.48 25.7512 128.464 27.5115 126.232 28.7992L60.677 66.6387C56.0105 69.3323 47.8708 68.9897 42.4955 65.8827L26.7596 56.8569C23.9597 55.2384 22.4712 53.1947 22.3294 51.2336H22.3058V44.5352H22.3176Z" fill="url(#paint6_linear_36_2314)"/>
<path d="M23.2627 44.5352V52.285H23.2863C23.3572 53.2301 23.7353 54.1988 24.4087 55.1203C23.1328 53.8917 22.4358 52.5567 22.3413 51.2454H22.3176V44.5352H23.2627Z" fill="#6EE8FC"/>
<path d="M60.677 59.9405L126.232 22.1009C130.898 19.4074 130.307 14.7055 124.92 11.5985L109.184 2.57273C103.797 -0.534291 95.6576 -0.87689 91.0029 1.81665L25.4483 39.6562C20.7818 42.3498 21.3725 47.0516 26.7478 50.1587L42.4838 59.1844C47.8827 62.2914 56.0223 62.634 60.677 59.9405Z" fill="url(#paint7_linear_36_2314)"/>
<path d="M57.8534 53.4549L115.41 20.2109C118.198 18.6043 117.856 15.7808 114.63 13.926L105.215 8.51529C101.99 6.66053 97.1225 6.44787 94.3226 8.06636L36.7658 41.3103C33.9778 42.917 34.3203 45.7405 37.5455 47.5953L46.9611 53.006C50.1863 54.8608 55.0654 55.0616 57.8534 53.4549Z" fill="#6EE8FC"/>
<path d="M114.619 14.9303L105.203 9.51954C101.978 7.66477 97.1107 7.45212 94.3108 9.07061L36.7541 42.3146C35.7026 42.9171 35.1001 43.6968 34.9229 44.5238C34.6984 43.3306 35.2892 42.1492 36.7541 41.3104L94.3108 8.06644C97.0989 6.45976 101.978 6.6606 105.203 8.51537L114.619 13.9261C116.627 15.0838 117.525 16.6196 117.23 18.0018C117.029 16.915 116.155 15.8163 114.619 14.9303Z" fill="#267FE5"/>
<path d="M59.3893 59.94L124.944 22.1004C129.61 19.4069 129.02 14.705 123.644 11.598L107.909 2.57225C105.144 0.977389 101.659 0.114987 98.2921 0.0204769C102.049 -0.0858471 106.089 0.776555 109.208 2.57225L124.944 11.598C130.331 14.705 130.91 19.4069 126.255 22.1004L60.7006 59.94C58.4324 61.2513 55.3372 61.842 52.1356 61.7357C54.841 61.6648 57.4282 61.0741 59.3893 59.94Z" fill="#F88B93"/>
<path d="M25.46 39.6562L91.0147 1.81663C93.2948 0.505304 96.4136 -0.0853812 99.627 0.0209429C96.898 0.103639 94.3226 0.694324 92.3733 1.81663L26.8186 39.6562C22.1522 42.3497 22.7429 47.0516 28.13 50.1586L43.8659 59.1844C46.6185 60.7674 50.08 61.6298 53.4351 61.7362C49.6783 61.8425 45.6262 60.9801 42.5073 59.1844L26.7714 50.1586C21.3843 47.0516 20.7936 42.3497 25.46 39.6562Z" fill="#6EE8FC"/>
<path d="M65.4734 168.745L118.718 138.006C120.148 137.179 121.317 134.958 121.317 133.044V67.6664C121.317 65.7525 120.159 64.8783 118.718 65.7053L65.4734 96.4448C64.044 97.2717 62.8744 99.4927 62.8744 101.407V166.784C62.8862 168.686 64.044 169.572 65.4734 168.745Z" fill="#6DE0F6"/>
<path d="M64.5282 168.343L117.773 137.603C119.202 136.776 120.372 134.555 120.372 132.642V67.2642C120.372 66.4136 120.136 65.7756 119.746 65.3976C120.679 65.3858 121.329 66.2364 121.329 67.6658V133.043C121.329 134.957 120.171 137.178 118.73 138.005L65.4851 168.745C64.6936 169.205 63.9966 169.123 63.5122 168.65C63.8194 168.65 64.162 168.544 64.5282 168.343Z" fill="#267FE5"/>
<path d="M33.7533 169.242L36.3642 170.754C37.7109 171.534 38.8096 170.707 38.8096 168.899V98.3354C38.8096 96.5397 37.7109 94.4369 36.3642 93.6572L33.7533 92.145C32.4066 91.3653 31.3079 92.1923 31.3079 93.9998V164.564C31.3079 166.371 32.4066 168.462 33.7533 169.242Z" fill="#22215B"/>
<path opacity="0.5" d="M1.90332 182.272L46.2168 156.684V87.2305L1.90332 112.819V182.272Z" fill="#6EE8FC"/>
<path opacity="0.5" d="M5.75458 184.458L50.0799 158.869V89.416L5.75458 115.005V184.458Z" fill="#25BFEC"/>
<path opacity="0.5" d="M46.2168 87.2305L50.0799 89.416L5.75461 115.005L1.90332 112.819L46.2168 87.2305Z" fill="#6EE8FC"/>
<path opacity="0.5" d="M46.2168 156.684L50.0799 158.869L5.75461 184.458L1.90332 182.272L46.2168 156.684Z" fill="#6EE8FC"/>
<path d="M0.91095 108.98L3.35639 107.55V107.574C3.78169 107.338 4.33693 107.349 4.93944 107.692L7.55029 109.204C8.89706 109.984 9.99573 112.075 9.99573 113.882V184.446C9.99573 185.427 9.66496 186.1 9.15697 186.407L9.16877 186.419L6.81784 187.801L7.29039 186.147L4.95126 184.789C3.60449 184.009 2.5058 181.918 2.5058 180.11V109.547C2.5058 109.535 2.5058 109.535 2.5058 109.523L0.91095 108.98Z" fill="url(#paint8_linear_36_2314)"/>
<path d="M7.55029 109.204L4.93944 107.692C4.44326 107.408 3.99435 107.361 3.60449 107.479C3.82895 107.515 4.07704 107.586 4.32513 107.739L6.99504 109.275C8.37725 110.067 9.48775 112.205 9.48775 114.036V186.006C9.48775 186.053 9.47594 186.088 9.47594 186.124C9.79492 185.757 9.99574 185.19 9.99574 184.434V113.871C9.99574 112.075 8.90888 109.984 7.55029 109.204Z" fill="#6DE0F6"/>
<path d="M2.51759 186.195L5.12844 187.707C6.47521 188.487 7.5739 187.66 7.5739 185.852V115.289C7.5739 113.493 6.47521 111.39 5.12844 110.61L2.51759 109.098C1.17082 108.318 0.0721436 109.145 0.0721436 110.953V181.517C0.0721436 183.324 1.17082 185.415 2.51759 186.195Z" fill="url(#paint9_linear_36_2314)"/>
<path d="M41.6922 136.955L36.9785 134.238V127.351L41.6922 130.068V136.955Z" fill="#50DEFF"/>
<path d="M41.6922 140.416V147.741L36.9785 145.024V137.699L41.6922 140.416Z" fill="#50DEFF"/>
<path d="M21.8687 116.093V121.763L20.2383 122.709V117.038L21.8687 116.093Z" fill="#50DEFF"/>
<path d="M25.6254 119.6L23.9951 120.545V114.863L25.6254 113.93V119.6Z" fill="#50DEFF"/>
<path d="M17.0368 146.713V162.721L36.6949 151.368L41.6095 154.203L12.3231 171.109V143.996L17.0368 146.713Z" fill="#50DEFF"/>
<path d="M36.9785 121.503V113.044L27.7401 118.372V112.702L41.6922 104.645V124.22L36.9785 121.503Z" fill="#50DEFF"/>
<path d="M12.3231 137.31L17.0368 140.027V143.252L12.3231 140.535V137.31Z" fill="#50DEFF"/>
<path d="M18.1237 123.936L17.0368 124.562V133.506L12.3231 130.788V121.597L18.1237 118.254V123.936Z" fill="#50DEFF"/>
<path d="M31.3433 123.145L34.6275 121.243V117.451L31.3433 119.353V123.145Z" fill="#50DEFF"/>
<path d="M25.6254 126.441L28.9097 124.551V120.759L25.6254 122.649V126.441Z" fill="#50DEFF"/>
<path d="M25.6254 132.336L28.9097 130.446V126.653L25.6254 128.544V132.336Z" fill="#50DEFF"/>
<path d="M19.9075 157.735L23.1918 155.833V152.041L19.9075 153.943V157.735Z" fill="#50DEFF"/>
<path d="M31.3433 129.04L34.6275 127.138V123.346L31.3433 125.248V129.04Z" fill="#50DEFF"/>
<path d="M19.9075 129.749L23.1918 127.847V124.055L19.9075 125.957V129.749Z" fill="#50DEFF"/>
<path opacity="0.4" d="M32.4774 95.1573L36.376 97.3193V166.784L38.8096 165.367L41.6094 141.81V94.2713C41.6094 94.2713 36.4586 93.0781 36.5177 93.1844C36.565 93.2908 35.7144 93.279 35.7144 93.279L32.4774 95.1573Z" fill="#0C0F38"/>
<path d="M102.084 100.285L110.531 95.4061V93.9648L102.084 98.8439V100.285Z" fill="#267FE5"/>
<path d="M95.374 104.16L99.6033 101.715V100.285L95.374 102.719V104.16Z" fill="#18D0F7"/>
<path d="M88.9473 107.869L93.1766 105.424V103.994L88.9473 106.428V107.869Z" fill="#267FE5"/>
<path d="M82.5206 111.578L86.7382 109.144V107.703L82.5206 110.149V111.578Z" fill="#267FE5"/>
<path d="M102.084 103.722L110.531 98.8425V97.4131L102.084 102.292V103.722Z" fill="#267FE5"/>
<path d="M95.374 107.597L99.6033 105.151V103.722L95.374 106.167V107.597Z" fill="#18D0F7"/>
<path d="M88.9473 111.307L93.1766 108.873V107.432L88.9473 109.877V111.307Z" fill="#267FE5"/>
<path d="M82.5206 115.016L86.7382 112.583V111.153L82.5206 113.587V115.016Z" fill="#267FE5"/>
<path d="M102.084 107.172L110.531 102.293V100.852L102.084 105.731V107.172Z" fill="#267FE5"/>
<path d="M92.1488 111.472L93.1766 110.881L99.6033 107.16V108.601L93.1766 112.311L92.1488 112.902L88.9473 114.756V113.315L92.1488 111.472Z" fill="#267FE5"/>
<path d="M82.5206 118.466L86.7382 116.02V114.591L82.5206 117.024V118.466Z" fill="#267FE5"/>
<path d="M80.3114 111.413V114.863V116.292V118.301V118.714V119.742L76.0939 122.175V121.159V120.746V118.738V117.296V113.859L80.3114 111.413Z" fill="#267FE5"/>
<path d="M102.084 110.609L110.531 105.73V104.301L102.084 109.18V110.609Z" fill="#18D0F7"/>
<path d="M95.374 114.484L99.6033 112.039V110.609L95.374 113.043V114.484Z" fill="#267FE5"/>
<path d="M88.9473 116.765L90.0814 116.103L93.1767 114.319V115.761L90.0814 117.544L88.9473 118.194L82.5206 121.904V120.474L88.9473 116.765Z" fill="#267FE5"/>
<path d="M76.0939 125.625L80.3114 123.179V121.75L76.0939 124.184V125.625Z" fill="#267FE5"/>
<path d="M102.084 120.935L110.531 116.055V114.626L102.084 119.505V120.935Z" fill="#267FE5"/>
<path d="M95.374 124.81L99.6033 122.377V120.936L95.374 123.381V124.81Z" fill="#267FE5"/>
<path d="M88.9473 127.09L90.0814 126.44L93.1767 124.645V126.086L90.0814 127.87L88.9473 128.519L82.5206 132.241V130.8L88.9473 127.09Z" fill="#267FE5"/>
<path d="M76.0939 135.95L80.3114 133.505V132.075L76.0939 134.509V135.95Z" fill="#267FE5"/>
<path d="M102.084 124.385L110.531 119.506V118.064L102.084 122.944V124.385Z" fill="#267FE5"/>
<path d="M95.374 128.26L99.6033 125.814V124.385L95.374 126.818V128.26Z" fill="#267FE5"/>
<path d="M76.0939 139.389L80.3114 136.955V135.514L76.0939 137.959V139.389Z" fill="#267FE5"/>
<path d="M102.084 127.822L110.531 122.943V121.514L102.084 126.393V127.822Z" fill="#267FE5"/>
<path d="M95.374 131.698L99.6033 129.265V127.823L95.374 130.269V131.698Z" fill="#267FE5"/>
<path d="M88.9473 130.527L90.0814 129.878L93.1767 128.094V129.098V129.523V132.973L90.0814 134.757L88.9473 135.406L82.5206 139.128V135.678V135.253V134.249L88.9473 130.527Z" fill="#18D0F7"/>
<path d="M76.0939 142.838L80.3114 140.392V138.963L76.0939 141.397V142.838Z" fill="#267FE5"/>
<path d="M102.084 114.048L110.531 109.181V107.739L102.084 112.618V114.048Z" fill="#267FE5"/>
<path d="M95.374 117.922L99.6033 115.488V114.047L95.374 116.492V117.922Z" fill="#18D0F7"/>
<path d="M82.5206 125.353L86.7382 122.908V121.479L82.5206 123.912V125.353Z" fill="#267FE5"/>
<path d="M76.0939 129.062L80.3114 126.617V125.188L76.0939 127.633V129.062Z" fill="#267FE5"/>
<path d="M102.084 117.498L110.531 112.619V111.189L102.084 116.057V117.498Z" fill="#267FE5"/>
<path d="M95.374 121.372L99.6033 118.927V117.497L95.374 119.931V121.372Z" fill="#267FE5"/>
<path d="M93.1766 117.77V118.478V119.199V122.637L88.9473 125.082V121.633V120.924V120.203L93.1766 117.77Z" fill="#18D0F7"/>
<path d="M82.5206 128.791L86.7382 126.357V124.916L82.5206 127.361V128.791Z" fill="#267FE5"/>
<path d="M76.0939 132.501L80.3114 130.067V128.638L76.0939 131.071V132.501Z" fill="#267FE5"/>
<defs>
<linearGradient id="paint0_linear_36_2314" x1="139.492" y1="115.444" x2="9.06336" y2="115.444" gradientUnits="userSpaceOnUse">
<stop stop-color="#A31FA9"/>
<stop offset="0.0668" stop-color="#8B17A0"/>
<stop offset="0.1494" stop-color="#740F98"/>
<stop offset="0.2393" stop-color="#640A92"/>
<stop offset="0.3408" stop-color="#5B078F"/>
<stop offset="0.4785" stop-color="#58068E"/>
<stop offset="0.6264" stop-color="#4D22A3"/>
<stop offset="0.9436" stop-color="#3168DA"/>
<stop offset="1" stop-color="#2C75E4"/>
</linearGradient>
<linearGradient id="paint1_linear_36_2314" x1="133.695" y1="59.8001" x2="26.9164" y2="86.2222" gradientUnits="userSpaceOnUse">
<stop stop-color="#8D139B"/>
<stop offset="0.1651" stop-color="#851BA1"/>
<stop offset="0.4284" stop-color="#6E33B2"/>
<stop offset="0.7551" stop-color="#4958CD"/>
<stop offset="1" stop-color="#2979E4"/>
</linearGradient>
<linearGradient id="paint2_linear_36_2314" x1="113.666" y1="59.8009" x2="43.8557" y2="77.0754" gradientUnits="userSpaceOnUse">
<stop stop-color="#630692"/>
<stop offset="0.2262" stop-color="#5B0E94"/>
<stop offset="0.587" stop-color="#432399"/>
<stop offset="1" stop-color="#2142A1"/>
</linearGradient>
<linearGradient id="paint3_linear_36_2314" x1="139.492" y1="56.1539" x2="9.06336" y2="56.1539" gradientUnits="userSpaceOnUse">
<stop stop-color="#A31FA9"/>
<stop offset="0.0668" stop-color="#8B17A0"/>
<stop offset="0.1494" stop-color="#740F98"/>
<stop offset="0.2393" stop-color="#640A92"/>
<stop offset="0.3408" stop-color="#5B078F"/>
<stop offset="0.4785" stop-color="#58068E"/>
<stop offset="0.6264" stop-color="#4D22A3"/>
<stop offset="0.9436" stop-color="#3168DA"/>
<stop offset="1" stop-color="#2C75E4"/>
</linearGradient>
<linearGradient id="paint4_linear_36_2314" x1="133.695" y1="44.1839" x2="26.9165" y2="70.6058" gradientUnits="userSpaceOnUse">
<stop stop-color="#8D139B"/>
<stop offset="0.1651" stop-color="#851BA1"/>
<stop offset="0.4284" stop-color="#6E33B2"/>
<stop offset="0.7551" stop-color="#4958CD"/>
<stop offset="1" stop-color="#2979E4"/>
</linearGradient>
<linearGradient id="paint5_linear_36_2314" x1="113.666" y1="44.1836" x2="43.8555" y2="61.4579" gradientUnits="userSpaceOnUse">
<stop stop-color="#630692"/>
<stop offset="0.2262" stop-color="#5B0E94"/>
<stop offset="0.587" stop-color="#432399"/>
<stop offset="1" stop-color="#2142A1"/>
</linearGradient>
<linearGradient id="paint6_linear_36_2314" x1="139.492" y1="42.8512" x2="9.06336" y2="42.8512" gradientUnits="userSpaceOnUse">
<stop stop-color="#A31FA9"/>
<stop offset="0.0668" stop-color="#8B17A0"/>
<stop offset="0.1494" stop-color="#740F98"/>
<stop offset="0.2393" stop-color="#640A92"/>
<stop offset="0.3408" stop-color="#5B078F"/>
<stop offset="0.4785" stop-color="#58068E"/>
<stop offset="0.6264" stop-color="#4D22A3"/>
<stop offset="0.9436" stop-color="#3168DA"/>
<stop offset="1" stop-color="#2C75E4"/>
</linearGradient>
<linearGradient id="paint7_linear_36_2314" x1="133.695" y1="30.8812" x2="26.9165" y2="57.303" gradientUnits="userSpaceOnUse">
<stop stop-color="#8D139B"/>
<stop offset="0.1651" stop-color="#851BA1"/>
<stop offset="0.4284" stop-color="#6E33B2"/>
<stop offset="0.7551" stop-color="#4958CD"/>
<stop offset="1" stop-color="#2979E4"/>
</linearGradient>
<linearGradient id="paint8_linear_36_2314" x1="33.2896" y1="135.113" x2="-36.5468" y2="166.198" gradientUnits="userSpaceOnUse">
<stop stop-color="#2C75E4"/>
<stop offset="0.0564" stop-color="#3168DA"/>
<stop offset="0.3736" stop-color="#4D22A3"/>
<stop offset="0.5215" stop-color="#58068E"/>
<stop offset="0.6592" stop-color="#5B078F"/>
<stop offset="0.7607" stop-color="#640A92"/>
<stop offset="0.8506" stop-color="#740F98"/>
<stop offset="0.9332" stop-color="#8B17A0"/>
<stop offset="1" stop-color="#A31FA9"/>
</linearGradient>
<linearGradient id="paint9_linear_36_2314" x1="4.66901" y1="148.404" x2="97.2521" y2="148.404" gradientUnits="userSpaceOnUse">
<stop stop-color="#2C75E4"/>
<stop offset="0.0564" stop-color="#3168DA"/>
<stop offset="0.3736" stop-color="#4D22A3"/>
<stop offset="0.5215" stop-color="#58068E"/>
<stop offset="0.6592" stop-color="#5B078F"/>
<stop offset="0.7607" stop-color="#640A92"/>
<stop offset="0.8506" stop-color="#740F98"/>
<stop offset="0.9332" stop-color="#8B17A0"/>
<stop offset="1" stop-color="#A31FA9"/>
</linearGradient>
</defs>
</svg>
