<svg width="1915" height="560" viewBox="0 0 1915 560" fill="none" xmlns="http://www.w3.org/2000/svg">
<path d="M1682.78 226.542C1684.41 229.39 1683.46 233.003 1680.64 234.638C1677.82 236.273 1674.21 235.297 1672.55 232.449C1670.91 229.601 1671.86 225.989 1674.68 224.354C1677.5 222.719 1681.14 223.695 1682.78 226.542Z" fill="#70E8FC"/>
<path d="M1713.47 208.822C1715.11 211.67 1714.16 215.282 1711.33 216.917C1708.51 218.552 1704.9 217.576 1703.24 214.729C1701.6 211.881 1702.55 208.268 1705.38 206.633C1708.2 204.998 1711.81 205.974 1713.47 208.822Z" fill="#70E8FC"/>
<path d="M1747.25 208.268C1746.46 209.719 1745.04 210.562 1743.74 211.116C1742.48 211.644 1741.21 211.802 1740 211.406C1737.65 210.589 1735.81 207.688 1736.18 204.418C1736.54 201.175 1740 198.854 1743.82 200.146C1745.69 200.753 1747.14 202.177 1747.72 203.733C1748.36 205.236 1748.01 206.818 1747.25 208.268Z" fill="#70E8FC"/>
<path d="M1777.92 225.963C1776.28 228.811 1772.64 229.787 1769.82 228.152C1767 226.517 1766.05 222.904 1767.69 220.056C1769.32 217.208 1772.96 216.233 1775.78 217.867C1778.6 219.502 1779.58 223.141 1777.92 225.963Z" fill="#70E8FC"/>
<path d="M1808.61 243.683C1806.98 246.531 1803.34 247.506 1800.52 245.871C1797.7 244.236 1796.75 240.624 1798.38 237.776C1800.02 234.928 1803.66 233.952 1806.48 235.587C1809.3 237.222 1810.27 240.861 1808.61 243.683Z" fill="#70E8FC"/>
<path d="M1839.31 261.403C1837.67 264.251 1834.03 265.227 1831.21 263.592C1828.39 261.957 1827.44 258.345 1829.08 255.497C1830.71 252.649 1834.35 251.673 1837.17 253.308C1839.99 254.943 1840.94 258.555 1839.31 261.403Z" fill="#70E8FC"/>
<path d="M1870 279.123C1868.37 281.971 1864.73 282.947 1861.91 281.312C1859.08 279.677 1858.14 276.064 1859.77 273.216C1861.4 270.368 1865.04 269.393 1867.87 271.028C1870.69 272.663 1871.64 276.275 1870 279.123Z" fill="#70E8FC"/>
<path d="M1900.7 296.844C1899.06 299.692 1895.42 300.667 1892.6 299.032C1889.78 297.398 1888.83 293.785 1890.46 290.937C1892.1 288.089 1895.74 287.113 1898.56 288.748C1901.38 290.383 1902.33 293.996 1900.7 296.844Z" fill="#70E8FC"/>
<path d="M1903.57 320.92C1902.75 319.496 1902.57 317.887 1902.96 316.411C1903.15 315.672 1903.49 314.987 1903.94 314.38C1904.15 314.09 1904.47 313.774 1904.68 313.536C1904.86 313.325 1905.07 313.141 1905.31 312.983C1906.21 312.376 1907.26 312.323 1908.5 312.481C1909.79 312.666 1911.3 312.93 1912.75 313.747C1914.17 314.538 1915.12 316.015 1914.99 317.835C1914.91 319.68 1913.75 321.632 1911.96 322.845C1911.51 323.135 1911.03 323.372 1910.58 323.583C1910.14 323.768 1909.82 323.82 1909.42 323.873C1908.66 323.979 1907.89 323.9 1907.16 323.715C1905.71 323.293 1904.39 322.344 1903.57 320.92Z" fill="#70E8FC"/>
<path d="M1872.88 338.64C1871.24 335.792 1872.19 332.179 1875.01 330.544C1877.83 328.909 1881.45 329.885 1883.11 332.733C1884.74 335.581 1883.79 339.193 1880.97 340.828C1878.15 342.463 1874.54 341.488 1872.88 338.64Z" fill="#70E8FC"/>
<path d="M1842.21 356.359C1840.57 353.511 1841.52 349.899 1844.34 348.264C1847.16 346.629 1850.78 347.605 1852.44 350.453C1854.07 353.301 1853.12 356.94 1850.3 358.548C1847.45 360.183 1843.84 359.207 1842.21 356.359Z" fill="#70E8FC"/>
<path d="M1811.51 374.081C1809.88 371.233 1810.83 367.594 1813.65 365.985C1816.47 364.351 1820.08 365.326 1821.74 368.174C1823.38 371.022 1822.43 374.635 1819.61 376.27C1816.76 377.905 1813.15 376.902 1811.51 374.081Z" fill="#70E8FC"/>
<path d="M1780.82 391.801C1779.18 388.953 1780.13 385.34 1782.96 383.705C1785.78 382.07 1789.39 383.046 1791.05 385.894C1792.69 388.742 1791.74 392.354 1788.91 393.989C1786.09 395.624 1782.45 394.622 1780.82 391.801Z" fill="#70E8FC"/>
<path d="M1750.12 409.495C1748.49 406.647 1749.44 403.008 1752.26 401.4C1755.08 399.765 1758.7 400.74 1760.36 403.588C1761.99 406.436 1761.04 410.049 1758.22 411.684C1755.4 413.345 1751.76 412.343 1750.12 409.495Z" fill="#70E8FC"/>
<path d="M1719.43 427.216C1717.8 424.368 1718.75 420.755 1721.57 419.12C1724.39 417.485 1728 418.461 1729.66 421.309C1731.3 424.157 1730.35 427.77 1727.53 429.405C1724.7 431.066 1721.09 430.064 1719.43 427.216Z" fill="#70E8FC"/>
<path d="M1688.74 444.936C1687.1 442.088 1688.05 438.449 1690.87 436.84C1693.69 435.205 1697.31 436.181 1698.97 439.029C1700.6 441.877 1699.65 445.516 1696.83 447.124C1694.01 448.786 1690.4 447.784 1688.74 444.936Z" fill="#70E8FC"/>
<path d="M1658.17 462.841C1657.15 461.575 1656.78 459.888 1657.3 458.305C1657.44 457.91 1657.62 457.514 1657.83 457.119C1658.02 456.776 1658.2 456.46 1658.44 456.143C1658.91 455.537 1659.49 455.009 1660.2 454.587C1663.03 452.952 1666.64 453.928 1668.3 456.776C1669.93 459.624 1668.99 463.237 1666.16 464.872C1663.11 466.559 1660.39 465.214 1658.17 462.841Z" fill="#70E8FC"/>
<path d="M1673.42 486.732C1671.78 489.58 1668.14 490.556 1665.32 488.921C1662.5 487.286 1661.55 483.674 1663.18 480.826C1664.82 477.978 1668.46 477.002 1671.28 478.637C1674.1 480.246 1675.05 483.885 1673.42 486.732Z" fill="#70E8FC"/>
<path d="M1704.11 504.452C1702.47 507.3 1698.84 508.276 1696.01 506.641C1693.19 505.006 1692.24 501.393 1693.88 498.545C1695.51 495.697 1699.15 494.722 1701.97 496.357C1704.8 497.965 1705.74 501.604 1704.11 504.452Z" fill="#70E8FC"/>
<path d="M1106.97 232.239C1108.6 229.391 1112.27 228.442 1115.14 230.103C1118.02 231.764 1119.02 235.403 1117.36 238.251C1115.72 241.099 1112.06 242.048 1109.19 240.387C1106.34 238.752 1105.34 235.087 1106.97 232.239Z" fill="#70E8FC"/>
<path d="M1075.75 214.228C1077.38 211.38 1081.05 210.431 1083.92 212.092C1086.8 213.754 1087.8 217.393 1086.14 220.24C1084.5 223.088 1080.84 224.038 1077.96 222.376C1075.12 220.715 1074.11 217.076 1075.75 214.228Z" fill="#70E8FC"/>
<path d="M1044.45 196.428C1045.08 194.925 1046.32 193.765 1047.93 193.396C1048.69 193.185 1049.72 193.211 1050.49 193.317C1051.25 193.422 1052.02 193.66 1052.75 194.082C1055.63 195.743 1056.63 199.382 1054.97 202.23C1053.33 205.078 1049.67 206.027 1046.79 204.366C1046.08 203.944 1045.48 203.416 1045 202.783C1044.53 202.151 1044.37 201.623 1044.18 200.911C1043.84 199.514 1043.79 197.958 1044.45 196.428Z" fill="#70E8FC"/>
<path d="M1009.9 199.698C1009.09 198.275 1008.93 196.64 1009.32 195.189C1009.53 194.451 1009.88 193.739 1010.35 193.132C1010.96 192.473 1011.77 191.84 1012.67 191.418C1016.47 189.678 1020.16 191.682 1020.85 194.873C1021.53 198.09 1019.92 201.149 1017.66 202.23C1017.08 202.52 1016.49 202.652 1015.84 202.652C1015.07 202.757 1014.28 202.705 1013.54 202.494C1012.06 202.072 1010.75 201.122 1009.9 199.698Z" fill="#70E8FC"/>
<path d="M978.708 217.736C977.073 214.888 978.075 211.249 980.923 209.587C983.797 207.926 987.463 208.902 989.097 211.723C990.732 214.571 989.73 218.21 986.882 219.872C984.008 221.533 980.343 220.583 978.708 217.736Z" fill="#70E8FC"/>
<path d="M947.486 235.746C945.851 232.898 946.853 229.259 949.701 227.598C952.575 225.937 956.241 226.912 957.876 229.734C959.511 232.582 958.509 236.221 955.661 237.882C952.786 239.544 949.147 238.594 947.486 235.746Z" fill="#70E8FC"/>
<path d="M916.291 253.757C914.656 250.909 915.658 247.27 918.506 245.609C921.38 243.948 925.045 244.923 926.68 247.745C928.315 250.593 927.313 254.232 924.465 255.893C921.591 257.581 917.926 256.605 916.291 253.757Z" fill="#70E8FC"/>
<path d="M893.956 277.304C892.505 278.121 890.844 278.174 889.236 277.013C887.733 275.853 886.572 273.216 887.152 270.368C887.68 267.494 889.631 265.754 891.319 265.2C893.085 264.672 894.668 265.173 895.854 266.334C897.014 267.468 897.674 268.971 898.122 270.157C898.597 271.397 898.86 272.214 898.834 272.662C898.755 273.111 898.122 273.48 897.252 274.403C896.434 275.247 895.353 276.512 893.956 277.304Z" fill="#70E8FC"/>
<path d="M923.912 296.844C922.277 299.692 918.612 300.641 915.737 298.98C912.863 297.319 911.861 293.68 913.522 290.832C915.157 287.984 918.823 287.034 921.697 288.696C924.545 290.357 925.547 293.996 923.912 296.844Z" fill="#70E8FC"/>
<path d="M955.133 314.854C953.498 317.702 949.833 318.651 946.958 316.99C944.084 315.328 943.082 311.689 944.743 308.841C946.378 305.994 950.044 305.044 952.918 306.705C955.766 308.367 956.768 312.006 955.133 314.854Z" fill="#70E8FC"/>
<path d="M986.329 332.892C984.694 335.74 981.028 336.689 978.154 335.028C975.28 333.366 974.278 329.727 975.939 326.88C977.574 324.032 981.239 323.082 984.114 324.744C986.988 326.378 987.964 330.044 986.329 332.892Z" fill="#70E8FC"/>
<path d="M1017.55 350.902C1015.92 353.75 1012.25 354.699 1009.38 353.038C1006.5 351.376 1005.5 347.737 1007.16 344.889C1008.8 342.041 1012.46 341.092 1015.34 342.753C1018.18 344.415 1019.19 348.054 1017.55 350.902Z" fill="#70E8FC"/>
<path d="M1048.75 368.912C1047.11 371.76 1043.45 372.71 1040.57 371.048C1037.7 369.387 1036.69 365.748 1038.36 362.9C1039.99 360.052 1043.66 359.103 1046.53 360.764C1049.4 362.425 1050.41 366.064 1048.75 368.912Z" fill="#70E8FC"/>
<path d="M1079.97 386.948C1078.33 389.796 1074.67 390.746 1071.79 389.084C1068.92 387.423 1067.92 383.784 1069.58 380.936C1071.21 378.088 1074.88 377.139 1077.75 378.8C1080.6 380.435 1081.6 384.101 1079.97 386.948Z" fill="#70E8FC"/>
<path d="M1111.19 404.959C1109.55 407.807 1105.89 408.756 1103.01 407.095C1100.14 405.434 1099.14 401.795 1100.8 398.947C1102.46 396.099 1106.1 395.15 1108.97 396.811C1111.82 398.472 1112.82 402.111 1111.19 404.959Z" fill="#70E8FC"/>
<path d="M1142.38 422.97C1140.75 425.818 1137.08 426.767 1134.21 425.106C1131.33 423.445 1130.33 419.806 1131.99 416.958C1133.66 414.11 1137.29 413.16 1140.17 414.822C1143.04 416.483 1144.02 420.122 1142.38 422.97Z" fill="#70E8FC"/>
<path d="M1173.61 441.007C1171.97 443.855 1168.31 444.804 1165.43 443.143C1162.56 441.482 1161.55 437.843 1163.22 434.995C1164.85 432.147 1168.52 431.198 1171.39 432.859C1174.24 434.494 1175.24 438.159 1173.61 441.007Z" fill="#70E8FC"/>
<path d="M1204.8 459.018C1203.17 461.866 1199.5 462.815 1196.63 461.154C1193.75 459.492 1192.75 455.853 1194.41 453.005C1196.05 450.158 1199.71 449.208 1202.59 450.87C1205.46 452.531 1206.46 456.17 1204.8 459.018Z" fill="#70E8FC"/>
<path d="M1236.02 477.028C1234.39 479.875 1230.72 480.825 1227.85 479.164C1224.97 477.502 1223.97 473.863 1225.63 471.015C1227.27 468.167 1230.93 467.218 1233.81 468.879C1236.66 470.541 1237.66 474.206 1236.02 477.028Z" fill="#70E8FC"/>
<path d="M1267.24 495.065C1265.61 497.913 1261.94 498.862 1259.07 497.201C1256.2 495.539 1255.19 491.9 1256.85 489.052C1258.49 486.204 1262.15 485.255 1265.03 486.916C1267.88 488.551 1268.88 492.217 1267.24 495.065Z" fill="#70E8FC"/>
<path d="M1298.31 513.286C1297.25 514.578 1295.91 515.29 1294.56 515.765C1293.38 516.239 1291.72 516.081 1290.26 515.237C1287.39 513.576 1286.39 509.937 1288.05 507.089C1289.68 504.241 1293.35 503.292 1296.22 504.953C1297.65 505.77 1298.6 507.089 1299.23 508.777C1299.73 510.332 1299.34 512.046 1298.31 513.286Z" fill="#70E8FC"/>
<path d="M1283.94 538.126C1282.3 535.278 1283.3 531.639 1286.15 529.978C1289 528.317 1292.69 529.292 1294.33 532.114C1295.96 534.962 1294.96 538.601 1292.11 540.262C1289.24 541.95 1285.57 540.974 1283.94 538.126Z" fill="#70E8FC"/>
<path d="M1252.71 556.163C1251.08 553.315 1252.08 549.676 1254.93 548.015C1257.8 546.354 1261.47 547.329 1263.1 550.151C1264.74 552.999 1263.74 556.638 1260.89 558.299C1258.01 559.961 1254.38 559.011 1252.71 556.163Z" fill="#70E8FC"/>
<path d="M1215.19 170.271C1216.83 167.423 1220.46 166.447 1223.29 168.082C1226.11 169.717 1227.08 173.356 1225.45 176.204C1223.81 179.052 1220.17 180.028 1217.35 178.393C1214.53 176.758 1213.56 173.119 1215.19 170.271Z" fill="#70E8FC"/>
<path d="M1184.44 152.524C1186.08 149.676 1189.72 148.7 1192.54 150.335C1195.36 151.97 1196.34 155.609 1194.7 158.457C1193.07 161.305 1189.43 162.281 1186.61 160.646C1183.76 158.984 1182.81 155.372 1184.44 152.524Z" fill="#70E8FC"/>
<path d="M1153.8 134.592C1154.83 133.3 1156.17 132.535 1157.52 132.061C1158.71 131.586 1160.39 131.771 1161.79 132.588C1164.61 134.223 1165.59 137.862 1163.95 140.71C1162.32 143.558 1158.68 144.534 1155.86 142.899C1154.43 142.081 1153.54 140.816 1152.93 139.128C1152.4 137.546 1152.77 135.858 1153.8 134.592Z" fill="#70E8FC"/>
<path d="M1166.09 109.541C1167.73 112.389 1166.78 116.028 1163.93 117.663C1161.11 119.298 1157.47 118.296 1155.83 115.501C1154.17 112.627 1155.15 109.014 1157.97 107.379C1160.82 105.718 1164.46 106.694 1166.09 109.541Z" fill="#70E8FC"/>
<path d="M1196.86 91.768C1198.5 94.6159 1197.55 98.255 1194.7 99.8899C1191.88 101.525 1188.24 100.549 1186.61 97.7012C1184.97 94.8533 1185.92 91.2143 1188.77 89.5794C1191.59 87.9444 1195.2 88.9201 1196.86 91.768Z" fill="#70E8FC"/>
<path d="M1227.61 74.022C1229.25 76.8699 1228.3 80.5089 1225.45 82.1438C1222.63 83.7787 1218.99 82.8031 1217.35 79.9551C1215.72 77.1072 1216.67 73.4682 1219.52 71.8332C1222.34 70.1983 1225.98 71.1741 1227.61 74.022Z" fill="#70E8FC"/>
<path d="M1258.38 56.2485C1260.02 59.0964 1259.07 62.7355 1256.22 64.3704C1253.4 66.0053 1249.76 65.0296 1248.13 62.1816C1246.49 59.3337 1247.44 55.6947 1250.29 54.0598C1253.11 52.4249 1256.72 53.4006 1258.38 56.2485Z" fill="#70E8FC"/>
<path d="M1289.13 38.5015C1290.77 41.3494 1289.82 44.9884 1286.97 46.6233C1284.15 48.2582 1280.51 47.2826 1278.87 44.4346C1277.24 41.5867 1278.19 37.9477 1281.04 36.3127C1283.88 34.6778 1287.5 35.6535 1289.13 38.5015Z" fill="#70E8FC"/>
<path d="M1319.9 20.728C1321.54 23.5759 1320.59 27.2149 1317.74 28.8499C1314.92 30.4848 1311.28 29.5091 1309.65 26.6611C1308.01 23.8132 1308.96 20.1742 1311.81 18.5393C1314.63 16.9044 1318.27 17.88 1319.9 20.728Z" fill="#70E8FC"/>
<path d="M1350.65 2.98096C1352.29 5.82888 1351.34 9.46785 1348.49 11.1028C1345.67 12.7377 1342.03 11.762 1340.39 8.91413C1338.76 6.06621 1339.71 2.42715 1342.56 0.792234C1345.4 -0.842683 1349.02 0.133038 1350.65 2.98096Z" fill="#70E8FC"/>
<path d="M227.223 332.575C225.588 329.727 226.537 326.114 229.359 324.479C232.181 322.844 235.793 323.82 237.454 326.668C239.089 329.516 238.14 333.129 235.319 334.763C232.497 336.398 228.858 335.423 227.223 332.575Z" fill="#70E8FC"/>
<path d="M196.529 350.294C194.894 347.447 195.843 343.834 198.665 342.199C201.487 340.564 205.099 341.54 206.761 344.388C208.395 347.236 207.446 350.848 204.625 352.483C201.803 354.118 198.19 353.142 196.529 350.294Z" fill="#70E8FC"/>
<path d="M162.75 350.849C163.541 349.399 164.965 348.555 166.257 348.001C167.523 347.474 168.788 347.315 170.001 347.711C172.348 348.528 174.194 351.429 173.825 354.699C173.456 357.942 170.001 360.263 166.178 358.971C164.306 358.364 162.855 356.94 162.275 355.384C161.642 353.881 161.985 352.299 162.75 350.849Z" fill="#70E8FC"/>
<path d="M132.081 333.155C133.716 330.307 137.355 329.332 140.177 330.967C142.998 332.601 143.948 336.214 142.313 339.062C140.678 341.91 137.039 342.886 134.217 341.251C131.396 339.616 130.42 335.977 132.081 333.155Z" fill="#70E8FC"/>
<path d="M101.387 315.435C103.022 312.587 106.661 311.611 109.483 313.246C112.304 314.881 113.254 318.493 111.619 321.341C109.984 324.189 106.345 325.165 103.523 323.53C100.702 321.895 99.7261 318.256 101.387 315.435Z" fill="#70E8FC"/>
<path d="M70.6933 297.714C72.3282 294.866 75.9672 293.89 78.7888 295.525C81.6103 297.16 82.5596 300.773 80.9247 303.621C79.2898 306.468 75.6508 307.444 72.8292 305.809C70.0077 304.174 69.0584 300.562 70.6933 297.714Z" fill="#70E8FC"/>
<path d="M39.9986 279.993C41.6336 277.145 45.2725 276.17 48.0941 277.804C50.9156 279.439 51.865 283.052 50.2301 285.9C48.5951 288.748 44.9561 289.724 42.1346 288.089C39.313 286.454 38.3637 282.841 39.9986 279.993Z" fill="#70E8FC"/>
<path d="M9.30473 262.272C10.9396 259.424 14.5786 258.449 17.4002 260.084C20.2217 261.719 21.1711 265.331 19.5362 268.179C17.9012 271.027 14.2622 272.003 11.4407 270.368C8.61911 268.733 7.66981 265.12 9.30473 262.272Z" fill="#70E8FC"/>
<path d="M6.43026 238.197C7.24771 239.621 7.43229 241.23 7.03675 242.707C6.85216 243.445 6.50937 244.131 6.06108 244.737C5.85013 245.027 5.53369 245.344 5.32274 245.581C5.13815 245.792 4.92718 245.976 4.68985 246.135C3.79328 246.741 2.73848 246.794 1.49911 246.636C0.206995 246.451 -1.29608 246.187 -2.7464 245.37C-4.17036 244.579 -5.11965 243.102 -4.9878 241.283C-4.90869 239.437 -3.74844 237.485 -1.95531 236.272C-1.50702 235.982 -1.03236 235.745 -0.584076 235.534C-0.135792 235.349 0.18065 235.297 0.576194 235.244C1.34091 235.139 2.10563 235.218 2.84398 235.402C4.29431 235.824 5.6128 236.773 6.43026 238.197Z" fill="#70E8FC"/>
<path d="M37.1245 220.478C38.7594 223.325 37.8101 226.938 34.9885 228.573C32.167 230.208 28.5543 229.232 26.893 226.384C25.2581 223.536 26.2074 219.924 29.029 218.289C31.8505 216.654 35.4632 217.63 37.1245 220.478Z" fill="#70E8FC"/>
<path d="M67.7926 202.757C69.4276 205.605 68.4783 209.217 65.6567 210.852C62.8352 212.487 59.2225 211.512 57.5613 208.664C55.9263 205.816 56.8756 202.177 59.6972 200.568C62.5451 198.933 66.1577 199.909 67.7926 202.757Z" fill="#70E8FC"/>
<path d="M98.4866 185.036C100.122 187.884 99.1722 191.523 96.3507 193.132C93.5291 194.767 89.9165 193.791 88.2552 190.943C86.6203 188.095 87.5696 184.482 90.3912 182.848C93.2391 181.213 96.8517 182.215 98.4866 185.036Z" fill="#70E8FC"/>
<path d="M129.181 167.317C130.815 170.164 129.866 173.777 127.045 175.412C124.223 177.047 120.61 176.071 118.949 173.223C117.314 170.375 118.264 166.763 121.085 165.128C123.907 163.493 127.546 164.495 129.181 167.317Z" fill="#70E8FC"/>
<path d="M159.875 149.622C161.51 152.47 160.561 156.109 157.739 157.717C154.918 159.352 151.305 158.377 149.644 155.529C148.009 152.681 148.958 149.068 151.78 147.433C154.601 145.772 158.24 146.774 159.875 149.622Z" fill="#70E8FC"/>
<path d="M190.569 131.901C192.204 134.749 191.255 138.362 188.433 139.997C185.612 141.632 181.999 140.656 180.338 137.808C178.703 134.96 179.652 131.348 182.474 129.713C185.295 128.051 188.908 129.053 190.569 131.901Z" fill="#70E8FC"/>
<path d="M221.264 114.182C222.899 117.03 221.949 120.669 219.128 122.277C216.306 123.912 212.694 122.936 211.032 120.088C209.398 117.24 210.347 113.601 213.168 111.993C215.99 110.332 219.603 111.334 221.264 114.182Z" fill="#70E8FC"/>
<path d="M251.826 96.2761C252.854 97.5419 253.223 99.2295 252.696 100.812C252.564 101.207 252.38 101.603 252.169 101.998C251.984 102.341 251.8 102.658 251.562 102.974C251.088 103.581 250.507 104.108 249.795 104.53C246.974 106.165 243.361 105.189 241.7 102.341C240.065 99.4932 241.014 95.8806 243.836 94.2457C246.895 92.558 249.611 93.9028 251.826 96.2761Z" fill="#70E8FC"/>
<path d="M236.584 72.3857C238.219 69.5378 241.858 68.5621 244.68 70.197C247.501 71.8319 248.451 75.4446 246.816 78.2925C245.181 81.1404 241.542 82.1161 238.72 80.4812C235.899 78.8727 234.95 75.2336 236.584 72.3857Z" fill="#70E8FC"/>
<path d="M205.89 54.665C207.525 51.8171 211.164 50.8414 213.986 52.4763C216.807 54.1112 217.757 57.7239 216.122 60.5718C214.487 63.4197 210.848 64.3954 208.026 62.7605C205.205 61.152 204.256 57.5129 205.89 54.665Z" fill="#70E8FC"/>
<path d="M803.03 326.878C801.395 329.726 797.73 330.675 794.855 329.014C791.981 327.353 790.979 323.714 792.64 320.866C794.275 318.018 797.941 317.069 800.815 318.73C803.663 320.365 804.665 324.03 803.03 326.878Z" fill="#70E8FC"/>
<path d="M834.252 344.89C832.617 347.738 828.951 348.687 826.077 347.026C823.203 345.365 822.201 341.726 823.862 338.878C825.497 336.03 829.162 335.08 832.037 336.742C834.885 338.403 835.887 342.042 834.252 344.89Z" fill="#70E8FC"/>
<path d="M865.553 362.689C864.92 364.192 863.68 365.352 862.072 365.721C861.307 365.932 860.279 365.906 859.514 365.8C858.749 365.695 857.985 365.458 857.246 365.036C854.372 363.374 853.37 359.735 855.031 356.887C856.666 354.04 860.332 353.09 863.206 354.752C863.918 355.173 864.524 355.701 864.999 356.334C865.474 356.967 865.632 357.494 865.816 358.206C866.159 359.604 866.212 361.159 865.553 362.689Z" fill="#70E8FC"/>
<path d="M900.097 359.419C900.915 360.843 901.073 362.478 900.678 363.928C900.467 364.666 900.124 365.378 899.649 365.985C899.043 366.644 898.225 367.277 897.329 367.699C893.531 369.439 889.84 367.435 889.154 364.244C888.468 361.027 890.077 357.968 892.345 356.887C892.925 356.597 893.505 356.465 894.164 356.465C894.929 356.36 895.72 356.413 896.458 356.624C897.935 357.045 899.254 357.995 900.097 359.419Z" fill="#70E8FC"/>
<path d="M931.292 341.382C932.927 344.23 931.925 347.869 929.077 349.53C926.203 351.191 922.537 350.215 920.903 347.394C919.268 344.546 920.27 340.907 923.118 339.246C925.992 337.584 929.657 338.534 931.292 341.382Z" fill="#70E8FC"/>
<path d="M962.514 323.371C964.149 326.219 963.147 329.858 960.299 331.519C957.425 333.18 953.759 332.205 952.124 329.383C950.489 326.535 951.491 322.896 954.339 321.235C957.214 319.574 960.853 320.523 962.514 323.371Z" fill="#70E8FC"/>
<path d="M993.709 305.36C995.344 308.208 994.342 311.847 991.494 313.508C988.62 315.17 984.955 314.194 983.32 311.372C981.685 308.524 982.687 304.885 985.535 303.224C988.409 301.537 992.074 302.512 993.709 305.36Z" fill="#70E8FC"/>
<path d="M1016.04 281.813C1017.49 280.995 1019.16 280.942 1020.76 282.103C1022.27 283.263 1023.43 285.9 1022.85 288.748C1022.32 291.622 1020.37 293.363 1018.68 293.916C1016.91 294.444 1015.33 293.943 1014.15 292.782C1012.99 291.649 1012.33 290.145 1011.88 288.959C1011.4 287.719 1011.14 286.902 1011.17 286.454C1011.25 286.005 1011.88 285.636 1012.75 284.713C1013.57 283.87 1014.65 282.604 1016.04 281.813Z" fill="#70E8FC"/>
<path d="M986.088 262.273C987.723 259.425 991.388 258.476 994.263 260.137C997.137 261.799 998.139 265.438 996.478 268.286C994.843 271.133 991.177 272.083 988.303 270.421C985.455 268.76 984.453 265.121 986.088 262.273Z" fill="#70E8FC"/>
<path d="M954.867 244.263C956.502 241.415 960.167 240.465 963.042 242.127C965.916 243.788 966.918 247.427 965.257 250.275C963.622 253.123 959.956 254.072 957.082 252.411C954.234 250.749 953.232 247.11 954.867 244.263Z" fill="#70E8FC"/>
<path d="M923.671 226.225C925.306 223.377 928.972 222.428 931.846 224.089C934.72 225.751 935.722 229.39 934.061 232.238C932.426 235.086 928.761 236.035 925.886 234.374C923.012 232.739 922.036 229.073 923.671 226.225Z" fill="#70E8FC"/>
<path d="M892.449 208.216C894.084 205.368 897.75 204.418 900.624 206.08C903.498 207.741 904.5 211.38 902.839 214.228C901.204 217.076 897.539 218.025 894.664 216.364C891.816 214.703 890.815 211.064 892.449 208.216Z" fill="#70E8FC"/>
<path d="M861.254 190.206C862.889 187.358 866.554 186.409 869.429 188.07C872.303 189.731 873.305 193.37 871.644 196.218C870.009 199.066 866.344 200.015 863.469 198.354C860.595 196.693 859.593 193.054 861.254 190.206Z" fill="#70E8FC"/>
<path d="M830.033 172.169C831.668 169.321 835.333 168.372 838.207 170.033C841.082 171.694 842.084 175.333 840.423 178.181C838.788 181.029 835.122 181.978 832.248 180.317C829.4 178.682 828.398 175.017 830.033 172.169Z" fill="#70E8FC"/>
<path d="M798.811 154.157C800.446 151.309 804.111 150.36 806.986 152.021C809.86 153.682 810.862 157.321 809.201 160.169C807.539 163.017 803.9 163.967 801.026 162.305C798.178 160.644 797.176 157.005 798.811 154.157Z" fill="#70E8FC"/>
<path d="M767.616 136.147C769.251 133.299 772.917 132.35 775.791 134.011C778.665 135.673 779.667 139.312 778.006 142.16C776.345 145.007 772.706 145.957 769.831 144.295C766.957 142.634 765.981 138.995 767.616 136.147Z" fill="#70E8FC"/>
<path d="M736.394 118.11C738.029 115.262 741.695 114.313 744.569 115.974C747.443 117.635 748.445 121.274 746.784 124.122C745.149 126.97 741.484 127.92 738.609 126.258C735.761 124.623 734.759 120.958 736.394 118.11Z" fill="#70E8FC"/>
<path d="M705.199 100.1C706.834 97.2524 710.499 96.3031 713.373 97.9644C716.248 99.6257 717.25 103.265 715.588 106.113C713.954 108.961 710.288 109.91 707.414 108.249C704.54 106.587 703.538 102.948 705.199 100.1Z" fill="#70E8FC"/>
<path d="M673.978 82.0897C675.613 79.2417 679.278 78.2924 682.152 79.9537C685.027 81.615 686.029 85.254 684.367 88.1019C682.732 90.9498 679.067 91.8991 676.193 90.2379C673.345 88.5766 672.343 84.9112 673.978 82.0897Z" fill="#70E8FC"/>
<path d="M642.756 64.0525C644.391 61.2046 648.056 60.2553 650.93 61.9166C653.805 63.5779 654.807 67.2169 653.145 70.0648C651.51 72.9127 647.845 73.862 644.971 72.2008C642.123 70.5658 641.121 66.9004 642.756 64.0525Z" fill="#70E8FC"/>
<path d="M611.692 45.8304C612.747 44.5383 614.092 43.8263 615.437 43.3517C616.623 42.877 618.285 43.0352 619.735 43.8791C622.609 45.5404 623.611 49.1794 621.95 52.0273C620.315 54.8752 616.65 55.8245 613.776 54.1632C612.352 53.3457 611.402 52.0273 610.769 50.3396C610.268 48.7838 610.664 47.0698 611.692 45.8304Z" fill="#70E8FC"/>
<path d="M626.064 20.991C627.699 23.8389 626.696 27.478 623.849 29.1392C621.001 30.8005 617.309 29.8249 615.674 27.0033C614.039 24.1554 615.041 20.5163 617.889 18.8551C620.763 17.1674 624.429 18.1431 626.064 20.991Z" fill="#70E8FC"/>
<path d="M657.286 2.95388C658.92 5.8018 657.918 9.4408 655.07 11.1021C652.196 12.7634 648.531 11.7877 646.896 8.96616C645.261 6.11824 646.263 2.47924 649.111 0.817949C651.985 -0.843338 655.624 0.105962 657.286 2.95388Z" fill="#70E8FC"/>
<path d="M694.81 388.847C693.175 391.695 689.536 392.671 686.714 391.036C683.893 389.401 682.917 385.762 684.552 382.914C686.187 380.066 689.826 379.09 692.647 380.725C695.469 382.36 696.445 385.999 694.81 388.847Z" fill="#70E8FC"/>
<path d="M725.556 406.593C723.921 409.441 720.282 410.417 717.461 408.782C714.639 407.147 713.664 403.508 715.299 400.66C716.933 397.812 720.572 396.837 723.394 398.471C726.242 400.133 727.191 403.745 725.556 406.593Z" fill="#70E8FC"/>
<path d="M756.198 424.525C755.17 425.817 753.825 426.582 752.48 427.056C751.294 427.531 749.606 427.346 748.208 426.529C745.387 424.894 744.411 421.255 746.046 418.407C747.681 415.559 751.32 414.584 754.141 416.218C755.565 417.036 756.462 418.302 757.069 419.989C757.596 421.572 757.227 423.259 756.198 424.525Z" fill="#70E8FC"/>
<path d="M743.91 449.576C742.275 446.728 743.224 443.089 746.072 441.454C748.894 439.819 752.533 440.821 754.167 443.616C755.829 446.491 754.853 450.103 752.032 451.738C749.184 453.399 745.545 452.424 743.91 449.576Z" fill="#70E8FC"/>
<path d="M713.137 467.349C711.502 464.501 712.451 460.862 715.299 459.227C718.121 457.592 721.76 458.568 723.394 461.416C725.029 464.264 724.08 467.903 721.232 469.538C718.411 471.173 714.798 470.197 713.137 467.349Z" fill="#70E8FC"/>
<path d="M682.389 485.096C680.754 482.248 681.704 478.609 684.552 476.974C687.373 475.339 691.012 476.315 692.647 479.163C694.282 482.011 693.333 485.65 690.485 487.285C687.663 488.92 684.024 487.944 682.389 485.096Z" fill="#70E8FC"/>
<path d="M651.616 502.87C649.981 500.022 650.93 496.383 653.778 494.748C656.6 493.113 660.239 494.089 661.874 496.937C663.509 499.784 662.559 503.423 659.712 505.058C656.89 506.693 653.277 505.718 651.616 502.87Z" fill="#70E8FC"/>
<path d="M620.869 520.616C619.234 517.768 620.184 514.129 623.032 512.494C625.853 510.859 629.492 511.835 631.127 514.683C632.762 517.53 631.813 521.17 628.965 522.804C626.117 524.439 622.504 523.464 620.869 520.616Z" fill="#70E8FC"/>
<path d="M590.096 538.389C588.461 535.541 589.41 531.902 592.258 530.267C595.08 528.632 598.719 529.608 600.353 532.456C601.988 535.304 601.039 538.943 598.191 540.578C595.37 542.213 591.731 541.237 590.096 538.389Z" fill="#70E8FC"/>
<path d="M559.349 556.135C557.714 553.287 558.663 549.648 561.511 548.013C564.333 546.379 567.972 547.354 569.607 550.202C571.242 553.05 570.292 556.689 567.444 558.324C564.596 559.959 560.984 558.983 559.349 556.135Z" fill="#70E8FC"/>
</svg>
