<svg width="155" height="193" viewBox="0 0 155 193" fill="none" xmlns="http://www.w3.org/2000/svg">
<path d="M15.3224 66.2445H44.6371L77.2702 47.4002C81.4751 44.9683 88.8188 45.2798 93.6706 48.083L125.13 66.2445H154.432V151.074H154.42C154.54 152.715 153.63 154.296 151.605 155.47L92.4966 189.601C88.2917 192.033 80.948 191.721 76.0962 188.918L19.3357 156.153C16.8199 154.692 15.4662 152.859 15.3464 151.074H15.3224V66.2445Z" fill="url(#paint0_linear_36_2418)"/>
<path d="M16.173 66.2451V152.009H16.1969C16.2568 152.859 16.6042 153.734 17.2152 154.572C16.0651 153.47 15.4302 152.26 15.3464 151.074H15.3224V66.2451H16.173Z" fill="#6EE8FC"/>
<path d="M92.4846 104.772L151.593 70.6411C155.798 68.2092 155.271 63.9803 150.419 61.177L93.6587 28.4122C88.8068 25.6089 81.4632 25.3094 77.2583 27.7293L18.1497 61.8599C13.9448 64.2918 14.4719 68.5207 19.3237 71.324L76.0842 104.089C80.9481 106.892 88.2917 107.192 92.4846 104.772Z" fill="url(#paint1_linear_36_2418)"/>
<path d="M91.3226 104.771L150.431 70.6405C154.636 68.2085 154.109 63.9797 149.257 61.1764L92.4966 28.4115C90.0048 26.9739 86.8661 26.1953 83.8232 26.1114C87.2135 26.0156 90.8554 26.7942 93.6587 28.4115L150.419 61.1764C155.271 63.9797 155.798 68.2205 151.593 70.6405L92.4846 104.771C90.4361 105.957 87.6448 106.484 84.7577 106.4C87.2255 106.316 89.5496 105.789 91.3226 104.771Z" fill="#F88B93"/>
<path d="M18.1617 61.8475L77.2702 27.717C79.3307 26.531 82.134 26.0039 85.0331 26.0877C82.5772 26.1596 80.2531 26.6867 78.4921 27.717L19.3836 61.8475C15.1787 64.2794 15.7058 68.5083 20.5576 71.3116L77.3181 104.076C79.7979 105.502 82.9247 106.281 85.9556 106.377C82.5653 106.472 78.9114 105.694 76.1081 104.076L19.3476 71.3116C14.4838 68.5203 13.9567 64.2794 18.1617 61.8475Z" fill="#6EE8FC"/>
<path d="M90.5438 94.9243L134.558 69.515C137.684 67.7061 137.289 64.5554 133.683 62.4709L91.4303 38.0799C87.8123 35.9954 82.3495 35.7678 79.2228 37.5768L35.2089 62.986C32.0821 64.795 32.4775 67.9457 36.0834 70.0302L78.3363 94.4211C81.9542 96.5056 87.417 96.7332 90.5438 94.9243Z" fill="url(#paint2_linear_36_2418)"/>
<path d="M88.9867 87.0305L120.877 68.6175C123.141 67.3117 122.866 65.0236 120.242 63.5141L89.6335 45.8439C87.01 44.3344 83.0566 44.1667 80.7925 45.4725L48.9021 63.8855C46.6379 65.1913 46.9134 67.4794 49.537 68.9889L80.1455 86.6592C82.7571 88.1686 86.7225 88.3363 88.9867 87.0305Z" fill="#6DE0F6"/>
<path d="M120.254 65.9936L89.6335 48.3114C87.0099 46.8019 83.0566 46.6342 80.7804 47.94L48.8781 66.353C48.3749 66.6405 48.0156 66.9879 47.764 67.3593C46.9973 66.1134 47.3327 64.7597 48.8781 63.8612L80.7804 45.4482C83.0446 44.1424 87.0099 44.2981 89.6335 45.8196L120.254 63.5018C122.291 64.6758 122.89 66.3171 122.003 67.6109C121.644 67.0359 121.081 66.4728 120.254 65.9936Z" fill="#267FE5"/>
<path d="M120.254 69.0009L89.6335 51.3187C87.01 49.8092 83.0566 49.6415 80.7804 50.9473L48.8781 69.3603C48.4828 69.5879 48.1833 69.8635 47.9437 70.139C46.9254 68.8092 47.201 67.3238 48.8781 66.3534L80.7804 47.9404C83.0446 46.6346 87.01 46.7903 89.6335 48.3117L120.254 65.994C122.41 67.2399 122.961 69.0009 121.823 70.3187C121.452 69.8515 120.937 69.3963 120.254 69.0009Z" fill="#25BFEC"/>
<path d="M121.512 73.6617C121.176 73.3143 120.769 72.9789 120.254 72.6794L89.6335 54.9971C87.0099 53.4877 83.0565 53.3199 80.7804 54.6257L48.8781 73.0387C48.6385 73.1825 48.4348 73.3382 48.2551 73.494C46.9134 72.0923 47.0571 70.4152 48.8781 69.3729L80.7804 50.9599C83.0446 49.6541 87.0099 49.8098 89.6335 51.3313L120.254 69.0135C122.59 70.3553 123.045 72.32 121.512 73.6617Z" fill="#18D0F7"/>
<path d="M15.3224 52.1683H44.6371L77.2702 33.324C81.4751 30.8921 88.8188 31.2036 93.6706 34.0069L125.13 52.1683H154.432V58.2181H154.42C154.54 59.8594 153.63 61.4407 151.605 62.6147L92.4966 96.7453C88.2917 99.1772 80.948 98.8657 76.0962 96.0624L19.3357 63.2976C16.8199 61.836 15.4662 60.0031 15.3464 58.2181H15.3224V52.1683Z" fill="url(#paint3_linear_36_2418)"/>
<path d="M16.173 52.1689V59.1532H16.1969C16.2568 60.0038 16.6042 60.8783 17.2152 61.7169C16.0651 60.6147 15.4302 59.4048 15.3464 58.2188H15.3224V52.1689H16.173Z" fill="#6EE8FC"/>
<path d="M92.4846 90.6848L151.593 56.5542C155.798 54.1223 155.271 49.8934 150.419 47.0901L93.6587 14.3252C88.8068 11.522 81.4632 11.2225 77.2583 13.6424L18.1497 47.773C13.9448 50.2049 14.4719 54.4338 19.3237 57.237L76.0842 90.0019C80.9481 92.8052 88.2917 93.1167 92.4846 90.6848Z" fill="url(#paint4_linear_36_2418)"/>
<path d="M91.3226 90.6841L150.431 56.5536C154.636 54.1216 154.109 49.8928 149.257 47.0895L92.4966 14.3246C90.0048 12.887 86.8661 12.1083 83.8232 12.0245C87.2135 11.9286 90.8554 12.7073 93.6587 14.3246L150.419 47.0895C155.271 49.8928 155.798 54.1336 151.593 56.5536L92.4846 90.6841C90.4361 91.8701 87.6448 92.3972 84.7577 92.3134C87.2255 92.2415 89.5496 91.7024 91.3226 90.6841Z" fill="#F88B93"/>
<path d="M18.1617 47.7714L77.2702 13.6408C79.3307 12.4548 82.134 11.9277 85.0331 12.0115C82.5772 12.0834 80.2531 12.6105 78.4921 13.6408L19.3836 47.7714C15.1787 50.2033 15.7058 54.4322 20.5576 57.2355L77.3181 90.0003C79.7979 91.4259 82.9247 92.2046 85.9556 92.3004C82.5653 92.3963 78.9114 91.6176 76.1081 90.0003L19.3476 57.2355C14.4838 54.4322 13.9567 50.1913 18.1617 47.7714Z" fill="#6EE8FC"/>
<path d="M90.5438 80.8481L134.558 55.4389C137.684 53.6299 137.289 50.4792 133.683 48.3947L91.4303 24.0038C87.8123 21.9193 82.3495 21.6916 79.2228 23.5006L35.2089 48.9098C32.0821 50.7188 32.4775 53.8695 36.0834 55.954L78.3363 80.345C81.9542 82.4175 87.417 82.6451 90.5438 80.8481Z" fill="url(#paint5_linear_36_2418)"/>
<path d="M88.9867 72.9417L120.877 54.5287C123.141 53.2229 122.866 50.9347 120.242 49.4252L89.6335 31.755C87.01 30.2455 83.0566 30.0778 80.7925 31.3836L48.9021 49.7966C46.6379 51.1024 46.9134 53.3906 49.537 54.9L80.1455 72.5703C82.7571 74.0917 86.7225 74.2475 88.9867 72.9417Z" fill="#6DE0F6"/>
<path d="M120.254 51.9174L89.6335 34.2352C87.0099 32.7257 83.0566 32.558 80.7804 33.8638L48.8781 52.2768C48.3749 52.5644 48.0156 52.9118 47.764 53.2831C46.9973 52.0372 47.3327 50.6835 48.8781 49.785L80.7804 31.372C83.0446 30.0662 87.0099 30.2219 89.6335 31.7434L120.254 49.4256C122.291 50.5997 122.89 52.2409 122.003 53.5347C121.644 52.9597 121.081 52.3966 120.254 51.9174Z" fill="#267FE5"/>
<path d="M120.254 54.9238L89.6335 37.2415C87.01 35.7321 83.0566 35.5644 80.7804 36.8702L48.8781 55.2832C48.4828 55.5108 48.1833 55.7863 47.9437 56.0619C46.9254 54.7321 47.201 53.2466 48.8781 52.2762L80.7804 33.8632C83.0446 32.5574 87.01 32.7132 89.6335 34.2346L120.254 51.9168C122.41 53.1627 122.961 54.9238 121.823 56.2416C121.452 55.7744 120.937 55.3191 120.254 54.9238Z" fill="#25BFEC"/>
<path d="M121.512 59.5719C121.176 59.2244 120.769 58.889 120.254 58.5895L89.6335 40.9073C87.0099 39.3978 83.0565 39.2301 80.7804 40.5359L48.8781 58.9489C48.6385 59.0927 48.4348 59.2484 48.2551 59.4041C46.9134 58.0025 47.0571 56.3253 48.8781 55.2831L80.7804 36.8701C83.0446 35.5643 87.0099 35.72 89.6335 37.2414L120.254 54.9237C122.59 56.2654 123.045 58.2301 121.512 59.5719Z" fill="#18D0F7"/>
<path d="M15.3224 40.1644H44.6371L77.2702 21.3201C81.4751 18.8882 88.8188 19.1997 93.6706 22.003L125.13 40.1644H154.432V46.2142H154.42C154.54 47.8555 153.63 49.4368 151.605 50.6108L92.4966 84.7414C88.2917 87.1733 80.948 86.8618 76.0962 84.0585L19.3357 51.2937C16.8199 49.8321 15.4662 47.9992 15.3464 46.2142H15.3224V40.1644Z" fill="url(#paint6_linear_36_2418)"/>
<path d="M16.173 40.165V47.1493H16.1969C16.2568 47.9999 16.6042 48.8744 17.2152 49.713C16.0651 48.6108 15.4302 47.4009 15.3464 46.2149H15.3224V40.165H16.173Z" fill="#6EE8FC"/>
<path d="M92.4846 78.6926L151.593 44.562C155.798 42.1301 155.271 37.9012 150.419 35.0979L93.6587 2.33306C88.8068 -0.470225 81.4632 -0.76973 77.2583 1.6502L18.1497 35.7808C13.9448 38.2127 14.4719 42.4416 19.3237 45.2449L76.0842 78.0097C80.9481 80.813 88.2917 81.1125 92.4846 78.6926Z" fill="url(#paint7_linear_36_2418)"/>
<path d="M91.3226 78.6919L150.431 44.5614C154.636 42.1295 154.109 37.9006 149.257 35.0973L92.4966 2.33243C90.0048 0.894853 86.8661 0.116156 83.8232 0.0322971C87.2135 -0.0635416 90.8554 0.715155 93.6587 2.33243L150.419 35.0973C155.271 37.9006 155.798 42.1414 151.593 44.5614L92.4846 78.6919C90.4361 79.8779 87.6448 80.405 84.7577 80.3212C87.2255 80.2373 89.5496 79.7102 91.3226 78.6919Z" fill="#F88B93"/>
<path d="M18.1617 35.7684L77.2702 1.63788C79.3307 0.451872 82.134 -0.0752418 85.0331 0.0086171C82.5772 0.0804961 80.2531 0.60761 78.4921 1.63788L19.3836 35.7684C15.1787 38.2004 15.7058 42.4292 20.5576 45.2325L77.3181 77.9974C79.7979 79.423 82.9247 80.2017 85.9556 80.2975C82.5653 80.3934 78.9114 79.6147 76.1081 77.9974L19.3476 45.2325C14.4838 42.4412 13.9567 38.2004 18.1617 35.7684Z" fill="#6EE8FC"/>
<path d="M90.5438 68.8442L134.558 43.435C137.684 41.626 137.289 38.4753 133.683 36.3908L91.4303 11.9999C87.8123 9.91536 82.3495 9.68774 79.2228 11.4967L35.2089 36.9059C32.0821 38.7149 32.4775 41.8656 36.0834 43.9501L78.3363 68.341C81.9542 70.4255 87.417 70.6531 90.5438 68.8442Z" fill="url(#paint8_linear_36_2418)"/>
<path d="M88.9867 60.9495L120.877 42.5365C123.141 41.2307 122.866 38.9425 120.242 37.4331L89.6335 19.7628C87.01 18.2533 83.0566 18.0856 80.7925 19.3914L48.9021 37.8044C46.6379 39.1102 46.9134 41.3984 49.537 42.9078L80.1455 60.5781C82.7571 62.0876 86.7225 62.2553 88.9867 60.9495Z" fill="#6DE0F6"/>
<path d="M120.254 39.9135L89.6335 22.2313C87.0099 20.7218 83.0566 20.5541 80.7804 21.8599L48.8781 40.2729C48.3749 40.5604 48.0156 40.9079 47.764 41.2792C46.9973 40.0333 47.3327 38.6796 48.8781 37.7811L80.7804 19.3681C83.0446 18.0623 87.0099 18.218 89.6335 19.7395L120.254 37.4217C122.291 38.5957 122.89 40.237 122.003 41.5308C121.644 40.9558 121.081 40.3927 120.254 39.9135Z" fill="#267FE5"/>
<path d="M120.254 42.9209L89.6335 25.2386C87.01 23.7292 83.0566 23.5614 80.7804 24.8672L48.8781 43.2802C48.4828 43.5079 48.1833 43.7834 47.9437 44.0589C46.9254 42.7292 47.201 41.2437 48.8781 40.2733L80.7804 21.8603C83.0446 20.5545 87.01 20.7102 89.6335 22.2317L120.254 39.9139C122.41 41.1598 122.961 42.9209 121.823 44.2386C121.452 43.7714 120.937 43.3162 120.254 42.9209Z" fill="#25BFEC"/>
<path d="M121.512 47.5806C121.176 47.2332 120.769 46.8978 120.254 46.5983L89.6335 28.9161C87.0099 27.4066 83.0565 27.2389 80.7804 28.5447L48.8781 46.9577C48.6385 47.1015 48.4348 47.2572 48.2551 47.4129C46.9134 46.0113 47.0571 44.3461 48.8781 43.2919L80.7804 24.8789C83.0446 23.573 87.0099 23.7288 89.6335 25.2502L120.254 42.9325C122.59 44.2742 123.045 46.2389 121.512 47.5806Z" fill="#18D0F7"/>
<path d="M96.8212 176.807L144.836 149.086C146.13 148.343 147.172 146.33 147.172 144.617V85.6643C147.172 83.9392 146.118 83.1486 144.836 83.8913L96.8212 111.613C95.5274 112.355 94.4852 114.368 94.4852 116.081V175.034C94.4732 176.759 95.5274 177.55 96.8212 176.807Z" fill="url(#paint9_linear_36_2418)"/>
<path d="M95.9587 176.447L143.974 148.726C145.268 147.983 146.31 145.97 146.31 144.257V85.3045C146.31 84.5378 146.094 83.9628 145.747 83.6154C146.586 83.6034 147.172 84.3701 147.172 85.6639V144.617C147.172 146.342 146.118 148.342 144.836 149.085L96.8212 176.807C96.1024 177.214 95.4795 177.154 95.0482 176.723C95.3238 176.723 95.6352 176.627 95.9587 176.447Z" fill="#6DE0F6"/>
<path d="M103.877 163.149L137.78 143.574C138.691 143.047 139.433 141.633 139.433 140.411V98.7815C139.433 97.5596 138.691 97.0085 137.78 97.5356L103.877 117.111C102.967 117.638 102.224 119.051 102.224 120.273V161.903C102.224 163.113 102.955 163.676 103.877 163.149Z" fill="#6DE0F6"/>
<path d="M135.444 142.017C136.355 141.49 137.097 140.076 137.097 138.855V97.9194L137.78 97.5241C138.691 96.997 139.433 97.56 139.433 98.77V140.4C139.433 141.622 138.691 143.036 137.78 143.563L103.877 163.138C102.967 163.665 102.224 163.102 102.224 161.892V161.197L135.444 142.017Z" fill="#267FE5"/>
<path d="M126.412 115.434L133.336 111.445V110.271L126.412 114.26V115.434Z" fill="#267FE5"/>
<path d="M120.925 118.597L124.387 116.609V115.435L120.925 117.423V118.597Z" fill="#18D0F7"/>
<path d="M115.666 121.639L119.116 119.639V118.465L115.666 120.465V121.639Z" fill="#267FE5"/>
<path d="M110.407 124.682L113.857 122.682V121.508L110.407 123.508V124.682Z" fill="#267FE5"/>
<path d="M126.412 118.249L133.336 114.26V113.086L126.412 117.075V118.249Z" fill="#267FE5"/>
<path d="M120.925 121.424L124.387 119.423V118.249L120.925 120.25V121.424Z" fill="#18D0F7"/>
<path d="M115.666 124.455L119.116 122.466V121.292L115.666 123.281V124.455Z" fill="#267FE5"/>
<path d="M110.407 127.498L113.857 125.497V124.323L110.407 126.324V127.498Z" fill="#267FE5"/>
<path d="M126.412 121.066L133.336 117.076V115.902L126.412 119.892V121.066Z" fill="#267FE5"/>
<path d="M118.277 124.587L119.116 124.107L124.387 121.064V122.238L119.116 125.281L118.277 125.761L115.666 127.27V126.096L118.277 124.587Z" fill="#267FE5"/>
<path d="M110.407 130.313L113.857 128.313V127.139L110.407 129.139V130.313Z" fill="#267FE5"/>
<path d="M108.597 124.551V127.366V128.54V130.181V130.517V131.355L105.147 133.356V132.517V132.182V130.529V129.355V126.539L108.597 124.551Z" fill="#267FE5"/>
<path d="M126.412 123.879L133.336 119.89V118.716L126.412 122.705V123.879Z" fill="#18D0F7"/>
<path d="M120.925 127.055L124.387 125.054V123.88L120.925 125.881V127.055Z" fill="#267FE5"/>
<path d="M115.666 128.923L116.588 128.383L119.116 126.922V128.096L116.588 129.557L115.666 130.097L110.407 133.127V131.953L115.666 128.923Z" fill="#267FE5"/>
<path d="M105.147 136.172L108.597 134.171V132.997L105.147 134.998V136.172Z" fill="#267FE5"/>
<path d="M126.412 132.337L133.336 128.348V127.174L126.412 131.163V132.337Z" fill="#267FE5"/>
<path d="M120.925 135.513L124.387 133.512V132.338L120.925 134.339V135.513Z" fill="#267FE5"/>
<path d="M115.666 137.37L116.588 136.842L119.116 135.381V136.555L116.588 138.016L115.666 138.544L110.407 141.586V140.412L115.666 137.37Z" fill="#267FE5"/>
<path d="M105.147 144.617L108.597 142.628V141.454L105.147 143.443V144.617Z" fill="#267FE5"/>
<path d="M126.412 135.153L133.336 131.163V129.989L126.412 133.979V135.153Z" fill="#267FE5"/>
<path d="M120.925 138.327L124.387 136.326V135.152L120.925 137.153V138.327Z" fill="#267FE5"/>
<path d="M105.147 147.444L108.597 145.444V144.27L105.147 146.27V147.444Z" fill="#267FE5"/>
<path d="M126.412 137.968L133.336 133.979V132.805L126.412 136.794V137.968Z" fill="#267FE5"/>
<path d="M120.925 141.142L124.387 139.142V137.968L120.925 139.968V141.142Z" fill="#267FE5"/>
<path d="M115.666 140.184L116.588 139.657L119.116 138.195V139.01V139.369V142.185L116.588 143.646L115.666 144.185L110.407 147.216V144.401V144.053V143.227L115.666 140.184Z" fill="#18D0F7"/>
<path d="M105.147 150.26L108.597 148.259V147.085L105.147 149.086V150.26Z" fill="#267FE5"/>
<path d="M126.412 126.707L133.336 122.705V121.531L126.412 125.533V126.707Z" fill="#267FE5"/>
<path d="M120.925 129.87L124.387 127.881V126.707L120.925 128.696V129.87Z" fill="#18D0F7"/>
<path d="M110.407 135.944L113.857 133.955V132.781L110.407 134.77V135.944Z" fill="#267FE5"/>
<path d="M105.147 138.986L108.597 136.986V135.812L105.147 137.812V138.986Z" fill="#267FE5"/>
<path d="M126.412 129.523L133.336 125.533V124.359L126.412 128.349V129.523Z" fill="#267FE5"/>
<path d="M120.925 132.685L124.387 130.696V129.522L120.925 131.511V132.685Z" fill="#267FE5"/>
<path d="M119.116 129.738V130.325V130.912V133.728L115.666 135.728V132.913V132.326V131.739L119.116 129.738Z" fill="#18D0F7"/>
<path d="M110.407 138.771L113.857 136.771V135.597L110.407 137.597V138.771Z" fill="#267FE5"/>
<path d="M105.147 141.801L108.597 139.813V138.639L105.147 140.627V141.801Z" fill="#267FE5"/>
<path d="M29.5064 154.717L31.7946 156.035C32.9806 156.718 33.939 155.987 33.939 154.418V92.6017C33.939 91.0204 32.9806 89.1874 31.7946 88.5046L29.5064 87.1868C28.3204 86.504 27.362 87.2347 27.362 88.8041V150.62C27.362 152.201 28.3204 154.034 29.5064 154.717Z" fill="#22215B"/>
<path opacity="0.5" d="M1.59325 166.136L40.4199 143.722V82.876L1.59325 105.29V166.136Z" fill="#6EE8FC"/>
<path opacity="0.5" d="M4.98355 168.053L43.8102 145.639V84.793L4.98355 107.207V168.053Z" fill="#25BFEC"/>
<path opacity="0.5" d="M40.4199 82.876L43.8102 84.7928L4.98355 107.207L1.59323 105.29L40.4199 82.876Z" fill="#6EE8FC"/>
<path opacity="0.5" d="M40.4199 143.721L43.8102 145.637L4.98355 168.052L1.59323 166.135L40.4199 143.721Z" fill="#6EE8FC"/>
<path d="M0.730714 101.923L2.87508 100.666V100.678C3.24646 100.462 3.72562 100.474 4.26471 100.785L6.5529 102.103C7.7389 102.786 8.69727 104.619 8.69727 106.2V168.016C8.69727 168.867 8.40977 169.466 7.96651 169.729V169.741L5.90594 170.951L6.31329 169.502L4.26471 168.316C3.0787 167.633 2.12034 165.8 2.12034 164.219V102.403C2.12034 102.391 2.12034 102.391 2.12034 102.391L0.730714 101.923Z" fill="url(#paint10_linear_36_2418)"/>
<path d="M6.55303 102.114L4.26483 100.797C3.83356 100.545 3.42627 100.497 3.09083 100.605C3.29449 100.641 3.49818 100.701 3.7258 100.833L6.06181 102.186C7.27178 102.881 8.24215 104.75 8.24215 106.367V169.417C8.24215 169.453 8.2302 169.489 8.2302 169.525C8.51771 169.201 8.68544 168.71 8.68544 168.051V106.235C8.69742 104.63 7.73903 102.797 6.55303 102.114Z" fill="#6DE0F6"/>
<path d="M2.1443 169.574L4.43242 170.891C5.61842 171.574 6.57678 170.843 6.57678 169.274V107.458C6.57678 105.877 5.61842 104.044 4.43242 103.361L2.1443 102.043C0.958295 101.36 -0.000139236 102.091 -0.000139236 103.661V165.477C-0.000139236 167.046 0.958295 168.879 2.1443 169.574Z" fill="url(#paint11_linear_36_2418)"/>
<path d="M36.4548 126.435L32.3338 124.051V118.013L36.4548 120.397V126.435Z" fill="#50DEFF"/>
<path d="M36.4548 129.466V135.875L32.3338 133.503V127.094L36.4548 129.466Z" fill="#50DEFF"/>
<path d="M19.0959 108.153V113.125L17.6703 113.952V108.98L19.0959 108.153Z" fill="#50DEFF"/>
<path d="M22.3784 111.231L20.9528 112.046V107.086L22.3784 106.26V111.231Z" fill="#50DEFF"/>
<path d="M14.8552 134.976V149.004L32.0822 139.061L36.3829 141.552L10.7341 156.36V132.604L14.8552 134.976Z" fill="#50DEFF"/>
<path d="M32.3338 112.897V105.482L24.2354 110.154V105.182L36.4548 98.126V115.281L32.3338 112.897Z" fill="#50DEFF"/>
<path d="M10.734 126.733L14.8551 129.117V131.945L10.734 129.561V126.733Z" fill="#50DEFF"/>
<path d="M15.8135 115.017L14.8551 115.568V123.415L10.734 121.031V112.981L15.8135 110.058V115.017Z" fill="#50DEFF"/>
<path d="M27.3858 114.335L30.2729 112.67V109.352L27.3858 111.005V114.335Z" fill="#50DEFF"/>
<path d="M22.3785 117.222L25.2537 115.557V112.238L22.3785 113.903V117.222Z" fill="#50DEFF"/>
<path d="M22.3785 122.385L25.2537 120.732V117.401L22.3785 119.067V122.385Z" fill="#50DEFF"/>
<path d="M17.3708 144.631L20.246 142.978V139.647L17.3708 141.313V144.631Z" fill="#50DEFF"/>
<path d="M27.3858 119.497L30.2729 117.832V114.514L27.3858 116.179V119.497Z" fill="#50DEFF"/>
<path d="M17.3708 120.12L20.246 118.455V115.137L17.3708 116.79V120.12Z" fill="#50DEFF"/>
<path opacity="0.4" d="M28.3924 89.8231L31.8066 91.7159V152.574L33.939 151.328L36.3949 130.686V89.0444C36.3949 89.0444 31.8905 88.0022 31.9264 88.098C31.9744 88.1939 31.2196 88.1819 31.2196 88.1819L28.3924 89.8231Z" fill="#0C0F38"/>
<path d="M47.6203 165.198L49.9085 166.515C51.0945 167.198 52.0529 166.468 52.0529 164.898V103.082C52.0529 101.501 51.0945 99.6679 49.9085 98.9851L47.6203 97.6673C46.4343 96.9844 45.4759 97.7152 45.4759 99.2846V161.101C45.4759 162.682 46.4343 164.515 47.6203 165.198Z" fill="#22215B"/>
<path opacity="0.5" d="M19.7074 176.603L58.5341 154.188V93.3428L19.7074 115.757V176.603Z" fill="#6EE8FC"/>
<path opacity="0.5" d="M23.0978 178.531L61.9125 156.105V95.2715L23.0978 117.686V178.531Z" fill="#25BFEC"/>
<path opacity="0.5" d="M58.5342 93.3428L61.9125 95.2715L23.0978 117.686L19.7075 115.757L58.5342 93.3428Z" fill="#6EE8FC"/>
<path opacity="0.5" d="M58.5342 154.188L61.9125 156.104L23.0978 178.531L19.7075 176.602L58.5342 154.188Z" fill="#6EE8FC"/>
<path d="M18.8448 112.402L20.9892 111.144V111.156C21.3606 110.94 21.8398 110.952 22.3789 111.264L24.667 112.582C25.853 113.265 26.8114 115.097 26.8114 116.679V178.495C26.8114 179.345 26.5239 179.944 26.0806 180.208V180.22L24.0201 181.43L24.4274 179.98L22.3789 178.794C21.1929 178.111 20.2345 176.279 20.2345 174.697V112.881C20.2345 112.869 20.2345 112.869 20.2345 112.869L18.8448 112.402Z" fill="url(#paint12_linear_36_2418)"/>
<path d="M24.667 112.595L22.3789 111.277C21.9476 111.025 21.5403 110.978 21.2048 111.085C21.4085 111.121 21.6122 111.181 21.8398 111.313L24.1759 112.667C25.3858 113.362 26.3562 115.23 26.3562 116.848V179.898C26.3562 179.934 26.3442 179.969 26.3442 180.005C26.6317 179.682 26.7995 179.191 26.7995 178.532V116.716C26.8114 115.111 25.8411 113.278 24.667 112.595Z" fill="#6DE0F6"/>
<path d="M20.2584 180.04L22.5465 181.358C23.7325 182.041 24.6909 181.31 24.6909 179.741V117.925C24.6909 116.344 23.7325 114.511 22.5465 113.828L20.2584 112.51C19.0724 111.827 18.114 112.558 18.114 114.127V175.943C18.114 177.525 19.0724 179.358 20.2584 180.04Z" fill="url(#paint13_linear_36_2418)"/>
<path d="M54.5687 136.914L50.4477 134.53V128.492L54.5687 130.876V136.914Z" fill="#50DEFF"/>
<path d="M54.5687 139.945V146.354L50.4477 143.97V137.561L54.5687 139.945Z" fill="#50DEFF"/>
<path d="M37.21 118.632V123.603L35.7844 124.43V119.458L37.21 118.632Z" fill="#50DEFF"/>
<path d="M40.4924 121.699L39.0668 122.526V117.554L40.4924 116.728V121.699Z" fill="#50DEFF"/>
<path d="M32.9692 145.455V159.484L50.1962 149.54L54.4969 152.02L28.8481 166.839V143.071L32.9692 145.455Z" fill="#50DEFF"/>
<path d="M50.4477 123.377V115.961L42.3493 120.633V115.662L54.5687 108.605V125.749L50.4477 123.377Z" fill="#50DEFF"/>
<path d="M28.848 137.212L32.9691 139.596V142.423L28.848 140.039V137.212Z" fill="#50DEFF"/>
<path d="M33.9154 125.497L32.969 126.048V133.883L28.8479 131.499V123.46L33.9154 120.525V125.497Z" fill="#50DEFF"/>
<path d="M45.4998 124.802L48.387 123.149V119.818L45.4998 121.484V124.802Z" fill="#50DEFF"/>
<path d="M40.4924 127.701L43.3676 126.036V122.718L40.4924 124.383V127.701Z" fill="#50DEFF"/>
<path d="M40.4924 132.864L43.3676 131.199V127.881L40.4924 129.546V132.864Z" fill="#50DEFF"/>
<path d="M35.4848 155.111L38.36 153.445V150.127L35.4848 151.792V155.111Z" fill="#50DEFF"/>
<path d="M45.4998 129.978L48.387 128.313V124.994L45.4998 126.647V129.978Z" fill="#50DEFF"/>
<path d="M35.4848 130.588L38.36 128.935V125.604L35.4848 127.27V130.588Z" fill="#50DEFF"/>
<path opacity="0.4" d="M46.5063 100.292L49.9206 102.185V163.042L52.053 161.796L54.5089 141.155V99.5132C54.5089 99.5132 50.0045 98.4709 50.0404 98.5668C50.0883 98.6626 49.3336 98.6506 49.3336 98.6506L46.5063 100.292Z" fill="#0C0F38"/>
<path d="M65.7335 175.669L68.0217 176.987C69.2077 177.67 70.166 176.939 70.166 175.37V113.554C70.166 111.973 69.2077 110.14 68.0217 109.457L65.7335 108.139C64.5475 107.456 63.5891 108.187 63.5891 109.756V171.572C63.5891 173.154 64.5475 174.986 65.7335 175.669Z" fill="#22215B"/>
<path opacity="0.5" d="M37.8204 187.086L76.6471 164.672V103.826L37.8204 126.24V187.086Z" fill="#6EE8FC"/>
<path opacity="0.5" d="M41.1986 189.003L80.0253 166.589V105.743L41.1986 128.157V189.003Z" fill="#25BFEC"/>
<path opacity="0.5" d="M76.6471 103.826L80.0254 105.743L41.1987 128.157L37.8204 126.24L76.6471 103.826Z" fill="#6EE8FC"/>
<path opacity="0.5" d="M76.6469 164.672L80.0253 166.589L41.1986 189.003L37.8203 187.086L76.6469 164.672Z" fill="#6EE8FC"/>
<path d="M36.9578 122.885L39.1022 121.628V121.639C39.4736 121.424 39.9528 121.436 40.4919 121.747L42.78 123.065C43.966 123.748 44.9244 125.581 44.9244 127.162V188.978C44.9244 189.829 44.6369 190.428 44.1936 190.691V190.703L42.1331 191.913L42.5404 190.464L40.4919 189.278C39.3059 188.595 38.3475 186.762 38.3475 185.181V123.365C38.3475 123.353 38.3475 123.353 38.3475 123.353L36.9578 122.885Z" fill="url(#paint14_linear_36_2418)"/>
<path d="M42.7801 123.077L40.4919 121.759C40.0606 121.508 39.6533 121.46 39.3179 121.568C39.5215 121.604 39.7252 121.664 39.9528 121.795L42.2889 123.149C43.4989 123.844 44.4692 125.713 44.4692 127.33V190.38C44.4692 190.416 44.4572 190.452 44.4572 190.488C44.7448 190.164 44.9125 189.673 44.9125 189.014V127.198C44.9125 125.593 43.9541 123.76 42.7801 123.077Z" fill="#6DE0F6"/>
<path d="M38.3714 190.524L40.6596 191.842C41.8456 192.524 42.804 191.794 42.804 190.224V128.408C42.804 126.827 41.8456 124.994 40.6596 124.311L38.3714 122.993C37.1854 122.311 36.227 123.041 36.227 124.611V186.427C36.227 188.008 37.1854 189.841 38.3714 190.524Z" fill="url(#paint15_linear_36_2418)"/>
<path d="M72.6819 147.396L68.5608 145.012V138.975L72.6819 141.359V147.396Z" fill="#50DEFF"/>
<path d="M72.6819 150.428V156.837L68.5608 154.453V148.044L72.6819 150.428Z" fill="#50DEFF"/>
<path d="M55.3231 129.115V134.075L53.8855 134.901V129.93L55.3231 129.115Z" fill="#50DEFF"/>
<path d="M58.6056 132.183L57.18 133.009V128.038L58.6056 127.211V132.183Z" fill="#50DEFF"/>
<path d="M51.0822 155.939V169.967L68.3092 160.024L72.61 162.504L46.9611 177.311V153.555L51.0822 155.939Z" fill="#50DEFF"/>
<path d="M68.5607 133.847V126.432L60.4623 131.116V126.144L72.6818 119.088V136.231L68.5607 133.847Z" fill="#50DEFF"/>
<path d="M46.9611 147.696L51.0822 150.08V152.896L46.9611 150.524V147.696Z" fill="#50DEFF"/>
<path d="M52.0287 135.98L51.0823 136.531V144.366L46.9612 141.982V133.944L52.0287 131.009V135.98Z" fill="#50DEFF"/>
<path d="M63.6132 135.284L66.4884 133.631V130.301L63.6132 131.966V135.284Z" fill="#50DEFF"/>
<path d="M58.6056 138.184L61.4807 136.519V133.2L58.6056 134.853V138.184Z" fill="#50DEFF"/>
<path d="M58.6056 143.347L61.4807 141.682V138.363L58.6056 140.016V143.347Z" fill="#50DEFF"/>
<path d="M53.598 165.595L56.4731 163.93V160.611L53.598 162.265V165.595Z" fill="#50DEFF"/>
<path d="M63.6132 140.447L66.4884 138.794V135.464L63.6132 137.129V140.447Z" fill="#50DEFF"/>
<path d="M53.598 141.072L56.4731 139.406V136.088L53.598 137.753V141.072Z" fill="#50DEFF"/>
<path opacity="0.4" d="M64.6192 110.774L68.0334 112.679V173.536L70.1658 172.291L72.6217 151.649V110.007C72.6217 110.007 68.1173 108.965 68.1532 109.061C68.2011 109.157 67.4464 109.145 67.4464 109.145L64.6192 110.774Z" fill="#0C0F38"/>
<defs>
<linearGradient id="paint0_linear_36_2418" x1="167.594" y1="118.499" x2="-1.89703" y2="118.499" gradientUnits="userSpaceOnUse">
<stop stop-color="#A31FA9"/>
<stop offset="0.0668" stop-color="#8B17A0"/>
<stop offset="0.1494" stop-color="#740F98"/>
<stop offset="0.2393" stop-color="#640A92"/>
<stop offset="0.3408" stop-color="#5B078F"/>
<stop offset="0.4785" stop-color="#58068E"/>
<stop offset="0.6264" stop-color="#4D22A3"/>
<stop offset="0.9436" stop-color="#3168DA"/>
<stop offset="1" stop-color="#2C75E4"/>
</linearGradient>
<linearGradient id="paint1_linear_36_2418" x1="155.575" y1="66.2471" x2="25.0918" y2="98.5345" gradientUnits="userSpaceOnUse">
<stop stop-color="#8D139B"/>
<stop offset="0.1651" stop-color="#851BA1"/>
<stop offset="0.4284" stop-color="#6E33B2"/>
<stop offset="0.7551" stop-color="#4958CD"/>
<stop offset="1" stop-color="#2979E4"/>
</linearGradient>
<linearGradient id="paint2_linear_36_2418" x1="137.512" y1="66.2466" x2="40.3677" y2="90.2846" gradientUnits="userSpaceOnUse">
<stop stop-color="#630692"/>
<stop offset="0.2262" stop-color="#5B0E94"/>
<stop offset="0.587" stop-color="#432399"/>
<stop offset="1" stop-color="#2142A1"/>
</linearGradient>
<linearGradient id="paint3_linear_36_2418" x1="167.594" y1="65.0308" x2="-1.89703" y2="65.0308" gradientUnits="userSpaceOnUse">
<stop stop-color="#A31FA9"/>
<stop offset="0.0668" stop-color="#8B17A0"/>
<stop offset="0.1494" stop-color="#740F98"/>
<stop offset="0.2393" stop-color="#640A92"/>
<stop offset="0.3408" stop-color="#5B078F"/>
<stop offset="0.4785" stop-color="#58068E"/>
<stop offset="0.6264" stop-color="#4D22A3"/>
<stop offset="0.9436" stop-color="#3168DA"/>
<stop offset="1" stop-color="#2C75E4"/>
</linearGradient>
<linearGradient id="paint4_linear_36_2418" x1="155.575" y1="52.1657" x2="25.0918" y2="84.4531" gradientUnits="userSpaceOnUse">
<stop stop-color="#8D139B"/>
<stop offset="0.1651" stop-color="#851BA1"/>
<stop offset="0.4284" stop-color="#6E33B2"/>
<stop offset="0.7551" stop-color="#4958CD"/>
<stop offset="1" stop-color="#2979E4"/>
</linearGradient>
<linearGradient id="paint5_linear_36_2418" x1="137.513" y1="52.164" x2="40.3678" y2="76.202" gradientUnits="userSpaceOnUse">
<stop stop-color="#630692"/>
<stop offset="0.2262" stop-color="#5B0E94"/>
<stop offset="0.587" stop-color="#432399"/>
<stop offset="1" stop-color="#2142A1"/>
</linearGradient>
<linearGradient id="paint6_linear_36_2418" x1="167.594" y1="53.0336" x2="-1.89703" y2="53.0336" gradientUnits="userSpaceOnUse">
<stop stop-color="#A31FA9"/>
<stop offset="0.0668" stop-color="#8B17A0"/>
<stop offset="0.1494" stop-color="#740F98"/>
<stop offset="0.2393" stop-color="#640A92"/>
<stop offset="0.3408" stop-color="#5B078F"/>
<stop offset="0.4785" stop-color="#58068E"/>
<stop offset="0.6264" stop-color="#4D22A3"/>
<stop offset="0.9436" stop-color="#3168DA"/>
<stop offset="1" stop-color="#2C75E4"/>
</linearGradient>
<linearGradient id="paint7_linear_36_2418" x1="155.575" y1="40.1681" x2="25.0918" y2="72.4555" gradientUnits="userSpaceOnUse">
<stop stop-color="#8D139B"/>
<stop offset="0.1651" stop-color="#851BA1"/>
<stop offset="0.4284" stop-color="#6E33B2"/>
<stop offset="0.7551" stop-color="#4958CD"/>
<stop offset="1" stop-color="#2979E4"/>
</linearGradient>
<linearGradient id="paint8_linear_36_2418" x1="137.513" y1="40.1667" x2="40.3679" y2="64.2047" gradientUnits="userSpaceOnUse">
<stop stop-color="#630692"/>
<stop offset="0.2262" stop-color="#5B0E94"/>
<stop offset="0.587" stop-color="#432399"/>
<stop offset="1" stop-color="#2142A1"/>
</linearGradient>
<linearGradient id="paint9_linear_36_2418" x1="188.953" y1="105.606" x2="28.8987" y2="163.722" gradientUnits="userSpaceOnUse">
<stop stop-color="#630692"/>
<stop offset="0.2262" stop-color="#5B0E94"/>
<stop offset="0.587" stop-color="#432399"/>
<stop offset="1" stop-color="#2142A1"/>
</linearGradient>
<linearGradient id="paint10_linear_36_2418" x1="29.0976" y1="124.819" x2="-32.0839" y2="152.051" gradientUnits="userSpaceOnUse">
<stop stop-color="#2C75E4"/>
<stop offset="0.0564" stop-color="#3168DA"/>
<stop offset="0.3736" stop-color="#4D22A3"/>
<stop offset="0.5215" stop-color="#58068E"/>
<stop offset="0.6592" stop-color="#5B078F"/>
<stop offset="0.7607" stop-color="#640A92"/>
<stop offset="0.8506" stop-color="#740F98"/>
<stop offset="0.9332" stop-color="#8B17A0"/>
<stop offset="1" stop-color="#A31FA9"/>
</linearGradient>
<linearGradient id="paint11_linear_36_2418" x1="4.02388" y1="136.462" x2="85.1348" y2="136.462" gradientUnits="userSpaceOnUse">
<stop stop-color="#2C75E4"/>
<stop offset="0.0564" stop-color="#3168DA"/>
<stop offset="0.3736" stop-color="#4D22A3"/>
<stop offset="0.5215" stop-color="#58068E"/>
<stop offset="0.6592" stop-color="#5B078F"/>
<stop offset="0.7607" stop-color="#640A92"/>
<stop offset="0.8506" stop-color="#740F98"/>
<stop offset="0.9332" stop-color="#8B17A0"/>
<stop offset="1" stop-color="#A31FA9"/>
</linearGradient>
<linearGradient id="paint12_linear_36_2418" x1="47.2104" y1="135.294" x2="-13.9714" y2="162.527" gradientUnits="userSpaceOnUse">
<stop stop-color="#2C75E4"/>
<stop offset="0.0564" stop-color="#3168DA"/>
<stop offset="0.3736" stop-color="#4D22A3"/>
<stop offset="0.5215" stop-color="#58068E"/>
<stop offset="0.6592" stop-color="#5B078F"/>
<stop offset="0.7607" stop-color="#640A92"/>
<stop offset="0.8506" stop-color="#740F98"/>
<stop offset="0.9332" stop-color="#8B17A0"/>
<stop offset="1" stop-color="#A31FA9"/>
</linearGradient>
<linearGradient id="paint13_linear_36_2418" x1="22.1367" y1="146.938" x2="103.248" y2="146.938" gradientUnits="userSpaceOnUse">
<stop stop-color="#2C75E4"/>
<stop offset="0.0564" stop-color="#3168DA"/>
<stop offset="0.3736" stop-color="#4D22A3"/>
<stop offset="0.5215" stop-color="#58068E"/>
<stop offset="0.6592" stop-color="#5B078F"/>
<stop offset="0.7607" stop-color="#640A92"/>
<stop offset="0.8506" stop-color="#740F98"/>
<stop offset="0.9332" stop-color="#8B17A0"/>
<stop offset="1" stop-color="#A31FA9"/>
</linearGradient>
<linearGradient id="paint14_linear_36_2418" x1="65.3221" y1="145.774" x2="4.14007" y2="173.007" gradientUnits="userSpaceOnUse">
<stop stop-color="#2C75E4"/>
<stop offset="0.0564" stop-color="#3168DA"/>
<stop offset="0.3736" stop-color="#4D22A3"/>
<stop offset="0.5215" stop-color="#58068E"/>
<stop offset="0.6592" stop-color="#5B078F"/>
<stop offset="0.7607" stop-color="#640A92"/>
<stop offset="0.8506" stop-color="#740F98"/>
<stop offset="0.9332" stop-color="#8B17A0"/>
<stop offset="1" stop-color="#A31FA9"/>
</linearGradient>
<linearGradient id="paint15_linear_36_2418" x1="40.2483" y1="157.418" x2="121.359" y2="157.418" gradientUnits="userSpaceOnUse">
<stop stop-color="#2C75E4"/>
<stop offset="0.0564" stop-color="#3168DA"/>
<stop offset="0.3736" stop-color="#4D22A3"/>
<stop offset="0.5215" stop-color="#58068E"/>
<stop offset="0.6592" stop-color="#5B078F"/>
<stop offset="0.7607" stop-color="#640A92"/>
<stop offset="0.8506" stop-color="#740F98"/>
<stop offset="0.9332" stop-color="#8B17A0"/>
<stop offset="1" stop-color="#A31FA9"/>
</linearGradient>
</defs>
</svg>
