<svg width="456" height="263" viewBox="0 0 456 263" fill="none" xmlns="http://www.w3.org/2000/svg">
<path opacity="0.4" d="M227.686 262.911C353.434 262.911 455.372 204.057 455.372 131.456C455.372 58.8547 353.434 0 227.686 0C101.939 0 0 58.8547 0 131.456C0 204.057 101.939 262.911 227.686 262.911Z" fill="url(#paint0_radial_37_8678)"/>
<path opacity="0.0238" d="M258.984 93.6532C262.52 91.6169 267.343 91.9078 270.88 93.9441L352.516 141.07C360.156 145.479 359.62 156.809 351.965 161.203L276.453 202.159C272.916 204.196 268.308 204.333 264.771 202.297L182.66 154.895C175.02 150.486 175.618 139.126 183.273 134.731L258.984 93.6532Z" fill="black"/>
<path opacity="0.0476" d="M258.05 94.9248C261.403 92.9957 266.501 93.5622 269.854 95.4913L351.214 142.464C358.472 146.659 357.4 157.729 350.143 161.909L276.484 201.915C273.131 203.844 268.461 204.135 265.108 202.191L182.783 154.667C175.526 150.472 176.705 139.341 183.977 135.161L258.05 94.9248Z" fill="black"/>
<path opacity="0.0714" d="M257.1 96.1785C260.285 94.3565 265.644 95.1833 268.813 97.0206L349.898 143.825C356.772 147.79 355.18 158.615 348.29 162.565L276.468 201.607C273.284 203.429 268.583 203.873 265.414 202.036L182.89 154.389C176.016 150.424 177.776 139.507 184.666 135.542L257.1 96.1785Z" fill="black"/>
<path opacity="0.0952" d="M256.166 97.4499C259.167 95.7198 264.786 96.8375 267.787 98.5676L348.596 145.219C355.088 148.97 352.975 159.534 346.468 163.27L276.499 201.363C273.498 203.093 268.752 203.675 265.751 201.945L183.013 154.176C176.521 150.424 178.863 139.722 185.37 136.002L256.166 97.4499Z" fill="black"/>
<path opacity="0.119" d="M255.217 98.7053C258.05 97.0824 263.929 98.4757 266.746 100.099L347.295 146.597C353.404 150.118 350.755 160.438 344.646 163.959L276.514 201.087C273.682 202.71 268.89 203.445 266.072 201.822L183.135 153.946C177.026 150.424 179.95 139.937 186.075 136.431L255.217 98.7053Z" fill="black"/>
<path opacity="0.1429" d="M254.283 99.977C256.932 98.4613 263.072 100.115 265.72 101.646L345.994 147.991C351.72 151.298 348.55 161.357 342.809 164.649L276.53 200.828C273.881 202.343 269.043 203.231 266.394 201.7L183.242 153.702C177.516 150.395 181.022 140.137 186.764 136.845L254.283 99.977Z" fill="black"/>
<path opacity="0.1667" d="M253.334 101.232C255.814 99.8077 262.214 101.752 264.679 103.176L344.677 149.353C350.02 152.445 346.33 162.244 340.972 165.322L276.545 200.536C274.065 201.96 269.196 202.986 266.715 201.562L183.349 153.441C178.006 150.348 182.094 140.319 187.453 137.242L253.334 101.232Z" fill="black"/>
<path opacity="0.1905" d="M252.4 102.503C254.697 101.186 261.372 103.406 263.669 104.723L343.391 150.746C348.351 153.609 344.126 163.163 339.165 166.026L276.575 200.291C274.279 201.608 269.349 202.787 267.067 201.47L183.502 153.226C178.542 150.363 183.212 140.549 188.187 137.686L252.4 102.503Z" fill="black"/>
<path opacity="0.2143" d="M251.451 103.76C253.579 102.535 260.499 105.046 262.628 106.255L342.089 152.126C346.667 154.775 341.921 164.068 337.328 166.702L276.591 200.002C274.463 201.227 269.502 202.544 267.389 201.319L183.61 152.953C179.032 150.304 184.283 140.719 188.877 138.086L251.451 103.76Z" fill="black"/>
<path opacity="0.2381" d="M250.517 105.028C252.461 103.91 259.657 106.682 261.602 107.799L340.788 153.517C344.983 155.936 339.716 164.984 335.506 167.403L276.606 199.755C274.662 200.872 269.655 202.342 267.711 201.224L183.732 152.736C179.537 150.317 185.37 140.947 189.581 138.528L250.517 105.028Z" fill="black"/>
<path opacity="0.2619" d="M249.568 106.285C251.328 105.274 258.785 108.321 260.561 109.331L339.471 154.88C343.299 157.085 337.481 165.873 333.669 168.078L276.621 199.465C274.861 200.475 269.793 202.098 268.032 201.088L183.839 152.492C180.012 150.287 186.457 141.131 190.27 138.942L249.568 106.285Z" fill="black"/>
<path opacity="0.2857" d="M248.634 107.555C250.226 106.636 257.943 109.974 259.535 110.893L338.17 156.288C341.615 158.279 335.276 166.807 331.831 168.782L276.637 199.219C275.044 200.138 269.946 201.899 268.354 200.995L183.962 152.262C180.517 150.271 187.545 141.345 190.974 139.37L248.634 107.555Z" fill="black"/>
<path opacity="0.3095" d="M247.684 108.812C249.093 108 257.085 111.598 258.494 112.425L336.853 157.668C339.915 159.428 333.056 167.711 329.994 169.472L276.637 198.945C275.228 199.756 270.084 201.686 268.675 200.859L184.069 152.018C181.007 150.257 188.616 141.546 191.663 139.785L247.684 108.812Z" fill="black"/>
<path opacity="0.3333" d="M246.75 110.081C247.991 109.377 256.228 113.251 257.468 113.97L335.567 159.06C338.246 160.606 330.867 168.629 328.187 170.175L276.683 198.699C275.442 199.403 270.252 201.485 269.027 200.766L184.207 151.803C181.527 150.256 189.719 141.774 192.398 140.243L246.75 110.081Z" fill="black"/>
<path opacity="0.3571" d="M245.817 111.337C246.873 110.724 255.386 114.889 256.442 115.501L334.266 160.422C336.562 161.739 328.647 169.517 326.35 170.849L276.683 198.408C275.626 199.02 270.39 201.24 269.334 200.628L184.314 151.542C182.017 150.226 190.79 141.958 193.087 140.641L245.817 111.337Z" fill="black"/>
<path opacity="0.381" d="M244.867 112.608C245.755 112.103 254.513 116.528 255.401 117.049L332.949 161.817C334.863 162.919 326.427 170.452 324.513 171.539L276.698 198.149C275.81 198.654 270.543 201.027 269.655 200.506L184.421 151.298C182.507 150.196 191.862 142.158 193.776 141.055L244.867 112.608Z" fill="black"/>
<path opacity="0.4048" d="M243.933 113.864C244.638 113.45 253.671 118.166 254.375 118.579L331.648 163.194C333.179 164.082 324.222 171.355 322.691 172.227L276.729 197.873C276.024 198.286 270.696 200.797 269.992 200.383L184.559 151.068C183.028 150.18 192.965 142.372 194.496 141.484L243.933 113.864Z" fill="black"/>
<path opacity="0.4286" d="M242.984 115.135C243.52 114.828 252.798 119.82 253.334 120.126L330.346 164.572C331.494 165.231 322.002 172.258 320.854 172.917L276.729 197.597C276.193 197.904 270.834 200.568 270.313 200.261L184.666 150.824C183.518 150.165 194.036 142.571 195.184 141.897L242.984 115.135Z" fill="black"/>
<path opacity="0.4524" d="M242.05 116.39C242.402 116.191 251.956 121.458 252.308 121.657L329.045 165.951C329.81 166.395 319.797 173.162 319.032 173.591L276.759 197.322C276.407 197.521 271.002 200.338 270.65 200.124L184.789 150.579C184.023 150.135 195.123 142.755 195.889 142.326L242.05 116.39Z" fill="black"/>
<path opacity="0.4762" d="M241.101 117.66C241.285 117.553 251.099 123.095 251.267 123.202L327.728 167.342C328.111 167.557 317.577 174.079 317.194 174.294L276.759 197.06C276.575 197.168 271.125 200.122 270.957 200.015L184.896 150.332C184.513 150.118 196.195 142.953 196.578 142.738L241.101 117.66Z" fill="black"/>
<path opacity="0.5" d="M271.293 199.894L185.018 150.104L240.167 118.916L326.427 168.721L271.293 199.894Z" fill="black"/>
<path d="M271.309 189.13L128.032 106.406L200.329 64.6699L343.605 147.378L271.309 189.13Z" fill="url(#paint1_linear_37_8678)"/>
<path opacity="0.5" d="M273.115 184.413L303.277 159.916L329.887 143.564L336.179 147.729L273.115 184.413Z" fill="url(#paint2_linear_37_8678)"/>
<path opacity="0.5" d="M224.091 158.004L250.762 173.406L295.438 147.623L264.465 129.74L224.091 158.004Z" fill="url(#paint3_linear_37_8678)"/>
<path opacity="0.5" d="M270.604 128.792L223.142 161.266L201.492 148.343L254.926 116.941L270.604 128.792Z" fill="url(#paint4_linear_37_8678)"/>
<path opacity="0.8" d="M161.991 126.004L128.032 106.406L200.329 64.6699L234.288 84.2674L161.991 126.004Z" fill="url(#paint5_linear_37_8678)"/>
<path d="M221.687 92.1822L205.642 82.9346L215.088 77.4688L231.134 86.7317L221.687 92.1822Z" fill="#4B61B8"/>
<path d="M142.302 107.004C142.991 107.402 143.695 107.617 144.399 107.632C145.104 107.647 145.747 107.494 146.329 107.157C146.956 106.79 147.201 106.407 147.063 105.978C146.926 105.565 146.451 105.121 145.655 104.662L144.353 103.973L150.095 100.65L155.53 103.789L153.616 104.891L149.942 102.779L147.814 104.003L148.533 104.34C149.023 104.646 149.406 104.968 149.651 105.305C149.896 105.642 150.018 105.978 150.018 106.331C150.018 106.667 149.881 107.02 149.62 107.341C149.36 107.678 148.962 107.999 148.441 108.306C147.829 108.658 147.171 108.918 146.497 109.071C145.808 109.224 145.134 109.286 144.445 109.24C143.756 109.209 143.083 109.087 142.424 108.887C141.766 108.688 141.138 108.413 140.526 108.061C140.051 107.785 139.638 107.509 139.286 107.219C138.934 106.928 138.689 106.652 138.52 106.407L140.771 105.749C140.909 105.948 141.092 106.147 141.322 106.346C141.582 106.545 141.904 106.759 142.302 107.004Z" fill="#271273"/>
<path d="M152.346 108.275C154.275 107.158 156.035 106.53 157.643 106.377C159.251 106.224 160.659 106.499 161.915 107.219C163.247 107.984 163.752 108.811 163.446 109.715C163.139 110.603 162.006 111.613 160.062 112.746C158.133 113.864 156.357 114.507 154.734 114.66C153.126 114.813 151.702 114.537 150.447 113.818C149.13 113.052 148.656 112.21 149.023 111.276C149.406 110.327 150.508 109.332 152.346 108.275ZM154.412 109.454C153.142 110.189 152.284 110.848 151.871 111.399C151.457 111.965 151.565 112.425 152.208 112.792C152.835 113.144 153.601 113.236 154.535 113.022C155.469 112.823 156.632 112.317 158.026 111.521C159.296 110.786 160.139 110.143 160.552 109.592C160.965 109.041 160.843 108.566 160.185 108.183C159.557 107.816 158.776 107.74 157.842 107.954C156.893 108.184 155.76 108.673 154.412 109.454Z" fill="#271273"/>
<path d="M161.318 113.449C163.247 112.332 165.007 111.704 166.615 111.551C168.223 111.398 169.646 111.673 170.887 112.393C172.219 113.158 172.724 113.985 172.418 114.888C172.111 115.776 170.978 116.787 169.034 117.92C167.09 119.038 165.329 119.681 163.706 119.834C162.098 119.987 160.659 119.711 159.419 118.992C158.102 118.226 157.628 117.384 157.995 116.45C158.363 115.501 159.465 114.506 161.318 113.449ZM163.369 114.628C162.098 115.363 161.241 116.021 160.828 116.573C160.414 117.139 160.521 117.598 161.164 117.966C161.792 118.318 162.558 118.41 163.492 118.195C164.426 117.996 165.589 117.491 166.982 116.695C168.253 115.96 169.095 115.317 169.509 114.766C169.922 114.215 169.8 113.74 169.141 113.357C168.513 112.99 167.733 112.913 166.799 113.128C165.865 113.357 164.716 113.847 163.369 114.628Z" fill="#271273"/>
<path d="M278.152 157.574L262.765 164.097L273.957 172.058L282.899 173.574L290.462 164.035L278.152 157.574Z" fill="url(#paint6_linear_37_8678)"/>
<path opacity="0.5" d="M297.566 150.057L253.533 124.641L278.688 110.111L322.706 135.527L297.566 150.057Z" fill="url(#paint7_linear_37_8678)"/>
<g opacity="0.8">
<path opacity="0.8" d="M266.256 128.392C267.527 129.127 268.813 129.51 270.099 129.556C271.385 129.586 272.579 129.295 273.651 128.683C274.799 128.025 275.243 127.305 274.998 126.54C274.738 125.774 273.881 124.963 272.411 124.121L270.038 122.85L280.572 116.771L290.539 122.528L287.033 124.549L280.311 120.676L276.422 122.926L277.724 123.539C278.627 124.105 279.316 124.702 279.775 125.315C280.235 125.927 280.449 126.555 280.449 127.183C280.449 127.81 280.204 128.438 279.714 129.051C279.224 129.663 278.505 130.245 277.54 130.811C276.407 131.47 275.213 131.929 273.973 132.205C272.717 132.48 271.462 132.587 270.206 132.526C268.951 132.465 267.711 132.25 266.486 131.883C265.276 131.516 264.113 131.01 263.01 130.383C262.138 129.877 261.387 129.357 260.744 128.821C260.101 128.285 259.642 127.795 259.351 127.336L263.47 126.126C263.715 126.494 264.051 126.861 264.48 127.229C264.924 127.55 265.506 127.963 266.256 128.392Z" fill="#3D065F"/>
<path opacity="0.8" d="M284.675 130.704C288.212 128.668 291.442 127.504 294.382 127.213C297.321 126.922 299.924 127.443 302.205 128.759C304.64 130.168 305.574 131.684 305.023 133.322C304.456 134.96 302.404 136.813 298.822 138.864C295.27 140.916 292.024 142.08 289.069 142.37C286.114 142.661 283.496 142.141 281.215 140.824C278.796 139.431 277.938 137.884 278.612 136.17C279.27 134.486 281.291 132.664 284.675 130.704ZM288.441 132.878C286.099 134.225 284.552 135.419 283.787 136.461C283.021 137.486 283.236 138.344 284.399 139.033C285.532 139.691 286.956 139.829 288.671 139.462C290.37 139.094 292.499 138.175 295.055 136.69C297.383 135.343 298.929 134.164 299.695 133.154C300.46 132.128 300.23 131.27 299.021 130.566C297.857 129.892 296.433 129.755 294.734 130.153C293.004 130.551 290.906 131.454 288.441 132.878Z" fill="#3D065F"/>
<path opacity="0.8" d="M301.103 140.196C304.64 138.16 307.87 136.996 310.81 136.705C313.75 136.414 316.352 136.935 318.634 138.252C321.068 139.66 322.002 141.176 321.451 142.814C320.884 144.452 318.833 146.305 315.25 148.357C311.698 150.408 308.452 151.572 305.497 151.863C302.542 152.154 299.924 151.633 297.643 150.316C295.224 148.923 294.366 147.377 295.04 145.662C295.698 143.978 297.719 142.14 301.103 140.196ZM304.869 142.37C302.527 143.717 300.981 144.912 300.215 145.953C299.45 146.979 299.649 147.836 300.827 148.525C301.96 149.183 303.384 149.321 305.084 148.954C306.783 148.586 308.911 147.668 311.468 146.183C313.796 144.835 315.342 143.656 316.107 142.646C316.873 141.62 316.643 140.763 315.434 140.058C314.27 139.385 312.846 139.247 311.147 139.645C309.432 140.028 307.334 140.931 304.869 142.37Z" fill="#3D065F"/>
</g>
<path d="M258.616 114.598L253.181 114.016L258.05 112.531L257.269 109.361L261.265 111.581L266.226 110.203L263.837 113.066L267.665 115.363L262.199 114.919L259.611 117.721L258.616 114.598Z" fill="#F7AA90"/>
<path d="M205.979 144.988L200.543 144.422L205.397 142.922L204.631 139.768L208.612 141.972L213.573 140.594L211.184 143.457L215.027 145.769L209.561 145.325L206.958 148.127L205.979 144.988Z" fill="#F7AA90"/>
<path d="M195.874 135.312L190.438 134.731L195.307 133.245L194.526 130.076L198.522 132.296L203.483 130.918L201.094 133.781L204.922 136.078L199.456 135.634L196.869 138.436L195.874 135.312Z" fill="#F7AA90"/>
<path d="M241.667 108.871L236.232 108.305L241.086 106.804L240.32 103.65L244.316 105.855L249.277 104.477L246.888 107.34L250.716 109.652L245.25 109.208L242.663 112.01L241.667 108.871Z" fill="#F7AA90"/>
<path d="M221.963 108.84L216.527 108.258L221.381 106.773L220.615 103.604L224.596 105.824L229.557 104.446L227.168 107.309L231.011 109.605L225.53 109.161L222.942 111.963L221.963 108.84Z" fill="#F7AA90"/>
<path d="M195.629 124.03L190.193 123.463L195.047 121.963L194.281 118.809L198.277 121.029L203.238 119.651L200.849 122.514L204.677 124.81L199.211 124.366L196.624 127.168L195.629 124.03Z" fill="#F7AA90"/>
<path d="M205.81 114.063L200.375 113.496L205.228 111.996L204.463 108.842L208.444 111.062L213.404 109.684L211.016 112.547L214.859 114.844L209.393 114.399L206.79 117.201L205.81 114.063Z" fill="#F7AA90"/>
<path d="M222.177 150.487L223.172 153.625L225.76 150.823L231.226 151.267L227.398 148.971L229.786 146.108L224.826 147.486L220.83 145.266L221.611 148.42L216.742 149.92L222.177 150.487Z" fill="#F7AA90"/>
<path d="M267.971 124.061L268.966 127.199L271.554 124.398L277.02 124.842L273.192 122.53L275.58 119.667L270.62 121.045L266.624 118.84L267.389 121.994L262.536 123.479L267.971 124.061Z" fill="#F7AA90"/>
<path d="M268.032 135.434L269.028 138.572L271.615 135.771L277.081 136.215L273.253 133.903L275.642 131.04L270.681 132.418L266.685 130.213L267.451 133.367L262.597 134.867L268.032 135.434Z" fill="#F7AA90"/>
<path d="M241.713 150.639L242.693 153.777L245.296 150.976L250.762 151.42L246.919 149.108L249.307 146.245L244.347 147.623L240.366 145.418L241.132 148.572L236.278 150.057L241.713 150.639Z" fill="#F7AA90"/>
<path d="M258.968 144.76L259.963 147.899L262.551 145.097L268.017 145.541L264.189 143.229L266.578 140.366L261.617 141.744L257.621 139.539L258.387 142.693L253.533 144.193L258.968 144.76Z" fill="#F7AA90"/>
<path d="M258.616 114.598L253.181 114.016L258.05 112.531L257.269 109.361L261.265 111.581L266.226 110.203L263.837 113.066L267.665 115.363L262.199 114.919L259.611 117.721L258.616 114.598Z" fill="url(#paint8_linear_37_8678)"/>
<path d="M205.979 144.988L200.543 144.422L205.397 142.922L204.631 139.768L208.612 141.972L213.573 140.594L211.184 143.457L215.027 145.769L209.561 145.325L206.958 148.127L205.979 144.988Z" fill="url(#paint9_linear_37_8678)"/>
<path d="M222.177 150.487L223.172 153.625L225.76 150.823L231.226 151.267L227.398 148.971L229.787 146.108L224.826 147.486L220.83 145.266L221.611 148.42L216.742 149.92L222.177 150.487Z" fill="url(#paint10_linear_37_8678)"/>
<path d="M267.971 124.059L268.966 127.197L271.554 124.396L277.02 124.84L273.192 122.528L275.58 119.665L270.62 121.043L266.624 118.838L267.389 121.992L262.536 123.477L267.971 124.059Z" fill="url(#paint11_linear_37_8678)"/>
<path d="M268.032 135.436L269.028 138.574L271.615 135.773L277.081 136.217L273.253 133.905L275.642 131.042L270.681 132.42L266.685 130.215L267.451 133.369L262.597 134.869L268.032 135.436Z" fill="url(#paint12_linear_37_8678)"/>
<path d="M241.713 150.639L242.693 153.777L245.296 150.976L250.762 151.42L246.919 149.108L249.307 146.245L244.347 147.623L240.366 145.418L241.132 148.572L236.278 150.057L241.713 150.639Z" fill="url(#paint13_linear_37_8678)"/>
<path d="M258.968 144.76L259.964 147.899L262.551 145.097L268.017 145.541L264.189 143.229L266.578 140.366L261.617 141.744L257.621 139.539L258.387 142.693L253.533 144.193L258.968 144.76Z" fill="url(#paint14_linear_37_8678)"/>
<path opacity="0.1667" d="M278.78 179.07L134.417 105.993L203.069 66.3691L339.073 144.897L278.78 179.07Z" fill="black"/>
<path d="M280.02 174.156L129.548 105.427L197.542 57L348.03 125.729L280.02 174.156Z" fill="url(#paint15_linear_37_8678)"/>
<path opacity="0.5" d="M281.383 169.302L309.064 142.049L334.005 123.232L340.665 126.784L281.383 169.302Z" fill="url(#paint16_linear_37_8678)"/>
<path opacity="0.5" d="M230.062 147.669L258.08 160.469L300.108 130.537L267.573 115.686L230.062 147.669Z" fill="url(#paint17_linear_37_8678)"/>
<path opacity="0.5" d="M273.59 114.154L229.434 150.991L206.667 140.182L256.855 103.85L273.59 114.154Z" fill="url(#paint18_linear_37_8678)"/>
<path opacity="0.8" d="M165.206 121.718L129.548 105.427L197.542 57L233.216 73.2905L165.206 121.718Z" fill="url(#paint19_linear_37_8678)"/>
<path d="M221.411 82.3702L204.57 74.6843L213.465 68.3457L230.307 76.0469L221.411 82.3702Z" fill="#4B61B8"/>
<path d="M143.802 104.661C144.537 104.998 145.241 105.136 145.946 105.09C146.65 105.044 147.278 104.83 147.829 104.432C148.426 104.018 148.625 103.605 148.441 103.192C148.258 102.793 147.752 102.395 146.91 102.013L145.548 101.446L150.952 97.5879L156.663 100.191L154.856 101.477L150.998 99.716L149.008 101.14L149.743 101.416C150.263 101.676 150.661 101.967 150.952 102.273C151.228 102.579 151.381 102.916 151.412 103.253C151.442 103.59 151.335 103.942 151.105 104.309C150.876 104.677 150.508 105.029 150.018 105.381C149.436 105.794 148.809 106.116 148.15 106.33C147.492 106.545 146.803 106.667 146.114 106.698C145.425 106.728 144.736 106.682 144.062 106.545C143.389 106.407 142.73 106.192 142.103 105.902C141.597 105.672 141.169 105.427 140.786 105.167C140.419 104.906 140.128 104.661 139.959 104.432L142.133 103.559C142.286 103.743 142.485 103.926 142.746 104.11C143.037 104.279 143.373 104.462 143.802 104.661Z" fill="#271273"/>
<path d="M153.922 104.968C155.729 103.682 157.429 102.87 159.006 102.564C160.583 102.258 162.022 102.396 163.338 102.993C164.732 103.636 165.314 104.401 165.099 105.32C164.885 106.239 163.859 107.356 162.022 108.658C160.2 109.959 158.5 110.755 156.908 111.077C155.316 111.383 153.877 111.245 152.56 110.648C151.182 110.02 150.615 109.224 150.906 108.26C151.182 107.295 152.192 106.193 153.922 104.968ZM156.081 105.948C154.887 106.805 154.091 107.525 153.739 108.137C153.371 108.734 153.54 109.193 154.213 109.5C154.872 109.806 155.637 109.806 156.556 109.515C157.459 109.224 158.577 108.612 159.878 107.678C161.072 106.836 161.838 106.101 162.205 105.519C162.573 104.922 162.404 104.462 161.7 104.156C161.042 103.85 160.246 103.85 159.342 104.156C158.439 104.447 157.352 105.044 156.081 105.948Z" fill="#271273"/>
<path d="M163.339 109.271C165.145 107.984 166.845 107.173 168.422 106.867C169.999 106.561 171.438 106.698 172.755 107.295C174.148 107.938 174.73 108.704 174.515 109.623C174.301 110.541 173.275 111.659 171.438 112.96C169.616 114.262 167.916 115.058 166.324 115.379C164.732 115.686 163.293 115.548 161.976 114.951C160.598 114.323 160.032 113.527 160.322 112.562C160.598 111.598 161.609 110.495 163.339 109.271ZM165.497 110.25C164.288 111.108 163.522 111.827 163.155 112.44C162.787 113.037 162.956 113.496 163.63 113.802C164.288 114.109 165.069 114.109 165.972 113.818C166.875 113.527 167.993 112.914 169.294 111.98C170.489 111.138 171.254 110.403 171.622 109.822C171.989 109.225 171.821 108.765 171.116 108.459C170.458 108.153 169.662 108.153 168.759 108.459C167.855 108.75 166.768 109.347 165.497 110.25Z" fill="#271273"/>
<path d="M283.848 142.096L269.135 150.042L281.046 156.916L290.079 157.575L296.709 147.363L283.848 142.096Z" fill="url(#paint20_linear_37_8678)"/>
<path opacity="0.5" d="M302.45 132.756L256.213 111.642L279.867 94.8008L326.105 115.914L302.45 132.756Z" fill="url(#paint21_linear_37_8678)"/>
<g opacity="0.8">
<path opacity="0.8" d="M269.226 114.17C270.558 114.782 271.875 115.042 273.161 114.95C274.447 114.859 275.596 114.46 276.606 113.741C277.693 112.975 278.061 112.21 277.739 111.475C277.418 110.74 276.484 110.005 274.937 109.316L272.457 108.275L282.363 101.217L292.835 105.994L289.528 108.352L282.47 105.121L278.811 107.724L280.158 108.214C281.123 108.688 281.858 109.224 282.363 109.791C282.883 110.357 283.159 110.954 283.205 111.582C283.266 112.21 283.067 112.853 282.638 113.511C282.21 114.17 281.551 114.828 280.648 115.471C279.576 116.236 278.443 116.803 277.218 117.201C275.994 117.599 274.754 117.813 273.498 117.875C272.243 117.936 270.987 117.829 269.747 117.584C268.507 117.324 267.297 116.941 266.149 116.42C265.23 116.007 264.434 115.563 263.745 115.088C263.056 114.614 262.551 114.17 262.214 113.741L266.21 112.149C266.501 112.485 266.869 112.822 267.328 113.144C267.818 113.465 268.446 113.817 269.226 114.17Z" fill="#3D065F"/>
<path opacity="0.8" d="M287.783 114.735C291.105 112.362 294.213 110.908 297.107 110.341C300.001 109.775 302.649 110.035 305.038 111.137C307.595 112.301 308.666 113.725 308.268 115.409C307.87 117.093 305.987 119.13 302.634 121.518C299.296 123.891 296.173 125.376 293.264 125.943C290.355 126.509 287.691 126.249 285.302 125.162C282.761 123.998 281.75 122.544 282.271 120.783C282.761 119.007 284.598 116.986 287.783 114.735ZM291.733 116.542C289.528 118.104 288.104 119.451 287.431 120.553C286.772 121.656 287.048 122.483 288.288 123.049C289.482 123.6 290.906 123.6 292.575 123.08C294.228 122.544 296.265 121.426 298.669 119.727C300.858 118.165 302.282 116.848 302.94 115.761C303.599 114.674 303.292 113.832 302.022 113.25C300.812 112.699 299.373 112.699 297.719 113.25C296.05 113.771 294.06 114.873 291.733 116.542Z" fill="#3D065F"/>
<path opacity="0.8" d="M305.038 122.607C308.36 120.249 311.468 118.779 314.362 118.212C317.256 117.646 319.904 117.906 322.293 119.009C324.85 120.172 325.921 121.596 325.523 123.28C325.125 124.964 323.242 127.001 319.889 129.389C316.551 131.762 313.428 133.247 310.504 133.814C307.595 134.38 304.931 134.12 302.542 133.033C300.001 131.869 298.99 130.415 299.495 128.654C300.016 126.893 301.853 124.872 305.038 122.607ZM308.988 124.413C306.783 125.975 305.359 127.322 304.686 128.425C304.027 129.527 304.303 130.354 305.543 130.92C306.737 131.471 308.161 131.471 309.83 130.951C311.484 130.415 313.52 129.297 315.924 127.598C318.113 126.036 319.537 124.719 320.195 123.632C320.854 122.545 320.547 121.703 319.277 121.121C318.067 120.57 316.628 120.57 314.974 121.121C313.306 121.657 311.315 122.76 308.988 124.413Z" fill="#3D065F"/>
</g>
<path d="M260.316 101.155L254.85 101.109L259.55 99.165L258.478 96.0876L262.658 97.9096L267.466 96.0723L265.368 99.1497L269.395 101.079L263.914 101.155L261.602 104.187L260.316 101.155Z" fill="#F7AA90"/>
<path d="M210.801 136.417L205.335 136.371L210.02 134.427L208.964 131.349L213.144 133.171L217.951 131.334L215.839 134.411L219.88 136.34L214.384 136.417L212.072 139.449L210.801 136.417Z" fill="#F7AA90"/>
<path d="M199.824 127.751L194.358 127.69L199.058 125.745L197.986 122.668L202.166 124.49L206.974 122.652L204.876 125.73L208.903 127.659L203.422 127.735L201.11 130.782L199.824 127.751Z" fill="#F7AA90"/>
<path d="M242.892 97.0828L237.426 97.0216L242.127 95.0771L241.055 91.9997L245.25 93.8216L250.042 91.9844L247.945 95.0618L251.971 96.9909L246.49 97.0675L244.178 100.099L242.892 97.0828Z" fill="#F7AA90"/>
<path d="M223.264 98.9207L217.798 98.8595L222.499 96.915L221.427 93.8376L225.622 95.6596L230.414 93.8223L228.317 96.8997L232.359 98.8288L226.862 98.9054L224.55 101.937L223.264 98.9207Z" fill="#F7AA90"/>
<path d="M198.507 116.542L193.041 116.496L197.741 114.536L196.67 111.474L200.849 113.296L205.657 111.459L203.559 114.536L207.586 116.466L202.105 116.542L199.793 119.574L198.507 116.542Z" fill="#F7AA90"/>
<path d="M207.693 105.657L202.227 105.611L206.912 103.651L205.856 100.589L210.036 102.411L214.843 100.559L212.73 103.636L216.772 105.565L211.291 105.657L208.979 108.688L207.693 105.657Z" fill="#F7AA90"/>
<path d="M227.459 140.366L228.745 143.397L231.042 140.351L236.538 140.274L232.496 138.345L234.609 135.268L229.802 137.12L225.622 135.283L226.678 138.36L221.993 140.305L227.459 140.366Z" fill="#F7AA90"/>
<path d="M270.528 109.698L271.814 112.73L274.126 109.683L279.607 109.606L275.565 107.677L277.678 104.6L272.87 106.452L268.691 104.615L269.747 107.692L265.062 109.637L270.528 109.698Z" fill="#F7AA90"/>
<path d="M271.661 121.015L272.947 124.046L275.259 121.015L280.755 120.938L276.713 119.009L278.811 115.932L274.019 117.769L269.823 115.947L270.895 119.009L266.195 120.969L271.661 121.015Z" fill="#F7AA90"/>
<path d="M246.904 138.651L248.19 141.683L250.502 138.636L255.983 138.559L251.956 136.63L254.054 133.553L249.246 135.405L245.066 133.583L246.138 136.645L241.438 138.59L246.904 138.651Z" fill="#F7AA90"/>
<path d="M263.531 131.165L264.817 134.196L267.129 131.15L272.61 131.073L268.583 129.144L270.681 126.066L265.873 127.919L261.693 126.097L262.765 129.159L258.065 131.104L263.531 131.165Z" fill="#F7AA90"/>
<path d="M260.315 101.155L254.849 101.109L259.55 99.165L258.478 96.0876L262.658 97.9096L267.465 96.0723L265.368 99.1497L269.395 101.079L263.913 101.155L261.601 104.187L260.315 101.155Z" fill="url(#paint22_linear_37_8678)"/>
<path d="M210.801 136.415L205.335 136.369L210.02 134.425L208.964 131.347L213.144 133.169L217.951 131.332L215.838 134.409L219.88 136.339L214.384 136.415L212.072 139.447L210.801 136.415Z" fill="url(#paint23_linear_37_8678)"/>
<path d="M227.459 140.366L228.745 143.397L231.042 140.351L236.538 140.274L232.496 138.345L234.609 135.268L229.802 137.12L225.622 135.283L226.678 138.36L221.993 140.305L227.459 140.366Z" fill="url(#paint24_linear_37_8678)"/>
<path d="M270.528 109.698L271.814 112.73L274.126 109.683L279.607 109.606L275.565 107.677L277.678 104.6L272.87 106.452L268.69 104.615L269.747 107.692L265.062 109.637L270.528 109.698Z" fill="url(#paint25_linear_37_8678)"/>
<path d="M271.661 121.013L272.947 124.044L275.259 121.013L280.755 120.936L276.713 119.007L278.811 115.93L274.018 117.767L269.823 115.945L270.895 119.007L266.195 120.967L271.661 121.013Z" fill="url(#paint26_linear_37_8678)"/>
<path d="M246.903 138.651L248.19 141.683L250.501 138.636L255.983 138.559L251.956 136.63L254.054 133.553L249.246 135.405L245.066 133.583L246.138 136.645L241.438 138.59L246.903 138.651Z" fill="url(#paint27_linear_37_8678)"/>
<path d="M263.531 131.163L264.817 134.194L267.129 131.148L272.61 131.071L268.583 129.142L270.681 126.064L265.873 127.917L261.693 126.095L262.765 129.157L258.065 131.102L263.531 131.163Z" fill="url(#paint28_linear_37_8678)"/>
<path d="M271.431 188.703V201.839L343.651 161.006V147.211L271.431 188.703Z" fill="url(#paint29_linear_37_8678)"/>
<path d="M271.523 188.702V201.838L128.262 120.34V106.561L271.523 188.702Z" fill="url(#paint30_linear_37_8678)"/>
<path opacity="0.7" d="M161.991 126.004L128.032 106.406L128.599 120.125L162.542 139.722L161.991 126.004Z" fill="url(#paint31_linear_37_8678)"/>
<path opacity="0.5" d="M223.371 161.188L201.661 148.449L202.212 162.167L223.938 174.906L223.371 161.188Z" fill="url(#paint32_linear_37_8678)"/>
<path opacity="0.2" d="M128.262 110.924L271.768 192.223L343.927 151.313L271.508 191.151L128.262 110.924Z" fill="#3D065F"/>
<path opacity="0.2" d="M128.262 114.154L271.768 195.453L343.927 154.544L271.508 194.382L128.262 114.154Z" fill="#3D065F"/>
<path opacity="0.2" d="M128.262 117.385L271.768 198.699L343.927 157.774L271.508 197.612L128.262 117.385Z" fill="#3D065F"/>
<path d="M170.825 149.521H122.015V156.411H122.031C122.031 156.472 122.015 156.549 122.015 156.61C122.015 164.465 132.947 170.818 146.42 170.818C159.894 170.818 170.825 164.449 170.825 156.61C170.825 156.549 170.825 156.472 170.81 156.411H170.825V149.521Z" fill="url(#paint33_linear_37_8678)"/>
<path d="M122 155.508V155.707C122 155.63 122.015 155.569 122 155.508Z" fill="url(#paint34_linear_37_8678)"/>
<path d="M146.405 169.302C132.932 169.302 122 162.933 122 155.094V156.426H122.015C122.015 156.487 122 156.564 122 156.625C122 164.479 132.932 170.833 146.405 170.833C159.878 170.833 170.81 164.464 170.81 156.625C170.81 156.564 170.81 156.487 170.795 156.426H170.81V155.094C170.825 162.933 159.894 169.302 146.405 169.302Z" fill="url(#paint35_linear_37_8678)"/>
<path d="M170.825 155.691V155.492H170.81C170.81 155.569 170.825 155.63 170.825 155.691Z" fill="url(#paint36_linear_37_8678)"/>
<path d="M153.892 170.144C154.122 170.098 154.351 170.052 154.581 169.991V151.939H153.892V170.144Z" fill="#FDD65B"/>
<path d="M156.954 169.409C157.184 169.348 157.413 169.286 157.643 169.21V151.939H156.954V169.409Z" fill="#FDD65B"/>
<path d="M160.016 168.414C160.246 168.322 160.475 168.215 160.705 168.123V151.955H160.016V168.414Z" fill="#FDD65B"/>
<path d="M150.814 170.574C151.044 170.543 151.274 170.528 151.503 170.497V151.926H150.814V170.574Z" fill="#FDD65B"/>
<path d="M166.156 164.938C166.385 164.754 166.615 164.571 166.845 164.372V151.939H166.156V164.938Z" fill="#FDD65B"/>
<path d="M169.218 161.633C169.478 161.235 169.708 160.837 169.907 160.424V151.941H169.218V161.633Z" fill="#FDD65B"/>
<path d="M163.094 166.975C163.323 166.852 163.553 166.73 163.782 166.607V151.955H163.094V166.975Z" fill="#FDD65B"/>
<path d="M147.752 170.787C147.982 170.787 148.212 170.772 148.441 170.772V151.955H147.752V170.787Z" fill="#FDD65B"/>
<path d="M144.69 170.772C144.92 170.787 145.15 170.787 145.379 170.787V151.939H144.69V170.772Z" fill="#FDD65B"/>
<path d="M138.551 170.054C138.78 170.1 139.01 170.146 139.24 170.192V151.941H138.551V170.054Z" fill="#FDD65B"/>
<path d="M141.628 170.542C141.858 170.572 142.087 170.588 142.317 170.603V151.939H141.628V170.542Z" fill="#FDD65B"/>
<path d="M135.489 169.302C135.718 169.363 135.948 169.424 136.178 169.501V151.939H135.489V169.302Z" fill="#FDD65B"/>
<path d="M123.225 161.034C123.439 161.401 123.654 161.769 123.914 162.121V151.939H123.225V161.034Z" fill="#FDD65B"/>
<path d="M126.287 164.649C126.501 164.833 126.746 165.001 126.976 165.185V151.941H126.287V164.649Z" fill="#FDD65B"/>
<path d="M132.427 168.247C132.656 168.339 132.886 168.431 133.115 168.523V151.957H132.427V168.247Z" fill="#FDD65B"/>
<path d="M129.364 166.762C129.579 166.885 129.824 167.007 130.053 167.13V151.941H129.364V166.762Z" fill="#FDD65B"/>
<path d="M146.405 163.836C159.884 163.836 170.81 157.475 170.81 149.628C170.81 141.781 159.884 135.42 146.405 135.42C132.927 135.42 122 141.781 122 149.628C122 157.475 132.927 163.836 146.405 163.836Z" fill="url(#paint37_linear_37_8678)"/>
<path d="M146.405 163.453C133.207 163.453 122.49 157.359 122.046 149.734C122.031 149.903 122 150.056 122 150.224C122 158.079 132.932 164.433 146.405 164.433C159.878 164.433 170.81 158.063 170.81 150.224C170.81 150.056 170.779 149.903 170.764 149.734C170.32 157.359 159.603 163.453 146.405 163.453Z" fill="url(#paint38_radial_37_8678)"/>
<path d="M164.655 149.627C164.655 155.491 156.479 160.253 146.405 160.253C136.331 160.253 128.155 155.491 128.155 149.627C128.155 143.764 136.331 139.002 146.405 139.002C156.495 139.002 164.655 143.764 164.655 149.627Z" fill="url(#paint39_linear_37_8678)"/>
<path d="M147.017 139.539C156.77 139.539 164.701 143.995 165.206 149.598C165.222 149.415 165.252 149.216 165.252 149.032C165.252 143.168 157.076 138.406 147.002 138.406C136.928 138.406 128.752 143.168 128.752 149.032C128.752 149.231 128.783 149.415 128.798 149.598C129.334 143.979 137.28 139.539 147.017 139.539Z" fill="url(#paint40_radial_37_8678)"/>
<path d="M146.405 140.135C156.158 140.135 164.089 144.59 164.594 150.194C164.609 150.01 164.64 149.811 164.64 149.627C164.64 143.764 156.464 139.002 146.39 139.002C136.315 139.002 128.14 143.764 128.14 149.627C128.14 149.827 128.17 150.01 128.185 150.194C128.721 144.59 136.668 140.135 146.405 140.135Z" fill="url(#paint41_linear_37_8678)"/>
<path d="M170.825 141.82H122.015V148.71H122.031C122.031 148.771 122.015 148.848 122.015 148.909C122.015 156.763 132.947 163.117 146.42 163.117C159.894 163.117 170.825 156.748 170.825 148.909C170.825 148.848 170.825 148.771 170.81 148.71H170.825V141.82Z" fill="url(#paint42_linear_37_8678)"/>
<path d="M122 147.791V147.99C122 147.929 122.015 147.868 122 147.791Z" fill="url(#paint43_linear_37_8678)"/>
<path d="M146.405 161.603C132.932 161.603 122 155.234 122 147.395V148.711H122.015C122.015 148.772 122 148.849 122 148.91C122 156.765 132.932 163.119 146.405 163.119C159.878 163.119 170.81 156.749 170.81 148.91C170.81 148.849 170.81 148.772 170.795 148.711H170.81V147.395C170.825 155.234 159.894 161.603 146.405 161.603Z" fill="url(#paint44_linear_37_8678)"/>
<path d="M170.825 147.99V147.791H170.81C170.81 147.868 170.825 147.929 170.825 147.99Z" fill="url(#paint45_linear_37_8678)"/>
<path d="M153.892 162.429C154.122 162.383 154.351 162.337 154.581 162.276V144.225H153.892V162.429Z" fill="#FDD65B"/>
<path d="M156.954 161.71C157.184 161.648 157.413 161.587 157.643 161.51V144.24H156.954V161.71Z" fill="#FDD65B"/>
<path d="M160.016 160.697C160.246 160.605 160.475 160.498 160.705 160.406V144.238H160.016V160.697Z" fill="#FDD65B"/>
<path d="M150.814 162.873C151.044 162.842 151.274 162.827 151.503 162.796V144.225H150.814V162.873Z" fill="#FDD65B"/>
<path d="M166.156 157.239C166.385 157.055 166.615 156.871 166.845 156.672V144.24H166.156V157.239Z" fill="#FDD65B"/>
<path d="M169.218 153.93C169.478 153.532 169.708 153.134 169.907 152.72V144.238H169.218V153.93Z" fill="#FDD65B"/>
<path d="M163.094 159.258C163.323 159.135 163.553 159.013 163.782 158.891V144.238H163.094V159.258Z" fill="#FDD65B"/>
<path d="M147.752 163.086C147.982 163.086 148.212 163.071 148.441 163.071V144.254H147.752V163.086Z" fill="#FDD65B"/>
<path d="M144.69 163.07C144.92 163.086 145.149 163.086 145.379 163.086V144.238H144.69V163.07Z" fill="#FDD65B"/>
<path d="M138.551 162.351C138.78 162.397 139.01 162.443 139.24 162.488V144.238H138.551V162.351Z" fill="#FDD65B"/>
<path d="M141.628 162.843C141.858 162.873 142.087 162.873 142.317 162.904V144.24H141.628V162.843Z" fill="#FDD65B"/>
<path d="M135.489 161.6C135.718 161.662 135.948 161.723 136.177 161.799V144.238H135.489V161.6Z" fill="#FDD65B"/>
<path d="M123.225 153.333C123.439 153.7 123.654 154.068 123.914 154.42V144.238H123.225V153.333Z" fill="#FDD65B"/>
<path d="M126.287 156.948C126.501 157.132 126.746 157.3 126.976 157.484V144.24H126.287V156.948Z" fill="#FDD65B"/>
<path d="M132.427 160.544C132.656 160.636 132.886 160.728 133.115 160.82V144.254H132.427V160.544Z" fill="#FDD65B"/>
<path d="M129.364 159.059C129.579 159.181 129.824 159.304 130.053 159.426V144.238H129.364V159.059Z" fill="#FDD65B"/>
<path d="M146.405 156.137C159.884 156.137 170.81 149.776 170.81 141.929C170.81 134.082 159.884 127.721 146.405 127.721C132.927 127.721 122 134.082 122 141.929C122 149.776 132.927 156.137 146.405 156.137Z" fill="url(#paint46_linear_37_8678)"/>
<path d="M146.405 155.753C133.207 155.753 122.49 149.66 122.046 142.035C122.031 142.204 122 142.357 122 142.525C122 150.379 132.932 156.733 146.405 156.733C159.878 156.733 170.81 150.364 170.81 142.525C170.81 142.357 170.779 142.204 170.764 142.035C170.32 149.66 159.603 155.753 146.405 155.753Z" fill="url(#paint47_radial_37_8678)"/>
<path d="M146.405 152.554C156.484 152.554 164.655 147.797 164.655 141.928C164.655 136.06 156.484 131.303 146.405 131.303C136.326 131.303 128.155 136.06 128.155 141.928C128.155 147.797 136.326 152.554 146.405 152.554Z" fill="url(#paint48_linear_37_8678)"/>
<path d="M147.017 131.823C156.77 131.823 164.701 136.278 165.206 141.881C165.222 141.698 165.252 141.499 165.252 141.315C165.252 135.451 157.076 130.689 147.002 130.689C136.928 130.689 128.752 135.451 128.752 141.315C128.752 141.514 128.783 141.698 128.798 141.881C129.334 136.278 137.28 131.823 147.017 131.823Z" fill="url(#paint49_radial_37_8678)"/>
<path d="M146.405 132.436C156.158 132.436 164.089 136.891 164.594 142.495C164.609 142.311 164.64 142.112 164.64 141.928C164.64 136.064 156.464 131.303 146.39 131.303C136.315 131.303 128.14 136.064 128.14 141.928C128.14 142.127 128.17 142.311 128.185 142.495C128.721 136.891 136.668 132.436 146.405 132.436Z" fill="url(#paint50_linear_37_8678)"/>
<path d="M170.825 133.721H122.015V140.61H122.031C122.031 140.672 122.015 140.748 122.015 140.81C122.015 148.664 132.947 155.018 146.42 155.018C159.894 155.018 170.825 148.649 170.825 140.81C170.825 140.748 170.825 140.672 170.81 140.61H170.825V133.721Z" fill="url(#paint51_linear_37_8678)"/>
<path d="M122 139.691V139.89C122 139.814 122.015 139.753 122 139.691Z" fill="url(#paint52_linear_37_8678)"/>
<path d="M146.405 153.485C132.932 153.485 122 147.116 122 139.277V140.609H122.015C122.015 140.671 122 140.747 122 140.808C122 148.663 132.932 155.017 146.405 155.017C159.878 155.017 170.81 148.647 170.81 140.808C170.81 140.747 170.81 140.671 170.795 140.609H170.81V139.277C170.825 147.132 159.894 153.485 146.405 153.485Z" fill="url(#paint53_linear_37_8678)"/>
<path d="M170.825 139.89V139.691H170.81C170.81 139.753 170.825 139.814 170.825 139.89Z" fill="url(#paint54_linear_37_8678)"/>
<path d="M153.892 154.327C154.122 154.281 154.351 154.235 154.581 154.174V136.123H153.892V154.327Z" fill="#FDD65B"/>
<path d="M156.954 153.592C157.184 153.531 157.413 153.47 157.643 153.393V136.123H156.954V153.592Z" fill="#FDD65B"/>
<path d="M160.016 152.598C160.246 152.506 160.475 152.399 160.705 152.307V136.139H160.016V152.598Z" fill="#FDD65B"/>
<path d="M150.815 154.773C151.044 154.743 151.274 154.727 151.504 154.697V136.125H150.815V154.773Z" fill="#FDD65B"/>
<path d="M166.156 149.137C166.385 148.954 166.615 148.77 166.845 148.571V136.139H166.156V149.137Z" fill="#FDD65B"/>
<path d="M169.218 145.815C169.478 145.416 169.708 145.018 169.907 144.605V136.123H169.218V145.815Z" fill="#FDD65B"/>
<path d="M163.094 151.158C163.323 151.036 163.553 150.913 163.782 150.791V136.139H163.094V151.158Z" fill="#FDD65B"/>
<path d="M147.752 154.971C147.982 154.971 148.212 154.955 148.441 154.955V136.139H147.752V154.971Z" fill="#FDD65B"/>
<path d="M144.69 154.955C144.92 154.97 145.15 154.97 145.379 154.97V136.123H144.69V154.955Z" fill="#FDD65B"/>
<path d="M138.551 154.237C138.78 154.283 139.01 154.329 139.24 154.375V136.125H138.551V154.237Z" fill="#FDD65B"/>
<path d="M141.628 154.725C141.858 154.756 142.087 154.756 142.317 154.787V136.123H141.628V154.725Z" fill="#FDD65B"/>
<path d="M135.489 153.501C135.718 153.562 135.948 153.623 136.178 153.7V136.139H135.489V153.501Z" fill="#FDD65B"/>
<path d="M123.225 145.218C123.439 145.585 123.654 145.952 123.914 146.305V136.123H123.225V145.218Z" fill="#FDD65B"/>
<path d="M126.287 148.833C126.501 149.016 126.746 149.185 126.976 149.369V136.125H126.287V148.833Z" fill="#FDD65B"/>
<path d="M132.427 152.429C132.656 152.521 132.886 152.613 133.115 152.705V136.139H132.427V152.429Z" fill="#FDD65B"/>
<path d="M129.364 150.959C129.579 151.082 129.824 151.204 130.053 151.327V136.139H129.364V150.959Z" fill="#FDD65B"/>
<path d="M146.405 148.02C159.884 148.02 170.81 141.659 170.81 133.812C170.81 125.965 159.884 119.604 146.405 119.604C132.927 119.604 122 125.965 122 133.812C122 141.659 132.927 148.02 146.405 148.02Z" fill="url(#paint55_linear_37_8678)"/>
<path d="M146.405 147.638C133.207 147.638 122.49 141.545 122.046 133.92C122.031 134.088 122 134.241 122 134.41C122 142.264 132.932 148.618 146.405 148.618C159.878 148.618 170.81 142.249 170.81 134.41C170.81 134.241 170.779 134.088 170.764 133.92C170.32 141.545 159.603 147.638 146.405 147.638Z" fill="url(#paint56_radial_37_8678)"/>
<path d="M146.405 144.439C156.484 144.439 164.655 139.681 164.655 133.813C164.655 127.945 156.484 123.188 146.405 123.188C136.326 123.188 128.155 127.945 128.155 133.813C128.155 139.681 136.326 144.439 146.405 144.439Z" fill="url(#paint57_linear_37_8678)"/>
<path d="M147.017 123.723C156.77 123.723 164.701 128.178 165.206 133.782C165.222 133.598 165.252 133.399 165.252 133.215C165.252 127.351 157.076 122.59 147.002 122.59C136.928 122.59 128.752 127.351 128.752 133.215C128.752 133.414 128.783 133.598 128.798 133.782C129.334 128.178 137.28 123.723 147.017 123.723Z" fill="url(#paint58_radial_37_8678)"/>
<path d="M146.405 124.319C156.158 124.319 164.089 128.774 164.594 134.378C164.609 134.194 164.64 133.995 164.64 133.811C164.64 127.947 156.464 123.186 146.39 123.186C136.315 123.186 128.14 127.947 128.14 133.811C128.14 134.01 128.17 134.194 128.185 134.378C128.721 128.774 136.668 124.319 146.405 124.319Z" fill="url(#paint59_linear_37_8678)"/>
<path d="M170.825 125.484H122.015V132.374H122.031C122.031 132.435 122.015 132.512 122.015 132.573C122.015 140.427 132.947 146.781 146.42 146.781C159.894 146.781 170.825 140.412 170.825 132.573C170.825 132.512 170.825 132.435 170.81 132.374H170.825V125.484Z" fill="url(#paint60_linear_37_8678)"/>
<path d="M122 131.455V131.654C122 131.578 122.015 131.516 122 131.455Z" fill="url(#paint61_linear_37_8678)"/>
<path d="M146.405 145.249C132.932 145.249 122 138.88 122 131.041V132.357H122.015C122.015 132.419 122 132.495 122 132.556C122 140.411 132.932 146.765 146.405 146.765C159.878 146.765 170.81 140.395 170.81 132.556C170.81 132.495 170.81 132.419 170.795 132.357H170.81V131.025C170.825 138.895 159.894 145.249 146.405 145.249Z" fill="url(#paint62_linear_37_8678)"/>
<path d="M170.825 131.654V131.455H170.81C170.81 131.516 170.825 131.578 170.825 131.654Z" fill="url(#paint63_linear_37_8678)"/>
<path d="M153.892 146.091C154.122 146.045 154.351 145.999 154.581 145.938V127.887H153.892V146.091Z" fill="#FDD65B"/>
<path d="M156.954 145.372C157.184 145.31 157.413 145.249 157.643 145.173V127.902H156.954V145.372Z" fill="#FDD65B"/>
<path d="M160.016 144.361C160.246 144.269 160.475 144.162 160.705 144.07V127.902H160.016V144.361Z" fill="#FDD65B"/>
<path d="M150.815 146.535C151.044 146.504 151.274 146.489 151.504 146.458V127.887H150.815V146.535Z" fill="#FDD65B"/>
<path d="M166.156 140.901C166.385 140.717 166.615 140.534 166.845 140.335V127.902H166.156V140.901Z" fill="#FDD65B"/>
<path d="M169.218 137.594C169.478 137.196 169.708 136.798 169.907 136.384V127.902H169.218V137.594Z" fill="#FDD65B"/>
<path d="M163.094 142.922C163.323 142.8 163.553 142.677 163.782 142.554V127.902H163.094V142.922Z" fill="#FDD65B"/>
<path d="M147.752 146.734C147.982 146.734 148.212 146.719 148.441 146.719V127.902H147.752V146.734Z" fill="#FDD65B"/>
<path d="M144.69 146.719C144.92 146.734 145.15 146.734 145.379 146.734V127.887H144.69V146.719Z" fill="#FDD65B"/>
<path d="M138.551 146.015C138.78 146.061 139.01 146.107 139.24 146.153V127.902H138.551V146.015Z" fill="#FDD65B"/>
<path d="M141.628 146.489C141.858 146.52 142.087 146.52 142.317 146.55V127.887H141.628V146.489Z" fill="#FDD65B"/>
<path d="M135.489 145.264C135.718 145.326 135.948 145.387 136.178 145.464V127.902H135.489V145.264Z" fill="#FDD65B"/>
<path d="M123.225 136.981C123.439 137.349 123.654 137.716 123.914 138.068V127.887H123.225V136.981Z" fill="#FDD65B"/>
<path d="M126.287 140.594C126.501 140.778 126.746 140.947 126.976 141.13V127.887H126.287V140.594Z" fill="#FDD65B"/>
<path d="M132.427 144.193C132.656 144.285 132.886 144.376 133.115 144.468V127.902H132.427V144.193Z" fill="#FDD65B"/>
<path d="M129.364 142.723C129.579 142.845 129.824 142.968 130.053 143.09V127.902H129.364V142.723Z" fill="#FDD65B"/>
<path d="M146.405 139.784C159.884 139.784 170.81 133.422 170.81 125.575C170.81 117.728 159.884 111.367 146.405 111.367C132.927 111.367 122 117.728 122 125.575C122 133.422 132.927 139.784 146.405 139.784Z" fill="url(#paint64_linear_37_8678)"/>
<path d="M146.405 139.415C133.207 139.415 122.49 133.322 122.046 125.697C122.031 125.866 122 126.019 122 126.187C122 134.041 132.932 140.395 146.405 140.395C159.878 140.395 170.81 134.026 170.81 126.187C170.81 126.019 170.779 125.866 170.764 125.697C170.32 133.307 159.603 139.415 146.405 139.415Z" fill="url(#paint65_radial_37_8678)"/>
<path d="M164.655 125.575C164.655 131.439 156.479 136.2 146.405 136.2C136.331 136.2 128.155 131.439 128.155 125.575C128.155 119.711 136.331 114.949 146.405 114.949C156.495 114.949 164.655 119.711 164.655 125.575Z" fill="url(#paint66_linear_37_8678)"/>
<path d="M147.017 115.487C156.77 115.487 164.701 119.942 165.206 125.546C165.222 125.362 165.252 125.163 165.252 124.979C165.252 119.115 157.076 114.354 147.002 114.354C136.928 114.354 128.752 119.115 128.752 124.979C128.752 125.178 128.783 125.362 128.798 125.546C129.334 119.942 137.28 115.487 147.017 115.487Z" fill="url(#paint67_radial_37_8678)"/>
<path d="M146.405 116.098C156.158 116.098 164.089 120.553 164.594 126.157C164.609 125.973 164.64 125.774 164.64 125.59C164.64 119.726 156.464 114.965 146.39 114.965C136.315 114.965 128.14 119.726 128.14 125.59C128.14 125.789 128.17 125.973 128.185 126.157C128.721 120.538 136.668 116.098 146.405 116.098Z" fill="url(#paint68_linear_37_8678)"/>
<path d="M152.346 123.232L158.531 124.349C159.572 124.533 159.786 125.329 158.898 125.681L153.632 127.825C153.279 127.963 153.08 128.208 153.08 128.453L153.188 132.188C153.203 132.816 151.978 133.168 151.105 132.801L145.915 130.565C145.563 130.412 145.119 130.382 144.721 130.458L138.612 131.652C137.586 131.851 136.606 131.285 136.943 130.688L138.995 127.151C139.133 126.921 139.056 126.661 138.796 126.462L134.907 123.461C134.264 122.956 134.876 122.252 135.963 122.252L142.424 122.313C142.853 122.313 143.251 122.206 143.511 121.992L147.232 118.945C147.86 118.439 149.222 118.562 149.544 119.159L151.488 122.726C151.611 122.971 151.932 123.155 152.346 123.232Z" fill="url(#paint69_linear_37_8678)"/>
<path d="M152.346 122.529L158.531 123.646C159.572 123.83 159.786 124.626 158.898 124.978L153.632 127.122C153.279 127.26 153.08 127.504 153.08 127.749L153.188 131.485C153.203 132.113 151.978 132.465 151.105 132.098L145.915 129.862C145.563 129.709 145.119 129.679 144.721 129.755L138.612 130.949C137.586 131.148 136.606 130.582 136.943 129.985L138.995 126.448C139.133 126.218 139.056 125.958 138.796 125.759L134.907 122.758C134.264 122.253 134.876 121.549 135.963 121.549L142.424 121.61C142.853 121.61 143.251 121.503 143.511 121.288L147.232 118.242C147.86 117.736 149.222 117.859 149.544 118.456L151.488 122.023C151.611 122.268 151.932 122.467 152.346 122.529Z" fill="url(#paint70_linear_37_8678)"/>
<path d="M208.688 166.623H159.878V173.513H159.894C159.894 173.574 159.878 173.651 159.878 173.712C159.878 181.566 170.81 187.92 184.283 187.92C197.757 187.92 208.688 181.551 208.688 173.712C208.688 173.651 208.688 173.574 208.673 173.513H208.688V166.623Z" fill="url(#paint71_linear_37_8678)"/>
<path d="M159.878 172.594V172.793C159.878 172.731 159.894 172.67 159.878 172.594Z" fill="url(#paint72_linear_37_8678)"/>
<path d="M184.283 186.403C170.81 186.403 159.878 180.034 159.878 172.195V173.527H159.894C159.894 173.589 159.878 173.665 159.878 173.726C159.878 181.581 170.81 187.935 184.283 187.935C197.757 187.935 208.688 181.565 208.688 173.726C208.688 173.665 208.688 173.589 208.673 173.527H208.688V172.195C208.688 180.034 197.772 186.403 184.283 186.403Z" fill="url(#paint73_linear_37_8678)"/>
<path d="M208.688 172.793V172.594H208.673C208.688 172.67 208.688 172.731 208.688 172.793Z" fill="url(#paint74_linear_37_8678)"/>
<path d="M191.77 187.232C192 187.186 192.23 187.14 192.459 187.078V169.027H191.77V187.232Z" fill="#FDD65B"/>
<path d="M194.832 186.51C195.062 186.449 195.292 186.388 195.521 186.311V169.041H194.832V186.51Z" fill="#FDD65B"/>
<path d="M197.895 185.5C198.124 185.408 198.354 185.301 198.583 185.209V169.041H197.895V185.5Z" fill="#FDD65B"/>
<path d="M188.693 187.676C188.923 187.645 189.152 187.63 189.382 187.599V169.027H188.693V187.676Z" fill="#FDD65B"/>
<path d="M204.034 182.04C204.264 181.856 204.493 181.672 204.723 181.473V169.041H204.034V182.04Z" fill="#FDD65B"/>
<path d="M207.096 178.733C207.357 178.334 207.586 177.936 207.785 177.523V169.041H207.096V178.733Z" fill="#FDD65B"/>
<path d="M200.957 184.061C201.186 183.938 201.416 183.816 201.646 183.693V169.041H200.957V184.061Z" fill="#FDD65B"/>
<path d="M185.631 187.873C185.86 187.873 186.09 187.858 186.32 187.858V169.041H185.631V187.873Z" fill="#FDD65B"/>
<path d="M182.569 187.873C182.798 187.888 183.028 187.888 183.258 187.888V169.041H182.569V187.873Z" fill="#FDD65B"/>
<path d="M176.429 187.153C176.659 187.199 176.888 187.245 177.118 187.291V169.041H176.429V187.153Z" fill="#FDD65B"/>
<path d="M179.491 187.643C179.721 187.674 179.951 187.674 180.18 187.705V169.041H179.491V187.643Z" fill="#FDD65B"/>
<path d="M173.367 186.403C173.597 186.464 173.826 186.526 174.056 186.602V169.041H173.367V186.403Z" fill="#FDD65B"/>
<path d="M161.103 178.135C161.318 178.503 161.532 178.87 161.792 179.222V169.041H161.103V178.135Z" fill="#FDD65B"/>
<path d="M164.165 181.749C164.38 181.932 164.625 182.101 164.854 182.285V169.041H164.165V181.749Z" fill="#FDD65B"/>
<path d="M170.305 185.349C170.535 185.441 170.764 185.533 170.994 185.625V169.059H170.305V185.349Z" fill="#FDD65B"/>
<path d="M167.227 183.862C167.442 183.984 167.687 184.107 167.916 184.229V169.041H167.227V183.862Z" fill="#FDD65B"/>
<path d="M184.283 180.924C197.762 180.924 208.688 174.563 208.688 166.716C208.688 158.869 197.762 152.508 184.283 152.508C170.805 152.508 159.878 158.869 159.878 166.716C159.878 174.563 170.805 180.924 184.283 180.924Z" fill="url(#paint75_linear_37_8678)"/>
<path d="M184.283 180.556C171.086 180.556 160.368 174.463 159.924 166.838C159.909 167.006 159.878 167.159 159.878 167.328C159.878 175.182 170.81 181.536 184.283 181.536C197.757 181.536 208.688 175.167 208.688 167.328C208.688 167.159 208.658 167.006 208.642 166.838C208.198 174.463 197.481 180.556 184.283 180.556Z" fill="url(#paint76_radial_37_8678)"/>
<path d="M184.283 177.341C194.363 177.341 202.534 172.584 202.534 166.715C202.534 160.847 194.363 156.09 184.283 156.09C174.204 156.09 166.033 160.847 166.033 166.715C166.033 172.584 174.204 177.341 184.283 177.341Z" fill="url(#paint77_linear_37_8678)"/>
<path d="M184.896 156.625C194.649 156.625 202.58 161.081 203.085 166.684C203.1 166.5 203.131 166.301 203.131 166.118C203.131 160.254 194.955 155.492 184.881 155.492C174.806 155.492 166.63 160.254 166.63 166.118C166.63 166.317 166.661 166.5 166.676 166.684C167.212 161.081 175.143 156.625 184.896 156.625Z" fill="url(#paint78_radial_37_8678)"/>
<path d="M184.283 157.238C194.036 157.238 201.967 161.694 202.472 167.297C202.488 167.114 202.518 166.915 202.518 166.731C202.518 160.867 194.342 156.105 184.268 156.105C174.194 156.105 166.018 160.867 166.018 166.731C166.018 166.93 166.049 167.114 166.064 167.297C166.6 161.694 174.546 157.238 184.283 157.238Z" fill="url(#paint79_linear_37_8678)"/>
<path d="M208.688 158.508H159.878V165.398H159.894C159.894 165.459 159.878 165.535 159.878 165.597C159.878 173.451 170.81 179.805 184.283 179.805C197.757 179.805 208.688 173.436 208.688 165.597C208.688 165.535 208.688 165.459 208.673 165.398H208.688V158.508Z" fill="url(#paint80_linear_37_8678)"/>
<path d="M159.878 164.496V164.695C159.878 164.619 159.894 164.557 159.878 164.496Z" fill="url(#paint81_linear_37_8678)"/>
<path d="M184.283 178.29C170.81 178.29 159.878 171.921 159.878 164.082V165.414H159.894C159.894 165.475 159.878 165.552 159.878 165.613C159.878 173.467 170.81 179.821 184.283 179.821C197.757 179.821 208.688 173.452 208.688 165.613C208.688 165.552 208.688 165.475 208.673 165.414H208.688V164.082C208.688 171.921 197.772 178.29 184.283 178.29Z" fill="url(#paint82_linear_37_8678)"/>
<path d="M208.688 164.68V164.48H208.673C208.688 164.557 208.688 164.618 208.688 164.68Z" fill="url(#paint83_linear_37_8678)"/>
<path d="M191.77 179.132C192 179.086 192.23 179.04 192.459 178.979V160.928H191.77V179.132Z" fill="#FDD65B"/>
<path d="M194.833 178.397C195.062 178.336 195.292 178.275 195.521 178.198V160.928H194.833V178.397Z" fill="#FDD65B"/>
<path d="M197.895 177.402C198.124 177.31 198.354 177.203 198.583 177.111V160.943H197.895V177.402Z" fill="#FDD65B"/>
<path d="M188.693 179.562C188.923 179.532 189.152 179.516 189.382 179.486V160.914H188.693V179.562Z" fill="#FDD65B"/>
<path d="M204.034 173.926C204.264 173.743 204.494 173.559 204.723 173.36V160.928H204.034V173.926Z" fill="#FDD65B"/>
<path d="M207.096 170.619C207.357 170.221 207.586 169.823 207.785 169.41V160.928H207.096V170.619Z" fill="#FDD65B"/>
<path d="M200.957 175.963C201.186 175.841 201.416 175.718 201.646 175.596V160.943H200.957V175.963Z" fill="#FDD65B"/>
<path d="M185.631 179.775C185.86 179.775 186.09 179.76 186.32 179.76V160.943H185.631V179.775Z" fill="#FDD65B"/>
<path d="M182.569 179.76C182.798 179.775 183.028 179.775 183.258 179.775V160.928H182.569V179.76Z" fill="#FDD65B"/>
<path d="M176.429 179.04C176.659 179.086 176.888 179.132 177.118 179.178V160.928H176.429V179.04Z" fill="#FDD65B"/>
<path d="M179.491 179.53C179.721 179.561 179.951 179.561 180.18 179.591V160.928H179.491V179.53Z" fill="#FDD65B"/>
<path d="M173.367 178.29C173.597 178.351 173.826 178.412 174.056 178.489V160.928H173.367V178.29Z" fill="#FDD65B"/>
<path d="M161.103 170.022C161.318 170.39 161.532 170.757 161.792 171.109V160.928H161.103V170.022Z" fill="#FDD65B"/>
<path d="M164.165 173.636C164.38 173.819 164.625 173.988 164.854 174.171V160.928H164.165V173.636Z" fill="#FDD65B"/>
<path d="M170.305 177.234C170.535 177.326 170.764 177.418 170.994 177.509V160.943H170.305V177.234Z" fill="#FDD65B"/>
<path d="M167.227 175.764C167.442 175.886 167.687 176.009 167.916 176.132V160.943H167.227V175.764Z" fill="#FDD65B"/>
<path d="M184.283 172.825C197.762 172.825 208.688 166.463 208.688 158.616C208.688 150.769 197.762 144.408 184.283 144.408C170.805 144.408 159.878 150.769 159.878 158.616C159.878 166.463 170.805 172.825 184.283 172.825Z" fill="url(#paint84_linear_37_8678)"/>
<path d="M184.283 172.441C171.086 172.441 160.368 166.347 159.924 158.723C159.909 158.891 159.878 159.044 159.878 159.213C159.878 167.067 170.81 173.421 184.283 173.421C197.757 173.421 208.688 167.052 208.688 159.213C208.688 159.044 208.658 158.891 208.642 158.723C208.198 166.347 197.481 172.441 184.283 172.441Z" fill="url(#paint85_radial_37_8678)"/>
<path d="M184.283 169.241C194.363 169.241 202.534 164.484 202.534 158.616C202.534 152.747 194.363 147.99 184.283 147.99C174.204 147.99 166.033 152.747 166.033 158.616C166.033 164.484 174.204 169.241 184.283 169.241Z" fill="url(#paint86_linear_37_8678)"/>
<path d="M184.896 148.526C194.649 148.526 202.58 152.981 203.085 158.585C203.1 158.401 203.131 158.202 203.131 158.018C203.131 152.154 194.955 147.393 184.881 147.393C174.806 147.393 166.63 152.154 166.63 158.018C166.63 158.217 166.661 158.401 166.676 158.585C167.212 152.966 175.143 148.526 184.896 148.526Z" fill="url(#paint87_radial_37_8678)"/>
<path d="M184.283 149.123C194.036 149.123 201.967 153.579 202.472 159.182C202.488 158.999 202.518 158.799 202.518 158.616C202.518 152.752 194.342 147.99 184.268 147.99C174.194 147.99 166.018 152.752 166.018 158.616C166.018 158.815 166.049 158.999 166.064 159.182C166.6 153.579 174.546 149.123 184.283 149.123Z" fill="url(#paint88_linear_37_8678)"/>
<path d="M189.856 156.181L196.042 157.298C197.083 157.482 197.297 158.278 196.409 158.631L191.142 160.774C190.79 160.912 190.591 161.157 190.591 161.402L190.698 165.137C190.714 165.765 189.489 166.117 188.616 165.75L183.426 163.515C183.074 163.361 182.63 163.331 182.232 163.407L176.123 164.602C175.097 164.801 174.117 164.234 174.454 163.637L176.506 160.1C176.643 159.871 176.567 159.61 176.307 159.411L172.418 156.411C171.775 155.905 172.387 155.201 173.474 155.201L179.935 155.262C180.364 155.262 180.762 155.155 181.022 154.941L184.743 151.894C185.37 151.389 186.733 151.511 187.055 152.108L188.999 155.676C189.122 155.921 189.443 156.104 189.856 156.181Z" fill="url(#paint89_linear_37_8678)"/>
<path d="M189.856 155.478L196.042 156.595C197.083 156.779 197.297 157.575 196.409 157.927L191.142 160.071C190.79 160.209 190.591 160.454 190.591 160.699L190.698 164.434C190.714 165.062 189.489 165.414 188.616 165.047L183.426 162.812C183.074 162.658 182.63 162.628 182.232 162.704L176.123 163.899C175.097 164.098 174.117 163.531 174.454 162.934L176.506 159.397C176.643 159.168 176.567 158.907 176.307 158.708L172.418 155.707C171.775 155.202 172.387 154.498 173.474 154.498L179.935 154.559C180.364 154.559 180.762 154.452 181.022 154.238L184.743 151.191C185.37 150.686 186.733 150.808 187.055 151.405L188.999 154.973C189.122 155.218 189.443 155.401 189.856 155.478Z" fill="url(#paint90_linear_37_8678)"/>
<defs>
<radialGradient id="paint0_radial_37_8678" cx="0" cy="0" r="1" gradientUnits="userSpaceOnUse" gradientTransform="translate(227.688 131.465) rotate(30.0007) scale(185.899 160.996)">
<stop offset="0.0108" stop-color="#D4088C"/>
<stop offset="0.0958" stop-color="#B70980"/>
<stop offset="0.2598" stop-color="#860C6C"/>
<stop offset="0.4224" stop-color="#5C0E5B"/>
<stop offset="0.5801" stop-color="#3C0F4E"/>
<stop offset="0.7318" stop-color="#261045"/>
<stop offset="0.8748" stop-color="#18113F"/>
<stop offset="1" stop-color="#13113D"/>
</radialGradient>
<linearGradient id="paint1_linear_37_8678" x1="164.184" y1="85.5355" x2="235.826" y2="209.612" gradientUnits="userSpaceOnUse">
<stop stop-color="#9F79C8"/>
<stop offset="0.1367" stop-color="#A580CB"/>
<stop offset="0.3288" stop-color="#B492D3"/>
<stop offset="0.5529" stop-color="#CDB0E1"/>
<stop offset="0.5808" stop-color="#D1B4E3"/>
</linearGradient>
<linearGradient id="paint2_linear_37_8678" x1="245.005" y1="111.139" x2="344.092" y2="202.414" gradientUnits="userSpaceOnUse">
<stop stop-color="#4F0D7E"/>
<stop offset="0.1179" stop-color="#571784"/>
<stop offset="0.3201" stop-color="#6C3395"/>
<stop offset="0.5822" stop-color="#8F5FB0"/>
<stop offset="0.8909" stop-color="#BF9DD5"/>
<stop offset="1" stop-color="#D1B4E3"/>
</linearGradient>
<linearGradient id="paint3_linear_37_8678" x1="220.309" y1="130.035" x2="250.161" y2="181.736" gradientUnits="userSpaceOnUse">
<stop stop-color="#4F0D7E"/>
<stop offset="0.1179" stop-color="#571784"/>
<stop offset="0.3201" stop-color="#6C3395"/>
<stop offset="0.5822" stop-color="#8F5FB0"/>
<stop offset="0.8909" stop-color="#BF9DD5"/>
<stop offset="1" stop-color="#D1B4E3"/>
</linearGradient>
<linearGradient id="paint4_linear_37_8678" x1="246.747" y1="146.5" x2="233.438" y2="118.541" gradientUnits="userSpaceOnUse">
<stop stop-color="#4F0D7E"/>
<stop offset="0.1179" stop-color="#571784"/>
<stop offset="0.3201" stop-color="#6C3395"/>
<stop offset="0.5822" stop-color="#8F5FB0"/>
<stop offset="0.8909" stop-color="#BF9DD5"/>
<stop offset="1" stop-color="#D1B4E3"/>
</linearGradient>
<linearGradient id="paint5_linear_37_8678" x1="278.77" y1="138.72" x2="133.382" y2="74.1031" gradientUnits="userSpaceOnUse">
<stop stop-color="#9F79C8"/>
<stop offset="0.1367" stop-color="#A580CB"/>
<stop offset="0.3288" stop-color="#B492D3"/>
<stop offset="0.5529" stop-color="#CDB0E1"/>
<stop offset="0.5808" stop-color="#D1B4E3"/>
<stop offset="0.7644" stop-color="#DBC4E9"/>
<stop offset="1" stop-color="#EBDEF3"/>
</linearGradient>
<linearGradient id="paint6_linear_37_8678" x1="223.413" y1="141.926" x2="261.259" y2="194.95" gradientUnits="userSpaceOnUse">
<stop stop-color="#9F79C8"/>
<stop offset="0.1409" stop-color="#A27DCA"/>
<stop offset="0.2725" stop-color="#AC88CF"/>
<stop offset="0.4" stop-color="#BC9BD7"/>
<stop offset="0.5202" stop-color="#D1B4E3"/>
<stop offset="0.6493" stop-color="#DBC4E9"/>
<stop offset="0.8997" stop-color="#F4EDF8"/>
<stop offset="1" stop-color="white"/>
</linearGradient>
<linearGradient id="paint7_linear_37_8678" x1="296.87" y1="78.0446" x2="286.101" y2="142.123" gradientUnits="userSpaceOnUse">
<stop stop-color="#4F0D7E"/>
<stop offset="0.1179" stop-color="#571784"/>
<stop offset="0.3201" stop-color="#6C3395"/>
<stop offset="0.5822" stop-color="#8F5FB0"/>
<stop offset="0.8909" stop-color="#BF9DD5"/>
<stop offset="1" stop-color="#D1B4E3"/>
</linearGradient>
<linearGradient id="paint8_linear_37_8678" x1="253.188" y1="113.547" x2="267.671" y2="113.547" gradientUnits="userSpaceOnUse">
<stop offset="0.0354" stop-color="#FFA98C"/>
<stop offset="0.3169" stop-color="#FFB892"/>
<stop offset="0.8601" stop-color="#FEE1A3"/>
<stop offset="1" stop-color="#FEECA8"/>
</linearGradient>
<linearGradient id="paint9_linear_37_8678" x1="200.54" y1="143.944" x2="215.023" y2="143.944" gradientUnits="userSpaceOnUse">
<stop offset="0.0354" stop-color="#FFA98C"/>
<stop offset="0.3169" stop-color="#FFB892"/>
<stop offset="0.8601" stop-color="#FEE1A3"/>
<stop offset="1" stop-color="#FEECA8"/>
</linearGradient>
<linearGradient id="paint10_linear_37_8678" x1="216.748" y1="149.45" x2="231.231" y2="149.45" gradientUnits="userSpaceOnUse">
<stop offset="0.0354" stop-color="#FFA98C"/>
<stop offset="0.3169" stop-color="#FFB892"/>
<stop offset="0.8601" stop-color="#FEE1A3"/>
<stop offset="1" stop-color="#FEECA8"/>
</linearGradient>
<linearGradient id="paint11_linear_37_8678" x1="262.538" y1="123.012" x2="277.021" y2="123.012" gradientUnits="userSpaceOnUse">
<stop offset="0.0354" stop-color="#FFA98C"/>
<stop offset="0.3169" stop-color="#FFB892"/>
<stop offset="0.8601" stop-color="#FEE1A3"/>
<stop offset="1" stop-color="#FEECA8"/>
</linearGradient>
<linearGradient id="paint12_linear_37_8678" x1="262.6" y1="134.394" x2="277.082" y2="134.394" gradientUnits="userSpaceOnUse">
<stop offset="0.0354" stop-color="#FFA98C"/>
<stop offset="0.3169" stop-color="#FFB892"/>
<stop offset="0.8601" stop-color="#FEE1A3"/>
<stop offset="1" stop-color="#FEECA8"/>
</linearGradient>
<linearGradient id="paint13_linear_37_8678" x1="236.275" y1="149.592" x2="250.758" y2="149.592" gradientUnits="userSpaceOnUse">
<stop offset="0.0354" stop-color="#FFA98C"/>
<stop offset="0.3169" stop-color="#FFB892"/>
<stop offset="0.8601" stop-color="#FEE1A3"/>
<stop offset="1" stop-color="#FEECA8"/>
</linearGradient>
<linearGradient id="paint14_linear_37_8678" x1="253.538" y1="143.718" x2="268.021" y2="143.718" gradientUnits="userSpaceOnUse">
<stop offset="0.0354" stop-color="#FFA98C"/>
<stop offset="0.3169" stop-color="#FFB892"/>
<stop offset="0.8601" stop-color="#FEE1A3"/>
<stop offset="1" stop-color="#FEECA8"/>
</linearGradient>
<linearGradient id="paint15_linear_37_8678" x1="163.542" y1="81.2139" x2="246.649" y2="197.92" gradientUnits="userSpaceOnUse">
<stop stop-color="#9F79C8"/>
<stop offset="0.1367" stop-color="#A580CB"/>
<stop offset="0.3288" stop-color="#B492D3"/>
<stop offset="0.5529" stop-color="#CDB0E1"/>
<stop offset="0.5808" stop-color="#D1B4E3"/>
</linearGradient>
<linearGradient id="paint16_linear_37_8678" x1="246.442" y1="99.0218" x2="353.74" y2="180.462" gradientUnits="userSpaceOnUse">
<stop stop-color="#4F0D7E"/>
<stop offset="0.1179" stop-color="#571784"/>
<stop offset="0.3201" stop-color="#6C3395"/>
<stop offset="0.5822" stop-color="#8F5FB0"/>
<stop offset="0.8909" stop-color="#BF9DD5"/>
<stop offset="1" stop-color="#D1B4E3"/>
</linearGradient>
<linearGradient id="paint17_linear_37_8678" x1="223.643" y1="120.176" x2="258.273" y2="168.807" gradientUnits="userSpaceOnUse">
<stop stop-color="#4F0D7E"/>
<stop offset="0.1179" stop-color="#571784"/>
<stop offset="0.3201" stop-color="#6C3395"/>
<stop offset="0.5822" stop-color="#8F5FB0"/>
<stop offset="0.8909" stop-color="#BF9DD5"/>
<stop offset="1" stop-color="#D1B4E3"/>
</linearGradient>
<linearGradient id="paint18_linear_37_8678" x1="251.529" y1="134.052" x2="235.623" y2="107.483" gradientUnits="userSpaceOnUse">
<stop stop-color="#4F0D7E"/>
<stop offset="0.1179" stop-color="#571784"/>
<stop offset="0.3201" stop-color="#6C3395"/>
<stop offset="0.5822" stop-color="#8F5FB0"/>
<stop offset="0.8909" stop-color="#BF9DD5"/>
<stop offset="1" stop-color="#D1B4E3"/>
</linearGradient>
<linearGradient id="paint19_linear_37_8678" x1="282.662" y1="123.269" x2="131.797" y2="72.7569" gradientUnits="userSpaceOnUse">
<stop stop-color="#9F79C8"/>
<stop offset="0.1409" stop-color="#A27DCA"/>
<stop offset="0.2725" stop-color="#AC88CF"/>
<stop offset="0.4" stop-color="#BC9BD7"/>
<stop offset="0.5202" stop-color="#D1B4E3"/>
<stop offset="0.6493" stop-color="#DBC4E9"/>
<stop offset="0.8997" stop-color="#F4EDF8"/>
<stop offset="1" stop-color="white"/>
</linearGradient>
<linearGradient id="paint20_linear_37_8678" x1="227.863" y1="131.719" x2="270.576" y2="180.907" gradientUnits="userSpaceOnUse">
<stop stop-color="#9F79C8"/>
<stop offset="0.1409" stop-color="#A27DCA"/>
<stop offset="0.2725" stop-color="#AC88CF"/>
<stop offset="0.4" stop-color="#BC9BD7"/>
<stop offset="0.5202" stop-color="#D1B4E3"/>
<stop offset="0.6493" stop-color="#DBC4E9"/>
<stop offset="0.8997" stop-color="#F4EDF8"/>
<stop offset="1" stop-color="white"/>
</linearGradient>
<linearGradient id="paint21_linear_37_8678" x1="294.92" y1="61.146" x2="290.287" y2="125.956" gradientUnits="userSpaceOnUse">
<stop stop-color="#4F0D7E"/>
<stop offset="0.1179" stop-color="#571784"/>
<stop offset="0.3201" stop-color="#6C3395"/>
<stop offset="0.5822" stop-color="#8F5FB0"/>
<stop offset="0.8909" stop-color="#BF9DD5"/>
<stop offset="1" stop-color="#D1B4E3"/>
</linearGradient>
<linearGradient id="paint22_linear_37_8678" x1="254.808" y1="100.638" x2="269.225" y2="99.2621" gradientUnits="userSpaceOnUse">
<stop offset="0.0354" stop-color="#FFA98C"/>
<stop offset="0.3169" stop-color="#FFB892"/>
<stop offset="0.8601" stop-color="#FEE1A3"/>
<stop offset="1" stop-color="#FEECA8"/>
</linearGradient>
<linearGradient id="paint23_linear_37_8678" x1="205.286" y1="135.9" x2="219.703" y2="134.524" gradientUnits="userSpaceOnUse">
<stop offset="0.0354" stop-color="#FFA98C"/>
<stop offset="0.3169" stop-color="#FFB892"/>
<stop offset="0.8601" stop-color="#FEE1A3"/>
<stop offset="1" stop-color="#FEECA8"/>
</linearGradient>
<linearGradient id="paint24_linear_37_8678" x1="221.945" y1="139.84" x2="236.362" y2="138.465" gradientUnits="userSpaceOnUse">
<stop offset="0.0354" stop-color="#FFA98C"/>
<stop offset="0.3169" stop-color="#FFB892"/>
<stop offset="0.8601" stop-color="#FEE1A3"/>
<stop offset="1" stop-color="#FEECA8"/>
</linearGradient>
<linearGradient id="paint25_linear_37_8678" x1="265.014" y1="109.171" x2="279.432" y2="107.795" gradientUnits="userSpaceOnUse">
<stop offset="0.0354" stop-color="#FFA98C"/>
<stop offset="0.3169" stop-color="#FFB892"/>
<stop offset="0.8601" stop-color="#FEE1A3"/>
<stop offset="1" stop-color="#FEECA8"/>
</linearGradient>
<linearGradient id="paint26_linear_37_8678" x1="266.157" y1="120.495" x2="280.575" y2="119.119" gradientUnits="userSpaceOnUse">
<stop offset="0.0354" stop-color="#FFA98C"/>
<stop offset="0.3169" stop-color="#FFB892"/>
<stop offset="0.8601" stop-color="#FEE1A3"/>
<stop offset="1" stop-color="#FEECA8"/>
</linearGradient>
<linearGradient id="paint27_linear_37_8678" x1="241.397" y1="138.127" x2="255.814" y2="136.751" gradientUnits="userSpaceOnUse">
<stop offset="0.0354" stop-color="#FFA98C"/>
<stop offset="0.3169" stop-color="#FFB892"/>
<stop offset="0.8601" stop-color="#FEE1A3"/>
<stop offset="1" stop-color="#FEECA8"/>
</linearGradient>
<linearGradient id="paint28_linear_37_8678" x1="258.023" y1="130.638" x2="272.44" y2="129.262" gradientUnits="userSpaceOnUse">
<stop offset="0.0354" stop-color="#FFA98C"/>
<stop offset="0.3169" stop-color="#FFB892"/>
<stop offset="0.8601" stop-color="#FEE1A3"/>
<stop offset="1" stop-color="#FEECA8"/>
</linearGradient>
<linearGradient id="paint29_linear_37_8678" x1="295.688" y1="178.081" x2="451.693" y2="131.368" gradientUnits="userSpaceOnUse">
<stop stop-color="#9F79C8"/>
<stop offset="0.1409" stop-color="#A27DCA"/>
<stop offset="0.2725" stop-color="#AC88CF"/>
<stop offset="0.4" stop-color="#BC9BD7"/>
<stop offset="0.5202" stop-color="#D1B4E3"/>
<stop offset="0.6493" stop-color="#DBC4E9"/>
<stop offset="0.8997" stop-color="#F4EDF8"/>
<stop offset="1" stop-color="white"/>
</linearGradient>
<linearGradient id="paint30_linear_37_8678" x1="4.68321" y1="197.963" x2="403.634" y2="108.531" gradientUnits="userSpaceOnUse">
<stop stop-color="#9F79C8"/>
<stop offset="0.1409" stop-color="#A27DCA"/>
<stop offset="0.2725" stop-color="#AC88CF"/>
<stop offset="0.4" stop-color="#BC9BD7"/>
<stop offset="0.5202" stop-color="#D1B4E3"/>
<stop offset="0.6493" stop-color="#DBC4E9"/>
<stop offset="0.8997" stop-color="#F4EDF8"/>
<stop offset="1" stop-color="white"/>
</linearGradient>
<linearGradient id="paint31_linear_37_8678" x1="199.764" y1="147.278" x2="125.384" y2="114.219" gradientUnits="userSpaceOnUse">
<stop stop-color="#9F79C8"/>
<stop offset="0.1409" stop-color="#A27DCA"/>
<stop offset="0.2725" stop-color="#AC88CF"/>
<stop offset="0.4" stop-color="#BC9BD7"/>
<stop offset="0.5202" stop-color="#D1B4E3"/>
<stop offset="0.6493" stop-color="#DBC4E9"/>
<stop offset="0.8997" stop-color="#F4EDF8"/>
<stop offset="1" stop-color="white"/>
</linearGradient>
<linearGradient id="paint32_linear_37_8678" x1="243.776" y1="175.447" x2="192.44" y2="152.63" gradientUnits="userSpaceOnUse">
<stop stop-color="#4F0D7E"/>
<stop offset="0.1179" stop-color="#571784"/>
<stop offset="0.3201" stop-color="#6C3395"/>
<stop offset="0.5822" stop-color="#8F5FB0"/>
<stop offset="0.8909" stop-color="#BF9DD5"/>
<stop offset="1" stop-color="#D1B4E3"/>
</linearGradient>
<linearGradient id="paint33_linear_37_8678" x1="122.236" y1="160.175" x2="170.279" y2="160.175" gradientUnits="userSpaceOnUse">
<stop stop-color="#FFBB96"/>
<stop offset="0.2273" stop-color="#FFFBC9"/>
<stop offset="0.5404" stop-color="#F9B673"/>
<stop offset="0.6391" stop-color="#F9B876"/>
<stop offset="0.7249" stop-color="#FABE81"/>
<stop offset="0.8057" stop-color="#FCC993"/>
<stop offset="0.8586" stop-color="#FED2A3"/>
<stop offset="0.9697" stop-color="#FFC28C"/>
</linearGradient>
<linearGradient id="paint34_linear_37_8678" x1="122.004" y1="155.599" x2="122.012" y2="155.599" gradientUnits="userSpaceOnUse">
<stop stop-color="#FFBB96"/>
<stop offset="0.2273" stop-color="#FFFBC9"/>
<stop offset="0.5404" stop-color="#F9B673"/>
<stop offset="0.6391" stop-color="#F9B876"/>
<stop offset="0.7249" stop-color="#FABE81"/>
<stop offset="0.8057" stop-color="#FCC993"/>
<stop offset="0.8586" stop-color="#FED2A3"/>
<stop offset="0.9697" stop-color="#FFC28C"/>
</linearGradient>
<linearGradient id="paint35_linear_37_8678" x1="122.236" y1="162.955" x2="170.279" y2="162.955" gradientUnits="userSpaceOnUse">
<stop stop-color="#FFBB96"/>
<stop offset="0.2273" stop-color="#FFFBC9"/>
<stop offset="0.5404" stop-color="#F9B673"/>
<stop offset="0.6391" stop-color="#F9B876"/>
<stop offset="0.7249" stop-color="#FABE81"/>
<stop offset="0.8057" stop-color="#FCC993"/>
<stop offset="0.8586" stop-color="#FED2A3"/>
<stop offset="0.9697" stop-color="#FFC28C"/>
</linearGradient>
<linearGradient id="paint36_linear_37_8678" x1="170.811" y1="155.599" x2="170.819" y2="155.599" gradientUnits="userSpaceOnUse">
<stop stop-color="#FFBB96"/>
<stop offset="0.2273" stop-color="#FFFBC9"/>
<stop offset="0.5404" stop-color="#F9B673"/>
<stop offset="0.6391" stop-color="#F9B876"/>
<stop offset="0.7249" stop-color="#FABE81"/>
<stop offset="0.8057" stop-color="#FCC993"/>
<stop offset="0.8586" stop-color="#FED2A3"/>
<stop offset="0.9697" stop-color="#FFC28C"/>
</linearGradient>
<linearGradient id="paint37_linear_37_8678" x1="191.511" y1="104.238" x2="143.768" y2="152.285" gradientUnits="userSpaceOnUse">
<stop offset="0.0354" stop-color="#FFBA78"/>
<stop offset="0.395" stop-color="#FFC987"/>
<stop offset="1" stop-color="#FEECA8"/>
</linearGradient>
<radialGradient id="paint38_radial_37_8678" cx="0" cy="0" r="1" gradientUnits="userSpaceOnUse" gradientTransform="translate(135.921 160.077) scale(30.6787 30.6788)">
<stop stop-color="white"/>
<stop offset="1"/>
</radialGradient>
<linearGradient id="paint39_linear_37_8678" x1="166.025" y1="129.885" x2="130.336" y2="165.802" gradientUnits="userSpaceOnUse">
<stop offset="0.0354" stop-color="#FFBA78"/>
<stop offset="0.395" stop-color="#FFC987"/>
<stop offset="1" stop-color="#FEECA8"/>
</linearGradient>
<radialGradient id="paint40_radial_37_8678" cx="0" cy="0" r="1" gradientUnits="userSpaceOnUse" gradientTransform="translate(155.002 137.984) scale(13.4952)">
<stop stop-color="white"/>
<stop offset="1"/>
</radialGradient>
<linearGradient id="paint41_linear_37_8678" x1="172.594" y1="122.106" x2="138.914" y2="156.001" gradientUnits="userSpaceOnUse">
<stop stop-color="#FFBB96"/>
<stop offset="0.2273" stop-color="#FFFBC9"/>
<stop offset="0.5404" stop-color="#F9B673"/>
<stop offset="0.6391" stop-color="#F9B876"/>
<stop offset="0.7249" stop-color="#FABE81"/>
<stop offset="0.8057" stop-color="#FCC993"/>
<stop offset="0.8586" stop-color="#FED2A3"/>
<stop offset="0.9697" stop-color="#FFC28C"/>
</linearGradient>
<linearGradient id="paint42_linear_37_8678" x1="122.236" y1="152.472" x2="170.279" y2="152.472" gradientUnits="userSpaceOnUse">
<stop stop-color="#FFBB96"/>
<stop offset="0.2273" stop-color="#FFFBC9"/>
<stop offset="0.5404" stop-color="#F9B673"/>
<stop offset="0.6391" stop-color="#F9B876"/>
<stop offset="0.7249" stop-color="#FABE81"/>
<stop offset="0.8057" stop-color="#FCC993"/>
<stop offset="0.8586" stop-color="#FED2A3"/>
<stop offset="0.9697" stop-color="#FFC28C"/>
</linearGradient>
<linearGradient id="paint43_linear_37_8678" x1="122.004" y1="147.895" x2="122.012" y2="147.895" gradientUnits="userSpaceOnUse">
<stop stop-color="#FFBB96"/>
<stop offset="0.2273" stop-color="#FFFBC9"/>
<stop offset="0.5404" stop-color="#F9B673"/>
<stop offset="0.6391" stop-color="#F9B876"/>
<stop offset="0.7249" stop-color="#FABE81"/>
<stop offset="0.8057" stop-color="#FCC993"/>
<stop offset="0.8586" stop-color="#FED2A3"/>
<stop offset="0.9697" stop-color="#FFC28C"/>
</linearGradient>
<linearGradient id="paint44_linear_37_8678" x1="122.236" y1="155.254" x2="170.279" y2="155.254" gradientUnits="userSpaceOnUse">
<stop stop-color="#FFBB96"/>
<stop offset="0.2273" stop-color="#FFFBC9"/>
<stop offset="0.5404" stop-color="#F9B673"/>
<stop offset="0.6391" stop-color="#F9B876"/>
<stop offset="0.7249" stop-color="#FABE81"/>
<stop offset="0.8057" stop-color="#FCC993"/>
<stop offset="0.8586" stop-color="#FED2A3"/>
<stop offset="0.9697" stop-color="#FFC28C"/>
</linearGradient>
<linearGradient id="paint45_linear_37_8678" x1="170.811" y1="147.895" x2="170.819" y2="147.895" gradientUnits="userSpaceOnUse">
<stop stop-color="#FFBB96"/>
<stop offset="0.2273" stop-color="#FFFBC9"/>
<stop offset="0.5404" stop-color="#F9B673"/>
<stop offset="0.6391" stop-color="#F9B876"/>
<stop offset="0.7249" stop-color="#FABE81"/>
<stop offset="0.8057" stop-color="#FCC993"/>
<stop offset="0.8586" stop-color="#FED2A3"/>
<stop offset="0.9697" stop-color="#FFC28C"/>
</linearGradient>
<linearGradient id="paint46_linear_37_8678" x1="191.511" y1="96.5364" x2="143.767" y2="144.584" gradientUnits="userSpaceOnUse">
<stop offset="0.0354" stop-color="#FFBA78"/>
<stop offset="0.395" stop-color="#FFC987"/>
<stop offset="1" stop-color="#FEECA8"/>
</linearGradient>
<radialGradient id="paint47_radial_37_8678" cx="0" cy="0" r="1" gradientUnits="userSpaceOnUse" gradientTransform="translate(135.921 152.375) scale(30.6787)">
<stop stop-color="white"/>
<stop offset="1"/>
</radialGradient>
<linearGradient id="paint48_linear_37_8678" x1="166.025" y1="122.183" x2="130.336" y2="158.1" gradientUnits="userSpaceOnUse">
<stop offset="0.0354" stop-color="#FFBA78"/>
<stop offset="0.395" stop-color="#FFC987"/>
<stop offset="1" stop-color="#FEECA8"/>
</linearGradient>
<radialGradient id="paint49_radial_37_8678" cx="0" cy="0" r="1" gradientUnits="userSpaceOnUse" gradientTransform="translate(155.002 130.28) scale(13.4952)">
<stop stop-color="white"/>
<stop offset="1"/>
</radialGradient>
<linearGradient id="paint50_linear_37_8678" x1="172.594" y1="114.405" x2="138.914" y2="148.299" gradientUnits="userSpaceOnUse">
<stop stop-color="#FFBB96"/>
<stop offset="0.2273" stop-color="#FFFBC9"/>
<stop offset="0.5404" stop-color="#F9B673"/>
<stop offset="0.6391" stop-color="#F9B876"/>
<stop offset="0.7249" stop-color="#FABE81"/>
<stop offset="0.8057" stop-color="#FCC993"/>
<stop offset="0.8586" stop-color="#FED2A3"/>
<stop offset="0.9697" stop-color="#FFC28C"/>
</linearGradient>
<linearGradient id="paint51_linear_37_8678" x1="122.236" y1="144.362" x2="170.279" y2="144.362" gradientUnits="userSpaceOnUse">
<stop stop-color="#FFBB96"/>
<stop offset="0.2273" stop-color="#FFFBC9"/>
<stop offset="0.5404" stop-color="#F9B673"/>
<stop offset="0.6391" stop-color="#F9B876"/>
<stop offset="0.7249" stop-color="#FABE81"/>
<stop offset="0.8057" stop-color="#FCC993"/>
<stop offset="0.8586" stop-color="#FED2A3"/>
<stop offset="0.9697" stop-color="#FFC28C"/>
</linearGradient>
<linearGradient id="paint52_linear_37_8678" x1="122.004" y1="139.786" x2="122.012" y2="139.786" gradientUnits="userSpaceOnUse">
<stop stop-color="#FFBB96"/>
<stop offset="0.2273" stop-color="#FFFBC9"/>
<stop offset="0.5404" stop-color="#F9B673"/>
<stop offset="0.6391" stop-color="#F9B876"/>
<stop offset="0.7249" stop-color="#FABE81"/>
<stop offset="0.8057" stop-color="#FCC993"/>
<stop offset="0.8586" stop-color="#FED2A3"/>
<stop offset="0.9697" stop-color="#FFC28C"/>
</linearGradient>
<linearGradient id="paint53_linear_37_8678" x1="122.236" y1="147.142" x2="170.279" y2="147.142" gradientUnits="userSpaceOnUse">
<stop stop-color="#FFBB96"/>
<stop offset="0.2273" stop-color="#FFFBC9"/>
<stop offset="0.5404" stop-color="#F9B673"/>
<stop offset="0.6391" stop-color="#F9B876"/>
<stop offset="0.7249" stop-color="#FABE81"/>
<stop offset="0.8057" stop-color="#FCC993"/>
<stop offset="0.8586" stop-color="#FED2A3"/>
<stop offset="0.9697" stop-color="#FFC28C"/>
</linearGradient>
<linearGradient id="paint54_linear_37_8678" x1="170.811" y1="139.786" x2="170.819" y2="139.786" gradientUnits="userSpaceOnUse">
<stop stop-color="#FFBB96"/>
<stop offset="0.2273" stop-color="#FFFBC9"/>
<stop offset="0.5404" stop-color="#F9B673"/>
<stop offset="0.6391" stop-color="#F9B876"/>
<stop offset="0.7249" stop-color="#FABE81"/>
<stop offset="0.8057" stop-color="#FCC993"/>
<stop offset="0.8586" stop-color="#FED2A3"/>
<stop offset="0.9697" stop-color="#FFC28C"/>
</linearGradient>
<linearGradient id="paint55_linear_37_8678" x1="191.51" y1="88.4247" x2="143.768" y2="136.472" gradientUnits="userSpaceOnUse">
<stop offset="0.0354" stop-color="#FFBA78"/>
<stop offset="0.395" stop-color="#FFC987"/>
<stop offset="1" stop-color="#FEECA8"/>
</linearGradient>
<radialGradient id="paint56_radial_37_8678" cx="0" cy="0" r="1" gradientUnits="userSpaceOnUse" gradientTransform="translate(135.921 144.266) scale(30.6787)">
<stop stop-color="white"/>
<stop offset="1"/>
</radialGradient>
<linearGradient id="paint57_linear_37_8678" x1="166.025" y1="114.074" x2="130.336" y2="149.99" gradientUnits="userSpaceOnUse">
<stop offset="0.0354" stop-color="#FFBA78"/>
<stop offset="0.395" stop-color="#FFC987"/>
<stop offset="1" stop-color="#FEECA8"/>
</linearGradient>
<radialGradient id="paint58_radial_37_8678" cx="0" cy="0" r="1" gradientUnits="userSpaceOnUse" gradientTransform="translate(155.002 122.17) scale(13.4952)">
<stop stop-color="white"/>
<stop offset="1"/>
</radialGradient>
<linearGradient id="paint59_linear_37_8678" x1="172.594" y1="106.293" x2="138.914" y2="140.187" gradientUnits="userSpaceOnUse">
<stop stop-color="#FFBB96"/>
<stop offset="0.2273" stop-color="#FFFBC9"/>
<stop offset="0.5404" stop-color="#F9B673"/>
<stop offset="0.6391" stop-color="#F9B876"/>
<stop offset="0.7249" stop-color="#FABE81"/>
<stop offset="0.8057" stop-color="#FCC993"/>
<stop offset="0.8586" stop-color="#FED2A3"/>
<stop offset="0.9697" stop-color="#FFC28C"/>
</linearGradient>
<linearGradient id="paint60_linear_37_8678" x1="122.236" y1="136.127" x2="170.279" y2="136.127" gradientUnits="userSpaceOnUse">
<stop stop-color="#FFBB96"/>
<stop offset="0.2273" stop-color="#FFFBC9"/>
<stop offset="0.5404" stop-color="#F9B673"/>
<stop offset="0.6391" stop-color="#F9B876"/>
<stop offset="0.7249" stop-color="#FABE81"/>
<stop offset="0.8057" stop-color="#FCC993"/>
<stop offset="0.8586" stop-color="#FED2A3"/>
<stop offset="0.9697" stop-color="#FFC28C"/>
</linearGradient>
<linearGradient id="paint61_linear_37_8678" x1="122.004" y1="131.551" x2="122.012" y2="131.551" gradientUnits="userSpaceOnUse">
<stop stop-color="#FFBB96"/>
<stop offset="0.2273" stop-color="#FFFBC9"/>
<stop offset="0.5404" stop-color="#F9B673"/>
<stop offset="0.6391" stop-color="#F9B876"/>
<stop offset="0.7249" stop-color="#FABE81"/>
<stop offset="0.8057" stop-color="#FCC993"/>
<stop offset="0.8586" stop-color="#FED2A3"/>
<stop offset="0.9697" stop-color="#FFC28C"/>
</linearGradient>
<linearGradient id="paint62_linear_37_8678" x1="122.236" y1="138.907" x2="170.279" y2="138.907" gradientUnits="userSpaceOnUse">
<stop stop-color="#FFBB96"/>
<stop offset="0.2273" stop-color="#FFFBC9"/>
<stop offset="0.5404" stop-color="#F9B673"/>
<stop offset="0.6391" stop-color="#F9B876"/>
<stop offset="0.7249" stop-color="#FABE81"/>
<stop offset="0.8057" stop-color="#FCC993"/>
<stop offset="0.8586" stop-color="#FED2A3"/>
<stop offset="0.9697" stop-color="#FFC28C"/>
</linearGradient>
<linearGradient id="paint63_linear_37_8678" x1="170.811" y1="131.551" x2="170.819" y2="131.551" gradientUnits="userSpaceOnUse">
<stop stop-color="#FFBB96"/>
<stop offset="0.2273" stop-color="#FFFBC9"/>
<stop offset="0.5404" stop-color="#F9B673"/>
<stop offset="0.6391" stop-color="#F9B876"/>
<stop offset="0.7249" stop-color="#FABE81"/>
<stop offset="0.8057" stop-color="#FCC993"/>
<stop offset="0.8586" stop-color="#FED2A3"/>
<stop offset="0.9697" stop-color="#FFC28C"/>
</linearGradient>
<linearGradient id="paint64_linear_37_8678" x1="191.511" y1="80.1897" x2="143.768" y2="128.237" gradientUnits="userSpaceOnUse">
<stop offset="0.0354" stop-color="#FFBA78"/>
<stop offset="0.395" stop-color="#FFC987"/>
<stop offset="1" stop-color="#FEECA8"/>
</linearGradient>
<radialGradient id="paint65_radial_37_8678" cx="0" cy="0" r="1" gradientUnits="userSpaceOnUse" gradientTransform="translate(135.921 136.029) scale(30.6787)">
<stop stop-color="white"/>
<stop offset="1"/>
</radialGradient>
<linearGradient id="paint66_linear_37_8678" x1="166.025" y1="105.837" x2="130.336" y2="141.753" gradientUnits="userSpaceOnUse">
<stop offset="0.0354" stop-color="#FFBA78"/>
<stop offset="0.395" stop-color="#FFC987"/>
<stop offset="1" stop-color="#FEECA8"/>
</linearGradient>
<radialGradient id="paint67_radial_37_8678" cx="0" cy="0" r="1" gradientUnits="userSpaceOnUse" gradientTransform="translate(155.002 113.935) scale(13.4952)">
<stop stop-color="white"/>
<stop offset="1"/>
</radialGradient>
<linearGradient id="paint68_linear_37_8678" x1="172.594" y1="98.0583" x2="138.914" y2="131.953" gradientUnits="userSpaceOnUse">
<stop stop-color="#FFBB96"/>
<stop offset="0.2273" stop-color="#FFFBC9"/>
<stop offset="0.5404" stop-color="#F9B673"/>
<stop offset="0.6391" stop-color="#F9B876"/>
<stop offset="0.7249" stop-color="#FABE81"/>
<stop offset="0.8057" stop-color="#FCC993"/>
<stop offset="0.8586" stop-color="#FED2A3"/>
<stop offset="0.9697" stop-color="#FFC28C"/>
</linearGradient>
<linearGradient id="paint69_linear_37_8678" x1="134.648" y1="125.793" x2="159.45" y2="125.793" gradientUnits="userSpaceOnUse">
<stop stop-color="#FFBB96"/>
<stop offset="0.2273" stop-color="#FFFBC9"/>
<stop offset="0.5404" stop-color="#F9B673"/>
<stop offset="0.6391" stop-color="#F9B876"/>
<stop offset="0.7249" stop-color="#FABE81"/>
<stop offset="0.8057" stop-color="#FCC993"/>
<stop offset="0.8586" stop-color="#FED2A3"/>
<stop offset="0.9697" stop-color="#FFC28C"/>
</linearGradient>
<linearGradient id="paint70_linear_37_8678" x1="121.968" y1="145.805" x2="150.834" y2="120.951" gradientUnits="userSpaceOnUse">
<stop offset="0.0354" stop-color="#FFBA78"/>
<stop offset="0.395" stop-color="#FFC987"/>
<stop offset="1" stop-color="#FEECA8"/>
</linearGradient>
<linearGradient id="paint71_linear_37_8678" x1="160.112" y1="177.272" x2="208.155" y2="177.272" gradientUnits="userSpaceOnUse">
<stop stop-color="#FFBB96"/>
<stop offset="0.2273" stop-color="#FFFBC9"/>
<stop offset="0.5404" stop-color="#F9B673"/>
<stop offset="0.6391" stop-color="#F9B876"/>
<stop offset="0.7249" stop-color="#FABE81"/>
<stop offset="0.8057" stop-color="#FCC993"/>
<stop offset="0.8586" stop-color="#FED2A3"/>
<stop offset="0.9697" stop-color="#FFC28C"/>
</linearGradient>
<linearGradient id="paint72_linear_37_8678" x1="159.879" y1="172.695" x2="159.888" y2="172.695" gradientUnits="userSpaceOnUse">
<stop stop-color="#FFBB96"/>
<stop offset="0.2273" stop-color="#FFFBC9"/>
<stop offset="0.5404" stop-color="#F9B673"/>
<stop offset="0.6391" stop-color="#F9B876"/>
<stop offset="0.7249" stop-color="#FABE81"/>
<stop offset="0.8057" stop-color="#FCC993"/>
<stop offset="0.8586" stop-color="#FED2A3"/>
<stop offset="0.9697" stop-color="#FFC28C"/>
</linearGradient>
<linearGradient id="paint73_linear_37_8678" x1="160.112" y1="180.052" x2="208.155" y2="180.052" gradientUnits="userSpaceOnUse">
<stop stop-color="#FFBB96"/>
<stop offset="0.2273" stop-color="#FFFBC9"/>
<stop offset="0.5404" stop-color="#F9B673"/>
<stop offset="0.6391" stop-color="#F9B876"/>
<stop offset="0.7249" stop-color="#FABE81"/>
<stop offset="0.8057" stop-color="#FCC993"/>
<stop offset="0.8586" stop-color="#FED2A3"/>
<stop offset="0.9697" stop-color="#FFC28C"/>
</linearGradient>
<linearGradient id="paint74_linear_37_8678" x1="208.687" y1="172.695" x2="208.695" y2="172.695" gradientUnits="userSpaceOnUse">
<stop stop-color="#FFBB96"/>
<stop offset="0.2273" stop-color="#FFFBC9"/>
<stop offset="0.5404" stop-color="#F9B673"/>
<stop offset="0.6391" stop-color="#F9B876"/>
<stop offset="0.7249" stop-color="#FABE81"/>
<stop offset="0.8057" stop-color="#FCC993"/>
<stop offset="0.8586" stop-color="#FED2A3"/>
<stop offset="0.9697" stop-color="#FFC28C"/>
</linearGradient>
<linearGradient id="paint75_linear_37_8678" x1="229.386" y1="121.336" x2="181.644" y2="169.383" gradientUnits="userSpaceOnUse">
<stop offset="0.0354" stop-color="#FFBA78"/>
<stop offset="0.395" stop-color="#FFC987"/>
<stop offset="1" stop-color="#FEECA8"/>
</linearGradient>
<radialGradient id="paint76_radial_37_8678" cx="0" cy="0" r="1" gradientUnits="userSpaceOnUse" gradientTransform="translate(173.797 177.176) scale(30.6787)">
<stop stop-color="white"/>
<stop offset="1"/>
</radialGradient>
<linearGradient id="paint77_linear_37_8678" x1="203.901" y1="146.983" x2="168.212" y2="182.9" gradientUnits="userSpaceOnUse">
<stop offset="0.0354" stop-color="#FFBA78"/>
<stop offset="0.395" stop-color="#FFC987"/>
<stop offset="1" stop-color="#FEECA8"/>
</linearGradient>
<radialGradient id="paint78_radial_37_8678" cx="0" cy="0" r="1" gradientUnits="userSpaceOnUse" gradientTransform="translate(192.878 155.08) scale(13.4952)">
<stop stop-color="white"/>
<stop offset="1"/>
</radialGradient>
<linearGradient id="paint79_linear_37_8678" x1="210.47" y1="139.205" x2="176.79" y2="173.099" gradientUnits="userSpaceOnUse">
<stop stop-color="#FFBB96"/>
<stop offset="0.2273" stop-color="#FFFBC9"/>
<stop offset="0.5404" stop-color="#F9B673"/>
<stop offset="0.6391" stop-color="#F9B876"/>
<stop offset="0.7249" stop-color="#FABE81"/>
<stop offset="0.8057" stop-color="#FCC993"/>
<stop offset="0.8586" stop-color="#FED2A3"/>
<stop offset="0.9697" stop-color="#FFC28C"/>
</linearGradient>
<linearGradient id="paint80_linear_37_8678" x1="160.112" y1="169.162" x2="208.155" y2="169.162" gradientUnits="userSpaceOnUse">
<stop stop-color="#FFBB96"/>
<stop offset="0.2273" stop-color="#FFFBC9"/>
<stop offset="0.5404" stop-color="#F9B673"/>
<stop offset="0.6391" stop-color="#F9B876"/>
<stop offset="0.7249" stop-color="#FABE81"/>
<stop offset="0.8057" stop-color="#FCC993"/>
<stop offset="0.8586" stop-color="#FED2A3"/>
<stop offset="0.9697" stop-color="#FFC28C"/>
</linearGradient>
<linearGradient id="paint81_linear_37_8678" x1="159.879" y1="164.588" x2="159.888" y2="164.588" gradientUnits="userSpaceOnUse">
<stop stop-color="#FFBB96"/>
<stop offset="0.2273" stop-color="#FFFBC9"/>
<stop offset="0.5404" stop-color="#F9B673"/>
<stop offset="0.6391" stop-color="#F9B876"/>
<stop offset="0.7249" stop-color="#FABE81"/>
<stop offset="0.8057" stop-color="#FCC993"/>
<stop offset="0.8586" stop-color="#FED2A3"/>
<stop offset="0.9697" stop-color="#FFC28C"/>
</linearGradient>
<linearGradient id="paint82_linear_37_8678" x1="160.112" y1="171.944" x2="208.155" y2="171.944" gradientUnits="userSpaceOnUse">
<stop stop-color="#FFBB96"/>
<stop offset="0.2273" stop-color="#FFFBC9"/>
<stop offset="0.5404" stop-color="#F9B673"/>
<stop offset="0.6391" stop-color="#F9B876"/>
<stop offset="0.7249" stop-color="#FABE81"/>
<stop offset="0.8057" stop-color="#FCC993"/>
<stop offset="0.8586" stop-color="#FED2A3"/>
<stop offset="0.9697" stop-color="#FFC28C"/>
</linearGradient>
<linearGradient id="paint83_linear_37_8678" x1="208.687" y1="164.587" x2="208.695" y2="164.587" gradientUnits="userSpaceOnUse">
<stop stop-color="#FFBB96"/>
<stop offset="0.2273" stop-color="#FFFBC9"/>
<stop offset="0.5404" stop-color="#F9B673"/>
<stop offset="0.6391" stop-color="#F9B876"/>
<stop offset="0.7249" stop-color="#FABE81"/>
<stop offset="0.8057" stop-color="#FCC993"/>
<stop offset="0.8586" stop-color="#FED2A3"/>
<stop offset="0.9697" stop-color="#FFC28C"/>
</linearGradient>
<linearGradient id="paint84_linear_37_8678" x1="229.386" y1="113.227" x2="181.644" y2="161.274" gradientUnits="userSpaceOnUse">
<stop offset="0.0354" stop-color="#FFBA78"/>
<stop offset="0.395" stop-color="#FFC987"/>
<stop offset="1" stop-color="#FEECA8"/>
</linearGradient>
<radialGradient id="paint85_radial_37_8678" cx="0" cy="0" r="1" gradientUnits="userSpaceOnUse" gradientTransform="translate(173.797 169.066) scale(30.6787 30.6788)">
<stop stop-color="white"/>
<stop offset="1"/>
</radialGradient>
<linearGradient id="paint86_linear_37_8678" x1="203.901" y1="138.874" x2="168.212" y2="174.79" gradientUnits="userSpaceOnUse">
<stop offset="0.0354" stop-color="#FFBA78"/>
<stop offset="0.395" stop-color="#FFC987"/>
<stop offset="1" stop-color="#FEECA8"/>
</linearGradient>
<radialGradient id="paint87_radial_37_8678" cx="0" cy="0" r="1" gradientUnits="userSpaceOnUse" gradientTransform="translate(192.878 146.97) scale(13.4952)">
<stop stop-color="white"/>
<stop offset="1"/>
</radialGradient>
<linearGradient id="paint88_linear_37_8678" x1="210.47" y1="131.095" x2="176.79" y2="164.99" gradientUnits="userSpaceOnUse">
<stop stop-color="#FFBB96"/>
<stop offset="0.2273" stop-color="#FFFBC9"/>
<stop offset="0.5404" stop-color="#F9B673"/>
<stop offset="0.6391" stop-color="#F9B876"/>
<stop offset="0.7249" stop-color="#FABE81"/>
<stop offset="0.8057" stop-color="#FCC993"/>
<stop offset="0.8586" stop-color="#FED2A3"/>
<stop offset="0.9697" stop-color="#FFC28C"/>
</linearGradient>
<linearGradient id="paint89_linear_37_8678" x1="172.15" y1="158.741" x2="196.952" y2="158.741" gradientUnits="userSpaceOnUse">
<stop stop-color="#FFBB96"/>
<stop offset="0.2273" stop-color="#FFFBC9"/>
<stop offset="0.5404" stop-color="#F9B673"/>
<stop offset="0.6391" stop-color="#F9B876"/>
<stop offset="0.7249" stop-color="#FABE81"/>
<stop offset="0.8057" stop-color="#FCC993"/>
<stop offset="0.8586" stop-color="#FED2A3"/>
<stop offset="0.9697" stop-color="#FFC28C"/>
</linearGradient>
<linearGradient id="paint90_linear_37_8678" x1="159.47" y1="178.753" x2="188.336" y2="153.898" gradientUnits="userSpaceOnUse">
<stop offset="0.0354" stop-color="#FFBA78"/>
<stop offset="0.395" stop-color="#FFC987"/>
<stop offset="1" stop-color="#FEECA8"/>
</linearGradient>
</defs>
</svg>
